0
SECTION
2
ENTITIES
0
TEXT
8
TITLE
62
7
10
106.500
20
302.000
40
4.500
1
Integrated Ediacaran Stratigraphy ? Eastern Gondwana Margin
0
POLYLINE
8
HEADER
62
8
66
1
70
1
0
VERTEX
8
HEADER
10
8.000
20
276.000
0
VERTEX
8
HEADER
10
205.000
20
276.000
0
VERTEX
8
HEADER
10
205.000
20
290.000
0
VERTEX
8
HEADER
10
8.000
20
290.000
0
SEQEND
0
TEXT
8
HEADER
62
7
10
14.500
20
283.000
40
2.800
1
Era
0
TEXT
8
HEADER
62
7
10
27.500
20
283.000
40
2.800
1
Sys
0
TEXT
8
HEADER
62
7
10
40.500
20
283.000
40
2.800
1
Ser
0
TEXT
8
HEADER
62
7
10
56.000
20
283.000
40
2.800
1
Fm
0
TEXT
8
HEADER
62
7
10
71.000
20
283.000
40
2.800
1
Sym
0
TEXT
8
HEADER
62
7
10
80.500
20
283.000
40
2.800
1
Fossils
0
TEXT
8
HEADER
62
7
10
104.000
20
283.000
40
2.800
1
Lithology
0
TEXT
8
HEADER
62
7
10
131.500
20
283.000
40
2.800
1
Grain
0
TEXT
8
HEADER
62
7
10
142.500
20
283.000
40
2.800
1
Struc
0
TEXT
8
HEADER
62
7
10
151.000
20
283.000
40
2.800
1
Thick(m)
0
TEXT
8
HEADER
62
7
10
188.500
20
283.000
40
2.800
1
Description
0
LINE
8
GRID
62
8
10
21.000
20
22.000
11
21.000
21
290.000
0
LINE
8
GRID
62
8
10
34.000
20
22.000
11
34.000
21
290.000
0
LINE
8
GRID
62
8
10
47.000
20
22.000
11
47.000
21
290.000
0
LINE
8
GRID
62
8
10
65.000
20
22.000
11
65.000
21
290.000
0
LINE
8
GRID
62
8
10
77.000
20
22.000
11
77.000
21
290.000
0
LINE
8
GRID
62
8
10
84.000
20
22.000
11
84.000
21
290.000
0
LINE
8
GRID
62
8
10
124.000
20
22.000
11
124.000
21
290.000
0
LINE
8
GRID
62
8
10
139.000
20
22.000
11
139.000
21
290.000
0
LINE
8
GRID
62
8
10
146.000
20
22.000
11
146.000
21
290.000
0
LINE
8
GRID
62
8
10
156.000
20
22.000
11
156.000
21
290.000
0
LINE
8
BORDER
62
7
10
8.000
20
22.000
11
8.000
21
290.000
0
LINE
8
BORDER
62
7
10
205.000
20
22.000
11
205.000
21
290.000
0
LINE
8
BORDER
62
7
10
8.000
20
290.000
11
205.000
21
290.000
0
LINE
8
BORDER
62
7
10
8.000
20
22.000
11
205.000
21
22.000
0
POLYLINE
8
LITHOLOGY
62
1
66
1
70
1
0
VERTEX
8
LITHOLOGY
10
84.300
20
253.422
0
VERTEX
8
LITHOLOGY
10
121.800
20
253.422
0
VERTEX
8
LITHOLOGY
10
121.800
20
276.000
0
VERTEX
8
LITHOLOGY
10
84.300
20
276.000
0
SEQEND
0
CIRCLE
8
PATTERN
62
8
10
115.277
20
270.019
40
0.300
0
CIRCLE
8
PATTERN
62
8
10
100.230
20
259.750
40
0.300
0
CIRCLE
8
PATTERN
62
8
10
103.450
20
262.755
40
0.300
0
CIRCLE
8
PATTERN
62
8
10
113.125
20
260.664
40
0.300
0
CIRCLE
8
PATTERN
62
8
10
102.219
20
266.427
40
0.300
0
CIRCLE
8
PATTERN
62
8
10
117.538
20
264.808
40
0.300
0
CIRCLE
8
PATTERN
62
8
10
95.305
20
269.975
40
0.300
0
CIRCLE
8
PATTERN
62
8
10
107.252
20
259.577
40
0.300
0
CIRCLE
8
PATTERN
62
8
10
117.596
20
274.646
40
0.300
0
CIRCLE
8
PATTERN
62
8
10
114.063
20
272.987
40
0.300
0
CIRCLE
8
PATTERN
62
8
10
96.310
20
269.441
40
0.300
0
CIRCLE
8
PATTERN
62
8
10
117.209
20
268.497
40
0.300
0
CIRCLE
8
PATTERN
62
8
10
102.061
20
256.494
40
0.300
0
CIRCLE
8
PATTERN
62
8
10
100.713
20
266.993
40
0.300
0
CIRCLE
8
PATTERN
62
8
10
117.712
20
274.313
40
0.300
0
CIRCLE
8
PATTERN
62
8
10
102.234
20
272.228
40
0.300
0
CIRCLE
8
PATTERN
62
8
10
94.547
20
270.988
40
0.300
0
CIRCLE
8
PATTERN
62
8
10
104.779
20
254.711
40
0.300
0
CIRCLE
8
PATTERN
62
8
10
110.850
20
262.629
40
0.300
0
CIRCLE
8
PATTERN
62
8
10
114.582
20
268.171
40
0.300
0
CIRCLE
8
PATTERN
62
8
10
85.341
20
264.579
40
0.300
0
CIRCLE
8
PATTERN
62
8
10
116.100
20
259.441
40
0.300
0
CIRCLE
8
PATTERN
62
8
10
96.845
20
272.335
40
0.300
0
CIRCLE
8
PATTERN
62
8
10
92.083
20
266.100
40
0.300
0
CIRCLE
8
PATTERN
62
8
10
93.771
20
274.332
40
0.300
0
CIRCLE
8
PATTERN
62
8
10
113.813
20
263.640
40
0.300
0
CIRCLE
8
PATTERN
62
8
10
88.156
20
261.008
40
0.300
0
CIRCLE
8
PATTERN
62
8
10
103.332
20
273.618
40
0.300
0
CIRCLE
8
PATTERN
62
8
10
89.172
20
265.766
40
0.300
0
CIRCLE
8
PATTERN
62
8
10
110.383
20
265.687
40
0.300
0
CIRCLE
8
PATTERN
62
8
10
114.214
20
265.540
40
0.300
0
CIRCLE
8
PATTERN
62
8
10
119.516
20
266.834
40
0.300
0
CIRCLE
8
PATTERN
62
8
10
106.160
20
263.579
40
0.300
0
CIRCLE
8
PATTERN
62
8
10
106.468
20
262.343
40
0.300
0
CIRCLE
8
PATTERN
62
8
10
105.736
20
260.397
40
0.300
0
CIRCLE
8
PATTERN
62
8
10
92.023
20
258.265
40
0.300
0
CIRCLE
8
PATTERN
62
8
10
107.053
20
267.935
40
0.300
0
CIRCLE
8
PATTERN
62
8
10
102.217
20
256.271
40
0.300
0
CIRCLE
8
PATTERN
62
8
10
112.195
20
272.464
40
0.300
0
CIRCLE
8
PATTERN
62
8
10
118.080
20
271.758
40
0.300
0
CIRCLE
8
PATTERN
62
8
10
117.185
20
273.417
40
0.300
0
CIRCLE
8
PATTERN
62
8
10
104.491
20
262.474
40
0.300
0
CIRCLE
8
PATTERN
62
8
10
110.338
20
260.094
40
0.300
0
CIRCLE
8
PATTERN
62
8
10
114.113
20
271.903
40
0.300
0
CIRCLE
8
PATTERN
62
8
10
117.074
20
266.559
40
0.300
0
CIRCLE
8
PATTERN
62
8
10
119.017
20
266.351
40
0.300
0
CIRCLE
8
PATTERN
62
8
10
101.295
20
268.009
40
0.300
0
CIRCLE
8
PATTERN
62
8
10
120.667
20
273.291
40
0.300
0
CIRCLE
8
PATTERN
62
8
10
113.463
20
256.117
40
0.300
0
CIRCLE
8
PATTERN
62
8
10
107.054
20
264.432
40
0.300
0
CIRCLE
8
PATTERN
62
8
10
107.670
20
271.812
40
0.300
0
CIRCLE
8
PATTERN
62
8
10
93.928
20
269.475
40
0.300
0
CIRCLE
8
PATTERN
62
8
10
89.458
20
258.959
40
0.300
0
CIRCLE
8
PATTERN
62
8
10
113.508
20
261.265
40
0.300
0
CIRCLE
8
PATTERN
62
8
10
114.265
20
256.493
40
0.300
0
CIRCLE
8
PATTERN
62
8
10
90.496
20
268.779
40
0.300
0
CIRCLE
8
PATTERN
62
8
10
86.906
20
266.231
40
0.300
0
CIRCLE
8
PATTERN
62
8
10
117.606
20
265.415
40
0.300
0
CIRCLE
8
PATTERN
62
8
10
109.461
20
254.972
40
0.300
0
CIRCLE
8
PATTERN
62
8
10
107.842
20
266.899
40
0.300
0
CIRCLE
8
PATTERN
62
8
10
105.746
20
262.472
40
0.300
0
CIRCLE
8
PATTERN
62
8
10
98.440
20
274.599
40
0.300
0
CIRCLE
8
PATTERN
62
8
10
86.592
20
254.867
40
0.300
0
CIRCLE
8
PATTERN
62
8
10
119.417
20
258.229
40
0.300
0
CIRCLE
8
PATTERN
62
8
10
89.698
20
258.755
40
0.300
0
CIRCLE
8
PATTERN
62
8
10
113.727
20
273.703
40
0.300
0
CIRCLE
8
PATTERN
62
8
10
86.109
20
263.181
40
0.300
0
CIRCLE
8
PATTERN
62
8
10
88.903
20
259.771
40
0.300
0
CIRCLE
8
PATTERN
62
8
10
93.139
20
267.735
40
0.300
0
CIRCLE
8
PATTERN
62
8
10
97.735
20
258.133
40
0.300
0
CIRCLE
8
PATTERN
62
8
10
103.179
20
255.233
40
0.300
0
CIRCLE
8
PATTERN
62
8
10
88.883
20
274.758
40
0.300
0
CIRCLE
8
PATTERN
62
8
10
92.377
20
261.800
40
0.300
0
CIRCLE
8
PATTERN
62
8
10
111.272
20
271.673
40
0.300
0
CIRCLE
8
PATTERN
62
8
10
117.906
20
257.909
40
0.300
0
CIRCLE
8
PATTERN
62
8
10
109.179
20
274.312
40
0.300
0
CIRCLE
8
PATTERN
62
8
10
87.361
20
268.337
40
0.300
0
CIRCLE
8
PATTERN
62
8
10
115.313
20
261.466
40
0.300
0
CIRCLE
8
PATTERN
62
8
10
94.199
20
266.703
40
0.300
0
CIRCLE
8
PATTERN
62
8
10
101.002
20
258.020
40
0.300
0
CIRCLE
8
PATTERN
62
8
10
102.043
20
262.857
40
0.300
0
CIRCLE
8
PATTERN
62
8
10
105.504
20
264.888
40
0.300
0
CIRCLE
8
PATTERN
62
8
10
96.356
20
261.772
40
0.300
0
CIRCLE
8
PATTERN
62
8
10
115.037
20
259.586
40
0.300
0
CIRCLE
8
PATTERN
62
8
10
105.201
20
254.678
40
0.300
0
CIRCLE
8
PATTERN
62
8
10
111.626
20
261.335
40
0.300
0
CIRCLE
8
PATTERN
62
8
10
86.922
20
260.202
40
0.300
0
CIRCLE
8
PATTERN
62
8
10
93.825
20
274.036
40
0.300
0
CIRCLE
8
PATTERN
62
8
10
97.804
20
260.346
40
0.300
0
CIRCLE
8
PATTERN
62
8
10
98.052
20
273.907
40
0.300
0
CIRCLE
8
PATTERN
62
8
10
107.798
20
267.203
40
0.300
0
CIRCLE
8
PATTERN
62
8
10
110.704
20
262.407
40
0.300
0
CIRCLE
8
PATTERN
62
8
10
100.012
20
267.815
40
0.300
0
CIRCLE
8
PATTERN
62
8
10
85.354
20
258.380
40
0.300
0
CIRCLE
8
PATTERN
62
8
10
97.171
20
259.349
40
0.300
0
CIRCLE
8
PATTERN
62
8
10
107.928
20
262.214
40
0.300
0
CIRCLE
8
PATTERN
62
8
10
116.378
20
266.114
40
0.300
0
CIRCLE
8
PATTERN
62
8
10
100.011
20
262.700
40
0.300
0
CIRCLE
8
PATTERN
62
8
10
110.215
20
263.028
40
0.300
0
CIRCLE
8
PATTERN
62
8
10
108.808
20
255.385
40
0.300
0
CIRCLE
8
PATTERN
62
8
10
101.110
20
259.757
40
0.300
0
CIRCLE
8
PATTERN
62
8
10
90.898
20
265.279
40
0.300
0
CIRCLE
8
PATTERN
62
8
10
102.598
20
265.975
40
0.300
0
CIRCLE
8
PATTERN
62
8
10
112.120
20
272.610
40
0.300
0
CIRCLE
8
PATTERN
62
8
10
102.858
20
260.844
40
0.300
0
TEXT
8
TEXT
62
7
10
48.000
20
264.711
40
2.200
1
Uratanna Fm
0
TEXT
8
TEXT
62
7
10
66.000
20
264.711
40
2.200
1
??u
0
TEXT
8
TEXT
62
7
10
147.000
20
264.711
40
2.200
1
120.0
0
TEXT
8
TEXT
62
7
10
157.000
20
264.711
40
2.000
1
Feldspathic sandstone with Skolithos
0
LINE
8
GRID
62
8
10
8.000
20
276.000
11
205.000
21
276.000
0
POLYLINE
8
LITHOLOGY
62
1
66
1
70
1
0
VERTEX
8
LITHOLOGY
10
84.300
20
219.556
0
VERTEX
8
LITHOLOGY
10
121.800
20
219.556
0
VERTEX
8
LITHOLOGY
10
121.800
20
253.422
0
VERTEX
8
LITHOLOGY
10
84.300
20
253.422
0
SEQEND
0
CIRCLE
8
PATTERN
62
8
10
90.471
20
235.053
40
0.300
0
CIRCLE
8
PATTERN
62
8
10
112.663
20
243.038
40
0.300
0
CIRCLE
8
PATTERN
62
8
10
111.285
20
234.370
40
0.300
0
CIRCLE
8
PATTERN
62
8
10
113.701
20
237.537
40
0.300
0
CIRCLE
8
PATTERN
62
8
10
88.145
20
235.085
40
0.300
0
CIRCLE
8
PATTERN
62
8
10
87.000
20
250.286
40
0.300
0
CIRCLE
8
PATTERN
62
8
10
118.921
20
231.242
40
0.300
0
CIRCLE
8
PATTERN
62
8
10
96.284
20
245.030
40
0.300
0
CIRCLE
8
PATTERN
62
8
10
92.537
20
226.243
40
0.300
0
CIRCLE
8
PATTERN
62
8
10
91.995
20
231.613
40
0.300
0
CIRCLE
8
PATTERN
62
8
10
107.534
20
251.253
40
0.300
0
CIRCLE
8
PATTERN
62
8
10
92.785
20
251.023
40
0.300
0
CIRCLE
8
PATTERN
62
8
10
105.017
20
249.272
40
0.300
0
CIRCLE
8
PATTERN
62
8
10
114.340
20
225.668
40
0.300
0
CIRCLE
8
PATTERN
62
8
10
108.323
20
224.510
40
0.300
0
CIRCLE
8
PATTERN
62
8
10
85.500
20
233.159
40
0.300
0
CIRCLE
8
PATTERN
62
8
10
112.759
20
238.597
40
0.300
0
CIRCLE
8
PATTERN
62
8
10
92.139
20
247.361
40
0.300
0
CIRCLE
8
PATTERN
62
8
10
117.739
20
228.115
40
0.300
0
CIRCLE
8
PATTERN
62
8
10
101.211
20
240.880
40
0.300
0
CIRCLE
8
PATTERN
62
8
10
117.333
20
224.590
40
0.300
0
CIRCLE
8
PATTERN
62
8
10
104.965
20
251.419
40
0.300
0
CIRCLE
8
PATTERN
62
8
10
106.923
20
243.414
40
0.300
0
CIRCLE
8
PATTERN
62
8
10
112.811
20
236.716
40
0.300
0
CIRCLE
8
PATTERN
62
8
10
95.590
20
239.369
40
0.300
0
CIRCLE
8
PATTERN
62
8
10
104.050
20
231.494
40
0.300
0
CIRCLE
8
PATTERN
62
8
10
115.623
20
232.123
40
0.300
0
CIRCLE
8
PATTERN
62
8
10
102.467
20
244.822
40
0.300
0
CIRCLE
8
PATTERN
62
8
10
114.191
20
248.931
40
0.300
0
CIRCLE
8
PATTERN
62
8
10
108.428
20
228.603
40
0.300
0
CIRCLE
8
PATTERN
62
8
10
115.382
20
249.532
40
0.300
0
CIRCLE
8
PATTERN
62
8
10
110.673
20
244.996
40
0.300
0
CIRCLE
8
PATTERN
62
8
10
103.532
20
236.281
40
0.300
0
CIRCLE
8
PATTERN
62
8
10
105.985
20
225.246
40
0.300
0
CIRCLE
8
PATTERN
62
8
10
109.297
20
248.004
40
0.300
0
CIRCLE
8
PATTERN
62
8
10
91.147
20
244.579
40
0.300
0
CIRCLE
8
PATTERN
62
8
10
110.369
20
224.412
40
0.300
0
CIRCLE
8
PATTERN
62
8
10
87.101
20
239.528
40
0.300
0
CIRCLE
8
PATTERN
62
8
10
93.080
20
230.430
40
0.300
0
CIRCLE
8
PATTERN
62
8
10
107.352
20
241.295
40
0.300
0
CIRCLE
8
PATTERN
62
8
10
111.881
20
238.663
40
0.300
0
CIRCLE
8
PATTERN
62
8
10
97.148
20
220.955
40
0.300
0
CIRCLE
8
PATTERN
62
8
10
89.348
20
226.700
40
0.300
0
CIRCLE
8
PATTERN
62
8
10
103.948
20
243.503
40
0.300
0
CIRCLE
8
PATTERN
62
8
10
92.725
20
232.979
40
0.300
0
CIRCLE
8
PATTERN
62
8
10
118.543
20
233.322
40
0.300
0
CIRCLE
8
PATTERN
62
8
10
110.619
20
240.265
40
0.300
0
CIRCLE
8
PATTERN
62
8
10
108.721
20
235.747
40
0.300
0
CIRCLE
8
PATTERN
62
8
10
104.651
20
242.889
40
0.300
0
CIRCLE
8
PATTERN
62
8
10
91.020
20
246.009
40
0.300
0
CIRCLE
8
PATTERN
62
8
10
116.287
20
222.056
40
0.300
0
CIRCLE
8
PATTERN
62
8
10
92.333
20
228.484
40
0.300
0
CIRCLE
8
PATTERN
62
8
10
88.649
20
225.016
40
0.300
0
CIRCLE
8
PATTERN
62
8
10
108.071
20
224.475
40
0.300
0
CIRCLE
8
PATTERN
62
8
10
87.671
20
250.696
40
0.300
0
CIRCLE
8
PATTERN
62
8
10
99.572
20
237.780
40
0.300
0
CIRCLE
8
PATTERN
62
8
10
102.131
20
231.507
40
0.300
0
CIRCLE
8
PATTERN
62
8
10
101.425
20
226.744
40
0.300
0
CIRCLE
8
PATTERN
62
8
10
105.881
20
228.561
40
0.300
0
CIRCLE
8
PATTERN
62
8
10
90.459
20
227.206
40
0.300
0
CIRCLE
8
PATTERN
62
8
10
99.952
20
250.203
40
0.300
0
CIRCLE
8
PATTERN
62
8
10
106.525
20
251.809
40
0.300
0
CIRCLE
8
PATTERN
62
8
10
99.528
20
228.856
40
0.300
0
CIRCLE
8
PATTERN
62
8
10
110.529
20
226.625
40
0.300
0
CIRCLE
8
PATTERN
62
8
10
120.731
20
233.001
40
0.300
0
CIRCLE
8
PATTERN
62
8
10
94.935
20
229.200
40
0.300
0
CIRCLE
8
PATTERN
62
8
10
96.109
20
250.405
40
0.300
0
CIRCLE
8
PATTERN
62
8
10
120.522
20
238.350
40
0.300
0
CIRCLE
8
PATTERN
62
8
10
93.535
20
220.866
40
0.300
0
CIRCLE
8
PATTERN
62
8
10
88.140
20
230.051
40
0.300
0
CIRCLE
8
PATTERN
62
8
10
108.118
20
240.516
40
0.300
0
CIRCLE
8
PATTERN
62
8
10
115.593
20
246.720
40
0.300
0
CIRCLE
8
PATTERN
62
8
10
97.818
20
242.028
40
0.300
0
CIRCLE
8
PATTERN
62
8
10
101.074
20
243.761
40
0.300
0
CIRCLE
8
PATTERN
62
8
10
91.842
20
251.674
40
0.300
0
CIRCLE
8
PATTERN
62
8
10
86.111
20
240.238
40
0.300
0
CIRCLE
8
PATTERN
62
8
10
97.813
20
246.073
40
0.300
0
CIRCLE
8
PATTERN
62
8
10
90.400
20
248.946
40
0.300
0
CIRCLE
8
PATTERN
62
8
10
85.414
20
243.984
40
0.300
0
CIRCLE
8
PATTERN
62
8
10
110.273
20
236.723
40
0.300
0
CIRCLE
8
PATTERN
62
8
10
91.494
20
232.733
40
0.300
0
CIRCLE
8
PATTERN
62
8
10
101.156
20
227.330
40
0.300
0
CIRCLE
8
PATTERN
62
8
10
91.015
20
247.402
40
0.300
0
CIRCLE
8
PATTERN
62
8
10
104.811
20
229.185
40
0.300
0
CIRCLE
8
PATTERN
62
8
10
107.502
20
240.726
40
0.300
0
CIRCLE
8
PATTERN
62
8
10
90.130
20
239.185
40
0.300
0
CIRCLE
8
PATTERN
62
8
10
106.046
20
224.094
40
0.300
0
CIRCLE
8
PATTERN
62
8
10
95.978
20
248.063
40
0.300
0
CIRCLE
8
PATTERN
62
8
10
105.856
20
227.665
40
0.300
0
CIRCLE
8
PATTERN
62
8
10
99.270
20
235.163
40
0.300
0
CIRCLE
8
PATTERN
62
8
10
110.443
20
247.985
40
0.300
0
CIRCLE
8
PATTERN
62
8
10
88.404
20
222.043
40
0.300
0
CIRCLE
8
PATTERN
62
8
10
100.974
20
221.192
40
0.300
0
CIRCLE
8
PATTERN
62
8
10
90.778
20
223.940
40
0.300
0
CIRCLE
8
PATTERN
62
8
10
88.442
20
240.482
40
0.300
0
CIRCLE
8
PATTERN
62
8
10
88.689
20
238.613
40
0.300
0
CIRCLE
8
PATTERN
62
8
10
119.598
20
225.032
40
0.300
0
CIRCLE
8
PATTERN
62
8
10
112.244
20
239.172
40
0.300
0
CIRCLE
8
PATTERN
62
8
10
91.342
20
250.824
40
0.300
0
CIRCLE
8
PATTERN
62
8
10
111.453
20
232.646
40
0.300
0
CIRCLE
8
PATTERN
62
8
10
116.838
20
223.874
40
0.300
0
CIRCLE
8
PATTERN
62
8
10
114.897
20
247.402
40
0.300
0
CIRCLE
8
PATTERN
62
8
10
89.418
20
249.725
40
0.300
0
CIRCLE
8
PATTERN
62
8
10
113.133
20
249.702
40
0.300
0
CIRCLE
8
PATTERN
62
8
10
95.294
20
244.086
40
0.300
0
CIRCLE
8
PATTERN
62
8
10
112.979
20
231.655
40
0.300
0
CIRCLE
8
PATTERN
62
8
10
86.543
20
221.008
40
0.300
0
CIRCLE
8
PATTERN
62
8
10
103.285
20
238.019
40
0.300
0
CIRCLE
8
PATTERN
62
8
10
89.738
20
240.662
40
0.300
0
CIRCLE
8
PATTERN
62
8
10
87.150
20
235.790
40
0.300
0
CIRCLE
8
PATTERN
62
8
10
103.427
20
227.042
40
0.300
0
CIRCLE
8
PATTERN
62
8
10
86.987
20
249.332
40
0.300
0
CIRCLE
8
PATTERN
62
8
10
115.562
20
239.297
40
0.300
0
CIRCLE
8
PATTERN
62
8
10
86.342
20
237.296
40
0.300
0
CIRCLE
8
PATTERN
62
8
10
119.486
20
244.999
40
0.300
0
CIRCLE
8
PATTERN
62
8
10
109.742
20
221.817
40
0.300
0
CIRCLE
8
PATTERN
62
8
10
105.831
20
227.970
40
0.300
0
CIRCLE
8
PATTERN
62
8
10
120.321
20
220.904
40
0.300
0
CIRCLE
8
PATTERN
62
8
10
93.207
20
248.597
40
0.300
0
CIRCLE
8
PATTERN
62
8
10
89.564
20
230.117
40
0.300
0
CIRCLE
8
PATTERN
62
8
10
96.177
20
248.651
40
0.300
0
CIRCLE
8
PATTERN
62
8
10
110.016
20
250.317
40
0.300
0
CIRCLE
8
PATTERN
62
8
10
92.116
20
223.368
40
0.300
0
CIRCLE
8
PATTERN
62
8
10
97.486
20
244.969
40
0.300
0
CIRCLE
8
PATTERN
62
8
10
107.278
20
250.355
40
0.300
0
CIRCLE
8
PATTERN
62
8
10
110.607
20
223.165
40
0.300
0
CIRCLE
8
PATTERN
62
8
10
96.486
20
227.047
40
0.300
0
CIRCLE
8
PATTERN
62
8
10
94.804
20
241.796
40
0.300
0
CIRCLE
8
PATTERN
62
8
10
101.050
20
244.665
40
0.300
0
CIRCLE
8
PATTERN
62
8
10
85.866
20
249.515
40
0.300
0
CIRCLE
8
PATTERN
62
8
10
91.061
20
244.222
40
0.300
0
CIRCLE
8
PATTERN
62
8
10
115.275
20
221.899
40
0.300
0
CIRCLE
8
PATTERN
62
8
10
104.554
20
251.627
40
0.300
0
CIRCLE
8
PATTERN
62
8
10
85.560
20
236.399
40
0.300
0
CIRCLE
8
PATTERN
62
8
10
100.398
20
232.713
40
0.300
0
CIRCLE
8
PATTERN
62
8
10
92.201
20
226.303
40
0.300
0
CIRCLE
8
PATTERN
62
8
10
94.742
20
227.487
40
0.300
0
CIRCLE
8
PATTERN
62
8
10
95.734
20
249.294
40
0.300
0
CIRCLE
8
PATTERN
62
8
10
118.990
20
228.835
40
0.300
0
CIRCLE
8
PATTERN
62
8
10
86.277
20
229.036
40
0.300
0
CIRCLE
8
PATTERN
62
8
10
115.709
20
226.165
40
0.300
0
CIRCLE
8
PATTERN
62
8
10
108.801
20
223.514
40
0.300
0
CIRCLE
8
PATTERN
62
8
10
97.811
20
225.957
40
0.300
0
CIRCLE
8
PATTERN
62
8
10
107.184
20
232.354
40
0.300
0
CIRCLE
8
PATTERN
62
8
10
112.771
20
237.068
40
0.300
0
CIRCLE
8
PATTERN
62
8
10
99.634
20
221.240
40
0.300
0
CIRCLE
8
PATTERN
62
8
10
115.071
20
221.800
40
0.300
0
CIRCLE
8
PATTERN
62
8
10
103.011
20
252.035
40
0.300
0
CIRCLE
8
PATTERN
62
8
10
113.366
20
231.885
40
0.300
0
CIRCLE
8
PATTERN
62
8
10
118.309
20
228.785
40
0.300
0
CIRCLE
8
PATTERN
62
8
10
105.945
20
238.889
40
0.300
0
CIRCLE
8
PATTERN
62
8
10
110.894
20
229.752
40
0.300
0
CIRCLE
8
PATTERN
62
8
10
99.417
20
230.898
40
0.300
0
CIRCLE
8
PATTERN
62
8
10
117.915
20
244.071
40
0.300
0
CIRCLE
8
PATTERN
62
8
10
97.367
20
245.214
40
0.300
0
CIRCLE
8
PATTERN
62
8
10
107.229
20
228.423
40
0.300
0
CIRCLE
8
PATTERN
62
8
10
103.018
20
223.666
40
0.300
0
CIRCLE
8
PATTERN
62
8
10
92.805
20
223.010
40
0.300
0
TEXT
8
TEXT
62
7
10
48.000
20
236.489
40
2.200
1
Pound Ss
0
TEXT
8
TEXT
62
7
10
66.000
20
236.489
40
2.200
1
Z?p
0
TEXT
8
TEXT
62
7
10
147.000
20
236.489
40
2.200
1
180.0
0
TEXT
8
TEXT
62
7
10
157.000
20
236.489
40
2.000
1
Quartzite to arkosic sandstone with Ediacara Biota
0
LINE
8
GRID
62
8
10
8.000
20
253.422
11
205.000
21
253.422
0
POLYLINE
8
LITHOLOGY
62
1
66
1
70
1
0
VERTEX
8
LITHOLOGY
10
84.300
20
201.681
0
VERTEX
8
LITHOLOGY
10
121.800
20
201.681
0
VERTEX
8
LITHOLOGY
10
121.800
20
219.556
0
VERTEX
8
LITHOLOGY
10
84.300
20
219.556
0
SEQEND
0
CIRCLE
8
PATTERN
62
8
10
86.919
20
205.911
40
0.300
0
CIRCLE
8
PATTERN
62
8
10
110.474
20
204.949
40
0.300
0
CIRCLE
8
PATTERN
62
8
10
115.830
20
206.915
40
0.300
0
CIRCLE
8
PATTERN
62
8
10
85.707
20
209.666
40
0.300
0
CIRCLE
8
PATTERN
62
8
10
91.236
20
202.939
40
0.300
0
CIRCLE
8
PATTERN
62
8
10
95.174
20
209.980
40
0.300
0
CIRCLE
8
PATTERN
62
8
10
92.146
20
216.219
40
0.300
0
CIRCLE
8
PATTERN
62
8
10
95.951
20
213.806
40
0.300
0
CIRCLE
8
PATTERN
62
8
10
97.759
20
204.284
40
0.300
0
CIRCLE
8
PATTERN
62
8
10
100.728
20
213.566
40
0.300
0
CIRCLE
8
PATTERN
62
8
10
102.589
20
212.876
40
0.300
0
CIRCLE
8
PATTERN
62
8
10
89.622
20
204.902
40
0.300
0
CIRCLE
8
PATTERN
62
8
10
89.920
20
210.486
40
0.300
0
CIRCLE
8
PATTERN
62
8
10
115.865
20
208.764
40
0.300
0
CIRCLE
8
PATTERN
62
8
10
114.420
20
204.447
40
0.300
0
CIRCLE
8
PATTERN
62
8
10
93.301
20
213.369
40
0.300
0
CIRCLE
8
PATTERN
62
8
10
113.188
20
215.280
40
0.300
0
CIRCLE
8
PATTERN
62
8
10
90.471
20
211.277
40
0.300
0
CIRCLE
8
PATTERN
62
8
10
93.731
20
214.577
40
0.300
0
CIRCLE
8
PATTERN
62
8
10
105.893
20
213.611
40
0.300
0
CIRCLE
8
PATTERN
62
8
10
113.123
20
218.334
40
0.300
0
CIRCLE
8
PATTERN
62
8
10
101.852
20
218.473
40
0.300
0
CIRCLE
8
PATTERN
62
8
10
95.587
20
216.674
40
0.300
0
CIRCLE
8
PATTERN
62
8
10
89.050
20
214.053
40
0.300
0
CIRCLE
8
PATTERN
62
8
10
117.135
20
211.493
40
0.300
0
CIRCLE
8
PATTERN
62
8
10
98.118
20
215.788
40
0.300
0
CIRCLE
8
PATTERN
62
8
10
114.209
20
214.024
40
0.300
0
CIRCLE
8
PATTERN
62
8
10
97.549
20
210.860
40
0.300
0
CIRCLE
8
PATTERN
62
8
10
85.369
20
211.079
40
0.300
0
CIRCLE
8
PATTERN
62
8
10
96.226
20
213.402
40
0.300
0
CIRCLE
8
PATTERN
62
8
10
85.997
20
209.792
40
0.300
0
CIRCLE
8
PATTERN
62
8
10
89.481
20
208.167
40
0.300
0
CIRCLE
8
PATTERN
62
8
10
120.047
20
214.734
40
0.300
0
CIRCLE
8
PATTERN
62
8
10
108.194
20
208.448
40
0.300
0
CIRCLE
8
PATTERN
62
8
10
88.811
20
203.173
40
0.300
0
CIRCLE
8
PATTERN
62
8
10
104.675
20
218.312
40
0.300
0
CIRCLE
8
PATTERN
62
8
10
111.414
20
206.046
40
0.300
0
CIRCLE
8
PATTERN
62
8
10
119.799
20
206.258
40
0.300
0
CIRCLE
8
PATTERN
62
8
10
86.947
20
210.760
40
0.300
0
CIRCLE
8
PATTERN
62
8
10
101.230
20
203.771
40
0.300
0
CIRCLE
8
PATTERN
62
8
10
117.955
20
207.310
40
0.300
0
CIRCLE
8
PATTERN
62
8
10
99.235
20
203.312
40
0.300
0
CIRCLE
8
PATTERN
62
8
10
85.782
20
217.740
40
0.300
0
CIRCLE
8
PATTERN
62
8
10
119.566
20
212.567
40
0.300
0
CIRCLE
8
PATTERN
62
8
10
87.060
20
204.961
40
0.300
0
CIRCLE
8
PATTERN
62
8
10
90.169
20
202.861
40
0.300
0
CIRCLE
8
PATTERN
62
8
10
113.579
20
209.896
40
0.300
0
CIRCLE
8
PATTERN
62
8
10
86.352
20
206.897
40
0.300
0
CIRCLE
8
PATTERN
62
8
10
101.616
20
210.914
40
0.300
0
CIRCLE
8
PATTERN
62
8
10
103.714
20
204.805
40
0.300
0
CIRCLE
8
PATTERN
62
8
10
113.690
20
204.236
40
0.300
0
CIRCLE
8
PATTERN
62
8
10
100.998
20
214.256
40
0.300
0
CIRCLE
8
PATTERN
62
8
10
89.092
20
203.015
40
0.300
0
CIRCLE
8
PATTERN
62
8
10
120.390
20
213.681
40
0.300
0
CIRCLE
8
PATTERN
62
8
10
92.112
20
213.160
40
0.300
0
CIRCLE
8
PATTERN
62
8
10
88.903
20
215.802
40
0.300
0
CIRCLE
8
PATTERN
62
8
10
86.694
20
204.431
40
0.300
0
CIRCLE
8
PATTERN
62
8
10
93.193
20
212.620
40
0.300
0
CIRCLE
8
PATTERN
62
8
10
116.173
20
206.545
40
0.300
0
CIRCLE
8
PATTERN
62
8
10
112.794
20
209.228
40
0.300
0
CIRCLE
8
PATTERN
62
8
10
101.567
20
213.424
40
0.300
0
CIRCLE
8
PATTERN
62
8
10
93.795
20
213.925
40
0.300
0
CIRCLE
8
PATTERN
62
8
10
97.522
20
205.192
40
0.300
0
CIRCLE
8
PATTERN
62
8
10
108.075
20
210.819
40
0.300
0
CIRCLE
8
PATTERN
62
8
10
86.732
20
217.679
40
0.300
0
CIRCLE
8
PATTERN
62
8
10
112.572
20
209.773
40
0.300
0
CIRCLE
8
PATTERN
62
8
10
113.489
20
214.837
40
0.300
0
CIRCLE
8
PATTERN
62
8
10
86.439
20
203.623
40
0.300
0
CIRCLE
8
PATTERN
62
8
10
102.704
20
209.395
40
0.300
0
CIRCLE
8
PATTERN
62
8
10
109.317
20
205.253
40
0.300
0
CIRCLE
8
PATTERN
62
8
10
90.232
20
208.706
40
0.300
0
CIRCLE
8
PATTERN
62
8
10
120.357
20
202.987
40
0.300
0
CIRCLE
8
PATTERN
62
8
10
119.161
20
212.099
40
0.300
0
CIRCLE
8
PATTERN
62
8
10
97.891
20
204.223
40
0.300
0
CIRCLE
8
PATTERN
62
8
10
100.939
20
209.577
40
0.300
0
CIRCLE
8
PATTERN
62
8
10
87.257
20
209.056
40
0.300
0
CIRCLE
8
PATTERN
62
8
10
118.131
20
217.849
40
0.300
0
CIRCLE
8
PATTERN
62
8
10
110.296
20
208.862
40
0.300
0
CIRCLE
8
PATTERN
62
8
10
115.966
20
203.330
40
0.300
0
CIRCLE
8
PATTERN
62
8
10
110.758
20
213.879
40
0.300
0
CIRCLE
8
PATTERN
62
8
10
90.550
20
208.491
40
0.300
0
CIRCLE
8
PATTERN
62
8
10
100.043
20
215.260
40
0.300
0
CIRCLE
8
PATTERN
62
8
10
106.293
20
206.495
40
0.300
0
TEXT
8
TEXT
62
7
10
48.000
20
210.619
40
2.200
1
Bonney Ss
0
TEXT
8
TEXT
62
7
10
66.000
20
210.619
40
2.200
1
Z?b
0
TEXT
8
TEXT
62
7
10
147.000
20
210.619
40
2.200
1
95.0
0
TEXT
8
TEXT
62
7
10
157.000
20
210.619
40
2.000
1
Fine-grained sandstone with ripple marks
0
LINE
8
GRID
62
8
10
8.000
20
219.556
11
205.000
21
219.556
0
POLYLINE
8
LITHOLOGY
62
6
66
1
70
1
0
VERTEX
8
LITHOLOGY
10
84.300
20
135.830
0
VERTEX
8
LITHOLOGY
10
121.800
20
135.830
0
VERTEX
8
LITHOLOGY
10
121.800
20
201.681
0
VERTEX
8
LITHOLOGY
10
84.300
20
201.681
0
SEQEND
0
TEXT
8
TEXT
62
7
10
48.000
20
168.756
40
2.200
1
Wonoka Fm
0
TEXT
8
TEXT
62
7
10
66.000
20
168.756
40
2.200
1
Z?w
0
TEXT
8
TEXT
62
7
10
147.000
20
168.756
40
2.200
1
350.0
0
TEXT
8
TEXT
62
7
10
157.000
20
168.756
40
2.000
1
Grey limestone with ???C excursion (~?8? Shuram)
0
LINE
8
GRID
62
8
10
8.000
20
201.681
11
205.000
21
201.681
0
POLYLINE
8
LITHOLOGY
62
1
66
1
70
1
0
VERTEX
8
LITHOLOGY
10
84.300
20
109.489
0
VERTEX
8
LITHOLOGY
10
121.800
20
109.489
0
VERTEX
8
LITHOLOGY
10
121.800
20
135.830
0
VERTEX
8
LITHOLOGY
10
84.300
20
135.830
0
SEQEND
0
TEXT
8
TEXT
62
7
10
48.000
20
122.659
40
2.200
1
Bunyeroo Fm
0
TEXT
8
TEXT
62
7
10
66.000
20
122.659
40
2.200
1
Z?b
0
TEXT
8
TEXT
62
7
10
147.000
20
122.659
40
2.200
1
140.0
0
TEXT
8
TEXT
62
7
10
157.000
20
122.659
40
2.000
1
Red-brown siltstone with carbonate concretions
0
LINE
8
GRID
62
8
10
8.000
20
135.830
11
205.000
21
135.830
0
POLYLINE
8
LITHOLOGY
62
2
66
1
70
1
0
VERTEX
8
LITHOLOGY
10
84.300
20
56.807
0
VERTEX
8
LITHOLOGY
10
121.800
20
56.807
0
VERTEX
8
LITHOLOGY
10
121.800
20
109.489
0
VERTEX
8
LITHOLOGY
10
84.300
20
109.489
0
SEQEND
0
CIRCLE
8
PATTERN
62
8
10
113.605
20
105.928
40
0.300
0
CIRCLE
8
PATTERN
62
8
10
105.830
20
70.763
40
0.300
0
CIRCLE
8
PATTERN
62
8
10
112.137
20
76.862
40
0.300
0
CIRCLE
8
PATTERN
62
8
10
113.748
20
75.005
40
0.300
0
CIRCLE
8
PATTERN
62
8
10
105.565
20
97.924
40
0.300
0
CIRCLE
8
PATTERN
62
8
10
85.943
20
74.550
40
0.300
0
CIRCLE
8
PATTERN
62
8
10
99.436
20
72.752
40
0.300
0
CIRCLE
8
PATTERN
62
8
10
117.930
20
61.315
40
0.300
0
CIRCLE
8
PATTERN
62
8
10
101.211
20
73.396
40
0.300
0
CIRCLE
8
PATTERN
62
8
10
90.049
20
63.720
40
0.300
0
CIRCLE
8
PATTERN
62
8
10
116.885
20
76.565
40
0.300
0
CIRCLE
8
PATTERN
62
8
10
118.010
20
76.744
40
0.300
0
CIRCLE
8
PATTERN
62
8
10
97.217
20
67.061
40
0.300
0
CIRCLE
8
PATTERN
62
8
10
88.143
20
58.192
40
0.300
0
CIRCLE
8
PATTERN
62
8
10
112.538
20
102.921
40
0.300
0
CIRCLE
8
PATTERN
62
8
10
118.741
20
94.368
40
0.300
0
CIRCLE
8
PATTERN
62
8
10
116.632
20
88.207
40
0.300
0
CIRCLE
8
PATTERN
62
8
10
102.249
20
105.814
40
0.300
0
CIRCLE
8
PATTERN
62
8
10
104.911
20
66.740
40
0.300
0
CIRCLE
8
PATTERN
62
8
10
105.666
20
102.091
40
0.300
0
CIRCLE
8
PATTERN
62
8
10
112.071
20
84.491
40
0.300
0
CIRCLE
8
PATTERN
62
8
10
111.428
20
71.851
40
0.300
0
CIRCLE
8
PATTERN
62
8
10
109.344
20
88.703
40
0.300
0
CIRCLE
8
PATTERN
62
8
10
87.454
20
105.695
40
0.300
0
CIRCLE
8
PATTERN
62
8
10
115.227
20
97.539
40
0.300
0
CIRCLE
8
PATTERN
62
8
10
94.754
20
97.255
40
0.300
0
CIRCLE
8
PATTERN
62
8
10
97.991
20
60.656
40
0.300
0
CIRCLE
8
PATTERN
62
8
10
117.305
20
93.717
40
0.300
0
CIRCLE
8
PATTERN
62
8
10
94.492
20
81.330
40
0.300
0
CIRCLE
8
PATTERN
62
8
10
91.808
20
102.771
40
0.300
0
CIRCLE
8
PATTERN
62
8
10
96.992
20
100.625
40
0.300
0
CIRCLE
8
PATTERN
62
8
10
100.191
20
87.121
40
0.300
0
CIRCLE
8
PATTERN
62
8
10
94.860
20
59.668
40
0.300
0
CIRCLE
8
PATTERN
62
8
10
86.341
20
66.648
40
0.300
0
CIRCLE
8
PATTERN
62
8
10
99.284
20
61.504
40
0.300
0
CIRCLE
8
PATTERN
62
8
10
102.217
20
70.024
40
0.300
0
CIRCLE
8
PATTERN
62
8
10
94.871
20
77.449
40
0.300
0
CIRCLE
8
PATTERN
62
8
10
95.446
20
81.176
40
0.300
0
CIRCLE
8
PATTERN
62
8
10
105.867
20
85.821
40
0.300
0
CIRCLE
8
PATTERN
62
8
10
85.453
20
65.170
40
0.300
0
CIRCLE
8
PATTERN
62
8
10
88.158
20
83.429
40
0.300
0
CIRCLE
8
PATTERN
62
8
10
102.293
20
74.954
40
0.300
0
CIRCLE
8
PATTERN
62
8
10
100.036
20
65.277
40
0.300
0
CIRCLE
8
PATTERN
62
8
10
98.416
20
87.018
40
0.300
0
CIRCLE
8
PATTERN
62
8
10
115.081
20
81.995
40
0.300
0
CIRCLE
8
PATTERN
62
8
10
109.969
20
60.416
40
0.300
0
CIRCLE
8
PATTERN
62
8
10
111.657
20
83.779
40
0.300
0
CIRCLE
8
PATTERN
62
8
10
104.686
20
97.689
40
0.300
0
CIRCLE
8
PATTERN
62
8
10
111.066
20
75.682
40
0.300
0
CIRCLE
8
PATTERN
62
8
10
98.998
20
106.061
40
0.300
0
CIRCLE
8
PATTERN
62
8
10
110.764
20
105.618
40
0.300
0
CIRCLE
8
PATTERN
62
8
10
102.687
20
96.257
40
0.300
0
CIRCLE
8
PATTERN
62
8
10
107.408
20
86.187
40
0.300
0
CIRCLE
8
PATTERN
62
8
10
107.406
20
91.831
40
0.300
0
CIRCLE
8
PATTERN
62
8
10
97.671
20
71.638
40
0.300
0
CIRCLE
8
PATTERN
62
8
10
114.808
20
94.364
40
0.300
0
CIRCLE
8
PATTERN
62
8
10
98.104
20
82.411
40
0.300
0
CIRCLE
8
PATTERN
62
8
10
119.135
20
96.626
40
0.300
0
CIRCLE
8
PATTERN
62
8
10
119.379
20
104.136
40
0.300
0
CIRCLE
8
PATTERN
62
8
10
93.010
20
84.206
40
0.300
0
CIRCLE
8
PATTERN
62
8
10
116.255
20
105.214
40
0.300
0
CIRCLE
8
PATTERN
62
8
10
120.274
20
71.749
40
0.300
0
CIRCLE
8
PATTERN
62
8
10
97.354
20
90.907
40
0.300
0
CIRCLE
8
PATTERN
62
8
10
94.722
20
63.080
40
0.300
0
CIRCLE
8
PATTERN
62
8
10
103.355
20
96.201
40
0.300
0
CIRCLE
8
PATTERN
62
8
10
102.765
20
84.410
40
0.300
0
CIRCLE
8
PATTERN
62
8
10
101.045
20
60.324
40
0.300
0
CIRCLE
8
PATTERN
62
8
10
109.604
20
103.555
40
0.300
0
CIRCLE
8
PATTERN
62
8
10
116.411
20
81.422
40
0.300
0
CIRCLE
8
PATTERN
62
8
10
98.665
20
101.581
40
0.300
0
CIRCLE
8
PATTERN
62
8
10
92.507
20
59.982
40
0.300
0
CIRCLE
8
PATTERN
62
8
10
116.524
20
76.586
40
0.300
0
CIRCLE
8
PATTERN
62
8
10
97.210
20
76.188
40
0.300
0
CIRCLE
8
PATTERN
62
8
10
91.355
20
106.441
40
0.300
0
CIRCLE
8
PATTERN
62
8
10
104.750
20
106.805
40
0.300
0
CIRCLE
8
PATTERN
62
8
10
99.325
20
87.835
40
0.300
0
CIRCLE
8
PATTERN
62
8
10
106.230
20
58.562
40
0.300
0
CIRCLE
8
PATTERN
62
8
10
110.239
20
64.036
40
0.300
0
CIRCLE
8
PATTERN
62
8
10
116.638
20
87.528
40
0.300
0
CIRCLE
8
PATTERN
62
8
10
112.293
20
98.797
40
0.300
0
CIRCLE
8
PATTERN
62
8
10
90.695
20
62.491
40
0.300
0
CIRCLE
8
PATTERN
62
8
10
105.206
20
98.480
40
0.300
0
CIRCLE
8
PATTERN
62
8
10
86.507
20
91.162
40
0.300
0
CIRCLE
8
PATTERN
62
8
10
93.378
20
82.587
40
0.300
0
CIRCLE
8
PATTERN
62
8
10
100.021
20
69.884
40
0.300
0
CIRCLE
8
PATTERN
62
8
10
117.854
20
86.963
40
0.300
0
CIRCLE
8
PATTERN
62
8
10
95.209
20
60.456
40
0.300
0
CIRCLE
8
PATTERN
62
8
10
114.291
20
101.808
40
0.300
0
CIRCLE
8
PATTERN
62
8
10
88.563
20
64.155
40
0.300
0
CIRCLE
8
PATTERN
62
8
10
107.848
20
69.902
40
0.300
0
CIRCLE
8
PATTERN
62
8
10
113.457
20
95.962
40
0.300
0
CIRCLE
8
PATTERN
62
8
10
106.701
20
58.888
40
0.300
0
CIRCLE
8
PATTERN
62
8
10
112.322
20
74.568
40
0.300
0
CIRCLE
8
PATTERN
62
8
10
103.337
20
70.522
40
0.300
0
CIRCLE
8
PATTERN
62
8
10
96.876
20
60.006
40
0.300
0
CIRCLE
8
PATTERN
62
8
10
103.392
20
73.767
40
0.300
0
CIRCLE
8
PATTERN
62
8
10
120.142
20
83.711
40
0.300
0
CIRCLE
8
PATTERN
62
8
10
112.457
20
94.874
40
0.300
0
CIRCLE
8
PATTERN
62
8
10
97.411
20
58.603
40
0.300
0
CIRCLE
8
PATTERN
62
8
10
97.519
20
90.026
40
0.300
0
CIRCLE
8
PATTERN
62
8
10
102.249
20
96.676
40
0.300
0
CIRCLE
8
PATTERN
62
8
10
86.271
20
89.222
40
0.300
0
CIRCLE
8
PATTERN
62
8
10
93.156
20
80.417
40
0.300
0
CIRCLE
8
PATTERN
62
8
10
117.478
20
95.413
40
0.300
0
CIRCLE
8
PATTERN
62
8
10
104.814
20
108.097
40
0.300
0
CIRCLE
8
PATTERN
62
8
10
90.564
20
71.333
40
0.300
0
CIRCLE
8
PATTERN
62
8
10
89.420
20
89.494
40
0.300
0
CIRCLE
8
PATTERN
62
8
10
112.584
20
101.282
40
0.300
0
CIRCLE
8
PATTERN
62
8
10
88.995
20
91.616
40
0.300
0
CIRCLE
8
PATTERN
62
8
10
113.905
20
64.234
40
0.300
0
CIRCLE
8
PATTERN
62
8
10
120.688
20
96.602
40
0.300
0
CIRCLE
8
PATTERN
62
8
10
118.964
20
68.248
40
0.300
0
CIRCLE
8
PATTERN
62
8
10
103.944
20
68.499
40
0.300
0
CIRCLE
8
PATTERN
62
8
10
101.550
20
91.772
40
0.300
0
CIRCLE
8
PATTERN
62
8
10
103.242
20
82.298
40
0.300
0
CIRCLE
8
PATTERN
62
8
10
113.005
20
103.354
40
0.300
0
CIRCLE
8
PATTERN
62
8
10
96.001
20
59.624
40
0.300
0
CIRCLE
8
PATTERN
62
8
10
98.790
20
58.423
40
0.300
0
CIRCLE
8
PATTERN
62
8
10
96.251
20
105.494
40
0.300
0
CIRCLE
8
PATTERN
62
8
10
96.053
20
70.457
40
0.300
0
CIRCLE
8
PATTERN
62
8
10
118.489
20
90.231
40
0.300
0
CIRCLE
8
PATTERN
62
8
10
99.942
20
101.952
40
0.300
0
CIRCLE
8
PATTERN
62
8
10
117.325
20
92.409
40
0.300
0
CIRCLE
8
PATTERN
62
8
10
111.890
20
87.583
40
0.300
0
CIRCLE
8
PATTERN
62
8
10
90.523
20
81.596
40
0.300
0
CIRCLE
8
PATTERN
62
8
10
101.475
20
84.153
40
0.300
0
CIRCLE
8
PATTERN
62
8
10
112.055
20
66.180
40
0.300
0
CIRCLE
8
PATTERN
62
8
10
120.788
20
102.395
40
0.300
0
CIRCLE
8
PATTERN
62
8
10
98.083
20
95.708
40
0.300
0
CIRCLE
8
PATTERN
62
8
10
109.723
20
66.967
40
0.300
0
CIRCLE
8
PATTERN
62
8
10
113.182
20
90.474
40
0.300
0
CIRCLE
8
PATTERN
62
8
10
109.682
20
63.148
40
0.300
0
CIRCLE
8
PATTERN
62
8
10
110.773
20
88.264
40
0.300
0
CIRCLE
8
PATTERN
62
8
10
87.882
20
106.977
40
0.300
0
CIRCLE
8
PATTERN
62
8
10
107.944
20
95.113
40
0.300
0
CIRCLE
8
PATTERN
62
8
10
100.816
20
104.135
40
0.300
0
CIRCLE
8
PATTERN
62
8
10
116.441
20
70.739
40
0.300
0
CIRCLE
8
PATTERN
62
8
10
115.234
20
104.474
40
0.300
0
CIRCLE
8
PATTERN
62
8
10
100.193
20
75.511
40
0.300
0
CIRCLE
8
PATTERN
62
8
10
117.818
20
59.698
40
0.300
0
CIRCLE
8
PATTERN
62
8
10
88.566
20
105.046
40
0.300
0
CIRCLE
8
PATTERN
62
8
10
108.507
20
91.395
40
0.300
0
CIRCLE
8
PATTERN
62
8
10
95.207
20
88.784
40
0.300
0
CIRCLE
8
PATTERN
62
8
10
91.193
20
84.043
40
0.300
0
CIRCLE
8
PATTERN
62
8
10
88.793
20
62.689
40
0.300
0
CIRCLE
8
PATTERN
62
8
10
85.319
20
77.242
40
0.300
0
CIRCLE
8
PATTERN
62
8
10
109.690
20
72.860
40
0.300
0
CIRCLE
8
PATTERN
62
8
10
111.275
20
106.115
40
0.300
0
CIRCLE
8
PATTERN
62
8
10
108.265
20
93.491
40
0.300
0
CIRCLE
8
PATTERN
62
8
10
92.657
20
76.913
40
0.300
0
CIRCLE
8
PATTERN
62
8
10
87.048
20
82.076
40
0.300
0
CIRCLE
8
PATTERN
62
8
10
111.734
20
84.319
40
0.300
0
CIRCLE
8
PATTERN
62
8
10
88.597
20
97.879
40
0.300
0
CIRCLE
8
PATTERN
62
8
10
104.106
20
75.059
40
0.300
0
CIRCLE
8
PATTERN
62
8
10
112.502
20
95.993
40
0.300
0
CIRCLE
8
PATTERN
62
8
10
105.180
20
60.571
40
0.300
0
CIRCLE
8
PATTERN
62
8
10
106.758
20
82.320
40
0.300
0
CIRCLE
8
PATTERN
62
8
10
91.351
20
83.797
40
0.300
0
CIRCLE
8
PATTERN
62
8
10
113.453
20
79.105
40
0.300
0
CIRCLE
8
PATTERN
62
8
10
118.785
20
64.561
40
0.300
0
CIRCLE
8
PATTERN
62
8
10
91.677
20
82.350
40
0.300
0
CIRCLE
8
PATTERN
62
8
10
108.882
20
66.951
40
0.300
0
CIRCLE
8
PATTERN
62
8
10
120.752
20
100.452
40
0.300
0
CIRCLE
8
PATTERN
62
8
10
94.646
20
76.610
40
0.300
0
CIRCLE
8
PATTERN
62
8
10
105.342
20
59.225
40
0.300
0
CIRCLE
8
PATTERN
62
8
10
112.675
20
94.134
40
0.300
0
CIRCLE
8
PATTERN
62
8
10
94.798
20
83.507
40
0.300
0
CIRCLE
8
PATTERN
62
8
10
110.133
20
68.490
40
0.300
0
CIRCLE
8
PATTERN
62
8
10
113.221
20
88.687
40
0.300
0
CIRCLE
8
PATTERN
62
8
10
110.215
20
88.100
40
0.300
0
CIRCLE
8
PATTERN
62
8
10
106.340
20
77.589
40
0.300
0
CIRCLE
8
PATTERN
62
8
10
90.142
20
85.402
40
0.300
0
CIRCLE
8
PATTERN
62
8
10
110.305
20
66.779
40
0.300
0
CIRCLE
8
PATTERN
62
8
10
97.626
20
84.595
40
0.300
0
CIRCLE
8
PATTERN
62
8
10
99.321
20
92.074
40
0.300
0
CIRCLE
8
PATTERN
62
8
10
87.590
20
78.449
40
0.300
0
CIRCLE
8
PATTERN
62
8
10
99.504
20
96.213
40
0.300
0
CIRCLE
8
PATTERN
62
8
10
99.330
20
67.426
40
0.300
0
CIRCLE
8
PATTERN
62
8
10
120.709
20
95.859
40
0.300
0
CIRCLE
8
PATTERN
62
8
10
102.508
20
70.230
40
0.300
0
CIRCLE
8
PATTERN
62
8
10
90.020
20
96.112
40
0.300
0
CIRCLE
8
PATTERN
62
8
10
111.126
20
78.739
40
0.300
0
CIRCLE
8
PATTERN
62
8
10
108.323
20
88.587
40
0.300
0
CIRCLE
8
PATTERN
62
8
10
114.969
20
100.567
40
0.300
0
CIRCLE
8
PATTERN
62
8
10
110.857
20
78.893
40
0.300
0
CIRCLE
8
PATTERN
62
8
10
93.468
20
104.492
40
0.300
0
CIRCLE
8
PATTERN
62
8
10
112.485
20
73.257
40
0.300
0
CIRCLE
8
PATTERN
62
8
10
92.180
20
73.102
40
0.300
0
CIRCLE
8
PATTERN
62
8
10
86.214
20
105.331
40
0.300
0
CIRCLE
8
PATTERN
62
8
10
109.276
20
82.585
40
0.300
0
CIRCLE
8
PATTERN
62
8
10
99.260
20
90.482
40
0.300
0
CIRCLE
8
PATTERN
62
8
10
90.888
20
59.086
40
0.300
0
CIRCLE
8
PATTERN
62
8
10
113.551
20
83.902
40
0.300
0
CIRCLE
8
PATTERN
62
8
10
103.440
20
94.766
40
0.300
0
CIRCLE
8
PATTERN
62
8
10
120.777
20
106.847
40
0.300
0
CIRCLE
8
PATTERN
62
8
10
90.589
20
99.368
40
0.300
0
CIRCLE
8
PATTERN
62
8
10
96.676
20
62.893
40
0.300
0
CIRCLE
8
PATTERN
62
8
10
116.191
20
76.351
40
0.300
0
CIRCLE
8
PATTERN
62
8
10
115.963
20
90.462
40
0.300
0
CIRCLE
8
PATTERN
62
8
10
107.106
20
96.516
40
0.300
0
CIRCLE
8
PATTERN
62
8
10
85.446
20
67.592
40
0.300
0
CIRCLE
8
PATTERN
62
8
10
96.517
20
101.882
40
0.300
0
CIRCLE
8
PATTERN
62
8
10
118.501
20
79.733
40
0.300
0
CIRCLE
8
PATTERN
62
8
10
89.741
20
61.205
40
0.300
0
CIRCLE
8
PATTERN
62
8
10
96.562
20
89.528
40
0.300
0
CIRCLE
8
PATTERN
62
8
10
86.555
20
67.381
40
0.300
0
CIRCLE
8
PATTERN
62
8
10
113.980
20
64.944
40
0.300
0
CIRCLE
8
PATTERN
62
8
10
92.105
20
104.457
40
0.300
0
CIRCLE
8
PATTERN
62
8
10
106.936
20
87.974
40
0.300
0
CIRCLE
8
PATTERN
62
8
10
100.078
20
72.902
40
0.300
0
CIRCLE
8
PATTERN
62
8
10
113.554
20
100.246
40
0.300
0
CIRCLE
8
PATTERN
62
8
10
87.026
20
90.621
40
0.300
0
CIRCLE
8
PATTERN
62
8
10
104.428
20
87.279
40
0.300
0
CIRCLE
8
PATTERN
62
8
10
96.493
20
67.492
40
0.300
0
CIRCLE
8
PATTERN
62
8
10
90.550
20
65.071
40
0.300
0
CIRCLE
8
PATTERN
62
8
10
87.628
20
98.882
40
0.300
0
CIRCLE
8
PATTERN
62
8
10
119.498
20
100.364
40
0.300
0
CIRCLE
8
PATTERN
62
8
10
93.209
20
89.418
40
0.300
0
CIRCLE
8
PATTERN
62
8
10
104.531
20
107.713
40
0.300
0
CIRCLE
8
PATTERN
62
8
10
98.244
20
70.700
40
0.300
0
CIRCLE
8
PATTERN
62
8
10
110.675
20
73.153
40
0.300
0
CIRCLE
8
PATTERN
62
8
10
88.404
20
94.571
40
0.300
0
CIRCLE
8
PATTERN
62
8
10
113.710
20
99.193
40
0.300
0
CIRCLE
8
PATTERN
62
8
10
115.843
20
68.683
40
0.300
0
CIRCLE
8
PATTERN
62
8
10
98.547
20
68.264
40
0.300
0
CIRCLE
8
PATTERN
62
8
10
119.848
20
106.479
40
0.300
0
CIRCLE
8
PATTERN
62
8
10
107.322
20
88.848
40
0.300
0
CIRCLE
8
PATTERN
62
8
10
119.655
20
69.794
40
0.300
0
CIRCLE
8
PATTERN
62
8
10
103.656
20
87.763
40
0.300
0
CIRCLE
8
PATTERN
62
8
10
87.187
20
74.815
40
0.300
0
CIRCLE
8
PATTERN
62
8
10
96.765
20
61.028
40
0.300
0
CIRCLE
8
PATTERN
62
8
10
89.558
20
93.191
40
0.300
0
CIRCLE
8
PATTERN
62
8
10
85.479
20
68.078
40
0.300
0
CIRCLE
8
PATTERN
62
8
10
90.378
20
82.020
40
0.300
0
CIRCLE
8
PATTERN
62
8
10
115.484
20
99.944
40
0.300
0
CIRCLE
8
PATTERN
62
8
10
120.062
20
60.382
40
0.300
0
CIRCLE
8
PATTERN
62
8
10
105.943
20
78.265
40
0.300
0
CIRCLE
8
PATTERN
62
8
10
99.989
20
93.891
40
0.300
0
CIRCLE
8
PATTERN
62
8
10
96.731
20
104.072
40
0.300
0
CIRCLE
8
PATTERN
62
8
10
90.857
20
96.889
40
0.300
0
CIRCLE
8
PATTERN
62
8
10
87.290
20
65.806
40
0.300
0
CIRCLE
8
PATTERN
62
8
10
95.566
20
62.431
40
0.300
0
CIRCLE
8
PATTERN
62
8
10
101.528
20
84.459
40
0.300
0
CIRCLE
8
PATTERN
62
8
10
117.268
20
93.229
40
0.300
0
CIRCLE
8
PATTERN
62
8
10
102.196
20
76.176
40
0.300
0
CIRCLE
8
PATTERN
62
8
10
105.693
20
81.422
40
0.300
0
TEXT
8
TEXT
62
7
10
48.000
20
83.148
40
2.200
1
ABC Range Quartzite
0
TEXT
8
TEXT
62
7
10
66.000
20
83.148
40
2.200
1
Z?a
0
TEXT
8
TEXT
62
7
10
147.000
20
83.148
40
2.200
1
280.0
0
TEXT
8
TEXT
62
7
10
157.000
20
83.148
40
2.000
1
Massive cross-bedded quartzite
0
LINE
8
GRID
62
8
10
8.000
20
109.489
11
205.000
21
109.489
0
POLYLINE
8
LITHOLOGY
62
3
66
1
70
1
0
VERTEX
8
LITHOLOGY
10
84.300
20
44.578
0
VERTEX
8
LITHOLOGY
10
121.800
20
44.578
0
VERTEX
8
LITHOLOGY
10
121.800
20
56.807
0
VERTEX
8
LITHOLOGY
10
84.300
20
56.807
0
SEQEND
0
CIRCLE
8
PATTERN
62
8
10
118.690
20
49.097
40
0.300
0
CIRCLE
8
PATTERN
62
8
10
100.901
20
55.368
40
0.300
0
CIRCLE
8
PATTERN
62
8
10
118.332
20
49.573
40
0.300
0
CIRCLE
8
PATTERN
62
8
10
101.051
20
54.916
40
0.300
0
CIRCLE
8
PATTERN
62
8
10
109.896
20
51.267
40
0.300
0
CIRCLE
8
PATTERN
62
8
10
85.666
20
53.355
40
0.300
0
CIRCLE
8
PATTERN
62
8
10
107.498
20
49.066
40
0.300
0
CIRCLE
8
PATTERN
62
8
10
91.246
20
45.608
40
0.300
0
CIRCLE
8
PATTERN
62
8
10
91.050
20
46.997
40
0.300
0
CIRCLE
8
PATTERN
62
8
10
99.158
20
52.715
40
0.300
0
CIRCLE
8
PATTERN
62
8
10
114.205
20
46.895
40
0.300
0
CIRCLE
8
PATTERN
62
8
10
118.606
20
49.993
40
0.300
0
CIRCLE
8
PATTERN
62
8
10
109.707
20
51.100
40
0.300
0
CIRCLE
8
PATTERN
62
8
10
114.360
20
48.468
40
0.300
0
CIRCLE
8
PATTERN
62
8
10
106.692
20
46.694
40
0.300
0
CIRCLE
8
PATTERN
62
8
10
107.976
20
49.690
40
0.300
0
CIRCLE
8
PATTERN
62
8
10
108.534
20
51.557
40
0.300
0
CIRCLE
8
PATTERN
62
8
10
105.817
20
54.764
40
0.300
0
CIRCLE
8
PATTERN
62
8
10
119.438
20
47.981
40
0.300
0
CIRCLE
8
PATTERN
62
8
10
89.934
20
55.546
40
0.300
0
CIRCLE
8
PATTERN
62
8
10
102.803
20
53.478
40
0.300
0
CIRCLE
8
PATTERN
62
8
10
98.357
20
51.635
40
0.300
0
CIRCLE
8
PATTERN
62
8
10
116.829
20
45.703
40
0.300
0
CIRCLE
8
PATTERN
62
8
10
92.872
20
51.976
40
0.300
0
CIRCLE
8
PATTERN
62
8
10
104.370
20
54.299
40
0.300
0
CIRCLE
8
PATTERN
62
8
10
104.975
20
48.545
40
0.300
0
CIRCLE
8
PATTERN
62
8
10
97.261
20
53.082
40
0.300
0
CIRCLE
8
PATTERN
62
8
10
91.363
20
51.873
40
0.300
0
CIRCLE
8
PATTERN
62
8
10
100.847
20
47.135
40
0.300
0
CIRCLE
8
PATTERN
62
8
10
108.529
20
46.764
40
0.300
0
CIRCLE
8
PATTERN
62
8
10
116.812
20
55.608
40
0.300
0
CIRCLE
8
PATTERN
62
8
10
105.309
20
51.107
40
0.300
0
CIRCLE
8
PATTERN
62
8
10
91.664
20
51.313
40
0.300
0
CIRCLE
8
PATTERN
62
8
10
93.638
20
52.465
40
0.300
0
CIRCLE
8
PATTERN
62
8
10
96.108
20
45.881
40
0.300
0
CIRCLE
8
PATTERN
62
8
10
113.631
20
52.162
40
0.300
0
CIRCLE
8
PATTERN
62
8
10
103.802
20
55.106
40
0.300
0
CIRCLE
8
PATTERN
62
8
10
115.059
20
46.791
40
0.300
0
CIRCLE
8
PATTERN
62
8
10
91.996
20
53.411
40
0.300
0
CIRCLE
8
PATTERN
62
8
10
111.035
20
55.678
40
0.300
0
CIRCLE
8
PATTERN
62
8
10
110.051
20
48.329
40
0.300
0
CIRCLE
8
PATTERN
62
8
10
115.596
20
50.093
40
0.300
0
CIRCLE
8
PATTERN
62
8
10
88.810
20
45.966
40
0.300
0
CIRCLE
8
PATTERN
62
8
10
110.414
20
50.644
40
0.300
0
CIRCLE
8
PATTERN
62
8
10
111.328
20
52.594
40
0.300
0
CIRCLE
8
PATTERN
62
8
10
90.925
20
55.438
40
0.300
0
CIRCLE
8
PATTERN
62
8
10
107.143
20
49.465
40
0.300
0
CIRCLE
8
PATTERN
62
8
10
96.260
20
52.336
40
0.300
0
CIRCLE
8
PATTERN
62
8
10
96.061
20
49.448
40
0.300
0
CIRCLE
8
PATTERN
62
8
10
105.730
20
50.231
40
0.300
0
CIRCLE
8
PATTERN
62
8
10
87.337
20
50.535
40
0.300
0
CIRCLE
8
PATTERN
62
8
10
103.687
20
51.128
40
0.300
0
CIRCLE
8
PATTERN
62
8
10
99.032
20
53.816
40
0.300
0
CIRCLE
8
PATTERN
62
8
10
91.808
20
53.415
40
0.300
0
CIRCLE
8
PATTERN
62
8
10
103.484
20
55.718
40
0.300
0
CIRCLE
8
PATTERN
62
8
10
88.490
20
53.887
40
0.300
0
CIRCLE
8
PATTERN
62
8
10
110.541
20
47.839
40
0.300
0
TEXT
8
TEXT
62
7
10
48.000
20
50.693
40
2.200
1
Elatina Fm
0
TEXT
8
TEXT
62
7
10
66.000
20
50.693
40
2.200
1
Z?e
0
TEXT
8
TEXT
62
7
10
147.000
20
50.693
40
2.200
1
65.0
0
TEXT
8
TEXT
62
7
10
157.000
20
50.693
40
2.000
1
Pebbly diamictite ? Marinoan glacial
0
LINE
8
GRID
62
8
10
8.000
20
56.807
11
205.000
21
56.807
0
POLYLINE
8
LITHOLOGY
62
3
66
1
70
1
0
VERTEX
8
LITHOLOGY
10
84.300
20
22.000
0
VERTEX
8
LITHOLOGY
10
121.800
20
22.000
0
VERTEX
8
LITHOLOGY
10
121.800
20
44.578
0
VERTEX
8
LITHOLOGY
10
84.300
20
44.578
0
SEQEND
0
CIRCLE
8
PATTERN
62
8
10
91.201
20
26.947
40
0.300
0
CIRCLE
8
PATTERN
62
8
10
110.144
20
40.174
40
0.300
0
CIRCLE
8
PATTERN
62
8
10
107.120
20
29.663
40
0.300
0
CIRCLE
8
PATTERN
62
8
10
85.491
20
40.315
40
0.300
0
CIRCLE
8
PATTERN
62
8
10
88.438
20
26.256
40
0.300
0
CIRCLE
8
PATTERN
62
8
10
93.862
20
29.885
40
0.300
0
CIRCLE
8
PATTERN
62
8
10
114.737
20
28.934
40
0.300
0
CIRCLE
8
PATTERN
62
8
10
107.368
20
35.619
40
0.300
0
CIRCLE
8
PATTERN
62
8
10
96.825
20
29.818
40
0.300
0
CIRCLE
8
PATTERN
62
8
10
99.394
20
24.840
40
0.300
0
CIRCLE
8
PATTERN
62
8
10
103.981
20
24.249
40
0.300
0
CIRCLE
8
PATTERN
62
8
10
104.916
20
40.205
40
0.300
0
CIRCLE
8
PATTERN
62
8
10
116.587
20
34.659
40
0.300
0
CIRCLE
8
PATTERN
62
8
10
100.619
20
32.683
40
0.300
0
CIRCLE
8
PATTERN
62
8
10
106.571
20
39.964
40
0.300
0
CIRCLE
8
PATTERN
62
8
10
91.212
20
40.957
40
0.300
0
CIRCLE
8
PATTERN
62
8
10
116.378
20
30.809
40
0.300
0
CIRCLE
8
PATTERN
62
8
10
109.398
20
31.667
40
0.300
0
CIRCLE
8
PATTERN
62
8
10
110.158
20
40.320
40
0.300
0
CIRCLE
8
PATTERN
62
8
10
96.383
20
30.252
40
0.300
0
CIRCLE
8
PATTERN
62
8
10
105.631
20
36.000
40
0.300
0
CIRCLE
8
PATTERN
62
8
10
108.537
20
33.120
40
0.300
0
CIRCLE
8
PATTERN
62
8
10
91.119
20
35.152
40
0.300
0
CIRCLE
8
PATTERN
62
8
10
108.369
20
26.744
40
0.300
0
CIRCLE
8
PATTERN
62
8
10
90.625
20
42.839
40
0.300
0
CIRCLE
8
PATTERN
62
8
10
114.578
20
32.260
40
0.300
0
CIRCLE
8
PATTERN
62
8
10
85.372
20
24.171
40
0.300
0
CIRCLE
8
PATTERN
62
8
10
114.252
20
41.442
40
0.300
0
CIRCLE
8
PATTERN
62
8
10
94.781
20
37.353
40
0.300
0
CIRCLE
8
PATTERN
62
8
10
106.213
20
34.012
40
0.300
0
CIRCLE
8
PATTERN
62
8
10
119.877
20
36.598
40
0.300
0
CIRCLE
8
PATTERN
62
8
10
108.481
20
38.068
40
0.300
0
CIRCLE
8
PATTERN
62
8
10
112.258
20
27.684
40
0.300
0
CIRCLE
8
PATTERN
62
8
10
98.756
20
27.107
40
0.300
0
CIRCLE
8
PATTERN
62
8
10
118.447
20
39.117
40
0.300
0
CIRCLE
8
PATTERN
62
8
10
108.000
20
23.734
40
0.300
0
CIRCLE
8
PATTERN
62
8
10
114.180
20
31.622
40
0.300
0
CIRCLE
8
PATTERN
62
8
10
107.804
20
36.383
40
0.300
0
CIRCLE
8
PATTERN
62
8
10
87.762
20
42.462
40
0.300
0
CIRCLE
8
PATTERN
62
8
10
98.650
20
26.429
40
0.300
0
CIRCLE
8
PATTERN
62
8
10
98.049
20
31.392
40
0.300
0
CIRCLE
8
PATTERN
62
8
10
91.445
20
23.355
40
0.300
0
CIRCLE
8
PATTERN
62
8
10
99.693
20
36.984
40
0.300
0
CIRCLE
8
PATTERN
62
8
10
116.291
20
23.543
40
0.300
0
CIRCLE
8
PATTERN
62
8
10
115.191
20
30.127
40
0.300
0
CIRCLE
8
PATTERN
62
8
10
109.134
20
25.789
40
0.300
0
CIRCLE
8
PATTERN
62
8
10
95.060
20
31.435
40
0.300
0
CIRCLE
8
PATTERN
62
8
10
110.685
20
41.509
40
0.300
0
CIRCLE
8
PATTERN
62
8
10
98.090
20
40.962
40
0.300
0
CIRCLE
8
PATTERN
62
8
10
104.881
20
35.421
40
0.300
0
CIRCLE
8
PATTERN
62
8
10
102.803
20
40.184
40
0.300
0
CIRCLE
8
PATTERN
62
8
10
120.720
20
27.883
40
0.300
0
CIRCLE
8
PATTERN
62
8
10
112.210
20
40.850
40
0.300
0
CIRCLE
8
PATTERN
62
8
10
115.863
20
28.170
40
0.300
0
CIRCLE
8
PATTERN
62
8
10
104.413
20
28.363
40
0.300
0
CIRCLE
8
PATTERN
62
8
10
92.352
20
24.956
40
0.300
0
CIRCLE
8
PATTERN
62
8
10
103.271
20
24.374
40
0.300
0
CIRCLE
8
PATTERN
62
8
10
101.709
20
27.849
40
0.300
0
CIRCLE
8
PATTERN
62
8
10
99.130
20
26.197
40
0.300
0
CIRCLE
8
PATTERN
62
8
10
101.665
20
40.474
40
0.300
0
CIRCLE
8
PATTERN
62
8
10
106.067
20
38.113
40
0.300
0
CIRCLE
8
PATTERN
62
8
10
113.564
20
37.324
40
0.300
0
CIRCLE
8
PATTERN
62
8
10
86.447
20
34.495
40
0.300
0
CIRCLE
8
PATTERN
62
8
10
107.558
20
38.736
40
0.300
0
CIRCLE
8
PATTERN
62
8
10
87.970
20
38.571
40
0.300
0
CIRCLE
8
PATTERN
62
8
10
103.187
20
37.276
40
0.300
0
CIRCLE
8
PATTERN
62
8
10
102.137
20
42.720
40
0.300
0
CIRCLE
8
PATTERN
62
8
10
108.132
20
31.593
40
0.300
0
CIRCLE
8
PATTERN
62
8
10
88.271
20
41.459
40
0.300
0
CIRCLE
8
PATTERN
62
8
10
100.330
20
33.217
40
0.300
0
CIRCLE
8
PATTERN
62
8
10
116.534
20
41.671
40
0.300
0
CIRCLE
8
PATTERN
62
8
10
107.108
20
23.661
40
0.300
0
CIRCLE
8
PATTERN
62
8
10
108.682
20
36.099
40
0.300
0
CIRCLE
8
PATTERN
62
8
10
86.797
20
38.009
40
0.300
0
CIRCLE
8
PATTERN
62
8
10
99.159
20
43.005
40
0.300
0
CIRCLE
8
PATTERN
62
8
10
102.705
20
23.000
40
0.300
0
CIRCLE
8
PATTERN
62
8
10
120.073
20
31.014
40
0.300
0
CIRCLE
8
PATTERN
62
8
10
97.077
20
39.691
40
0.300
0
CIRCLE
8
PATTERN
62
8
10
93.248
20
25.732
40
0.300
0
CIRCLE
8
PATTERN
62
8
10
116.278
20
35.744
40
0.300
0
CIRCLE
8
PATTERN
62
8
10
109.194
20
32.352
40
0.300
0
CIRCLE
8
PATTERN
62
8
10
91.707
20
41.450
40
0.300
0
CIRCLE
8
PATTERN
62
8
10
88.875
20
29.536
40
0.300
0
CIRCLE
8
PATTERN
62
8
10
91.804
20
32.385
40
0.300
0
CIRCLE
8
PATTERN
62
8
10
116.605
20
36.599
40
0.300
0
CIRCLE
8
PATTERN
62
8
10
102.742
20
43.266
40
0.300
0
CIRCLE
8
PATTERN
62
8
10
89.425
20
39.234
40
0.300
0
CIRCLE
8
PATTERN
62
8
10
89.603
20
31.342
40
0.300
0
CIRCLE
8
PATTERN
62
8
10
92.835
20
25.651
40
0.300
0
CIRCLE
8
PATTERN
62
8
10
101.964
20
35.756
40
0.300
0
CIRCLE
8
PATTERN
62
8
10
118.260
20
26.968
40
0.300
0
CIRCLE
8
PATTERN
62
8
10
96.392
20
40.471
40
0.300
0
CIRCLE
8
PATTERN
62
8
10
109.874
20
37.099
40
0.300
0
CIRCLE
8
PATTERN
62
8
10
120.043
20
40.371
40
0.300
0
CIRCLE
8
PATTERN
62
8
10
119.688
20
40.999
40
0.300
0
CIRCLE
8
PATTERN
62
8
10
97.032
20
24.497
40
0.300
0
CIRCLE
8
PATTERN
62
8
10
98.870
20
40.590
40
0.300
0
CIRCLE
8
PATTERN
62
8
10
100.461
20
27.017
40
0.300
0
CIRCLE
8
PATTERN
62
8
10
87.268
20
35.296
40
0.300
0
CIRCLE
8
PATTERN
62
8
10
109.399
20
26.522
40
0.300
0
CIRCLE
8
PATTERN
62
8
10
106.221
20
42.200
40
0.300
0
CIRCLE
8
PATTERN
62
8
10
103.027
20
27.728
40
0.300
0
CIRCLE
8
PATTERN
62
8
10
109.359
20
37.702
40
0.300
0
CIRCLE
8
PATTERN
62
8
10
85.545
20
35.617
40
0.300
0
CIRCLE
8
PATTERN
62
8
10
97.120
20
35.160
40
0.300
0
TEXT
8
TEXT
62
7
10
48.000
20
33.289
40
2.200
1
Yaltipena Fm
0
TEXT
8
TEXT
62
7
10
66.000
20
33.289
40
2.200
1
Nh?y
0
TEXT
8
TEXT
62
7
10
147.000
20
33.289
40
2.200
1
120.0
0
TEXT
8
TEXT
62
7
10
157.000
20
33.289
40
2.000
1
Grey-green massive diamictite
0
LINE
8
GRID
62
8
10
8.000
20
44.578
11
205.000
21
44.578
0
TEXT
8
FOOTER
62
8
10
8.000
20
17.000
40
2.000
1
Integrated Ediacaran Stratigraphy ? Eastern Gondwana Margin | 1,350m | 8 layers | Scale 1:5,314
0
TEXT
8
FOOTER
62
9
10
8.000
20
14.000
40
1.600
1
CorelDRAWer-Skill (github.com/Reasonite-lab/CorelDRAWer-Skill)
0
ENDSEC
0
EOF