0
SECTION
2
ENTITIES
0
TEXT
8
TITLE
62
7
10
106.500
20
302.000
40
4.500
1
Carboniferous Cyclothem ? Midcontinent USA
0
POLYLINE
8
HEADER
62
8
66
1
70
1
0
VERTEX
8
HEADER
10
8.000
20
276.000
0
VERTEX
8
HEADER
10
205.000
20
276.000
0
VERTEX
8
HEADER
10
205.000
20
290.000
0
VERTEX
8
HEADER
10
8.000
20
290.000
0
SEQEND
0
TEXT
8
HEADER
62
7
10
14.500
20
283.000
40
2.800
1
Era
0
TEXT
8
HEADER
62
7
10
27.500
20
283.000
40
2.800
1
Sys
0
TEXT
8
HEADER
62
7
10
40.500
20
283.000
40
2.800
1
Ser
0
TEXT
8
HEADER
62
7
10
56.000
20
283.000
40
2.800
1
Fm
0
TEXT
8
HEADER
62
7
10
71.000
20
283.000
40
2.800
1
Sym
0
TEXT
8
HEADER
62
7
10
80.500
20
283.000
40
2.800
1
Fossils
0
TEXT
8
HEADER
62
7
10
104.000
20
283.000
40
2.800
1
Lithology
0
TEXT
8
HEADER
62
7
10
131.500
20
283.000
40
2.800
1
Grain
0
TEXT
8
HEADER
62
7
10
142.500
20
283.000
40
2.800
1
Struc
0
TEXT
8
HEADER
62
7
10
151.000
20
283.000
40
2.800
1
Thick(m)
0
TEXT
8
HEADER
62
7
10
188.500
20
283.000
40
2.800
1
Description
0
LINE
8
GRID
62
8
10
21.000
20
22.000
11
21.000
21
290.000
0
LINE
8
GRID
62
8
10
34.000
20
22.000
11
34.000
21
290.000
0
LINE
8
GRID
62
8
10
47.000
20
22.000
11
47.000
21
290.000
0
LINE
8
GRID
62
8
10
65.000
20
22.000
11
65.000
21
290.000
0
LINE
8
GRID
62
8
10
77.000
20
22.000
11
77.000
21
290.000
0
LINE
8
GRID
62
8
10
84.000
20
22.000
11
84.000
21
290.000
0
LINE
8
GRID
62
8
10
124.000
20
22.000
11
124.000
21
290.000
0
LINE
8
GRID
62
8
10
139.000
20
22.000
11
139.000
21
290.000
0
LINE
8
GRID
62
8
10
146.000
20
22.000
11
146.000
21
290.000
0
LINE
8
GRID
62
8
10
156.000
20
22.000
11
156.000
21
290.000
0
LINE
8
BORDER
62
7
10
8.000
20
22.000
11
8.000
21
290.000
0
LINE
8
BORDER
62
7
10
205.000
20
22.000
11
205.000
21
290.000
0
LINE
8
BORDER
62
7
10
8.000
20
290.000
11
205.000
21
290.000
0
LINE
8
BORDER
62
7
10
8.000
20
22.000
11
205.000
21
22.000
0
POLYLINE
8
LITHOLOGY
62
1
66
1
70
1
0
VERTEX
8
LITHOLOGY
10
84.300
20
260.125
0
VERTEX
8
LITHOLOGY
10
121.800
20
260.125
0
VERTEX
8
LITHOLOGY
10
121.800
20
276.000
0
VERTEX
8
LITHOLOGY
10
84.300
20
276.000
0
SEQEND
0
TEXT
8
TEXT
62
7
10
48.000
20
268.062
40
2.200
1
Admire Group
0
TEXT
8
TEXT
62
7
10
66.000
20
268.062
40
2.200
1
P?a
0
TEXT
8
TEXT
62
7
10
147.000
20
268.062
40
2.200
1
15.0
0
TEXT
8
TEXT
62
7
10
157.000
20
268.062
40
2.000
1
Variegated shale, continental
0
LINE
8
GRID
62
8
10
8.000
20
276.000
11
205.000
21
276.000
0
POLYLINE
8
LITHOLOGY
62
6
66
1
70
1
0
VERTEX
8
LITHOLOGY
10
84.300
20
233.667
0
VERTEX
8
LITHOLOGY
10
121.800
20
233.667
0
VERTEX
8
LITHOLOGY
10
121.800
20
260.125
0
VERTEX
8
LITHOLOGY
10
84.300
20
260.125
0
SEQEND
0
TEXT
8
TEXT
62
7
10
48.000
20
246.896
40
2.200
1
Wabaunsee Group
0
TEXT
8
TEXT
62
7
10
66.000
20
246.896
40
2.200
1
C?w
0
TEXT
8
TEXT
62
7
10
147.000
20
246.896
40
2.200
1
25.0
0
TEXT
8
TEXT
62
7
10
157.000
20
246.896
40
2.000
1
Cyclic limestone-shale, regressive
0
LINE
8
GRID
62
8
10
8.000
20
260.125
11
205.000
21
260.125
0
POLYLINE
8
LITHOLOGY
62
7
66
1
70
1
0
VERTEX
8
LITHOLOGY
10
84.300
20
201.917
0
VERTEX
8
LITHOLOGY
10
121.800
20
201.917
0
VERTEX
8
LITHOLOGY
10
121.800
20
233.667
0
VERTEX
8
LITHOLOGY
10
84.300
20
233.667
0
SEQEND
0
TEXT
8
TEXT
62
7
10
48.000
20
217.792
40
2.200
1
Shawnee Group
0
TEXT
8
TEXT
62
7
10
66.000
20
217.792
40
2.200
1
C?s
0
TEXT
8
TEXT
62
7
10
147.000
20
217.792
40
2.200
1
30.0
0
TEXT
8
TEXT
62
7
10
157.000
20
217.792
40
2.000
1
Fusulinid limestone, maximum transgression
0
LINE
8
GRID
62
8
10
8.000
20
233.667
11
205.000
21
233.667
0
POLYLINE
8
LITHOLOGY
62
1
66
1
70
1
0
VERTEX
8
LITHOLOGY
10
84.300
20
180.750
0
VERTEX
8
LITHOLOGY
10
121.800
20
180.750
0
VERTEX
8
LITHOLOGY
10
121.800
20
201.917
0
VERTEX
8
LITHOLOGY
10
84.300
20
201.917
0
SEQEND
0
CIRCLE
8
PATTERN
62
8
10
106.518
20
188.357
40
0.300
0
CIRCLE
8
PATTERN
62
8
10
85.353
20
188.390
40
0.300
0
CIRCLE
8
PATTERN
62
8
10
114.522
20
189.866
40
0.300
0
CIRCLE
8
PATTERN
62
8
10
105.884
20
184.849
40
0.300
0
CIRCLE
8
PATTERN
62
8
10
100.482
20
188.807
40
0.300
0
CIRCLE
8
PATTERN
62
8
10
90.219
20
186.472
40
0.300
0
CIRCLE
8
PATTERN
62
8
10
88.648
20
198.398
40
0.300
0
CIRCLE
8
PATTERN
62
8
10
103.149
20
191.625
40
0.300
0
CIRCLE
8
PATTERN
62
8
10
112.708
20
194.982
40
0.300
0
CIRCLE
8
PATTERN
62
8
10
95.836
20
198.739
40
0.300
0
CIRCLE
8
PATTERN
62
8
10
105.064
20
200.093
40
0.300
0
CIRCLE
8
PATTERN
62
8
10
95.047
20
188.466
40
0.300
0
CIRCLE
8
PATTERN
62
8
10
87.655
20
197.167
40
0.300
0
CIRCLE
8
PATTERN
62
8
10
107.460
20
197.257
40
0.300
0
CIRCLE
8
PATTERN
62
8
10
98.652
20
199.365
40
0.300
0
CIRCLE
8
PATTERN
62
8
10
111.977
20
197.356
40
0.300
0
CIRCLE
8
PATTERN
62
8
10
86.527
20
197.525
40
0.300
0
CIRCLE
8
PATTERN
62
8
10
119.178
20
195.777
40
0.300
0
CIRCLE
8
PATTERN
62
8
10
101.071
20
193.598
40
0.300
0
CIRCLE
8
PATTERN
62
8
10
94.925
20
185.515
40
0.300
0
CIRCLE
8
PATTERN
62
8
10
116.987
20
194.042
40
0.300
0
CIRCLE
8
PATTERN
62
8
10
116.398
20
186.314
40
0.300
0
CIRCLE
8
PATTERN
62
8
10
99.821
20
197.483
40
0.300
0
CIRCLE
8
PATTERN
62
8
10
90.292
20
191.737
40
0.300
0
CIRCLE
8
PATTERN
62
8
10
101.428
20
186.342
40
0.300
0
CIRCLE
8
PATTERN
62
8
10
112.027
20
194.369
40
0.300
0
CIRCLE
8
PATTERN
62
8
10
99.564
20
196.380
40
0.300
0
CIRCLE
8
PATTERN
62
8
10
119.996
20
183.471
40
0.300
0
CIRCLE
8
PATTERN
62
8
10
120.674
20
186.886
40
0.300
0
CIRCLE
8
PATTERN
62
8
10
100.608
20
185.751
40
0.300
0
CIRCLE
8
PATTERN
62
8
10
87.160
20
192.586
40
0.300
0
CIRCLE
8
PATTERN
62
8
10
89.514
20
193.201
40
0.300
0
CIRCLE
8
PATTERN
62
8
10
118.513
20
197.357
40
0.300
0
CIRCLE
8
PATTERN
62
8
10
91.555
20
185.477
40
0.300
0
CIRCLE
8
PATTERN
62
8
10
115.831
20
191.663
40
0.300
0
CIRCLE
8
PATTERN
62
8
10
120.589
20
188.698
40
0.300
0
CIRCLE
8
PATTERN
62
8
10
105.735
20
189.445
40
0.300
0
CIRCLE
8
PATTERN
62
8
10
88.420
20
191.206
40
0.300
0
CIRCLE
8
PATTERN
62
8
10
103.522
20
189.032
40
0.300
0
CIRCLE
8
PATTERN
62
8
10
120.538
20
195.318
40
0.300
0
CIRCLE
8
PATTERN
62
8
10
91.914
20
181.848
40
0.300
0
CIRCLE
8
PATTERN
62
8
10
88.498
20
184.651
40
0.300
0
CIRCLE
8
PATTERN
62
8
10
89.621
20
182.888
40
0.300
0
CIRCLE
8
PATTERN
62
8
10
112.981
20
187.668
40
0.300
0
CIRCLE
8
PATTERN
62
8
10
98.117
20
189.326
40
0.300
0
CIRCLE
8
PATTERN
62
8
10
101.182
20
188.297
40
0.300
0
CIRCLE
8
PATTERN
62
8
10
103.763
20
192.740
40
0.300
0
CIRCLE
8
PATTERN
62
8
10
95.699
20
191.407
40
0.300
0
CIRCLE
8
PATTERN
62
8
10
90.790
20
185.701
40
0.300
0
CIRCLE
8
PATTERN
62
8
10
96.984
20
188.238
40
0.300
0
CIRCLE
8
PATTERN
62
8
10
96.263
20
191.560
40
0.300
0
CIRCLE
8
PATTERN
62
8
10
109.863
20
192.855
40
0.300
0
CIRCLE
8
PATTERN
62
8
10
89.637
20
181.898
40
0.300
0
CIRCLE
8
PATTERN
62
8
10
92.002
20
185.229
40
0.300
0
CIRCLE
8
PATTERN
62
8
10
113.554
20
197.563
40
0.300
0
CIRCLE
8
PATTERN
62
8
10
91.988
20
197.157
40
0.300
0
CIRCLE
8
PATTERN
62
8
10
116.079
20
194.196
40
0.300
0
CIRCLE
8
PATTERN
62
8
10
105.421
20
188.214
40
0.300
0
CIRCLE
8
PATTERN
62
8
10
107.181
20
186.799
40
0.300
0
CIRCLE
8
PATTERN
62
8
10
97.729
20
194.733
40
0.300
0
CIRCLE
8
PATTERN
62
8
10
94.158
20
199.397
40
0.300
0
CIRCLE
8
PATTERN
62
8
10
96.579
20
183.813
40
0.300
0
CIRCLE
8
PATTERN
62
8
10
106.902
20
186.949
40
0.300
0
CIRCLE
8
PATTERN
62
8
10
100.139
20
192.336
40
0.300
0
CIRCLE
8
PATTERN
62
8
10
92.279
20
185.462
40
0.300
0
CIRCLE
8
PATTERN
62
8
10
109.204
20
199.302
40
0.300
0
CIRCLE
8
PATTERN
62
8
10
88.566
20
183.735
40
0.300
0
CIRCLE
8
PATTERN
62
8
10
89.619
20
183.727
40
0.300
0
CIRCLE
8
PATTERN
62
8
10
87.091
20
193.728
40
0.300
0
CIRCLE
8
PATTERN
62
8
10
103.347
20
187.035
40
0.300
0
CIRCLE
8
PATTERN
62
8
10
98.412
20
189.728
40
0.300
0
CIRCLE
8
PATTERN
62
8
10
97.222
20
196.179
40
0.300
0
CIRCLE
8
PATTERN
62
8
10
89.035
20
188.777
40
0.300
0
CIRCLE
8
PATTERN
62
8
10
101.648
20
183.955
40
0.300
0
CIRCLE
8
PATTERN
62
8
10
100.601
20
185.575
40
0.300
0
CIRCLE
8
PATTERN
62
8
10
109.960
20
183.600
40
0.300
0
CIRCLE
8
PATTERN
62
8
10
92.475
20
184.361
40
0.300
0
CIRCLE
8
PATTERN
62
8
10
88.029
20
192.962
40
0.300
0
CIRCLE
8
PATTERN
62
8
10
92.886
20
197.749
40
0.300
0
CIRCLE
8
PATTERN
62
8
10
102.873
20
182.051
40
0.300
0
CIRCLE
8
PATTERN
62
8
10
97.102
20
200.406
40
0.300
0
CIRCLE
8
PATTERN
62
8
10
113.321
20
199.360
40
0.300
0
CIRCLE
8
PATTERN
62
8
10
90.487
20
184.065
40
0.300
0
CIRCLE
8
PATTERN
62
8
10
89.907
20
195.152
40
0.300
0
CIRCLE
8
PATTERN
62
8
10
116.502
20
183.557
40
0.300
0
CIRCLE
8
PATTERN
62
8
10
88.290
20
191.445
40
0.300
0
CIRCLE
8
PATTERN
62
8
10
95.272
20
189.250
40
0.300
0
CIRCLE
8
PATTERN
62
8
10
100.225
20
200.237
40
0.300
0
CIRCLE
8
PATTERN
62
8
10
93.917
20
195.905
40
0.300
0
CIRCLE
8
PATTERN
62
8
10
92.296
20
192.301
40
0.300
0
CIRCLE
8
PATTERN
62
8
10
102.288
20
182.539
40
0.300
0
CIRCLE
8
PATTERN
62
8
10
118.844
20
194.702
40
0.300
0
CIRCLE
8
PATTERN
62
8
10
105.734
20
199.987
40
0.300
0
CIRCLE
8
PATTERN
62
8
10
107.638
20
183.454
40
0.300
0
CIRCLE
8
PATTERN
62
8
10
97.310
20
185.967
40
0.300
0
CIRCLE
8
PATTERN
62
8
10
120.410
20
199.396
40
0.300
0
CIRCLE
8
PATTERN
62
8
10
110.826
20
197.638
40
0.300
0
CIRCLE
8
PATTERN
62
8
10
102.819
20
183.173
40
0.300
0
CIRCLE
8
PATTERN
62
8
10
120.118
20
197.088
40
0.300
0
TEXT
8
TEXT
62
7
10
48.000
20
191.333
40
2.200
1
Douglas Group
0
TEXT
8
TEXT
62
7
10
66.000
20
191.333
40
2.200
1
C?d
0
TEXT
8
TEXT
62
7
10
147.000
20
191.333
40
2.200
1
20.0
0
TEXT
8
TEXT
62
7
10
157.000
20
191.333
40
2.000
1
Sandstone-shale, transgressive
0
LINE
8
GRID
62
8
10
8.000
20
201.917
11
205.000
21
201.917
0
POLYLINE
8
LITHOLOGY
62
8
66
1
70
1
0
VERTEX
8
LITHOLOGY
10
84.300
20
143.708
0
VERTEX
8
LITHOLOGY
10
121.800
20
143.708
0
VERTEX
8
LITHOLOGY
10
121.800
20
180.750
0
VERTEX
8
LITHOLOGY
10
84.300
20
180.750
0
SEQEND
0
TEXT
8
TEXT
62
7
10
48.000
20
162.229
40
2.200
1
Lansing Group
0
TEXT
8
TEXT
62
7
10
66.000
20
162.229
40
2.200
1
C?l
0
TEXT
8
TEXT
62
7
10
147.000
20
162.229
40
2.200
1
35.0
0
TEXT
8
TEXT
62
7
10
157.000
20
162.229
40
2.000
1
Oolitic limestone, phylloid algal mounds
0
LINE
8
GRID
62
8
10
8.000
20
180.750
11
205.000
21
180.750
0
POLYLINE
8
LITHOLOGY
62
6
66
1
70
1
0
VERTEX
8
LITHOLOGY
10
84.300
20
101.375
0
VERTEX
8
LITHOLOGY
10
121.800
20
101.375
0
VERTEX
8
LITHOLOGY
10
121.800
20
143.708
0
VERTEX
8
LITHOLOGY
10
84.300
20
143.708
0
SEQEND
0
TEXT
8
TEXT
62
7
10
48.000
20
122.542
40
2.200
1
Kansas City Group
0
TEXT
8
TEXT
62
7
10
66.000
20
122.542
40
2.200
1
C?k
0
TEXT
8
TEXT
62
7
10
147.000
20
122.542
40
2.200
1
40.0
0
TEXT
8
TEXT
62
7
10
157.000
20
122.542
40
2.000
1
Cherty limestone with shale partings
0
LINE
8
GRID
62
8
10
8.000
20
143.708
11
205.000
21
143.708
0
POLYLINE
8
LITHOLOGY
62
6
66
1
70
1
0
VERTEX
8
LITHOLOGY
10
84.300
20
48.458
0
VERTEX
8
LITHOLOGY
10
121.800
20
48.458
0
VERTEX
8
LITHOLOGY
10
121.800
20
101.375
0
VERTEX
8
LITHOLOGY
10
84.300
20
101.375
0
SEQEND
0
CIRCLE
8
PATTERN
62
8
10
118.690
20
66.974
40
0.300
0
CIRCLE
8
PATTERN
62
8
10
100.901
20
98.190
40
0.300
0
CIRCLE
8
PATTERN
62
8
10
118.332
20
69.343
40
0.300
0
CIRCLE
8
PATTERN
62
8
10
101.051
20
95.936
40
0.300
0
CIRCLE
8
PATTERN
62
8
10
109.896
20
77.777
40
0.300
0
CIRCLE
8
PATTERN
62
8
10
85.666
20
88.167
40
0.300
0
CIRCLE
8
PATTERN
62
8
10
107.498
20
66.820
40
0.300
0
CIRCLE
8
PATTERN
62
8
10
91.246
20
49.607
40
0.300
0
CIRCLE
8
PATTERN
62
8
10
91.050
20
56.524
40
0.300
0
CIRCLE
8
PATTERN
62
8
10
99.158
20
84.982
40
0.300
0
CIRCLE
8
PATTERN
62
8
10
114.205
20
56.016
40
0.300
0
CIRCLE
8
PATTERN
62
8
10
118.606
20
71.433
40
0.300
0
CIRCLE
8
PATTERN
62
8
10
109.707
20
76.944
40
0.300
0
CIRCLE
8
PATTERN
62
8
10
114.360
20
63.842
40
0.300
0
CIRCLE
8
PATTERN
62
8
10
106.692
20
55.012
40
0.300
0
CIRCLE
8
PATTERN
62
8
10
107.976
20
69.924
40
0.300
0
CIRCLE
8
PATTERN
62
8
10
108.534
20
79.219
40
0.300
0
CIRCLE
8
PATTERN
62
8
10
105.817
20
95.184
40
0.300
0
CIRCLE
8
PATTERN
62
8
10
119.438
20
61.418
40
0.300
0
CIRCLE
8
PATTERN
62
8
10
89.934
20
99.075
40
0.300
0
CIRCLE
8
PATTERN
62
8
10
102.803
20
88.780
40
0.300
0
CIRCLE
8
PATTERN
62
8
10
98.357
20
79.606
40
0.300
0
CIRCLE
8
PATTERN
62
8
10
116.829
20
50.082
40
0.300
0
CIRCLE
8
PATTERN
62
8
10
92.872
20
81.304
40
0.300
0
CIRCLE
8
PATTERN
62
8
10
104.370
20
92.868
40
0.300
0
CIRCLE
8
PATTERN
62
8
10
104.975
20
64.225
40
0.300
0
CIRCLE
8
PATTERN
62
8
10
97.261
20
86.808
40
0.300
0
CIRCLE
8
PATTERN
62
8
10
91.363
20
80.791
40
0.300
0
CIRCLE
8
PATTERN
62
8
10
100.847
20
57.210
40
0.300
0
CIRCLE
8
PATTERN
62
8
10
108.529
20
55.363
40
0.300
0
CIRCLE
8
PATTERN
62
8
10
116.812
20
99.381
40
0.300
0
CIRCLE
8
PATTERN
62
8
10
105.309
20
76.980
40
0.300
0
CIRCLE
8
PATTERN
62
8
10
91.664
20
78.003
40
0.300
0
CIRCLE
8
PATTERN
62
8
10
93.638
20
83.740
40
0.300
0
CIRCLE
8
PATTERN
62
8
10
96.108
20
50.966
40
0.300
0
CIRCLE
8
PATTERN
62
8
10
113.631
20
82.231
40
0.300
0
CIRCLE
8
PATTERN
62
8
10
103.802
20
96.883
40
0.300
0
CIRCLE
8
PATTERN
62
8
10
115.059
20
55.499
40
0.300
0
CIRCLE
8
PATTERN
62
8
10
91.996
20
88.445
40
0.300
0
CIRCLE
8
PATTERN
62
8
10
111.035
20
99.729
40
0.300
0
CIRCLE
8
PATTERN
62
8
10
110.051
20
63.154
40
0.300
0
CIRCLE
8
PATTERN
62
8
10
115.596
20
71.934
40
0.300
0
CIRCLE
8
PATTERN
62
8
10
88.810
20
51.389
40
0.300
0
CIRCLE
8
PATTERN
62
8
10
110.414
20
74.677
40
0.300
0
CIRCLE
8
PATTERN
62
8
10
111.328
20
84.381
40
0.300
0
CIRCLE
8
PATTERN
62
8
10
90.925
20
98.537
40
0.300
0
CIRCLE
8
PATTERN
62
8
10
107.143
20
68.808
40
0.300
0
CIRCLE
8
PATTERN
62
8
10
96.260
20
83.098
40
0.300
0
CIRCLE
8
PATTERN
62
8
10
96.061
20
68.724
40
0.300
0
CIRCLE
8
PATTERN
62
8
10
105.730
20
72.621
40
0.300
0
CIRCLE
8
PATTERN
62
8
10
87.337
20
74.131
40
0.300
0
CIRCLE
8
PATTERN
62
8
10
103.687
20
77.084
40
0.300
0
CIRCLE
8
PATTERN
62
8
10
99.032
20
90.461
40
0.300
0
CIRCLE
8
PATTERN
62
8
10
91.808
20
88.465
40
0.300
0
CIRCLE
8
PATTERN
62
8
10
103.484
20
99.928
40
0.300
0
CIRCLE
8
PATTERN
62
8
10
88.490
20
90.815
40
0.300
0
CIRCLE
8
PATTERN
62
8
10
110.541
20
60.714
40
0.300
0
CIRCLE
8
PATTERN
62
8
10
101.375
20
95.382
40
0.300
0
CIRCLE
8
PATTERN
62
8
10
110.843
20
71.565
40
0.300
0
CIRCLE
8
PATTERN
62
8
10
104.959
20
84.012
40
0.300
0
CIRCLE
8
PATTERN
62
8
10
110.846
20
76.001
40
0.300
0
CIRCLE
8
PATTERN
62
8
10
112.946
20
97.309
40
0.300
0
CIRCLE
8
PATTERN
62
8
10
110.953
20
62.342
40
0.300
0
CIRCLE
8
PATTERN
62
8
10
119.067
20
59.906
40
0.300
0
CIRCLE
8
PATTERN
62
8
10
99.597
20
50.411
40
0.300
0
CIRCLE
8
PATTERN
62
8
10
115.147
20
79.776
40
0.300
0
CIRCLE
8
PATTERN
62
8
10
103.342
20
97.267
40
0.300
0
CIRCLE
8
PATTERN
62
8
10
118.299
20
71.772
40
0.300
0
CIRCLE
8
PATTERN
62
8
10
119.681
20
53.287
40
0.300
0
CIRCLE
8
PATTERN
62
8
10
104.327
20
63.603
40
0.300
0
CIRCLE
8
PATTERN
62
8
10
97.953
20
63.949
40
0.300
0
CIRCLE
8
PATTERN
62
8
10
117.855
20
50.515
40
0.300
0
CIRCLE
8
PATTERN
62
8
10
97.296
20
95.440
40
0.300
0
CIRCLE
8
PATTERN
62
8
10
111.989
20
49.886
40
0.300
0
CIRCLE
8
PATTERN
62
8
10
100.533
20
81.027
40
0.300
0
CIRCLE
8
PATTERN
62
8
10
119.596
20
83.585
40
0.300
0
CIRCLE
8
PATTERN
62
8
10
114.810
20
90.596
40
0.300
0
CIRCLE
8
PATTERN
62
8
10
110.463
20
57.722
40
0.300
0
CIRCLE
8
PATTERN
62
8
10
106.337
20
88.431
40
0.300
0
CIRCLE
8
PATTERN
62
8
10
89.352
20
90.623
40
0.300
0
CIRCLE
8
PATTERN
62
8
10
86.612
20
62.718
40
0.300
0
CIRCLE
8
PATTERN
62
8
10
100.730
20
90.794
40
0.300
0
CIRCLE
8
PATTERN
62
8
10
112.956
20
80.092
40
0.300
0
CIRCLE
8
PATTERN
62
8
10
116.954
20
57.565
40
0.300
0
CIRCLE
8
PATTERN
62
8
10
114.523
20
84.755
40
0.300
0
CIRCLE
8
PATTERN
62
8
10
95.852
20
69.979
40
0.300
0
CIRCLE
8
PATTERN
62
8
10
94.370
20
70.426
40
0.300
0
CIRCLE
8
PATTERN
62
8
10
109.222
20
64.578
40
0.300
0
CIRCLE
8
PATTERN
62
8
10
114.580
20
58.806
40
0.300
0
CIRCLE
8
PATTERN
62
8
10
94.011
20
75.758
40
0.300
0
CIRCLE
8
PATTERN
62
8
10
98.519
20
69.748
40
0.300
0
CIRCLE
8
PATTERN
62
8
10
102.695
20
91.936
40
0.300
0
CIRCLE
8
PATTERN
62
8
10
111.490
20
79.645
40
0.300
0
CIRCLE
8
PATTERN
62
8
10
86.369
20
65.171
40
0.300
0
CIRCLE
8
PATTERN
62
8
10
105.807
20
58.784
40
0.300
0
CIRCLE
8
PATTERN
62
8
10
86.352
20
95.482
40
0.300
0
CIRCLE
8
PATTERN
62
8
10
106.650
20
68.091
40
0.300
0
CIRCLE
8
PATTERN
62
8
10
90.531
20
91.307
40
0.300
0
CIRCLE
8
PATTERN
62
8
10
100.180
20
68.064
40
0.300
0
CIRCLE
8
PATTERN
62
8
10
105.530
20
63.312
40
0.300
0
CIRCLE
8
PATTERN
62
8
10
109.448
20
92.481
40
0.300
0
CIRCLE
8
PATTERN
62
8
10
119.299
20
80.487
40
0.300
0
CIRCLE
8
PATTERN
62
8
10
101.227
20
87.307
40
0.300
0
CIRCLE
8
PATTERN
62
8
10
116.224
20
50.732
40
0.300
0
CIRCLE
8
PATTERN
62
8
10
114.414
20
70.252
40
0.300
0
CIRCLE
8
PATTERN
62
8
10
97.568
20
57.591
40
0.300
0
CIRCLE
8
PATTERN
62
8
10
102.524
20
92.047
40
0.300
0
CIRCLE
8
PATTERN
62
8
10
110.426
20
91.989
40
0.300
0
CIRCLE
8
PATTERN
62
8
10
97.652
20
89.487
40
0.300
0
CIRCLE
8
PATTERN
62
8
10
118.651
20
71.208
40
0.300
0
CIRCLE
8
PATTERN
62
8
10
102.198
20
98.408
40
0.300
0
CIRCLE
8
PATTERN
62
8
10
111.198
20
57.805
40
0.300
0
CIRCLE
8
PATTERN
62
8
10
86.682
20
97.696
40
0.300
0
CIRCLE
8
PATTERN
62
8
10
99.578
20
66.490
40
0.300
0
CIRCLE
8
PATTERN
62
8
10
115.046
20
60.030
40
0.300
0
CIRCLE
8
PATTERN
62
8
10
96.143
20
95.640
40
0.300
0
CIRCLE
8
PATTERN
62
8
10
117.074
20
89.585
40
0.300
0
CIRCLE
8
PATTERN
62
8
10
110.377
20
86.072
40
0.300
0
CIRCLE
8
PATTERN
62
8
10
106.034
20
94.374
40
0.300
0
CIRCLE
8
PATTERN
62
8
10
107.897
20
92.729
40
0.300
0
CIRCLE
8
PATTERN
62
8
10
96.114
20
83.126
40
0.300
0
CIRCLE
8
PATTERN
62
8
10
100.151
20
60.546
40
0.300
0
CIRCLE
8
PATTERN
62
8
10
120.772
20
50.545
40
0.300
0
CIRCLE
8
PATTERN
62
8
10
117.932
20
75.044
40
0.300
0
CIRCLE
8
PATTERN
62
8
10
89.136
20
69.411
40
0.300
0
CIRCLE
8
PATTERN
62
8
10
102.366
20
69.129
40
0.300
0
CIRCLE
8
PATTERN
62
8
10
99.679
20
87.239
40
0.300
0
CIRCLE
8
PATTERN
62
8
10
112.346
20
87.859
40
0.300
0
CIRCLE
8
PATTERN
62
8
10
98.458
20
97.367
40
0.300
0
CIRCLE
8
PATTERN
62
8
10
106.335
20
81.655
40
0.300
0
CIRCLE
8
PATTERN
62
8
10
87.744
20
61.294
40
0.300
0
CIRCLE
8
PATTERN
62
8
10
114.583
20
80.862
40
0.300
0
CIRCLE
8
PATTERN
62
8
10
110.776
20
88.860
40
0.300
0
CIRCLE
8
PATTERN
62
8
10
109.247
20
97.906
40
0.300
0
CIRCLE
8
PATTERN
62
8
10
117.500
20
64.108
40
0.300
0
CIRCLE
8
PATTERN
62
8
10
88.661
20
56.166
40
0.300
0
CIRCLE
8
PATTERN
62
8
10
112.214
20
71.945
40
0.300
0
CIRCLE
8
PATTERN
62
8
10
120.545
20
78.122
40
0.300
0
CIRCLE
8
PATTERN
62
8
10
89.259
20
67.639
40
0.300
0
CIRCLE
8
PATTERN
62
8
10
111.908
20
50.396
40
0.300
0
CIRCLE
8
PATTERN
62
8
10
93.588
20
92.114
40
0.300
0
CIRCLE
8
PATTERN
62
8
10
90.374
20
70.570
40
0.300
0
CIRCLE
8
PATTERN
62
8
10
111.611
20
99.520
40
0.300
0
CIRCLE
8
PATTERN
62
8
10
97.926
20
78.720
40
0.300
0
CIRCLE
8
PATTERN
62
8
10
90.957
20
71.384
40
0.300
0
CIRCLE
8
PATTERN
62
8
10
107.118
20
55.460
40
0.300
0
CIRCLE
8
PATTERN
62
8
10
119.893
20
54.615
40
0.300
0
CIRCLE
8
PATTERN
62
8
10
113.670
20
56.551
40
0.300
0
CIRCLE
8
PATTERN
62
8
10
101.401
20
75.871
40
0.300
0
CIRCLE
8
PATTERN
62
8
10
105.359
20
89.241
40
0.300
0
CIRCLE
8
PATTERN
62
8
10
120.120
20
57.776
40
0.300
0
CIRCLE
8
PATTERN
62
8
10
85.308
20
71.008
40
0.300
0
CIRCLE
8
PATTERN
62
8
10
104.724
20
98.422
40
0.300
0
CIRCLE
8
PATTERN
62
8
10
111.043
20
51.901
40
0.300
0
CIRCLE
8
PATTERN
62
8
10
94.516
20
94.113
40
0.300
0
CIRCLE
8
PATTERN
62
8
10
117.784
20
95.750
40
0.300
0
CIRCLE
8
PATTERN
62
8
10
116.271
20
80.750
40
0.300
0
CIRCLE
8
PATTERN
62
8
10
106.909
20
89.422
40
0.300
0
CIRCLE
8
PATTERN
62
8
10
116.960
20
75.524
40
0.300
0
CIRCLE
8
PATTERN
62
8
10
86.596
20
64.380
40
0.300
0
CIRCLE
8
PATTERN
62
8
10
115.872
20
71.679
40
0.300
0
CIRCLE
8
PATTERN
62
8
10
105.144
20
73.448
40
0.300
0
CIRCLE
8
PATTERN
62
8
10
108.518
20
72.639
40
0.300
0
CIRCLE
8
PATTERN
62
8
10
118.505
20
85.720
40
0.300
0
CIRCLE
8
PATTERN
62
8
10
113.966
20
71.448
40
0.300
0
CIRCLE
8
PATTERN
62
8
10
119.534
20
97.860
40
0.300
0
CIRCLE
8
PATTERN
62
8
10
120.103
20
50.181
40
0.300
0
CIRCLE
8
PATTERN
62
8
10
105.938
20
70.931
40
0.300
0
CIRCLE
8
PATTERN
62
8
10
109.457
20
94.757
40
0.300
0
CIRCLE
8
PATTERN
62
8
10
116.237
20
78.380
40
0.300
0
CIRCLE
8
PATTERN
62
8
10
88.325
20
53.281
40
0.300
0
CIRCLE
8
PATTERN
62
8
10
86.871
20
54.716
40
0.300
0
CIRCLE
8
PATTERN
62
8
10
105.336
20
80.802
40
0.300
0
CIRCLE
8
PATTERN
62
8
10
94.845
20
69.587
40
0.300
0
CIRCLE
8
PATTERN
62
8
10
93.247
20
55.585
40
0.300
0
CIRCLE
8
PATTERN
62
8
10
98.073
20
86.835
40
0.300
0
CIRCLE
8
PATTERN
62
8
10
90.468
20
79.896
40
0.300
0
CIRCLE
8
PATTERN
62
8
10
108.122
20
55.607
40
0.300
0
CIRCLE
8
PATTERN
62
8
10
105.559
20
55.012
40
0.300
0
CIRCLE
8
PATTERN
62
8
10
85.487
20
49.767
40
0.300
0
CIRCLE
8
PATTERN
62
8
10
99.384
20
95.410
40
0.300
0
CIRCLE
8
PATTERN
62
8
10
114.512
20
75.483
40
0.300
0
CIRCLE
8
PATTERN
62
8
10
107.764
20
88.223
40
0.300
0
CIRCLE
8
PATTERN
62
8
10
89.145
20
87.849
40
0.300
0
CIRCLE
8
PATTERN
62
8
10
98.851
20
67.322
40
0.300
0
CIRCLE
8
PATTERN
62
8
10
93.744
20
65.232
40
0.300
0
CIRCLE
8
PATTERN
62
8
10
100.150
20
71.016
40
0.300
0
CIRCLE
8
PATTERN
62
8
10
112.687
20
82.179
40
0.300
0
CIRCLE
8
PATTERN
62
8
10
117.230
20
59.275
40
0.300
0
CIRCLE
8
PATTERN
62
8
10
120.514
20
63.417
40
0.300
0
CIRCLE
8
PATTERN
62
8
10
87.456
20
59.648
40
0.300
0
CIRCLE
8
PATTERN
62
8
10
106.494
20
70.286
40
0.300
0
CIRCLE
8
PATTERN
62
8
10
107.336
20
98.396
40
0.300
0
CIRCLE
8
PATTERN
62
8
10
107.825
20
76.668
40
0.300
0
CIRCLE
8
PATTERN
62
8
10
117.910
20
72.340
40
0.300
0
CIRCLE
8
PATTERN
62
8
10
87.509
20
84.984
40
0.300
0
CIRCLE
8
PATTERN
62
8
10
94.888
20
63.931
40
0.300
0
CIRCLE
8
PATTERN
62
8
10
104.471
20
61.215
40
0.300
0
CIRCLE
8
PATTERN
62
8
10
95.889
20
83.265
40
0.300
0
CIRCLE
8
PATTERN
62
8
10
92.642
20
81.120
40
0.300
0
CIRCLE
8
PATTERN
62
8
10
113.500
20
94.613
40
0.300
0
CIRCLE
8
PATTERN
62
8
10
106.308
20
66.099
40
0.300
0
CIRCLE
8
PATTERN
62
8
10
116.090
20
71.759
40
0.300
0
CIRCLE
8
PATTERN
62
8
10
103.420
20
54.096
40
0.300
0
CIRCLE
8
PATTERN
62
8
10
101.344
20
99.494
40
0.300
0
CIRCLE
8
PATTERN
62
8
10
102.554
20
91.815
40
0.300
0
CIRCLE
8
PATTERN
62
8
10
97.332
20
98.021
40
0.300
0
CIRCLE
8
PATTERN
62
8
10
92.267
20
90.689
40
0.300
0
CIRCLE
8
PATTERN
62
8
10
101.363
20
96.819
40
0.300
0
CIRCLE
8
PATTERN
62
8
10
91.380
20
70.233
40
0.300
0
CIRCLE
8
PATTERN
62
8
10
105.673
20
66.887
40
0.300
0
CIRCLE
8
PATTERN
62
8
10
107.111
20
75.514
40
0.300
0
CIRCLE
8
PATTERN
62
8
10
101.353
20
78.028
40
0.300
0
CIRCLE
8
PATTERN
62
8
10
91.455
20
49.789
40
0.300
0
CIRCLE
8
PATTERN
62
8
10
93.769
20
100.113
40
0.300
0
CIRCLE
8
PATTERN
62
8
10
118.915
20
78.484
40
0.300
0
CIRCLE
8
PATTERN
62
8
10
94.680
20
92.262
40
0.300
0
CIRCLE
8
PATTERN
62
8
10
105.766
20
58.047
40
0.300
0
CIRCLE
8
PATTERN
62
8
10
85.429
20
59.132
40
0.300
0
CIRCLE
8
PATTERN
62
8
10
105.622
20
93.805
40
0.300
0
CIRCLE
8
PATTERN
62
8
10
89.764
20
59.691
40
0.300
0
CIRCLE
8
PATTERN
62
8
10
91.571
20
52.586
40
0.300
0
CIRCLE
8
PATTERN
62
8
10
96.607
20
54.217
40
0.300
0
CIRCLE
8
PATTERN
62
8
10
105.113
20
66.846
40
0.300
0
CIRCLE
8
PATTERN
62
8
10
109.764
20
87.608
40
0.300
0
CIRCLE
8
PATTERN
62
8
10
117.885
20
82.522
40
0.300
0
CIRCLE
8
PATTERN
62
8
10
109.586
20
94.864
40
0.300
0
CIRCLE
8
PATTERN
62
8
10
91.848
20
89.676
40
0.300
0
CIRCLE
8
PATTERN
62
8
10
93.393
20
70.285
40
0.300
0
CIRCLE
8
PATTERN
62
8
10
108.494
20
80.511
40
0.300
0
CIRCLE
8
PATTERN
62
8
10
88.608
20
89.217
40
0.300
0
CIRCLE
8
PATTERN
62
8
10
113.724
20
76.847
40
0.300
0
CIRCLE
8
PATTERN
62
8
10
106.756
20
50.256
40
0.300
0
CIRCLE
8
PATTERN
62
8
10
88.653
20
64.911
40
0.300
0
CIRCLE
8
PATTERN
62
8
10
113.434
20
62.591
40
0.300
0
CIRCLE
8
PATTERN
62
8
10
86.667
20
67.173
40
0.300
0
CIRCLE
8
PATTERN
62
8
10
104.957
20
62.771
40
0.300
0
CIRCLE
8
PATTERN
62
8
10
118.693
20
70.103
40
0.300
0
CIRCLE
8
PATTERN
62
8
10
87.626
20
82.450
40
0.300
0
CIRCLE
8
PATTERN
62
8
10
108.482
20
93.125
40
0.300
0
CIRCLE
8
PATTERN
62
8
10
86.334
20
57.893
40
0.300
0
CIRCLE
8
PATTERN
62
8
10
95.637
20
52.634
40
0.300
0
CIRCLE
8
PATTERN
62
8
10
101.688
20
82.043
40
0.300
0
CIRCLE
8
PATTERN
62
8
10
88.449
20
53.460
40
0.300
0
CIRCLE
8
PATTERN
62
8
10
88.888
20
63.288
40
0.300
0
CIRCLE
8
PATTERN
62
8
10
113.118
20
93.455
40
0.300
0
CIRCLE
8
PATTERN
62
8
10
113.963
20
58.568
40
0.300
0
CIRCLE
8
PATTERN
62
8
10
117.133
20
51.619
40
0.300
0
TEXT
8
TEXT
62
7
10
48.000
20
74.917
40
2.200
1
Cherokee Group
0
TEXT
8
TEXT
62
7
10
66.000
20
74.917
40
2.200
1
C?c
0
TEXT
8
TEXT
62
7
10
147.000
20
74.917
40
2.200
1
50.0
0
TEXT
8
TEXT
62
7
10
157.000
20
74.917
40
2.000
1
Cyclic sandstone-shale-coal, deltaic
0
LINE
8
GRID
62
8
10
8.000
20
101.375
11
205.000
21
101.375
0
POLYLINE
8
LITHOLOGY
62
4
66
1
70
1
0
VERTEX
8
LITHOLOGY
10
84.300
20
22.000
0
VERTEX
8
LITHOLOGY
10
121.800
20
22.000
0
VERTEX
8
LITHOLOGY
10
121.800
20
48.458
0
VERTEX
8
LITHOLOGY
10
84.300
20
48.458
0
SEQEND
0
TEXT
8
TEXT
62
7
10
48.000
20
35.229
40
2.200
1
Kinderhookian
0
TEXT
8
TEXT
62
7
10
66.000
20
35.229
40
2.200
1
C?k
0
TEXT
8
TEXT
62
7
10
147.000
20
35.229
40
2.200
1
25.0
0
TEXT
8
TEXT
62
7
10
157.000
20
35.229
40
2.000
1
Dark shale, anoxic, basal transgression
0
LINE
8
GRID
62
8
10
8.000
20
48.458
11
205.000
21
48.458
0
TEXT
8
FOOTER
62
8
10
8.000
20
17.000
40
2.000
1
Carboniferous Cyclothem ? Midcontinent USA | 240m | 8 layers | Scale 1:944
0
TEXT
8
FOOTER
62
9
10
8.000
20
14.000
40
1.600
1
CorelDRAWer-Skill (github.com/Reasonite-lab/CorelDRAWer-Skill)
0
ENDSEC
0
EOF