0
SECTION
2
ENTITIES
0
TEXT
8
TITLE
62
7
10
106.500
20
302.000
40
4.500
1
Cretaceous Oceanic Anoxic Events ? Tethyan Reference
0
POLYLINE
8
HEADER
62
8
66
1
70
1
0
VERTEX
8
HEADER
10
8.000
20
276.000
0
VERTEX
8
HEADER
10
205.000
20
276.000
0
VERTEX
8
HEADER
10
205.000
20
290.000
0
VERTEX
8
HEADER
10
8.000
20
290.000
0
SEQEND
0
TEXT
8
HEADER
62
7
10
14.500
20
283.000
40
2.800
1
Era
0
TEXT
8
HEADER
62
7
10
27.500
20
283.000
40
2.800
1
Sys
0
TEXT
8
HEADER
62
7
10
40.500
20
283.000
40
2.800
1
Ser
0
TEXT
8
HEADER
62
7
10
56.000
20
283.000
40
2.800
1
Fm
0
TEXT
8
HEADER
62
7
10
71.000
20
283.000
40
2.800
1
Sym
0
TEXT
8
HEADER
62
7
10
80.500
20
283.000
40
2.800
1
Fossils
0
TEXT
8
HEADER
62
7
10
104.000
20
283.000
40
2.800
1
Lithology
0
TEXT
8
HEADER
62
7
10
131.500
20
283.000
40
2.800
1
Grain
0
TEXT
8
HEADER
62
7
10
142.500
20
283.000
40
2.800
1
Struc
0
TEXT
8
HEADER
62
7
10
151.000
20
283.000
40
2.800
1
Thick(m)
0
TEXT
8
HEADER
62
7
10
188.500
20
283.000
40
2.800
1
Description
0
LINE
8
GRID
62
8
10
21.000
20
22.000
11
21.000
21
290.000
0
LINE
8
GRID
62
8
10
34.000
20
22.000
11
34.000
21
290.000
0
LINE
8
GRID
62
8
10
47.000
20
22.000
11
47.000
21
290.000
0
LINE
8
GRID
62
8
10
65.000
20
22.000
11
65.000
21
290.000
0
LINE
8
GRID
62
8
10
77.000
20
22.000
11
77.000
21
290.000
0
LINE
8
GRID
62
8
10
84.000
20
22.000
11
84.000
21
290.000
0
LINE
8
GRID
62
8
10
124.000
20
22.000
11
124.000
21
290.000
0
LINE
8
GRID
62
8
10
139.000
20
22.000
11
139.000
21
290.000
0
LINE
8
GRID
62
8
10
146.000
20
22.000
11
146.000
21
290.000
0
LINE
8
GRID
62
8
10
156.000
20
22.000
11
156.000
21
290.000
0
LINE
8
BORDER
62
7
10
8.000
20
22.000
11
8.000
21
290.000
0
LINE
8
BORDER
62
7
10
205.000
20
22.000
11
205.000
21
290.000
0
LINE
8
BORDER
62
7
10
8.000
20
290.000
11
205.000
21
290.000
0
LINE
8
BORDER
62
7
10
8.000
20
22.000
11
205.000
21
22.000
0
POLYLINE
8
LITHOLOGY
62
9
66
1
70
1
0
VERTEX
8
LITHOLOGY
10
84.300
20
208.166
0
VERTEX
8
LITHOLOGY
10
121.800
20
208.166
0
VERTEX
8
LITHOLOGY
10
121.800
20
276.000
0
VERTEX
8
LITHOLOGY
10
84.300
20
276.000
0
SEQEND
0
TEXT
8
TEXT
62
7
10
48.000
20
242.083
40
2.200
1
Scaglia Bianca
0
TEXT
8
TEXT
62
7
10
66.000
20
242.083
40
2.200
1
K?s
0
TEXT
8
TEXT
62
7
10
147.000
20
242.083
40
2.200
1
45.0
0
TEXT
8
TEXT
62
7
10
157.000
20
242.083
40
2.000
1
White pelagic limestone, OAE 3
0
LINE
8
GRID
62
8
10
8.000
20
276.000
11
205.000
21
276.000
0
POLYLINE
8
LITHOLOGY
62
1
66
1
70
1
0
VERTEX
8
LITHOLOGY
10
84.300
20
204.666
0
VERTEX
8
LITHOLOGY
10
121.800
20
204.666
0
VERTEX
8
LITHOLOGY
10
121.800
20
208.166
0
VERTEX
8
LITHOLOGY
10
84.300
20
208.166
0
SEQEND
0
TEXT
8
TEXT
62
7
10
48.000
20
206.416
40
2.200
1
Bonarelli Level
0
TEXT
8
TEXT
62
7
10
66.000
20
206.416
40
2.200
1
K?b
0
TEXT
8
TEXT
62
7
10
147.000
20
206.416
40
2.200
1
1.5
0
TEXT
8
TEXT
62
7
10
157.000
20
206.416
40
2.000
1
Black shale, OAE 2 ? Cenomanian-Turonian ???C excursion +5?
0
LINE
8
GRID
62
8
10
8.000
20
208.166
11
205.000
21
208.166
0
POLYLINE
8
LITHOLOGY
62
8
66
1
70
1
0
VERTEX
8
LITHOLOGY
10
84.300
20
151.907
0
VERTEX
8
LITHOLOGY
10
121.800
20
151.907
0
VERTEX
8
LITHOLOGY
10
121.800
20
204.666
0
VERTEX
8
LITHOLOGY
10
84.300
20
204.666
0
SEQEND
0
TEXT
8
TEXT
62
7
10
48.000
20
178.286
40
2.200
1
Scaglia Bianca
0
TEXT
8
TEXT
62
7
10
66.000
20
178.286
40
2.200
1
K?s
0
TEXT
8
TEXT
62
7
10
147.000
20
178.286
40
2.200
1
35.0
0
TEXT
8
TEXT
62
7
10
157.000
20
178.286
40
2.000
1
White foraminiferal limestone
0
LINE
8
GRID
62
8
10
8.000
20
204.666
11
205.000
21
204.666
0
POLYLINE
8
LITHOLOGY
62
1
66
1
70
1
0
VERTEX
8
LITHOLOGY
10
84.300
20
114.221
0
VERTEX
8
LITHOLOGY
10
121.800
20
114.221
0
VERTEX
8
LITHOLOGY
10
121.800
20
151.907
0
VERTEX
8
LITHOLOGY
10
84.300
20
151.907
0
SEQEND
0
TEXT
8
TEXT
62
7
10
48.000
20
133.064
40
2.200
1
Marne a Fucoidi
0
TEXT
8
TEXT
62
7
10
66.000
20
133.064
40
2.200
1
K?m
0
TEXT
8
TEXT
62
7
10
147.000
20
133.064
40
2.200
1
25.0
0
TEXT
8
TEXT
62
7
10
157.000
20
133.064
40
2.000
1
Varicolored marl, OAE 1d
0
LINE
8
GRID
62
8
10
8.000
20
151.907
11
205.000
21
151.907
0
POLYLINE
8
LITHOLOGY
62
1
66
1
70
1
0
VERTEX
8
LITHOLOGY
10
84.300
20
110.721
0
VERTEX
8
LITHOLOGY
10
121.800
20
110.721
0
VERTEX
8
LITHOLOGY
10
121.800
20
114.221
0
VERTEX
8
LITHOLOGY
10
84.300
20
114.221
0
SEQEND
0
TEXT
8
TEXT
62
7
10
48.000
20
112.471
40
2.200
1
Selli Level
0
TEXT
8
TEXT
62
7
10
66.000
20
112.471
40
2.200
1
K?s
0
TEXT
8
TEXT
62
7
10
147.000
20
112.471
40
2.200
1
2.0
0
TEXT
8
TEXT
62
7
10
157.000
20
112.471
40
2.000
1
Black shale, OAE 1a ? Early Aptian ???C excursion ?3?
0
LINE
8
GRID
62
8
10
8.000
20
114.221
11
205.000
21
114.221
0
POLYLINE
8
LITHOLOGY
62
9
66
1
70
1
0
VERTEX
8
LITHOLOGY
10
84.300
20
20.276
0
VERTEX
8
LITHOLOGY
10
121.800
20
20.276
0
VERTEX
8
LITHOLOGY
10
121.800
20
110.721
0
VERTEX
8
LITHOLOGY
10
84.300
20
110.721
0
SEQEND
0
TEXT
8
TEXT
62
7
10
48.000
20
65.499
40
2.200
1
Maiolica Fm
0
TEXT
8
TEXT
62
7
10
66.000
20
65.499
40
2.200
1
K?m
0
TEXT
8
TEXT
62
7
10
147.000
20
65.499
40
2.200
1
60.0
0
TEXT
8
TEXT
62
7
10
157.000
20
65.499
40
2.000
1
White nannofossil limestone
0
LINE
8
GRID
62
8
10
8.000
20
110.721
11
205.000
21
110.721
0
TEXT
8
FOOTER
62
8
10
8.000
20
17.000
40
2.000
1
Cretaceous Oceanic Anoxic Events ? Tethyan Reference | 168m | 6 layers | Scale 1:663
0
TEXT
8
FOOTER
62
9
10
8.000
20
14.000
40
1.600
1
CorelDRAWer-Skill (github.com/Reasonite-lab/CorelDRAWer-Skill)
0
ENDSEC
0
EOF