<?xml version="1.0" encoding="UTF-8"?>
<svg xmlns="http://www.w3.org/2000/svg" xmlns:xlink="http://www.w3.org/1999/xlink" viewBox="0 0 880 500" width="880mm" height="500mm" version="1.1">
  <defs>
    <clipPath id="clip_xsec_0">
      <polygon points="50.0,50.0 350.0,100.0 650.0,64.3 650.0,71.4 350.0,117.1 50.0,61.4"/>
    </clipPath>
    <clipPath id="clip_xsec_1">
      <polygon points="50.0,61.4 350.0,117.1 650.0,71.4 650.0,157.1 350.0,217.1 50.0,140.0"/>
    </clipPath>
    <clipPath id="clip_xsec_2">
      <polygon points="50.0,140.0 350.0,217.1 650.0,157.1 650.0,207.1 350.0,257.1 50.0,185.7"/>
    </clipPath>
    <clipPath id="clip_xsec_3">
      <polygon points="50.0,185.7 350.0,257.1 650.0,207.1 650.0,342.9 350.0,400.0 50.0,307.1"/>
    </clipPath>
  </defs>
  <g id="cdr-background" data-cdr-layer="background">
    <rect x="0" y="0" width="880" height="500" fill="#fff" stroke="none" stroke-width="0"/>
  </g>
  <g id="cdr-title" data-cdr-layer="title">
    <text x="350.0" y="20" font-family="SimHei, Heiti SC, sans-serif" font-size="5" font-weight="bold" text-anchor="middle" fill="#000" data-cdr-type="title">Geological Cross-Section A-A'</text>
    <text x="350.0" y="28" font-family="SimHei, Heiti SC, sans-serif" font-size="3" font-weight="normal" text-anchor="middle" fill="#666" data-cdr-type="orientation">NW → SE</text>
    <text x="350.0" y="35" font-family="SimHei, Heiti SC, sans-serif" font-size="2.5" font-weight="normal" text-anchor="middle" fill="#999" data-cdr-type="ve-note">Vertical exaggeration: 5×</text>
  </g>
  <g id="cdr-body" data-cdr-layer="body">
    <path d="M 50.0,50.0 L 350.0,100.0 L 650.0,64.28571428571429" fill="none" stroke="#2e7d32" stroke-width="1.2" data-cdr-type="surface-line"/>
    <path d="M 50.0,50.0 L 350.0,100.0 L 650.0,64.28571428571429 L 650.0,20 L 50.0,20 Z" fill="#e8f5e9" stroke="none" data-cdr-type="surface-fill"/>
    <line x1="50.0" y1="50.0" x2="50.0" y2="307.14285714285717" stroke="#333" stroke-width="0.4" data-cdr-type="borehole-line"/>
    <circle cx="50.0" cy="50.0" r="2.5" fill="#c0392b" stroke="#fff" stroke-width="0.5"/>
    <text x="50.0" y="45.0" font-family="SimHei, Heiti SC, sans-serif" font-size="3" font-weight="bold" text-anchor="middle" fill="#c0392b" data-cdr-type="borehole-label">ZK001</text>
    <line x1="350.0" y1="100.0" x2="350.0" y2="400.0" stroke="#333" stroke-width="0.4" data-cdr-type="borehole-line"/>
    <circle cx="350.0" cy="100.0" r="2.5" fill="#c0392b" stroke="#fff" stroke-width="0.5"/>
    <text x="350.0" y="95.0" font-family="SimHei, Heiti SC, sans-serif" font-size="3" font-weight="bold" text-anchor="middle" fill="#c0392b" data-cdr-type="borehole-label">ZK002</text>
    <line x1="650.0" y1="64.28571428571429" x2="650.0" y2="342.8571428571429" stroke="#333" stroke-width="0.4" data-cdr-type="borehole-line"/>
    <circle cx="650.0" cy="64.28571428571429" r="2.5" fill="#c0392b" stroke="#fff" stroke-width="0.5"/>
    <text x="650.0" y="59.28571428571429" font-family="SimHei, Heiti SC, sans-serif" font-size="3" font-weight="bold" text-anchor="middle" fill="#c0392b" data-cdr-type="borehole-label">ZK003</text>
    <g data-cdr-type="layer-band" data-cdr-name="Quaternary alluvium" data-cdr-pattern="conglo">
      <polygon points="50.0,50.0 350.0,100.0 650.0,64.3 650.0,71.4 350.0,117.1 50.0,61.4" fill="#e5ceac" stroke="#444" stroke-width="0.3" data-cdr-type="layer-fill"/>
      <g clip-path="url(#clip_xsec_0)">
        <circle cx="72.67999999999999" cy="72.67999999999999" r="1.2" fill="none" stroke="#000" stroke-width="0.2"/>
        <circle cx="72.67999999999999" cy="105.07999999999998" r="1.2" fill="none" stroke="#000" stroke-width="0.2"/>
        <circle cx="105.07999999999998" cy="72.67999999999999" r="1.2" fill="none" stroke="#000" stroke-width="0.2"/>
        <circle cx="105.07999999999998" cy="105.07999999999998" r="1.2" fill="none" stroke="#000" stroke-width="0.2"/>
        <circle cx="137.48" cy="72.67999999999999" r="1.2" fill="none" stroke="#000" stroke-width="0.2"/>
        <circle cx="137.48" cy="105.07999999999998" r="1.2" fill="none" stroke="#000" stroke-width="0.2"/>
        <circle cx="169.88" cy="72.67999999999999" r="1.2" fill="none" stroke="#000" stroke-width="0.2"/>
        <circle cx="169.88" cy="105.07999999999998" r="1.2" fill="none" stroke="#000" stroke-width="0.2"/>
        <circle cx="202.28" cy="72.67999999999999" r="1.2" fill="none" stroke="#000" stroke-width="0.2"/>
        <circle cx="202.28" cy="105.07999999999998" r="1.2" fill="none" stroke="#000" stroke-width="0.2"/>
        <circle cx="234.68" cy="72.67999999999999" r="1.2" fill="none" stroke="#000" stroke-width="0.2"/>
        <circle cx="234.68" cy="105.07999999999998" r="1.2" fill="none" stroke="#000" stroke-width="0.2"/>
        <circle cx="267.08" cy="72.67999999999999" r="1.2" fill="none" stroke="#000" stroke-width="0.2"/>
        <circle cx="267.08" cy="105.07999999999998" r="1.2" fill="none" stroke="#000" stroke-width="0.2"/>
        <circle cx="299.47999999999996" cy="72.67999999999999" r="1.2" fill="none" stroke="#000" stroke-width="0.2"/>
        <circle cx="299.47999999999996" cy="105.07999999999998" r="1.2" fill="none" stroke="#000" stroke-width="0.2"/>
        <circle cx="331.87999999999994" cy="72.67999999999999" r="1.2" fill="none" stroke="#000" stroke-width="0.2"/>
        <circle cx="331.87999999999994" cy="105.07999999999998" r="1.2" fill="none" stroke="#000" stroke-width="0.2"/>
        <circle cx="364.2799999999999" cy="72.67999999999999" r="1.2" fill="none" stroke="#000" stroke-width="0.2"/>
        <circle cx="364.2799999999999" cy="105.07999999999998" r="1.2" fill="none" stroke="#000" stroke-width="0.2"/>
        <circle cx="396.6799999999999" cy="72.67999999999999" r="1.2" fill="none" stroke="#000" stroke-width="0.2"/>
        <circle cx="396.6799999999999" cy="105.07999999999998" r="1.2" fill="none" stroke="#000" stroke-width="0.2"/>
        <circle cx="429.07999999999987" cy="72.67999999999999" r="1.2" fill="none" stroke="#000" stroke-width="0.2"/>
        <circle cx="429.07999999999987" cy="105.07999999999998" r="1.2" fill="none" stroke="#000" stroke-width="0.2"/>
        <circle cx="461.47999999999985" cy="72.67999999999999" r="1.2" fill="none" stroke="#000" stroke-width="0.2"/>
        <circle cx="461.47999999999985" cy="105.07999999999998" r="1.2" fill="none" stroke="#000" stroke-width="0.2"/>
        <circle cx="493.8799999999998" cy="72.67999999999999" r="1.2" fill="none" stroke="#000" stroke-width="0.2"/>
        <circle cx="493.8799999999998" cy="105.07999999999998" r="1.2" fill="none" stroke="#000" stroke-width="0.2"/>
        <circle cx="526.2799999999999" cy="72.67999999999999" r="1.2" fill="none" stroke="#000" stroke-width="0.2"/>
        <circle cx="526.2799999999999" cy="105.07999999999998" r="1.2" fill="none" stroke="#000" stroke-width="0.2"/>
        <circle cx="558.6799999999998" cy="72.67999999999999" r="1.2" fill="none" stroke="#000" stroke-width="0.2"/>
        <circle cx="558.6799999999998" cy="105.07999999999998" r="1.2" fill="none" stroke="#000" stroke-width="0.2"/>
        <circle cx="591.0799999999998" cy="72.67999999999999" r="1.2" fill="none" stroke="#000" stroke-width="0.2"/>
        <circle cx="591.0799999999998" cy="105.07999999999998" r="1.2" fill="none" stroke="#000" stroke-width="0.2"/>
        <circle cx="623.4799999999998" cy="72.67999999999999" r="1.2" fill="none" stroke="#000" stroke-width="0.2"/>
        <circle cx="623.4799999999998" cy="105.07999999999998" r="1.2" fill="none" stroke="#000" stroke-width="0.2"/>
        <circle cx="101.84" cy="101.84" r="0.3" fill="#555"/>
        <circle cx="134.24" cy="101.84" r="0.3" fill="#555"/>
        <circle cx="166.64000000000001" cy="101.84" r="0.3" fill="#555"/>
        <circle cx="199.04000000000002" cy="101.84" r="0.3" fill="#555"/>
        <circle cx="231.44000000000003" cy="101.84" r="0.3" fill="#555"/>
        <circle cx="263.84000000000003" cy="101.84" r="0.3" fill="#555"/>
        <circle cx="296.24" cy="101.84" r="0.3" fill="#555"/>
        <circle cx="328.64" cy="101.84" r="0.3" fill="#555"/>
        <circle cx="361.03999999999996" cy="101.84" r="0.3" fill="#555"/>
        <circle cx="393.43999999999994" cy="101.84" r="0.3" fill="#555"/>
        <circle cx="425.8399999999999" cy="101.84" r="0.3" fill="#555"/>
        <circle cx="458.2399999999999" cy="101.84" r="0.3" fill="#555"/>
        <circle cx="490.6399999999999" cy="101.84" r="0.3" fill="#555"/>
        <circle cx="523.0399999999998" cy="101.84" r="0.3" fill="#555"/>
        <circle cx="555.4399999999998" cy="101.84" r="0.3" fill="#555"/>
        <circle cx="587.8399999999998" cy="101.84" r="0.3" fill="#555"/>
        <circle cx="620.2399999999998" cy="101.84" r="0.3" fill="#555"/>
      </g>
      <text x="350.0" y="77.38095238095238" font-family="SimHei, Heiti SC, sans-serif" font-size="2.5" font-weight="normal" text-anchor="middle" fill="#222" data-cdr-type="formation-label">Quaternary alluvium</text>
    </g>
    <g data-cdr-type="layer-band" data-cdr-name="Liantuo Fm (sandstone)" data-cdr-pattern="sand">
      <polygon points="50.0,61.4 350.0,117.1 650.0,71.4 650.0,157.1 350.0,217.1 50.0,140.0" fill="#e589a0" stroke="#444" stroke-width="0.3" data-cdr-type="layer-fill"/>
      <g clip-path="url(#clip_xsec_1)">
        <circle cx="56.3" cy="67.72857142857143" r="0.3" fill="#555"/>
        <circle cx="56.3" cy="80.32857142857142" r="0.3" fill="#555"/>
        <circle cx="56.3" cy="92.92857142857142" r="0.3" fill="#555"/>
        <circle cx="56.3" cy="105.52857142857141" r="0.3" fill="#555"/>
        <circle cx="56.3" cy="118.1285714285714" r="0.3" fill="#555"/>
        <circle cx="56.3" cy="130.7285714285714" r="0.3" fill="#555"/>
        <circle cx="56.3" cy="143.3285714285714" r="0.3" fill="#555"/>
        <circle cx="56.3" cy="155.9285714285714" r="0.3" fill="#555"/>
        <circle cx="56.3" cy="168.52857142857138" r="0.3" fill="#555"/>
        <circle cx="56.3" cy="181.12857142857138" r="0.3" fill="#555"/>
        <circle cx="56.3" cy="193.72857142857137" r="0.3" fill="#555"/>
        <circle cx="56.3" cy="206.32857142857137" r="0.3" fill="#555"/>
        <circle cx="68.89999999999999" cy="67.72857142857143" r="0.3" fill="#555"/>
        <circle cx="68.89999999999999" cy="80.32857142857142" r="0.3" fill="#555"/>
        <circle cx="68.89999999999999" cy="92.92857142857142" r="0.3" fill="#555"/>
        <circle cx="68.89999999999999" cy="105.52857142857141" r="0.3" fill="#555"/>
        <circle cx="68.89999999999999" cy="118.1285714285714" r="0.3" fill="#555"/>
        <circle cx="68.89999999999999" cy="130.7285714285714" r="0.3" fill="#555"/>
        <circle cx="68.89999999999999" cy="143.3285714285714" r="0.3" fill="#555"/>
        <circle cx="68.89999999999999" cy="155.9285714285714" r="0.3" fill="#555"/>
        <circle cx="68.89999999999999" cy="168.52857142857138" r="0.3" fill="#555"/>
        <circle cx="68.89999999999999" cy="181.12857142857138" r="0.3" fill="#555"/>
        <circle cx="68.89999999999999" cy="193.72857142857137" r="0.3" fill="#555"/>
        <circle cx="68.89999999999999" cy="206.32857142857137" r="0.3" fill="#555"/>
        <circle cx="81.49999999999999" cy="67.72857142857143" r="0.3" fill="#555"/>
        <circle cx="81.49999999999999" cy="80.32857142857142" r="0.3" fill="#555"/>
        <circle cx="81.49999999999999" cy="92.92857142857142" r="0.3" fill="#555"/>
        <circle cx="81.49999999999999" cy="105.52857142857141" r="0.3" fill="#555"/>
        <circle cx="81.49999999999999" cy="118.1285714285714" r="0.3" fill="#555"/>
        <circle cx="81.49999999999999" cy="130.7285714285714" r="0.3" fill="#555"/>
        <circle cx="81.49999999999999" cy="143.3285714285714" r="0.3" fill="#555"/>
        <circle cx="81.49999999999999" cy="155.9285714285714" r="0.3" fill="#555"/>
        <circle cx="81.49999999999999" cy="168.52857142857138" r="0.3" fill="#555"/>
        <circle cx="81.49999999999999" cy="181.12857142857138" r="0.3" fill="#555"/>
        <circle cx="81.49999999999999" cy="193.72857142857137" r="0.3" fill="#555"/>
        <circle cx="81.49999999999999" cy="206.32857142857137" r="0.3" fill="#555"/>
        <circle cx="94.09999999999998" cy="67.72857142857143" r="0.3" fill="#555"/>
        <circle cx="94.09999999999998" cy="80.32857142857142" r="0.3" fill="#555"/>
        <circle cx="94.09999999999998" cy="92.92857142857142" r="0.3" fill="#555"/>
        <circle cx="94.09999999999998" cy="105.52857142857141" r="0.3" fill="#555"/>
        <circle cx="94.09999999999998" cy="118.1285714285714" r="0.3" fill="#555"/>
        <circle cx="94.09999999999998" cy="130.7285714285714" r="0.3" fill="#555"/>
        <circle cx="94.09999999999998" cy="143.3285714285714" r="0.3" fill="#555"/>
        <circle cx="94.09999999999998" cy="155.9285714285714" r="0.3" fill="#555"/>
        <circle cx="94.09999999999998" cy="168.52857142857138" r="0.3" fill="#555"/>
        <circle cx="94.09999999999998" cy="181.12857142857138" r="0.3" fill="#555"/>
        <circle cx="94.09999999999998" cy="193.72857142857137" r="0.3" fill="#555"/>
        <circle cx="94.09999999999998" cy="206.32857142857137" r="0.3" fill="#555"/>
        <circle cx="106.69999999999997" cy="67.72857142857143" r="0.3" fill="#555"/>
        <circle cx="106.69999999999997" cy="80.32857142857142" r="0.3" fill="#555"/>
        <circle cx="106.69999999999997" cy="92.92857142857142" r="0.3" fill="#555"/>
        <circle cx="106.69999999999997" cy="105.52857142857141" r="0.3" fill="#555"/>
        <circle cx="106.69999999999997" cy="118.1285714285714" r="0.3" fill="#555"/>
        <circle cx="106.69999999999997" cy="130.7285714285714" r="0.3" fill="#555"/>
        <circle cx="106.69999999999997" cy="143.3285714285714" r="0.3" fill="#555"/>
        <circle cx="106.69999999999997" cy="155.9285714285714" r="0.3" fill="#555"/>
        <circle cx="106.69999999999997" cy="168.52857142857138" r="0.3" fill="#555"/>
        <circle cx="106.69999999999997" cy="181.12857142857138" r="0.3" fill="#555"/>
        <circle cx="106.69999999999997" cy="193.72857142857137" r="0.3" fill="#555"/>
        <circle cx="106.69999999999997" cy="206.32857142857137" r="0.3" fill="#555"/>
        <circle cx="119.29999999999997" cy="67.72857142857143" r="0.3" fill="#555"/>
        <circle cx="119.29999999999997" cy="80.32857142857142" r="0.3" fill="#555"/>
        <circle cx="119.29999999999997" cy="92.92857142857142" r="0.3" fill="#555"/>
        <circle cx="119.29999999999997" cy="105.52857142857141" r="0.3" fill="#555"/>
        <circle cx="119.29999999999997" cy="118.1285714285714" r="0.3" fill="#555"/>
        <circle cx="119.29999999999997" cy="130.7285714285714" r="0.3" fill="#555"/>
        <circle cx="119.29999999999997" cy="143.3285714285714" r="0.3" fill="#555"/>
        <circle cx="119.29999999999997" cy="155.9285714285714" r="0.3" fill="#555"/>
        <circle cx="119.29999999999997" cy="168.52857142857138" r="0.3" fill="#555"/>
        <circle cx="119.29999999999997" cy="181.12857142857138" r="0.3" fill="#555"/>
        <circle cx="119.29999999999997" cy="193.72857142857137" r="0.3" fill="#555"/>
        <circle cx="119.29999999999997" cy="206.32857142857137" r="0.3" fill="#555"/>
        <circle cx="131.89999999999998" cy="67.72857142857143" r="0.3" fill="#555"/>
        <circle cx="131.89999999999998" cy="80.32857142857142" r="0.3" fill="#555"/>
        <circle cx="131.89999999999998" cy="92.92857142857142" r="0.3" fill="#555"/>
        <circle cx="131.89999999999998" cy="105.52857142857141" r="0.3" fill="#555"/>
        <circle cx="131.89999999999998" cy="118.1285714285714" r="0.3" fill="#555"/>
        <circle cx="131.89999999999998" cy="130.7285714285714" r="0.3" fill="#555"/>
        <circle cx="131.89999999999998" cy="143.3285714285714" r="0.3" fill="#555"/>
        <circle cx="131.89999999999998" cy="155.9285714285714" r="0.3" fill="#555"/>
        <circle cx="131.89999999999998" cy="168.52857142857138" r="0.3" fill="#555"/>
        <circle cx="131.89999999999998" cy="181.12857142857138" r="0.3" fill="#555"/>
        <circle cx="131.89999999999998" cy="193.72857142857137" r="0.3" fill="#555"/>
        <circle cx="131.89999999999998" cy="206.32857142857137" r="0.3" fill="#555"/>
        <circle cx="144.49999999999997" cy="67.72857142857143" r="0.3" fill="#555"/>
        <circle cx="144.49999999999997" cy="80.32857142857142" r="0.3" fill="#555"/>
        <circle cx="144.49999999999997" cy="92.92857142857142" r="0.3" fill="#555"/>
        <circle cx="144.49999999999997" cy="105.52857142857141" r="0.3" fill="#555"/>
        <circle cx="144.49999999999997" cy="118.1285714285714" r="0.3" fill="#555"/>
        <circle cx="144.49999999999997" cy="130.7285714285714" r="0.3" fill="#555"/>
        <circle cx="144.49999999999997" cy="143.3285714285714" r="0.3" fill="#555"/>
        <circle cx="144.49999999999997" cy="155.9285714285714" r="0.3" fill="#555"/>
        <circle cx="144.49999999999997" cy="168.52857142857138" r="0.3" fill="#555"/>
        <circle cx="144.49999999999997" cy="181.12857142857138" r="0.3" fill="#555"/>
        <circle cx="144.49999999999997" cy="193.72857142857137" r="0.3" fill="#555"/>
        <circle cx="144.49999999999997" cy="206.32857142857137" r="0.3" fill="#555"/>
        <circle cx="157.09999999999997" cy="67.72857142857143" r="0.3" fill="#555"/>
        <circle cx="157.09999999999997" cy="80.32857142857142" r="0.3" fill="#555"/>
        <circle cx="157.09999999999997" cy="92.92857142857142" r="0.3" fill="#555"/>
        <circle cx="157.09999999999997" cy="105.52857142857141" r="0.3" fill="#555"/>
        <circle cx="157.09999999999997" cy="118.1285714285714" r="0.3" fill="#555"/>
        <circle cx="157.09999999999997" cy="130.7285714285714" r="0.3" fill="#555"/>
        <circle cx="157.09999999999997" cy="143.3285714285714" r="0.3" fill="#555"/>
        <circle cx="157.09999999999997" cy="155.9285714285714" r="0.3" fill="#555"/>
        <circle cx="157.09999999999997" cy="168.52857142857138" r="0.3" fill="#555"/>
        <circle cx="157.09999999999997" cy="181.12857142857138" r="0.3" fill="#555"/>
        <circle cx="157.09999999999997" cy="193.72857142857137" r="0.3" fill="#555"/>
        <circle cx="157.09999999999997" cy="206.32857142857137" r="0.3" fill="#555"/>
        <circle cx="169.69999999999996" cy="67.72857142857143" r="0.3" fill="#555"/>
        <circle cx="169.69999999999996" cy="80.32857142857142" r="0.3" fill="#555"/>
        <circle cx="169.69999999999996" cy="92.92857142857142" r="0.3" fill="#555"/>
        <circle cx="169.69999999999996" cy="105.52857142857141" r="0.3" fill="#555"/>
        <circle cx="169.69999999999996" cy="118.1285714285714" r="0.3" fill="#555"/>
        <circle cx="169.69999999999996" cy="130.7285714285714" r="0.3" fill="#555"/>
        <circle cx="169.69999999999996" cy="143.3285714285714" r="0.3" fill="#555"/>
        <circle cx="169.69999999999996" cy="155.9285714285714" r="0.3" fill="#555"/>
        <circle cx="169.69999999999996" cy="168.52857142857138" r="0.3" fill="#555"/>
        <circle cx="169.69999999999996" cy="181.12857142857138" r="0.3" fill="#555"/>
        <circle cx="169.69999999999996" cy="193.72857142857137" r="0.3" fill="#555"/>
        <circle cx="169.69999999999996" cy="206.32857142857137" r="0.3" fill="#555"/>
        <circle cx="182.29999999999995" cy="67.72857142857143" r="0.3" fill="#555"/>
        <circle cx="182.29999999999995" cy="80.32857142857142" r="0.3" fill="#555"/>
        <circle cx="182.29999999999995" cy="92.92857142857142" r="0.3" fill="#555"/>
        <circle cx="182.29999999999995" cy="105.52857142857141" r="0.3" fill="#555"/>
        <circle cx="182.29999999999995" cy="118.1285714285714" r="0.3" fill="#555"/>
        <circle cx="182.29999999999995" cy="130.7285714285714" r="0.3" fill="#555"/>
        <circle cx="182.29999999999995" cy="143.3285714285714" r="0.3" fill="#555"/>
        <circle cx="182.29999999999995" cy="155.9285714285714" r="0.3" fill="#555"/>
        <circle cx="182.29999999999995" cy="168.52857142857138" r="0.3" fill="#555"/>
        <circle cx="182.29999999999995" cy="181.12857142857138" r="0.3" fill="#555"/>
        <circle cx="182.29999999999995" cy="193.72857142857137" r="0.3" fill="#555"/>
        <circle cx="182.29999999999995" cy="206.32857142857137" r="0.3" fill="#555"/>
        <circle cx="194.89999999999995" cy="67.72857142857143" r="0.3" fill="#555"/>
        <circle cx="194.89999999999995" cy="80.32857142857142" r="0.3" fill="#555"/>
        <circle cx="194.89999999999995" cy="92.92857142857142" r="0.3" fill="#555"/>
        <circle cx="194.89999999999995" cy="105.52857142857141" r="0.3" fill="#555"/>
        <circle cx="194.89999999999995" cy="118.1285714285714" r="0.3" fill="#555"/>
        <circle cx="194.89999999999995" cy="130.7285714285714" r="0.3" fill="#555"/>
        <circle cx="194.89999999999995" cy="143.3285714285714" r="0.3" fill="#555"/>
        <circle cx="194.89999999999995" cy="155.9285714285714" r="0.3" fill="#555"/>
        <circle cx="194.89999999999995" cy="168.52857142857138" r="0.3" fill="#555"/>
        <circle cx="194.89999999999995" cy="181.12857142857138" r="0.3" fill="#555"/>
        <circle cx="194.89999999999995" cy="193.72857142857137" r="0.3" fill="#555"/>
        <circle cx="194.89999999999995" cy="206.32857142857137" r="0.3" fill="#555"/>
        <circle cx="207.49999999999994" cy="67.72857142857143" r="0.3" fill="#555"/>
        <circle cx="207.49999999999994" cy="80.32857142857142" r="0.3" fill="#555"/>
        <circle cx="207.49999999999994" cy="92.92857142857142" r="0.3" fill="#555"/>
        <circle cx="207.49999999999994" cy="105.52857142857141" r="0.3" fill="#555"/>
        <circle cx="207.49999999999994" cy="118.1285714285714" r="0.3" fill="#555"/>
        <circle cx="207.49999999999994" cy="130.7285714285714" r="0.3" fill="#555"/>
        <circle cx="207.49999999999994" cy="143.3285714285714" r="0.3" fill="#555"/>
        <circle cx="207.49999999999994" cy="155.9285714285714" r="0.3" fill="#555"/>
        <circle cx="207.49999999999994" cy="168.52857142857138" r="0.3" fill="#555"/>
        <circle cx="207.49999999999994" cy="181.12857142857138" r="0.3" fill="#555"/>
        <circle cx="207.49999999999994" cy="193.72857142857137" r="0.3" fill="#555"/>
        <circle cx="207.49999999999994" cy="206.32857142857137" r="0.3" fill="#555"/>
        <circle cx="220.09999999999994" cy="67.72857142857143" r="0.3" fill="#555"/>
        <circle cx="220.09999999999994" cy="80.32857142857142" r="0.3" fill="#555"/>
        <circle cx="220.09999999999994" cy="92.92857142857142" r="0.3" fill="#555"/>
        <circle cx="220.09999999999994" cy="105.52857142857141" r="0.3" fill="#555"/>
        <circle cx="220.09999999999994" cy="118.1285714285714" r="0.3" fill="#555"/>
        <circle cx="220.09999999999994" cy="130.7285714285714" r="0.3" fill="#555"/>
        <circle cx="220.09999999999994" cy="143.3285714285714" r="0.3" fill="#555"/>
        <circle cx="220.09999999999994" cy="155.9285714285714" r="0.3" fill="#555"/>
        <circle cx="220.09999999999994" cy="168.52857142857138" r="0.3" fill="#555"/>
        <circle cx="220.09999999999994" cy="181.12857142857138" r="0.3" fill="#555"/>
        <circle cx="220.09999999999994" cy="193.72857142857137" r="0.3" fill="#555"/>
        <circle cx="220.09999999999994" cy="206.32857142857137" r="0.3" fill="#555"/>
        <circle cx="232.69999999999993" cy="67.72857142857143" r="0.3" fill="#555"/>
        <circle cx="232.69999999999993" cy="80.32857142857142" r="0.3" fill="#555"/>
        <circle cx="232.69999999999993" cy="92.92857142857142" r="0.3" fill="#555"/>
        <circle cx="232.69999999999993" cy="105.52857142857141" r="0.3" fill="#555"/>
        <circle cx="232.69999999999993" cy="118.1285714285714" r="0.3" fill="#555"/>
        <circle cx="232.69999999999993" cy="130.7285714285714" r="0.3" fill="#555"/>
        <circle cx="232.69999999999993" cy="143.3285714285714" r="0.3" fill="#555"/>
        <circle cx="232.69999999999993" cy="155.9285714285714" r="0.3" fill="#555"/>
        <circle cx="232.69999999999993" cy="168.52857142857138" r="0.3" fill="#555"/>
        <circle cx="232.69999999999993" cy="181.12857142857138" r="0.3" fill="#555"/>
        <circle cx="232.69999999999993" cy="193.72857142857137" r="0.3" fill="#555"/>
        <circle cx="232.69999999999993" cy="206.32857142857137" r="0.3" fill="#555"/>
        <circle cx="245.29999999999993" cy="67.72857142857143" r="0.3" fill="#555"/>
        <circle cx="245.29999999999993" cy="80.32857142857142" r="0.3" fill="#555"/>
        <circle cx="245.29999999999993" cy="92.92857142857142" r="0.3" fill="#555"/>
        <circle cx="245.29999999999993" cy="105.52857142857141" r="0.3" fill="#555"/>
        <circle cx="245.29999999999993" cy="118.1285714285714" r="0.3" fill="#555"/>
        <circle cx="245.29999999999993" cy="130.7285714285714" r="0.3" fill="#555"/>
        <circle cx="245.29999999999993" cy="143.3285714285714" r="0.3" fill="#555"/>
        <circle cx="245.29999999999993" cy="155.9285714285714" r="0.3" fill="#555"/>
        <circle cx="245.29999999999993" cy="168.52857142857138" r="0.3" fill="#555"/>
        <circle cx="245.29999999999993" cy="181.12857142857138" r="0.3" fill="#555"/>
        <circle cx="245.29999999999993" cy="193.72857142857137" r="0.3" fill="#555"/>
        <circle cx="245.29999999999993" cy="206.32857142857137" r="0.3" fill="#555"/>
        <circle cx="257.8999999999999" cy="67.72857142857143" r="0.3" fill="#555"/>
        <circle cx="257.8999999999999" cy="80.32857142857142" r="0.3" fill="#555"/>
        <circle cx="257.8999999999999" cy="92.92857142857142" r="0.3" fill="#555"/>
        <circle cx="257.8999999999999" cy="105.52857142857141" r="0.3" fill="#555"/>
        <circle cx="257.8999999999999" cy="118.1285714285714" r="0.3" fill="#555"/>
        <circle cx="257.8999999999999" cy="130.7285714285714" r="0.3" fill="#555"/>
        <circle cx="257.8999999999999" cy="143.3285714285714" r="0.3" fill="#555"/>
        <circle cx="257.8999999999999" cy="155.9285714285714" r="0.3" fill="#555"/>
        <circle cx="257.8999999999999" cy="168.52857142857138" r="0.3" fill="#555"/>
        <circle cx="257.8999999999999" cy="181.12857142857138" r="0.3" fill="#555"/>
        <circle cx="257.8999999999999" cy="193.72857142857137" r="0.3" fill="#555"/>
        <circle cx="257.8999999999999" cy="206.32857142857137" r="0.3" fill="#555"/>
        <circle cx="270.49999999999994" cy="67.72857142857143" r="0.3" fill="#555"/>
        <circle cx="270.49999999999994" cy="80.32857142857142" r="0.3" fill="#555"/>
        <circle cx="270.49999999999994" cy="92.92857142857142" r="0.3" fill="#555"/>
        <circle cx="270.49999999999994" cy="105.52857142857141" r="0.3" fill="#555"/>
        <circle cx="270.49999999999994" cy="118.1285714285714" r="0.3" fill="#555"/>
        <circle cx="270.49999999999994" cy="130.7285714285714" r="0.3" fill="#555"/>
        <circle cx="270.49999999999994" cy="143.3285714285714" r="0.3" fill="#555"/>
        <circle cx="270.49999999999994" cy="155.9285714285714" r="0.3" fill="#555"/>
        <circle cx="270.49999999999994" cy="168.52857142857138" r="0.3" fill="#555"/>
        <circle cx="270.49999999999994" cy="181.12857142857138" r="0.3" fill="#555"/>
        <circle cx="270.49999999999994" cy="193.72857142857137" r="0.3" fill="#555"/>
        <circle cx="270.49999999999994" cy="206.32857142857137" r="0.3" fill="#555"/>
        <circle cx="283.09999999999997" cy="67.72857142857143" r="0.3" fill="#555"/>
        <circle cx="283.09999999999997" cy="80.32857142857142" r="0.3" fill="#555"/>
        <circle cx="283.09999999999997" cy="92.92857142857142" r="0.3" fill="#555"/>
        <circle cx="283.09999999999997" cy="105.52857142857141" r="0.3" fill="#555"/>
        <circle cx="283.09999999999997" cy="118.1285714285714" r="0.3" fill="#555"/>
        <circle cx="283.09999999999997" cy="130.7285714285714" r="0.3" fill="#555"/>
        <circle cx="283.09999999999997" cy="143.3285714285714" r="0.3" fill="#555"/>
        <circle cx="283.09999999999997" cy="155.9285714285714" r="0.3" fill="#555"/>
        <circle cx="283.09999999999997" cy="168.52857142857138" r="0.3" fill="#555"/>
        <circle cx="283.09999999999997" cy="181.12857142857138" r="0.3" fill="#555"/>
        <circle cx="283.09999999999997" cy="193.72857142857137" r="0.3" fill="#555"/>
        <circle cx="283.09999999999997" cy="206.32857142857137" r="0.3" fill="#555"/>
        <circle cx="295.7" cy="67.72857142857143" r="0.3" fill="#555"/>
        <circle cx="295.7" cy="80.32857142857142" r="0.3" fill="#555"/>
        <circle cx="295.7" cy="92.92857142857142" r="0.3" fill="#555"/>
        <circle cx="295.7" cy="105.52857142857141" r="0.3" fill="#555"/>
        <circle cx="295.7" cy="118.1285714285714" r="0.3" fill="#555"/>
        <circle cx="295.7" cy="130.7285714285714" r="0.3" fill="#555"/>
        <circle cx="295.7" cy="143.3285714285714" r="0.3" fill="#555"/>
        <circle cx="295.7" cy="155.9285714285714" r="0.3" fill="#555"/>
        <circle cx="295.7" cy="168.52857142857138" r="0.3" fill="#555"/>
        <circle cx="295.7" cy="181.12857142857138" r="0.3" fill="#555"/>
        <circle cx="295.7" cy="193.72857142857137" r="0.3" fill="#555"/>
        <circle cx="295.7" cy="206.32857142857137" r="0.3" fill="#555"/>
        <circle cx="308.3" cy="67.72857142857143" r="0.3" fill="#555"/>
        <circle cx="308.3" cy="80.32857142857142" r="0.3" fill="#555"/>
        <circle cx="308.3" cy="92.92857142857142" r="0.3" fill="#555"/>
        <circle cx="308.3" cy="105.52857142857141" r="0.3" fill="#555"/>
        <circle cx="308.3" cy="118.1285714285714" r="0.3" fill="#555"/>
        <circle cx="308.3" cy="130.7285714285714" r="0.3" fill="#555"/>
        <circle cx="308.3" cy="143.3285714285714" r="0.3" fill="#555"/>
        <circle cx="308.3" cy="155.9285714285714" r="0.3" fill="#555"/>
        <circle cx="308.3" cy="168.52857142857138" r="0.3" fill="#555"/>
        <circle cx="308.3" cy="181.12857142857138" r="0.3" fill="#555"/>
        <circle cx="308.3" cy="193.72857142857137" r="0.3" fill="#555"/>
        <circle cx="308.3" cy="206.32857142857137" r="0.3" fill="#555"/>
        <circle cx="320.90000000000003" cy="67.72857142857143" r="0.3" fill="#555"/>
        <circle cx="320.90000000000003" cy="80.32857142857142" r="0.3" fill="#555"/>
        <circle cx="320.90000000000003" cy="92.92857142857142" r="0.3" fill="#555"/>
        <circle cx="320.90000000000003" cy="105.52857142857141" r="0.3" fill="#555"/>
        <circle cx="320.90000000000003" cy="118.1285714285714" r="0.3" fill="#555"/>
        <circle cx="320.90000000000003" cy="130.7285714285714" r="0.3" fill="#555"/>
        <circle cx="320.90000000000003" cy="143.3285714285714" r="0.3" fill="#555"/>
        <circle cx="320.90000000000003" cy="155.9285714285714" r="0.3" fill="#555"/>
        <circle cx="320.90000000000003" cy="168.52857142857138" r="0.3" fill="#555"/>
        <circle cx="320.90000000000003" cy="181.12857142857138" r="0.3" fill="#555"/>
        <circle cx="320.90000000000003" cy="193.72857142857137" r="0.3" fill="#555"/>
        <circle cx="320.90000000000003" cy="206.32857142857137" r="0.3" fill="#555"/>
        <circle cx="333.50000000000006" cy="67.72857142857143" r="0.3" fill="#555"/>
        <circle cx="333.50000000000006" cy="80.32857142857142" r="0.3" fill="#555"/>
        <circle cx="333.50000000000006" cy="92.92857142857142" r="0.3" fill="#555"/>
        <circle cx="333.50000000000006" cy="105.52857142857141" r="0.3" fill="#555"/>
        <circle cx="333.50000000000006" cy="118.1285714285714" r="0.3" fill="#555"/>
        <circle cx="333.50000000000006" cy="130.7285714285714" r="0.3" fill="#555"/>
        <circle cx="333.50000000000006" cy="143.3285714285714" r="0.3" fill="#555"/>
        <circle cx="333.50000000000006" cy="155.9285714285714" r="0.3" fill="#555"/>
        <circle cx="333.50000000000006" cy="168.52857142857138" r="0.3" fill="#555"/>
        <circle cx="333.50000000000006" cy="181.12857142857138" r="0.3" fill="#555"/>
        <circle cx="333.50000000000006" cy="193.72857142857137" r="0.3" fill="#555"/>
        <circle cx="333.50000000000006" cy="206.32857142857137" r="0.3" fill="#555"/>
        <circle cx="346.1000000000001" cy="67.72857142857143" r="0.3" fill="#555"/>
        <circle cx="346.1000000000001" cy="80.32857142857142" r="0.3" fill="#555"/>
        <circle cx="346.1000000000001" cy="92.92857142857142" r="0.3" fill="#555"/>
        <circle cx="346.1000000000001" cy="105.52857142857141" r="0.3" fill="#555"/>
        <circle cx="346.1000000000001" cy="118.1285714285714" r="0.3" fill="#555"/>
        <circle cx="346.1000000000001" cy="130.7285714285714" r="0.3" fill="#555"/>
        <circle cx="346.1000000000001" cy="143.3285714285714" r="0.3" fill="#555"/>
        <circle cx="346.1000000000001" cy="155.9285714285714" r="0.3" fill="#555"/>
        <circle cx="346.1000000000001" cy="168.52857142857138" r="0.3" fill="#555"/>
        <circle cx="346.1000000000001" cy="181.12857142857138" r="0.3" fill="#555"/>
        <circle cx="346.1000000000001" cy="193.72857142857137" r="0.3" fill="#555"/>
        <circle cx="346.1000000000001" cy="206.32857142857137" r="0.3" fill="#555"/>
        <circle cx="358.7000000000001" cy="67.72857142857143" r="0.3" fill="#555"/>
        <circle cx="358.7000000000001" cy="80.32857142857142" r="0.3" fill="#555"/>
        <circle cx="358.7000000000001" cy="92.92857142857142" r="0.3" fill="#555"/>
        <circle cx="358.7000000000001" cy="105.52857142857141" r="0.3" fill="#555"/>
        <circle cx="358.7000000000001" cy="118.1285714285714" r="0.3" fill="#555"/>
        <circle cx="358.7000000000001" cy="130.7285714285714" r="0.3" fill="#555"/>
        <circle cx="358.7000000000001" cy="143.3285714285714" r="0.3" fill="#555"/>
        <circle cx="358.7000000000001" cy="155.9285714285714" r="0.3" fill="#555"/>
        <circle cx="358.7000000000001" cy="168.52857142857138" r="0.3" fill="#555"/>
        <circle cx="358.7000000000001" cy="181.12857142857138" r="0.3" fill="#555"/>
        <circle cx="358.7000000000001" cy="193.72857142857137" r="0.3" fill="#555"/>
        <circle cx="358.7000000000001" cy="206.32857142857137" r="0.3" fill="#555"/>
        <circle cx="371.3000000000001" cy="67.72857142857143" r="0.3" fill="#555"/>
        <circle cx="371.3000000000001" cy="80.32857142857142" r="0.3" fill="#555"/>
        <circle cx="371.3000000000001" cy="92.92857142857142" r="0.3" fill="#555"/>
        <circle cx="371.3000000000001" cy="105.52857142857141" r="0.3" fill="#555"/>
        <circle cx="371.3000000000001" cy="118.1285714285714" r="0.3" fill="#555"/>
        <circle cx="371.3000000000001" cy="130.7285714285714" r="0.3" fill="#555"/>
        <circle cx="371.3000000000001" cy="143.3285714285714" r="0.3" fill="#555"/>
        <circle cx="371.3000000000001" cy="155.9285714285714" r="0.3" fill="#555"/>
        <circle cx="371.3000000000001" cy="168.52857142857138" r="0.3" fill="#555"/>
        <circle cx="371.3000000000001" cy="181.12857142857138" r="0.3" fill="#555"/>
        <circle cx="371.3000000000001" cy="193.72857142857137" r="0.3" fill="#555"/>
        <circle cx="371.3000000000001" cy="206.32857142857137" r="0.3" fill="#555"/>
        <circle cx="383.90000000000015" cy="67.72857142857143" r="0.3" fill="#555"/>
        <circle cx="383.90000000000015" cy="80.32857142857142" r="0.3" fill="#555"/>
        <circle cx="383.90000000000015" cy="92.92857142857142" r="0.3" fill="#555"/>
        <circle cx="383.90000000000015" cy="105.52857142857141" r="0.3" fill="#555"/>
        <circle cx="383.90000000000015" cy="118.1285714285714" r="0.3" fill="#555"/>
        <circle cx="383.90000000000015" cy="130.7285714285714" r="0.3" fill="#555"/>
        <circle cx="383.90000000000015" cy="143.3285714285714" r="0.3" fill="#555"/>
        <circle cx="383.90000000000015" cy="155.9285714285714" r="0.3" fill="#555"/>
        <circle cx="383.90000000000015" cy="168.52857142857138" r="0.3" fill="#555"/>
        <circle cx="383.90000000000015" cy="181.12857142857138" r="0.3" fill="#555"/>
        <circle cx="383.90000000000015" cy="193.72857142857137" r="0.3" fill="#555"/>
        <circle cx="383.90000000000015" cy="206.32857142857137" r="0.3" fill="#555"/>
        <circle cx="396.50000000000017" cy="67.72857142857143" r="0.3" fill="#555"/>
        <circle cx="396.50000000000017" cy="80.32857142857142" r="0.3" fill="#555"/>
        <circle cx="396.50000000000017" cy="92.92857142857142" r="0.3" fill="#555"/>
        <circle cx="396.50000000000017" cy="105.52857142857141" r="0.3" fill="#555"/>
        <circle cx="396.50000000000017" cy="118.1285714285714" r="0.3" fill="#555"/>
        <circle cx="396.50000000000017" cy="130.7285714285714" r="0.3" fill="#555"/>
        <circle cx="396.50000000000017" cy="143.3285714285714" r="0.3" fill="#555"/>
        <circle cx="396.50000000000017" cy="155.9285714285714" r="0.3" fill="#555"/>
        <circle cx="396.50000000000017" cy="168.52857142857138" r="0.3" fill="#555"/>
        <circle cx="396.50000000000017" cy="181.12857142857138" r="0.3" fill="#555"/>
        <circle cx="396.50000000000017" cy="193.72857142857137" r="0.3" fill="#555"/>
        <circle cx="396.50000000000017" cy="206.32857142857137" r="0.3" fill="#555"/>
        <circle cx="409.1000000000002" cy="67.72857142857143" r="0.3" fill="#555"/>
        <circle cx="409.1000000000002" cy="80.32857142857142" r="0.3" fill="#555"/>
        <circle cx="409.1000000000002" cy="92.92857142857142" r="0.3" fill="#555"/>
        <circle cx="409.1000000000002" cy="105.52857142857141" r="0.3" fill="#555"/>
        <circle cx="409.1000000000002" cy="118.1285714285714" r="0.3" fill="#555"/>
        <circle cx="409.1000000000002" cy="130.7285714285714" r="0.3" fill="#555"/>
        <circle cx="409.1000000000002" cy="143.3285714285714" r="0.3" fill="#555"/>
        <circle cx="409.1000000000002" cy="155.9285714285714" r="0.3" fill="#555"/>
        <circle cx="409.1000000000002" cy="168.52857142857138" r="0.3" fill="#555"/>
        <circle cx="409.1000000000002" cy="181.12857142857138" r="0.3" fill="#555"/>
        <circle cx="409.1000000000002" cy="193.72857142857137" r="0.3" fill="#555"/>
        <circle cx="409.1000000000002" cy="206.32857142857137" r="0.3" fill="#555"/>
        <circle cx="421.7000000000002" cy="67.72857142857143" r="0.3" fill="#555"/>
        <circle cx="421.7000000000002" cy="80.32857142857142" r="0.3" fill="#555"/>
        <circle cx="421.7000000000002" cy="92.92857142857142" r="0.3" fill="#555"/>
        <circle cx="421.7000000000002" cy="105.52857142857141" r="0.3" fill="#555"/>
        <circle cx="421.7000000000002" cy="118.1285714285714" r="0.3" fill="#555"/>
        <circle cx="421.7000000000002" cy="130.7285714285714" r="0.3" fill="#555"/>
        <circle cx="421.7000000000002" cy="143.3285714285714" r="0.3" fill="#555"/>
        <circle cx="421.7000000000002" cy="155.9285714285714" r="0.3" fill="#555"/>
        <circle cx="421.7000000000002" cy="168.52857142857138" r="0.3" fill="#555"/>
        <circle cx="421.7000000000002" cy="181.12857142857138" r="0.3" fill="#555"/>
        <circle cx="421.7000000000002" cy="193.72857142857137" r="0.3" fill="#555"/>
        <circle cx="421.7000000000002" cy="206.32857142857137" r="0.3" fill="#555"/>
        <circle cx="434.30000000000024" cy="67.72857142857143" r="0.3" fill="#555"/>
        <circle cx="434.30000000000024" cy="80.32857142857142" r="0.3" fill="#555"/>
        <circle cx="434.30000000000024" cy="92.92857142857142" r="0.3" fill="#555"/>
        <circle cx="434.30000000000024" cy="105.52857142857141" r="0.3" fill="#555"/>
        <circle cx="434.30000000000024" cy="118.1285714285714" r="0.3" fill="#555"/>
        <circle cx="434.30000000000024" cy="130.7285714285714" r="0.3" fill="#555"/>
        <circle cx="434.30000000000024" cy="143.3285714285714" r="0.3" fill="#555"/>
        <circle cx="434.30000000000024" cy="155.9285714285714" r="0.3" fill="#555"/>
        <circle cx="434.30000000000024" cy="168.52857142857138" r="0.3" fill="#555"/>
        <circle cx="434.30000000000024" cy="181.12857142857138" r="0.3" fill="#555"/>
        <circle cx="434.30000000000024" cy="193.72857142857137" r="0.3" fill="#555"/>
        <circle cx="434.30000000000024" cy="206.32857142857137" r="0.3" fill="#555"/>
        <circle cx="446.90000000000026" cy="67.72857142857143" r="0.3" fill="#555"/>
        <circle cx="446.90000000000026" cy="80.32857142857142" r="0.3" fill="#555"/>
        <circle cx="446.90000000000026" cy="92.92857142857142" r="0.3" fill="#555"/>
        <circle cx="446.90000000000026" cy="105.52857142857141" r="0.3" fill="#555"/>
        <circle cx="446.90000000000026" cy="118.1285714285714" r="0.3" fill="#555"/>
        <circle cx="446.90000000000026" cy="130.7285714285714" r="0.3" fill="#555"/>
        <circle cx="446.90000000000026" cy="143.3285714285714" r="0.3" fill="#555"/>
        <circle cx="446.90000000000026" cy="155.9285714285714" r="0.3" fill="#555"/>
        <circle cx="446.90000000000026" cy="168.52857142857138" r="0.3" fill="#555"/>
        <circle cx="446.90000000000026" cy="181.12857142857138" r="0.3" fill="#555"/>
        <circle cx="446.90000000000026" cy="193.72857142857137" r="0.3" fill="#555"/>
        <circle cx="446.90000000000026" cy="206.32857142857137" r="0.3" fill="#555"/>
        <circle cx="459.5000000000003" cy="67.72857142857143" r="0.3" fill="#555"/>
        <circle cx="459.5000000000003" cy="80.32857142857142" r="0.3" fill="#555"/>
        <circle cx="459.5000000000003" cy="92.92857142857142" r="0.3" fill="#555"/>
        <circle cx="459.5000000000003" cy="105.52857142857141" r="0.3" fill="#555"/>
        <circle cx="459.5000000000003" cy="118.1285714285714" r="0.3" fill="#555"/>
        <circle cx="459.5000000000003" cy="130.7285714285714" r="0.3" fill="#555"/>
        <circle cx="459.5000000000003" cy="143.3285714285714" r="0.3" fill="#555"/>
        <circle cx="459.5000000000003" cy="155.9285714285714" r="0.3" fill="#555"/>
        <circle cx="459.5000000000003" cy="168.52857142857138" r="0.3" fill="#555"/>
        <circle cx="459.5000000000003" cy="181.12857142857138" r="0.3" fill="#555"/>
        <circle cx="459.5000000000003" cy="193.72857142857137" r="0.3" fill="#555"/>
        <circle cx="459.5000000000003" cy="206.32857142857137" r="0.3" fill="#555"/>
        <circle cx="472.1000000000003" cy="67.72857142857143" r="0.3" fill="#555"/>
        <circle cx="472.1000000000003" cy="80.32857142857142" r="0.3" fill="#555"/>
        <circle cx="472.1000000000003" cy="92.92857142857142" r="0.3" fill="#555"/>
        <circle cx="472.1000000000003" cy="105.52857142857141" r="0.3" fill="#555"/>
        <circle cx="472.1000000000003" cy="118.1285714285714" r="0.3" fill="#555"/>
        <circle cx="472.1000000000003" cy="130.7285714285714" r="0.3" fill="#555"/>
        <circle cx="472.1000000000003" cy="143.3285714285714" r="0.3" fill="#555"/>
        <circle cx="472.1000000000003" cy="155.9285714285714" r="0.3" fill="#555"/>
        <circle cx="472.1000000000003" cy="168.52857142857138" r="0.3" fill="#555"/>
        <circle cx="472.1000000000003" cy="181.12857142857138" r="0.3" fill="#555"/>
        <circle cx="472.1000000000003" cy="193.72857142857137" r="0.3" fill="#555"/>
        <circle cx="472.1000000000003" cy="206.32857142857137" r="0.3" fill="#555"/>
        <circle cx="484.70000000000033" cy="67.72857142857143" r="0.3" fill="#555"/>
        <circle cx="484.70000000000033" cy="80.32857142857142" r="0.3" fill="#555"/>
        <circle cx="484.70000000000033" cy="92.92857142857142" r="0.3" fill="#555"/>
        <circle cx="484.70000000000033" cy="105.52857142857141" r="0.3" fill="#555"/>
        <circle cx="484.70000000000033" cy="118.1285714285714" r="0.3" fill="#555"/>
        <circle cx="484.70000000000033" cy="130.7285714285714" r="0.3" fill="#555"/>
        <circle cx="484.70000000000033" cy="143.3285714285714" r="0.3" fill="#555"/>
        <circle cx="484.70000000000033" cy="155.9285714285714" r="0.3" fill="#555"/>
        <circle cx="484.70000000000033" cy="168.52857142857138" r="0.3" fill="#555"/>
        <circle cx="484.70000000000033" cy="181.12857142857138" r="0.3" fill="#555"/>
        <circle cx="484.70000000000033" cy="193.72857142857137" r="0.3" fill="#555"/>
        <circle cx="484.70000000000033" cy="206.32857142857137" r="0.3" fill="#555"/>
        <circle cx="497.30000000000035" cy="67.72857142857143" r="0.3" fill="#555"/>
        <circle cx="497.30000000000035" cy="80.32857142857142" r="0.3" fill="#555"/>
        <circle cx="497.30000000000035" cy="92.92857142857142" r="0.3" fill="#555"/>
        <circle cx="497.30000000000035" cy="105.52857142857141" r="0.3" fill="#555"/>
        <circle cx="497.30000000000035" cy="118.1285714285714" r="0.3" fill="#555"/>
        <circle cx="497.30000000000035" cy="130.7285714285714" r="0.3" fill="#555"/>
        <circle cx="497.30000000000035" cy="143.3285714285714" r="0.3" fill="#555"/>
        <circle cx="497.30000000000035" cy="155.9285714285714" r="0.3" fill="#555"/>
        <circle cx="497.30000000000035" cy="168.52857142857138" r="0.3" fill="#555"/>
        <circle cx="497.30000000000035" cy="181.12857142857138" r="0.3" fill="#555"/>
        <circle cx="497.30000000000035" cy="193.72857142857137" r="0.3" fill="#555"/>
        <circle cx="497.30000000000035" cy="206.32857142857137" r="0.3" fill="#555"/>
        <circle cx="509.9000000000004" cy="67.72857142857143" r="0.3" fill="#555"/>
        <circle cx="509.9000000000004" cy="80.32857142857142" r="0.3" fill="#555"/>
        <circle cx="509.9000000000004" cy="92.92857142857142" r="0.3" fill="#555"/>
        <circle cx="509.9000000000004" cy="105.52857142857141" r="0.3" fill="#555"/>
        <circle cx="509.9000000000004" cy="118.1285714285714" r="0.3" fill="#555"/>
        <circle cx="509.9000000000004" cy="130.7285714285714" r="0.3" fill="#555"/>
        <circle cx="509.9000000000004" cy="143.3285714285714" r="0.3" fill="#555"/>
        <circle cx="509.9000000000004" cy="155.9285714285714" r="0.3" fill="#555"/>
        <circle cx="509.9000000000004" cy="168.52857142857138" r="0.3" fill="#555"/>
        <circle cx="509.9000000000004" cy="181.12857142857138" r="0.3" fill="#555"/>
        <circle cx="509.9000000000004" cy="193.72857142857137" r="0.3" fill="#555"/>
        <circle cx="509.9000000000004" cy="206.32857142857137" r="0.3" fill="#555"/>
        <circle cx="522.5000000000003" cy="67.72857142857143" r="0.3" fill="#555"/>
        <circle cx="522.5000000000003" cy="80.32857142857142" r="0.3" fill="#555"/>
        <circle cx="522.5000000000003" cy="92.92857142857142" r="0.3" fill="#555"/>
        <circle cx="522.5000000000003" cy="105.52857142857141" r="0.3" fill="#555"/>
        <circle cx="522.5000000000003" cy="118.1285714285714" r="0.3" fill="#555"/>
        <circle cx="522.5000000000003" cy="130.7285714285714" r="0.3" fill="#555"/>
        <circle cx="522.5000000000003" cy="143.3285714285714" r="0.3" fill="#555"/>
        <circle cx="522.5000000000003" cy="155.9285714285714" r="0.3" fill="#555"/>
        <circle cx="522.5000000000003" cy="168.52857142857138" r="0.3" fill="#555"/>
        <circle cx="522.5000000000003" cy="181.12857142857138" r="0.3" fill="#555"/>
        <circle cx="522.5000000000003" cy="193.72857142857137" r="0.3" fill="#555"/>
        <circle cx="522.5000000000003" cy="206.32857142857137" r="0.3" fill="#555"/>
        <circle cx="535.1000000000004" cy="67.72857142857143" r="0.3" fill="#555"/>
        <circle cx="535.1000000000004" cy="80.32857142857142" r="0.3" fill="#555"/>
        <circle cx="535.1000000000004" cy="92.92857142857142" r="0.3" fill="#555"/>
        <circle cx="535.1000000000004" cy="105.52857142857141" r="0.3" fill="#555"/>
        <circle cx="535.1000000000004" cy="118.1285714285714" r="0.3" fill="#555"/>
        <circle cx="535.1000000000004" cy="130.7285714285714" r="0.3" fill="#555"/>
        <circle cx="535.1000000000004" cy="143.3285714285714" r="0.3" fill="#555"/>
        <circle cx="535.1000000000004" cy="155.9285714285714" r="0.3" fill="#555"/>
        <circle cx="535.1000000000004" cy="168.52857142857138" r="0.3" fill="#555"/>
        <circle cx="535.1000000000004" cy="181.12857142857138" r="0.3" fill="#555"/>
        <circle cx="535.1000000000004" cy="193.72857142857137" r="0.3" fill="#555"/>
        <circle cx="535.1000000000004" cy="206.32857142857137" r="0.3" fill="#555"/>
        <circle cx="547.7000000000004" cy="67.72857142857143" r="0.3" fill="#555"/>
        <circle cx="547.7000000000004" cy="80.32857142857142" r="0.3" fill="#555"/>
        <circle cx="547.7000000000004" cy="92.92857142857142" r="0.3" fill="#555"/>
        <circle cx="547.7000000000004" cy="105.52857142857141" r="0.3" fill="#555"/>
        <circle cx="547.7000000000004" cy="118.1285714285714" r="0.3" fill="#555"/>
        <circle cx="547.7000000000004" cy="130.7285714285714" r="0.3" fill="#555"/>
        <circle cx="547.7000000000004" cy="143.3285714285714" r="0.3" fill="#555"/>
        <circle cx="547.7000000000004" cy="155.9285714285714" r="0.3" fill="#555"/>
        <circle cx="547.7000000000004" cy="168.52857142857138" r="0.3" fill="#555"/>
        <circle cx="547.7000000000004" cy="181.12857142857138" r="0.3" fill="#555"/>
        <circle cx="547.7000000000004" cy="193.72857142857137" r="0.3" fill="#555"/>
        <circle cx="547.7000000000004" cy="206.32857142857137" r="0.3" fill="#555"/>
        <circle cx="560.3000000000004" cy="67.72857142857143" r="0.3" fill="#555"/>
        <circle cx="560.3000000000004" cy="80.32857142857142" r="0.3" fill="#555"/>
        <circle cx="560.3000000000004" cy="92.92857142857142" r="0.3" fill="#555"/>
        <circle cx="560.3000000000004" cy="105.52857142857141" r="0.3" fill="#555"/>
        <circle cx="560.3000000000004" cy="118.1285714285714" r="0.3" fill="#555"/>
        <circle cx="560.3000000000004" cy="130.7285714285714" r="0.3" fill="#555"/>
        <circle cx="560.3000000000004" cy="143.3285714285714" r="0.3" fill="#555"/>
        <circle cx="560.3000000000004" cy="155.9285714285714" r="0.3" fill="#555"/>
        <circle cx="560.3000000000004" cy="168.52857142857138" r="0.3" fill="#555"/>
        <circle cx="560.3000000000004" cy="181.12857142857138" r="0.3" fill="#555"/>
        <circle cx="560.3000000000004" cy="193.72857142857137" r="0.3" fill="#555"/>
        <circle cx="560.3000000000004" cy="206.32857142857137" r="0.3" fill="#555"/>
        <circle cx="572.9000000000004" cy="67.72857142857143" r="0.3" fill="#555"/>
        <circle cx="572.9000000000004" cy="80.32857142857142" r="0.3" fill="#555"/>
        <circle cx="572.9000000000004" cy="92.92857142857142" r="0.3" fill="#555"/>
        <circle cx="572.9000000000004" cy="105.52857142857141" r="0.3" fill="#555"/>
        <circle cx="572.9000000000004" cy="118.1285714285714" r="0.3" fill="#555"/>
        <circle cx="572.9000000000004" cy="130.7285714285714" r="0.3" fill="#555"/>
        <circle cx="572.9000000000004" cy="143.3285714285714" r="0.3" fill="#555"/>
        <circle cx="572.9000000000004" cy="155.9285714285714" r="0.3" fill="#555"/>
        <circle cx="572.9000000000004" cy="168.52857142857138" r="0.3" fill="#555"/>
        <circle cx="572.9000000000004" cy="181.12857142857138" r="0.3" fill="#555"/>
        <circle cx="572.9000000000004" cy="193.72857142857137" r="0.3" fill="#555"/>
        <circle cx="572.9000000000004" cy="206.32857142857137" r="0.3" fill="#555"/>
        <circle cx="585.5000000000005" cy="67.72857142857143" r="0.3" fill="#555"/>
        <circle cx="585.5000000000005" cy="80.32857142857142" r="0.3" fill="#555"/>
        <circle cx="585.5000000000005" cy="92.92857142857142" r="0.3" fill="#555"/>
        <circle cx="585.5000000000005" cy="105.52857142857141" r="0.3" fill="#555"/>
        <circle cx="585.5000000000005" cy="118.1285714285714" r="0.3" fill="#555"/>
        <circle cx="585.5000000000005" cy="130.7285714285714" r="0.3" fill="#555"/>
        <circle cx="585.5000000000005" cy="143.3285714285714" r="0.3" fill="#555"/>
        <circle cx="585.5000000000005" cy="155.9285714285714" r="0.3" fill="#555"/>
        <circle cx="585.5000000000005" cy="168.52857142857138" r="0.3" fill="#555"/>
        <circle cx="585.5000000000005" cy="181.12857142857138" r="0.3" fill="#555"/>
        <circle cx="585.5000000000005" cy="193.72857142857137" r="0.3" fill="#555"/>
        <circle cx="585.5000000000005" cy="206.32857142857137" r="0.3" fill="#555"/>
        <circle cx="598.1000000000005" cy="67.72857142857143" r="0.3" fill="#555"/>
        <circle cx="598.1000000000005" cy="80.32857142857142" r="0.3" fill="#555"/>
        <circle cx="598.1000000000005" cy="92.92857142857142" r="0.3" fill="#555"/>
        <circle cx="598.1000000000005" cy="105.52857142857141" r="0.3" fill="#555"/>
        <circle cx="598.1000000000005" cy="118.1285714285714" r="0.3" fill="#555"/>
        <circle cx="598.1000000000005" cy="130.7285714285714" r="0.3" fill="#555"/>
        <circle cx="598.1000000000005" cy="143.3285714285714" r="0.3" fill="#555"/>
        <circle cx="598.1000000000005" cy="155.9285714285714" r="0.3" fill="#555"/>
        <circle cx="598.1000000000005" cy="168.52857142857138" r="0.3" fill="#555"/>
        <circle cx="598.1000000000005" cy="181.12857142857138" r="0.3" fill="#555"/>
        <circle cx="598.1000000000005" cy="193.72857142857137" r="0.3" fill="#555"/>
        <circle cx="598.1000000000005" cy="206.32857142857137" r="0.3" fill="#555"/>
        <circle cx="610.7000000000005" cy="67.72857142857143" r="0.3" fill="#555"/>
        <circle cx="610.7000000000005" cy="80.32857142857142" r="0.3" fill="#555"/>
        <circle cx="610.7000000000005" cy="92.92857142857142" r="0.3" fill="#555"/>
        <circle cx="610.7000000000005" cy="105.52857142857141" r="0.3" fill="#555"/>
        <circle cx="610.7000000000005" cy="118.1285714285714" r="0.3" fill="#555"/>
        <circle cx="610.7000000000005" cy="130.7285714285714" r="0.3" fill="#555"/>
        <circle cx="610.7000000000005" cy="143.3285714285714" r="0.3" fill="#555"/>
        <circle cx="610.7000000000005" cy="155.9285714285714" r="0.3" fill="#555"/>
        <circle cx="610.7000000000005" cy="168.52857142857138" r="0.3" fill="#555"/>
        <circle cx="610.7000000000005" cy="181.12857142857138" r="0.3" fill="#555"/>
        <circle cx="610.7000000000005" cy="193.72857142857137" r="0.3" fill="#555"/>
        <circle cx="610.7000000000005" cy="206.32857142857137" r="0.3" fill="#555"/>
        <circle cx="623.3000000000005" cy="67.72857142857143" r="0.3" fill="#555"/>
        <circle cx="623.3000000000005" cy="80.32857142857142" r="0.3" fill="#555"/>
        <circle cx="623.3000000000005" cy="92.92857142857142" r="0.3" fill="#555"/>
        <circle cx="623.3000000000005" cy="105.52857142857141" r="0.3" fill="#555"/>
        <circle cx="623.3000000000005" cy="118.1285714285714" r="0.3" fill="#555"/>
        <circle cx="623.3000000000005" cy="130.7285714285714" r="0.3" fill="#555"/>
        <circle cx="623.3000000000005" cy="143.3285714285714" r="0.3" fill="#555"/>
        <circle cx="623.3000000000005" cy="155.9285714285714" r="0.3" fill="#555"/>
        <circle cx="623.3000000000005" cy="168.52857142857138" r="0.3" fill="#555"/>
        <circle cx="623.3000000000005" cy="181.12857142857138" r="0.3" fill="#555"/>
        <circle cx="623.3000000000005" cy="193.72857142857137" r="0.3" fill="#555"/>
        <circle cx="623.3000000000005" cy="206.32857142857137" r="0.3" fill="#555"/>
        <circle cx="635.9000000000005" cy="67.72857142857143" r="0.3" fill="#555"/>
        <circle cx="635.9000000000005" cy="80.32857142857142" r="0.3" fill="#555"/>
        <circle cx="635.9000000000005" cy="92.92857142857142" r="0.3" fill="#555"/>
        <circle cx="635.9000000000005" cy="105.52857142857141" r="0.3" fill="#555"/>
        <circle cx="635.9000000000005" cy="118.1285714285714" r="0.3" fill="#555"/>
        <circle cx="635.9000000000005" cy="130.7285714285714" r="0.3" fill="#555"/>
        <circle cx="635.9000000000005" cy="143.3285714285714" r="0.3" fill="#555"/>
        <circle cx="635.9000000000005" cy="155.9285714285714" r="0.3" fill="#555"/>
        <circle cx="635.9000000000005" cy="168.52857142857138" r="0.3" fill="#555"/>
        <circle cx="635.9000000000005" cy="181.12857142857138" r="0.3" fill="#555"/>
        <circle cx="635.9000000000005" cy="193.72857142857137" r="0.3" fill="#555"/>
        <circle cx="635.9000000000005" cy="206.32857142857137" r="0.3" fill="#555"/>
        <circle cx="648.5000000000006" cy="67.72857142857143" r="0.3" fill="#555"/>
        <circle cx="648.5000000000006" cy="80.32857142857142" r="0.3" fill="#555"/>
        <circle cx="648.5000000000006" cy="92.92857142857142" r="0.3" fill="#555"/>
        <circle cx="648.5000000000006" cy="105.52857142857141" r="0.3" fill="#555"/>
        <circle cx="648.5000000000006" cy="118.1285714285714" r="0.3" fill="#555"/>
        <circle cx="648.5000000000006" cy="130.7285714285714" r="0.3" fill="#555"/>
        <circle cx="648.5000000000006" cy="143.3285714285714" r="0.3" fill="#555"/>
        <circle cx="648.5000000000006" cy="155.9285714285714" r="0.3" fill="#555"/>
        <circle cx="648.5000000000006" cy="168.52857142857138" r="0.3" fill="#555"/>
        <circle cx="648.5000000000006" cy="181.12857142857138" r="0.3" fill="#555"/>
        <circle cx="648.5000000000006" cy="193.72857142857137" r="0.3" fill="#555"/>
        <circle cx="648.5000000000006" cy="206.32857142857137" r="0.3" fill="#555"/>
      </g>
      <text x="350.0" y="127.3809523809524" font-family="SimHei, Heiti SC, sans-serif" font-size="2.5" font-weight="normal" text-anchor="middle" fill="#222" data-cdr-type="formation-label">Liantuo Fm (sandstone)</text>
    </g>
    <g data-cdr-type="layer-band" data-cdr-name="Nantuo Fm (conglomerate)" data-cdr-pattern="conglo">
      <polygon points="50.0,140.0 350.0,217.1 650.0,157.1 650.0,207.1 350.0,257.1 50.0,185.7" fill="#adcca3" stroke="#444" stroke-width="0.3" data-cdr-type="layer-fill"/>
      <g clip-path="url(#clip_xsec_2)">
        <circle cx="72.67999999999999" cy="162.68" r="1.2" fill="none" stroke="#000" stroke-width="0.2"/>
        <circle cx="72.67999999999999" cy="195.08" r="1.2" fill="none" stroke="#000" stroke-width="0.2"/>
        <circle cx="72.67999999999999" cy="227.48000000000002" r="1.2" fill="none" stroke="#000" stroke-width="0.2"/>
        <circle cx="105.07999999999998" cy="162.68" r="1.2" fill="none" stroke="#000" stroke-width="0.2"/>
        <circle cx="105.07999999999998" cy="195.08" r="1.2" fill="none" stroke="#000" stroke-width="0.2"/>
        <circle cx="105.07999999999998" cy="227.48000000000002" r="1.2" fill="none" stroke="#000" stroke-width="0.2"/>
        <circle cx="137.48" cy="162.68" r="1.2" fill="none" stroke="#000" stroke-width="0.2"/>
        <circle cx="137.48" cy="195.08" r="1.2" fill="none" stroke="#000" stroke-width="0.2"/>
        <circle cx="137.48" cy="227.48000000000002" r="1.2" fill="none" stroke="#000" stroke-width="0.2"/>
        <circle cx="169.88" cy="162.68" r="1.2" fill="none" stroke="#000" stroke-width="0.2"/>
        <circle cx="169.88" cy="195.08" r="1.2" fill="none" stroke="#000" stroke-width="0.2"/>
        <circle cx="169.88" cy="227.48000000000002" r="1.2" fill="none" stroke="#000" stroke-width="0.2"/>
        <circle cx="202.28" cy="162.68" r="1.2" fill="none" stroke="#000" stroke-width="0.2"/>
        <circle cx="202.28" cy="195.08" r="1.2" fill="none" stroke="#000" stroke-width="0.2"/>
        <circle cx="202.28" cy="227.48000000000002" r="1.2" fill="none" stroke="#000" stroke-width="0.2"/>
        <circle cx="234.68" cy="162.68" r="1.2" fill="none" stroke="#000" stroke-width="0.2"/>
        <circle cx="234.68" cy="195.08" r="1.2" fill="none" stroke="#000" stroke-width="0.2"/>
        <circle cx="234.68" cy="227.48000000000002" r="1.2" fill="none" stroke="#000" stroke-width="0.2"/>
        <circle cx="267.08" cy="162.68" r="1.2" fill="none" stroke="#000" stroke-width="0.2"/>
        <circle cx="267.08" cy="195.08" r="1.2" fill="none" stroke="#000" stroke-width="0.2"/>
        <circle cx="267.08" cy="227.48000000000002" r="1.2" fill="none" stroke="#000" stroke-width="0.2"/>
        <circle cx="299.47999999999996" cy="162.68" r="1.2" fill="none" stroke="#000" stroke-width="0.2"/>
        <circle cx="299.47999999999996" cy="195.08" r="1.2" fill="none" stroke="#000" stroke-width="0.2"/>
        <circle cx="299.47999999999996" cy="227.48000000000002" r="1.2" fill="none" stroke="#000" stroke-width="0.2"/>
        <circle cx="331.87999999999994" cy="162.68" r="1.2" fill="none" stroke="#000" stroke-width="0.2"/>
        <circle cx="331.87999999999994" cy="195.08" r="1.2" fill="none" stroke="#000" stroke-width="0.2"/>
        <circle cx="331.87999999999994" cy="227.48000000000002" r="1.2" fill="none" stroke="#000" stroke-width="0.2"/>
        <circle cx="364.2799999999999" cy="162.68" r="1.2" fill="none" stroke="#000" stroke-width="0.2"/>
        <circle cx="364.2799999999999" cy="195.08" r="1.2" fill="none" stroke="#000" stroke-width="0.2"/>
        <circle cx="364.2799999999999" cy="227.48000000000002" r="1.2" fill="none" stroke="#000" stroke-width="0.2"/>
        <circle cx="396.6799999999999" cy="162.68" r="1.2" fill="none" stroke="#000" stroke-width="0.2"/>
        <circle cx="396.6799999999999" cy="195.08" r="1.2" fill="none" stroke="#000" stroke-width="0.2"/>
        <circle cx="396.6799999999999" cy="227.48000000000002" r="1.2" fill="none" stroke="#000" stroke-width="0.2"/>
        <circle cx="429.07999999999987" cy="162.68" r="1.2" fill="none" stroke="#000" stroke-width="0.2"/>
        <circle cx="429.07999999999987" cy="195.08" r="1.2" fill="none" stroke="#000" stroke-width="0.2"/>
        <circle cx="429.07999999999987" cy="227.48000000000002" r="1.2" fill="none" stroke="#000" stroke-width="0.2"/>
        <circle cx="461.47999999999985" cy="162.68" r="1.2" fill="none" stroke="#000" stroke-width="0.2"/>
        <circle cx="461.47999999999985" cy="195.08" r="1.2" fill="none" stroke="#000" stroke-width="0.2"/>
        <circle cx="461.47999999999985" cy="227.48000000000002" r="1.2" fill="none" stroke="#000" stroke-width="0.2"/>
        <circle cx="493.8799999999998" cy="162.68" r="1.2" fill="none" stroke="#000" stroke-width="0.2"/>
        <circle cx="493.8799999999998" cy="195.08" r="1.2" fill="none" stroke="#000" stroke-width="0.2"/>
        <circle cx="493.8799999999998" cy="227.48000000000002" r="1.2" fill="none" stroke="#000" stroke-width="0.2"/>
        <circle cx="526.2799999999999" cy="162.68" r="1.2" fill="none" stroke="#000" stroke-width="0.2"/>
        <circle cx="526.2799999999999" cy="195.08" r="1.2" fill="none" stroke="#000" stroke-width="0.2"/>
        <circle cx="526.2799999999999" cy="227.48000000000002" r="1.2" fill="none" stroke="#000" stroke-width="0.2"/>
        <circle cx="558.6799999999998" cy="162.68" r="1.2" fill="none" stroke="#000" stroke-width="0.2"/>
        <circle cx="558.6799999999998" cy="195.08" r="1.2" fill="none" stroke="#000" stroke-width="0.2"/>
        <circle cx="558.6799999999998" cy="227.48000000000002" r="1.2" fill="none" stroke="#000" stroke-width="0.2"/>
        <circle cx="591.0799999999998" cy="162.68" r="1.2" fill="none" stroke="#000" stroke-width="0.2"/>
        <circle cx="591.0799999999998" cy="195.08" r="1.2" fill="none" stroke="#000" stroke-width="0.2"/>
        <circle cx="591.0799999999998" cy="227.48000000000002" r="1.2" fill="none" stroke="#000" stroke-width="0.2"/>
        <circle cx="623.4799999999998" cy="162.68" r="1.2" fill="none" stroke="#000" stroke-width="0.2"/>
        <circle cx="623.4799999999998" cy="195.08" r="1.2" fill="none" stroke="#000" stroke-width="0.2"/>
        <circle cx="623.4799999999998" cy="227.48000000000002" r="1.2" fill="none" stroke="#000" stroke-width="0.2"/>
        <circle cx="101.84" cy="191.84" r="0.3" fill="#555"/>
        <circle cx="101.84" cy="224.24" r="0.3" fill="#555"/>
        <circle cx="101.84" cy="256.64" r="0.3" fill="#555"/>
        <circle cx="134.24" cy="191.84" r="0.3" fill="#555"/>
        <circle cx="134.24" cy="224.24" r="0.3" fill="#555"/>
        <circle cx="134.24" cy="256.64" r="0.3" fill="#555"/>
        <circle cx="166.64000000000001" cy="191.84" r="0.3" fill="#555"/>
        <circle cx="166.64000000000001" cy="224.24" r="0.3" fill="#555"/>
        <circle cx="166.64000000000001" cy="256.64" r="0.3" fill="#555"/>
        <circle cx="199.04000000000002" cy="191.84" r="0.3" fill="#555"/>
        <circle cx="199.04000000000002" cy="224.24" r="0.3" fill="#555"/>
        <circle cx="199.04000000000002" cy="256.64" r="0.3" fill="#555"/>
        <circle cx="231.44000000000003" cy="191.84" r="0.3" fill="#555"/>
        <circle cx="231.44000000000003" cy="224.24" r="0.3" fill="#555"/>
        <circle cx="231.44000000000003" cy="256.64" r="0.3" fill="#555"/>
        <circle cx="263.84000000000003" cy="191.84" r="0.3" fill="#555"/>
        <circle cx="263.84000000000003" cy="224.24" r="0.3" fill="#555"/>
        <circle cx="263.84000000000003" cy="256.64" r="0.3" fill="#555"/>
        <circle cx="296.24" cy="191.84" r="0.3" fill="#555"/>
        <circle cx="296.24" cy="224.24" r="0.3" fill="#555"/>
        <circle cx="296.24" cy="256.64" r="0.3" fill="#555"/>
        <circle cx="328.64" cy="191.84" r="0.3" fill="#555"/>
        <circle cx="328.64" cy="224.24" r="0.3" fill="#555"/>
        <circle cx="328.64" cy="256.64" r="0.3" fill="#555"/>
        <circle cx="361.03999999999996" cy="191.84" r="0.3" fill="#555"/>
        <circle cx="361.03999999999996" cy="224.24" r="0.3" fill="#555"/>
        <circle cx="361.03999999999996" cy="256.64" r="0.3" fill="#555"/>
        <circle cx="393.43999999999994" cy="191.84" r="0.3" fill="#555"/>
        <circle cx="393.43999999999994" cy="224.24" r="0.3" fill="#555"/>
        <circle cx="393.43999999999994" cy="256.64" r="0.3" fill="#555"/>
        <circle cx="425.8399999999999" cy="191.84" r="0.3" fill="#555"/>
        <circle cx="425.8399999999999" cy="224.24" r="0.3" fill="#555"/>
        <circle cx="425.8399999999999" cy="256.64" r="0.3" fill="#555"/>
        <circle cx="458.2399999999999" cy="191.84" r="0.3" fill="#555"/>
        <circle cx="458.2399999999999" cy="224.24" r="0.3" fill="#555"/>
        <circle cx="458.2399999999999" cy="256.64" r="0.3" fill="#555"/>
        <circle cx="490.6399999999999" cy="191.84" r="0.3" fill="#555"/>
        <circle cx="490.6399999999999" cy="224.24" r="0.3" fill="#555"/>
        <circle cx="490.6399999999999" cy="256.64" r="0.3" fill="#555"/>
        <circle cx="523.0399999999998" cy="191.84" r="0.3" fill="#555"/>
        <circle cx="523.0399999999998" cy="224.24" r="0.3" fill="#555"/>
        <circle cx="523.0399999999998" cy="256.64" r="0.3" fill="#555"/>
        <circle cx="555.4399999999998" cy="191.84" r="0.3" fill="#555"/>
        <circle cx="555.4399999999998" cy="224.24" r="0.3" fill="#555"/>
        <circle cx="555.4399999999998" cy="256.64" r="0.3" fill="#555"/>
        <circle cx="587.8399999999998" cy="191.84" r="0.3" fill="#555"/>
        <circle cx="587.8399999999998" cy="224.24" r="0.3" fill="#555"/>
        <circle cx="587.8399999999998" cy="256.64" r="0.3" fill="#555"/>
        <circle cx="620.2399999999998" cy="191.84" r="0.3" fill="#555"/>
        <circle cx="620.2399999999998" cy="224.24" r="0.3" fill="#555"/>
        <circle cx="620.2399999999998" cy="256.64" r="0.3" fill="#555"/>
      </g>
      <text x="350.0" y="194.04761904761904" font-family="SimHei, Heiti SC, sans-serif" font-size="2.5" font-weight="normal" text-anchor="middle" fill="#222" data-cdr-type="formation-label">Nantuo Fm (conglomerate)</text>
    </g>
    <g data-cdr-type="layer-band" data-cdr-name="Doushantuo Fm (dolomite)" data-cdr-pattern="dolo">
      <polygon points="50.0,185.7 350.0,257.1 650.0,207.1 650.0,342.9 350.0,400.0 50.0,307.1" fill="#a9b2a0" stroke="#444" stroke-width="0.3" data-cdr-type="layer-fill"/>
      <g clip-path="url(#clip_xsec_3)">
        <line x1="-764.2857142857142" y1="185.71428571428572" x2="-550.0" y2="400.0" stroke="#999" stroke-width="0.12"/>
        <line x1="-742.6857142857142" y1="185.71428571428572" x2="-528.3999999999999" y2="400.0" stroke="#999" stroke-width="0.12"/>
        <line x1="-721.0857142857142" y1="185.71428571428572" x2="-506.7999999999999" y2="400.0" stroke="#999" stroke-width="0.12"/>
        <line x1="-699.4857142857142" y1="185.71428571428572" x2="-485.1999999999999" y2="400.0" stroke="#999" stroke-width="0.12"/>
        <line x1="-677.8857142857141" y1="185.71428571428572" x2="-463.59999999999985" y2="400.0" stroke="#999" stroke-width="0.12"/>
        <line x1="-656.2857142857141" y1="185.71428571428572" x2="-441.99999999999983" y2="400.0" stroke="#999" stroke-width="0.12"/>
        <line x1="-634.6857142857141" y1="185.71428571428572" x2="-420.3999999999998" y2="400.0" stroke="#999" stroke-width="0.12"/>
        <line x1="-613.0857142857141" y1="185.71428571428572" x2="-398.7999999999998" y2="400.0" stroke="#999" stroke-width="0.12"/>
        <line x1="-591.485714285714" y1="185.71428571428572" x2="-377.19999999999976" y2="400.0" stroke="#999" stroke-width="0.12"/>
        <line x1="-569.885714285714" y1="185.71428571428572" x2="-355.59999999999974" y2="400.0" stroke="#999" stroke-width="0.12"/>
        <line x1="-548.285714285714" y1="185.71428571428572" x2="-333.9999999999997" y2="400.0" stroke="#999" stroke-width="0.12"/>
        <line x1="-526.685714285714" y1="185.71428571428572" x2="-312.3999999999997" y2="400.0" stroke="#999" stroke-width="0.12"/>
        <line x1="-505.08571428571395" y1="185.71428571428572" x2="-290.79999999999967" y2="400.0" stroke="#999" stroke-width="0.12"/>
        <line x1="-483.4857142857139" y1="185.71428571428572" x2="-269.19999999999965" y2="400.0" stroke="#999" stroke-width="0.12"/>
        <line x1="-461.8857142857139" y1="185.71428571428572" x2="-247.59999999999962" y2="400.0" stroke="#999" stroke-width="0.12"/>
        <line x1="-440.2857142857139" y1="185.71428571428572" x2="-225.9999999999996" y2="400.0" stroke="#999" stroke-width="0.12"/>
        <line x1="-418.68571428571386" y1="185.71428571428572" x2="-204.39999999999958" y2="400.0" stroke="#999" stroke-width="0.12"/>
        <line x1="-397.08571428571383" y1="185.71428571428572" x2="-182.79999999999956" y2="400.0" stroke="#999" stroke-width="0.12"/>
        <line x1="-375.4857142857138" y1="185.71428571428572" x2="-161.19999999999953" y2="400.0" stroke="#999" stroke-width="0.12"/>
        <line x1="-353.8857142857138" y1="185.71428571428572" x2="-139.5999999999995" y2="400.0" stroke="#999" stroke-width="0.12"/>
        <line x1="-332.28571428571377" y1="185.71428571428572" x2="-117.99999999999949" y2="400.0" stroke="#999" stroke-width="0.12"/>
        <line x1="-310.68571428571374" y1="185.71428571428572" x2="-96.39999999999947" y2="400.0" stroke="#999" stroke-width="0.12"/>
        <line x1="-289.0857142857137" y1="185.71428571428572" x2="-74.79999999999944" y2="400.0" stroke="#999" stroke-width="0.12"/>
        <line x1="-267.4857142857137" y1="185.71428571428572" x2="-53.19999999999942" y2="400.0" stroke="#999" stroke-width="0.12"/>
        <line x1="-245.8857142857137" y1="185.71428571428572" x2="-31.599999999999426" y2="400.0" stroke="#999" stroke-width="0.12"/>
        <line x1="-224.2857142857137" y1="185.71428571428572" x2="-9.999999999999432" y2="400.0" stroke="#999" stroke-width="0.12"/>
        <line x1="-202.68571428571371" y1="185.71428571428572" x2="11.600000000000563" y2="400.0" stroke="#999" stroke-width="0.12"/>
        <line x1="-181.08571428571372" y1="185.71428571428572" x2="33.20000000000056" y2="400.0" stroke="#999" stroke-width="0.12"/>
        <line x1="-159.48571428571373" y1="185.71428571428572" x2="54.80000000000055" y2="400.0" stroke="#999" stroke-width="0.12"/>
        <line x1="-137.88571428571373" y1="185.71428571428572" x2="76.40000000000055" y2="400.0" stroke="#999" stroke-width="0.12"/>
        <line x1="-116.28571428571374" y1="185.71428571428572" x2="98.00000000000054" y2="400.0" stroke="#999" stroke-width="0.12"/>
        <line x1="-94.68571428571374" y1="185.71428571428572" x2="119.60000000000053" y2="400.0" stroke="#999" stroke-width="0.12"/>
        <line x1="-73.08571428571375" y1="185.71428571428572" x2="141.20000000000053" y2="400.0" stroke="#999" stroke-width="0.12"/>
        <line x1="-51.485714285713755" y1="185.71428571428572" x2="162.80000000000052" y2="400.0" stroke="#999" stroke-width="0.12"/>
        <line x1="-29.885714285713757" y1="185.71428571428572" x2="184.40000000000052" y2="400.0" stroke="#999" stroke-width="0.12"/>
        <line x1="-8.285714285713759" y1="185.71428571428572" x2="206.0000000000005" y2="400.0" stroke="#999" stroke-width="0.12"/>
        <line x1="13.314285714286239" y1="185.71428571428572" x2="227.6000000000005" y2="400.0" stroke="#999" stroke-width="0.12"/>
        <line x1="34.91428571428624" y1="185.71428571428572" x2="249.2000000000005" y2="400.0" stroke="#999" stroke-width="0.12"/>
        <line x1="56.51428571428623" y1="185.71428571428572" x2="270.8000000000005" y2="400.0" stroke="#999" stroke-width="0.12"/>
        <line x1="78.11428571428623" y1="185.71428571428572" x2="292.4000000000005" y2="400.0" stroke="#999" stroke-width="0.12"/>
        <line x1="99.71428571428622" y1="185.71428571428572" x2="314.0000000000005" y2="400.0" stroke="#999" stroke-width="0.12"/>
        <line x1="121.31428571428621" y1="185.71428571428572" x2="335.6000000000005" y2="400.0" stroke="#999" stroke-width="0.12"/>
        <line x1="142.91428571428622" y1="185.71428571428572" x2="357.2000000000005" y2="400.0" stroke="#999" stroke-width="0.12"/>
        <line x1="164.51428571428622" y1="185.71428571428572" x2="378.8000000000005" y2="400.0" stroke="#999" stroke-width="0.12"/>
        <line x1="186.1142857142862" y1="185.71428571428572" x2="400.4000000000005" y2="400.0" stroke="#999" stroke-width="0.12"/>
        <line x1="207.7142857142862" y1="185.71428571428572" x2="422.00000000000045" y2="400.0" stroke="#999" stroke-width="0.12"/>
        <line x1="229.3142857142862" y1="185.71428571428572" x2="443.6000000000005" y2="400.0" stroke="#999" stroke-width="0.12"/>
        <line x1="250.9142857142862" y1="185.71428571428572" x2="465.2000000000005" y2="400.0" stroke="#999" stroke-width="0.12"/>
        <line x1="272.5142857142862" y1="185.71428571428572" x2="486.80000000000047" y2="400.0" stroke="#999" stroke-width="0.12"/>
        <line x1="294.1142857142862" y1="185.71428571428572" x2="508.4000000000005" y2="400.0" stroke="#999" stroke-width="0.12"/>
        <line x1="315.71428571428623" y1="185.71428571428572" x2="530.0000000000005" y2="400.0" stroke="#999" stroke-width="0.12"/>
        <line x1="337.31428571428626" y1="185.71428571428572" x2="551.6000000000006" y2="400.0" stroke="#999" stroke-width="0.12"/>
        <line x1="358.9142857142863" y1="185.71428571428572" x2="573.2000000000005" y2="400.0" stroke="#999" stroke-width="0.12"/>
        <line x1="380.5142857142863" y1="185.71428571428572" x2="594.8000000000006" y2="400.0" stroke="#999" stroke-width="0.12"/>
        <line x1="402.1142857142863" y1="185.71428571428572" x2="616.4000000000005" y2="400.0" stroke="#999" stroke-width="0.12"/>
        <line x1="423.71428571428635" y1="185.71428571428572" x2="638.0000000000007" y2="400.0" stroke="#999" stroke-width="0.12"/>
        <line x1="445.31428571428637" y1="185.71428571428572" x2="659.6000000000006" y2="400.0" stroke="#999" stroke-width="0.12"/>
        <line x1="466.9142857142864" y1="185.71428571428572" x2="681.2000000000007" y2="400.0" stroke="#999" stroke-width="0.12"/>
        <line x1="488.5142857142864" y1="185.71428571428572" x2="702.8000000000006" y2="400.0" stroke="#999" stroke-width="0.12"/>
        <line x1="510.11428571428644" y1="185.71428571428572" x2="724.4000000000008" y2="400.0" stroke="#999" stroke-width="0.12"/>
        <line x1="531.7142857142865" y1="185.71428571428572" x2="746.0000000000007" y2="400.0" stroke="#999" stroke-width="0.12"/>
        <line x1="553.3142857142865" y1="185.71428571428572" x2="767.6000000000008" y2="400.0" stroke="#999" stroke-width="0.12"/>
        <line x1="574.9142857142865" y1="185.71428571428572" x2="789.2000000000007" y2="400.0" stroke="#999" stroke-width="0.12"/>
        <line x1="596.5142857142865" y1="185.71428571428572" x2="810.8000000000009" y2="400.0" stroke="#999" stroke-width="0.12"/>
        <line x1="618.1142857142866" y1="185.71428571428572" x2="832.4000000000008" y2="400.0" stroke="#999" stroke-width="0.12"/>
        <line x1="639.7142857142866" y1="185.71428571428572" x2="854.0000000000009" y2="400.0" stroke="#999" stroke-width="0.12"/>
        <line x1="661.3142857142866" y1="185.71428571428572" x2="875.6000000000008" y2="400.0" stroke="#999" stroke-width="0.12"/>
        <line x1="682.9142857142866" y1="185.71428571428572" x2="897.200000000001" y2="400.0" stroke="#999" stroke-width="0.12"/>
        <line x1="704.5142857142866" y1="185.71428571428572" x2="918.8000000000009" y2="400.0" stroke="#999" stroke-width="0.12"/>
        <line x1="726.1142857142867" y1="185.71428571428572" x2="940.400000000001" y2="400.0" stroke="#999" stroke-width="0.12"/>
        <line x1="747.7142857142867" y1="185.71428571428572" x2="962.0000000000009" y2="400.0" stroke="#999" stroke-width="0.12"/>
        <line x1="769.3142857142867" y1="185.71428571428572" x2="983.600000000001" y2="400.0" stroke="#999" stroke-width="0.12"/>
        <line x1="790.9142857142867" y1="185.71428571428572" x2="1005.200000000001" y2="400.0" stroke="#999" stroke-width="0.12"/>
        <line x1="812.5142857142868" y1="185.71428571428572" x2="1026.800000000001" y2="400.0" stroke="#999" stroke-width="0.12"/>
        <line x1="834.1142857142868" y1="185.71428571428572" x2="1048.400000000001" y2="400.0" stroke="#999" stroke-width="0.12"/>
        <line x1="855.7142857142868" y1="185.71428571428572" x2="1070.0000000000011" y2="400.0" stroke="#999" stroke-width="0.12"/>
        <line x1="-764.2857142857142" y1="400.0" x2="-550.0" y2="185.71428571428572" stroke="#999" stroke-width="0.12"/>
        <line x1="-742.6857142857142" y1="400.0" x2="-528.3999999999999" y2="185.71428571428572" stroke="#999" stroke-width="0.12"/>
        <line x1="-721.0857142857142" y1="400.0" x2="-506.7999999999999" y2="185.71428571428572" stroke="#999" stroke-width="0.12"/>
        <line x1="-699.4857142857142" y1="400.0" x2="-485.1999999999999" y2="185.71428571428572" stroke="#999" stroke-width="0.12"/>
        <line x1="-677.8857142857141" y1="400.0" x2="-463.59999999999985" y2="185.71428571428572" stroke="#999" stroke-width="0.12"/>
        <line x1="-656.2857142857141" y1="400.0" x2="-441.99999999999983" y2="185.71428571428572" stroke="#999" stroke-width="0.12"/>
        <line x1="-634.6857142857141" y1="400.0" x2="-420.3999999999998" y2="185.71428571428572" stroke="#999" stroke-width="0.12"/>
        <line x1="-613.0857142857141" y1="400.0" x2="-398.7999999999998" y2="185.71428571428572" stroke="#999" stroke-width="0.12"/>
        <line x1="-591.485714285714" y1="400.0" x2="-377.19999999999976" y2="185.71428571428572" stroke="#999" stroke-width="0.12"/>
        <line x1="-569.885714285714" y1="400.0" x2="-355.59999999999974" y2="185.71428571428572" stroke="#999" stroke-width="0.12"/>
        <line x1="-548.285714285714" y1="400.0" x2="-333.9999999999997" y2="185.71428571428572" stroke="#999" stroke-width="0.12"/>
        <line x1="-526.685714285714" y1="400.0" x2="-312.3999999999997" y2="185.71428571428572" stroke="#999" stroke-width="0.12"/>
        <line x1="-505.08571428571395" y1="400.0" x2="-290.79999999999967" y2="185.71428571428572" stroke="#999" stroke-width="0.12"/>
        <line x1="-483.4857142857139" y1="400.0" x2="-269.19999999999965" y2="185.71428571428572" stroke="#999" stroke-width="0.12"/>
        <line x1="-461.8857142857139" y1="400.0" x2="-247.59999999999962" y2="185.71428571428572" stroke="#999" stroke-width="0.12"/>
        <line x1="-440.2857142857139" y1="400.0" x2="-225.9999999999996" y2="185.71428571428572" stroke="#999" stroke-width="0.12"/>
        <line x1="-418.68571428571386" y1="400.0" x2="-204.39999999999958" y2="185.71428571428572" stroke="#999" stroke-width="0.12"/>
        <line x1="-397.08571428571383" y1="400.0" x2="-182.79999999999956" y2="185.71428571428572" stroke="#999" stroke-width="0.12"/>
        <line x1="-375.4857142857138" y1="400.0" x2="-161.19999999999953" y2="185.71428571428572" stroke="#999" stroke-width="0.12"/>
        <line x1="-353.8857142857138" y1="400.0" x2="-139.5999999999995" y2="185.71428571428572" stroke="#999" stroke-width="0.12"/>
        <line x1="-332.28571428571377" y1="400.0" x2="-117.99999999999949" y2="185.71428571428572" stroke="#999" stroke-width="0.12"/>
        <line x1="-310.68571428571374" y1="400.0" x2="-96.39999999999947" y2="185.71428571428572" stroke="#999" stroke-width="0.12"/>
        <line x1="-289.0857142857137" y1="400.0" x2="-74.79999999999944" y2="185.71428571428572" stroke="#999" stroke-width="0.12"/>
        <line x1="-267.4857142857137" y1="400.0" x2="-53.19999999999942" y2="185.71428571428572" stroke="#999" stroke-width="0.12"/>
        <line x1="-245.8857142857137" y1="400.0" x2="-31.599999999999426" y2="185.71428571428572" stroke="#999" stroke-width="0.12"/>
        <line x1="-224.2857142857137" y1="400.0" x2="-9.999999999999432" y2="185.71428571428572" stroke="#999" stroke-width="0.12"/>
        <line x1="-202.68571428571371" y1="400.0" x2="11.600000000000563" y2="185.71428571428572" stroke="#999" stroke-width="0.12"/>
        <line x1="-181.08571428571372" y1="400.0" x2="33.20000000000056" y2="185.71428571428572" stroke="#999" stroke-width="0.12"/>
        <line x1="-159.48571428571373" y1="400.0" x2="54.80000000000055" y2="185.71428571428572" stroke="#999" stroke-width="0.12"/>
        <line x1="-137.88571428571373" y1="400.0" x2="76.40000000000055" y2="185.71428571428572" stroke="#999" stroke-width="0.12"/>
        <line x1="-116.28571428571374" y1="400.0" x2="98.00000000000054" y2="185.71428571428572" stroke="#999" stroke-width="0.12"/>
        <line x1="-94.68571428571374" y1="400.0" x2="119.60000000000053" y2="185.71428571428572" stroke="#999" stroke-width="0.12"/>
        <line x1="-73.08571428571375" y1="400.0" x2="141.20000000000053" y2="185.71428571428572" stroke="#999" stroke-width="0.12"/>
        <line x1="-51.485714285713755" y1="400.0" x2="162.80000000000052" y2="185.71428571428572" stroke="#999" stroke-width="0.12"/>
        <line x1="-29.885714285713757" y1="400.0" x2="184.40000000000052" y2="185.71428571428572" stroke="#999" stroke-width="0.12"/>
        <line x1="-8.285714285713759" y1="400.0" x2="206.0000000000005" y2="185.71428571428572" stroke="#999" stroke-width="0.12"/>
        <line x1="13.314285714286239" y1="400.0" x2="227.6000000000005" y2="185.71428571428572" stroke="#999" stroke-width="0.12"/>
        <line x1="34.91428571428624" y1="400.0" x2="249.2000000000005" y2="185.71428571428572" stroke="#999" stroke-width="0.12"/>
        <line x1="56.51428571428623" y1="400.0" x2="270.8000000000005" y2="185.71428571428572" stroke="#999" stroke-width="0.12"/>
        <line x1="78.11428571428623" y1="400.0" x2="292.4000000000005" y2="185.71428571428572" stroke="#999" stroke-width="0.12"/>
        <line x1="99.71428571428622" y1="400.0" x2="314.0000000000005" y2="185.71428571428572" stroke="#999" stroke-width="0.12"/>
        <line x1="121.31428571428621" y1="400.0" x2="335.6000000000005" y2="185.71428571428572" stroke="#999" stroke-width="0.12"/>
        <line x1="142.91428571428622" y1="400.0" x2="357.2000000000005" y2="185.71428571428572" stroke="#999" stroke-width="0.12"/>
        <line x1="164.51428571428622" y1="400.0" x2="378.8000000000005" y2="185.71428571428572" stroke="#999" stroke-width="0.12"/>
        <line x1="186.1142857142862" y1="400.0" x2="400.4000000000005" y2="185.71428571428572" stroke="#999" stroke-width="0.12"/>
        <line x1="207.7142857142862" y1="400.0" x2="422.00000000000045" y2="185.71428571428572" stroke="#999" stroke-width="0.12"/>
        <line x1="229.3142857142862" y1="400.0" x2="443.6000000000005" y2="185.71428571428572" stroke="#999" stroke-width="0.12"/>
        <line x1="250.9142857142862" y1="400.0" x2="465.2000000000005" y2="185.71428571428572" stroke="#999" stroke-width="0.12"/>
        <line x1="272.5142857142862" y1="400.0" x2="486.80000000000047" y2="185.71428571428572" stroke="#999" stroke-width="0.12"/>
        <line x1="294.1142857142862" y1="400.0" x2="508.4000000000005" y2="185.71428571428572" stroke="#999" stroke-width="0.12"/>
        <line x1="315.71428571428623" y1="400.0" x2="530.0000000000005" y2="185.71428571428572" stroke="#999" stroke-width="0.12"/>
        <line x1="337.31428571428626" y1="400.0" x2="551.6000000000006" y2="185.71428571428572" stroke="#999" stroke-width="0.12"/>
        <line x1="358.9142857142863" y1="400.0" x2="573.2000000000005" y2="185.71428571428572" stroke="#999" stroke-width="0.12"/>
        <line x1="380.5142857142863" y1="400.0" x2="594.8000000000006" y2="185.71428571428572" stroke="#999" stroke-width="0.12"/>
        <line x1="402.1142857142863" y1="400.0" x2="616.4000000000005" y2="185.71428571428572" stroke="#999" stroke-width="0.12"/>
        <line x1="423.71428571428635" y1="400.0" x2="638.0000000000007" y2="185.71428571428572" stroke="#999" stroke-width="0.12"/>
        <line x1="445.31428571428637" y1="400.0" x2="659.6000000000006" y2="185.71428571428572" stroke="#999" stroke-width="0.12"/>
        <line x1="466.9142857142864" y1="400.0" x2="681.2000000000007" y2="185.71428571428572" stroke="#999" stroke-width="0.12"/>
        <line x1="488.5142857142864" y1="400.0" x2="702.8000000000006" y2="185.71428571428572" stroke="#999" stroke-width="0.12"/>
        <line x1="510.11428571428644" y1="400.0" x2="724.4000000000008" y2="185.71428571428572" stroke="#999" stroke-width="0.12"/>
        <line x1="531.7142857142865" y1="400.0" x2="746.0000000000007" y2="185.71428571428572" stroke="#999" stroke-width="0.12"/>
        <line x1="553.3142857142865" y1="400.0" x2="767.6000000000008" y2="185.71428571428572" stroke="#999" stroke-width="0.12"/>
        <line x1="574.9142857142865" y1="400.0" x2="789.2000000000007" y2="185.71428571428572" stroke="#999" stroke-width="0.12"/>
        <line x1="596.5142857142865" y1="400.0" x2="810.8000000000009" y2="185.71428571428572" stroke="#999" stroke-width="0.12"/>
        <line x1="618.1142857142866" y1="400.0" x2="832.4000000000008" y2="185.71428571428572" stroke="#999" stroke-width="0.12"/>
        <line x1="639.7142857142866" y1="400.0" x2="854.0000000000009" y2="185.71428571428572" stroke="#999" stroke-width="0.12"/>
        <line x1="661.3142857142866" y1="400.0" x2="875.6000000000008" y2="185.71428571428572" stroke="#999" stroke-width="0.12"/>
        <line x1="682.9142857142866" y1="400.0" x2="897.200000000001" y2="185.71428571428572" stroke="#999" stroke-width="0.12"/>
        <line x1="704.5142857142866" y1="400.0" x2="918.8000000000009" y2="185.71428571428572" stroke="#999" stroke-width="0.12"/>
        <line x1="726.1142857142867" y1="400.0" x2="940.400000000001" y2="185.71428571428572" stroke="#999" stroke-width="0.12"/>
        <line x1="747.7142857142867" y1="400.0" x2="962.0000000000009" y2="185.71428571428572" stroke="#999" stroke-width="0.12"/>
        <line x1="769.3142857142867" y1="400.0" x2="983.600000000001" y2="185.71428571428572" stroke="#999" stroke-width="0.12"/>
        <line x1="790.9142857142867" y1="400.0" x2="1005.200000000001" y2="185.71428571428572" stroke="#999" stroke-width="0.12"/>
        <line x1="812.5142857142868" y1="400.0" x2="1026.800000000001" y2="185.71428571428572" stroke="#999" stroke-width="0.12"/>
        <line x1="834.1142857142868" y1="400.0" x2="1048.400000000001" y2="185.71428571428572" stroke="#999" stroke-width="0.12"/>
        <line x1="855.7142857142868" y1="400.0" x2="1070.0000000000011" y2="185.71428571428572" stroke="#999" stroke-width="0.12"/>
      </g>
      <text x="350.0" y="283.3333333333333" font-family="SimHei, Heiti SC, sans-serif" font-size="2.5" font-weight="normal" text-anchor="middle" fill="#222" data-cdr-type="formation-label">Doushantuo Fm (dolomite)</text>
    </g>
    <line x1="221.42857142857142" y1="50.0" x2="255.54513953302657" y2="400.0" stroke="#c0392b" stroke-width="1.0" data-cdr-type="fault-line"/>
    <line x1="229.42857142857142" y1="225.0" x2="229.42857142857142" y2="282.14285714285717" stroke="#c0392b" stroke-width="0.6" data-cdr-type="fault-throw"/>
    <line x1="226.42857142857142" y1="279.14285714285717" x2="229.42857142857142" y2="282.14285714285717" stroke="#c0392b" stroke-width="0.5"/>
    <line x1="232.42857142857142" y1="279.14285714285717" x2="229.42857142857142" y2="282.14285714285717" stroke="#c0392b" stroke-width="0.5"/>
    <text x="233.42857142857142" y="65.0" font-family="SimHei, Heiti SC, sans-serif" font-size="2.2" font-weight="normal" text-anchor="start" fill="#c0392b" data-cdr-type="fault-label">normal fault</text>
    <text x="233.42857142857142" y="71.0" font-family="SimHei, Heiti SC, sans-serif" font-size="2.2" font-weight="normal" text-anchor="start" fill="#c0392b" data-cdr-type="fault-label">dip 72° NE</text>
    <line x1="50" y1="475" x2="135.71428571428572" y2="475" stroke="#000" stroke-width="0.8" data-cdr-type="scale-bar"/>
    <line x1="50" y1="471" x2="50" y2="479" stroke="#000" stroke-width="0.5"/>
    <line x1="135.71428571428572" y1="471" x2="135.71428571428572" y2="479" stroke="#000" stroke-width="0.5"/>
    <text x="92.85714285714286" y="470" font-family="SimHei, Heiti SC, sans-serif" font-size="2.8" font-weight="normal" text-anchor="middle" fill="#000" data-cdr-type="scale-label">100m</text>
    <line x1="165.71428571428572" y1="475" x2="165.71428571428572" y2="403.57142857142856" stroke="#000" stroke-width="0.8" data-cdr-type="vscale-bar"/>
    <line x1="161.71428571428572" y1="475" x2="169.71428571428572" y2="475" stroke="#000" stroke-width="0.5"/>
    <line x1="161.71428571428572" y1="403.57142857142856" x2="169.71428571428572" y2="403.57142857142856" stroke="#000" stroke-width="0.5"/>
    <text x="173.71428571428572" y="439.2857142857143" font-family="SimHei, Heiti SC, sans-serif" font-size="2.8" font-weight="normal" text-anchor="start" fill="#000" data-cdr-type="vscale-label">50m</text>
  </g>
  <g id="cdr-legend" data-cdr-layer="legend">
    <rect x="730" y="60" width="130" height="68" fill="#fff" stroke="#666" stroke-width="0.3" data-cdr-type="legend-box"/>
    <text x="795.0" y="68" font-family="SimHei, Heiti SC, sans-serif" font-size="3.5" font-weight="bold" text-anchor="middle" fill="#000" data-cdr-type="legend-title">Legend</text>
    <line x1="735" y1="74" x2="855" y2="74" stroke="#ccc" stroke-width="0.15"/>
    <rect x="738" y="75.5" width="9" height="9" fill="#e5ceac" stroke="#888" stroke-width="0.15" data-cdr-type="legend-swatch"/>
    <text x="750" y="80" font-family="SimHei, Heiti SC, sans-serif" font-size="2.5" font-weight="normal" text-anchor="start" fill="#333" data-cdr-type="legend-label">Quaternary alluvium</text>
    <rect x="738" y="87.5" width="9" height="9" fill="#e589a0" stroke="#888" stroke-width="0.15" data-cdr-type="legend-swatch"/>
    <text x="750" y="92" font-family="SimHei, Heiti SC, sans-serif" font-size="2.5" font-weight="normal" text-anchor="start" fill="#333" data-cdr-type="legend-label">Liantuo Fm (sandstone)</text>
    <rect x="738" y="99.5" width="9" height="9" fill="#adcca3" stroke="#888" stroke-width="0.15" data-cdr-type="legend-swatch"/>
    <text x="750" y="104" font-family="SimHei, Heiti SC, sans-serif" font-size="2.5" font-weight="normal" text-anchor="start" fill="#333" data-cdr-type="legend-label">Nantuo Fm (conglomerate)</text>
    <rect x="738" y="111.5" width="9" height="9" fill="#a9b2a0" stroke="#888" stroke-width="0.15" data-cdr-type="legend-swatch"/>
    <text x="750" y="116" font-family="SimHei, Heiti SC, sans-serif" font-size="2.5" font-weight="normal" text-anchor="start" fill="#333" data-cdr-type="legend-label">Doushantuo Fm (dolomite)</text>
  </g>
  <g id="cdr-footer" data-cdr-layer="footer">
    <text x="50" y="492" font-family="SimHei, Heiti SC, sans-serif" font-size="2.2" font-weight="normal" text-anchor="start" fill="#888" data-cdr-type="footer-text">Geological Cross-Section A-A'  |  3 boreholes  |  V.E. = 5×</text>
  </g>
</svg>
