0
SECTION
2
ENTITIES
0
TEXT
8
TITLE
62
7
10
106.500
20
302.000
40
4.500
1
Late Devonian Kellwasser Crisis ? Rhenish Massif
0
POLYLINE
8
HEADER
62
8
66
1
70
1
0
VERTEX
8
HEADER
10
8.000
20
276.000
0
VERTEX
8
HEADER
10
205.000
20
276.000
0
VERTEX
8
HEADER
10
205.000
20
290.000
0
VERTEX
8
HEADER
10
8.000
20
290.000
0
SEQEND
0
TEXT
8
HEADER
62
7
10
14.500
20
283.000
40
2.800
1
Era
0
TEXT
8
HEADER
62
7
10
27.500
20
283.000
40
2.800
1
Sys
0
TEXT
8
HEADER
62
7
10
40.500
20
283.000
40
2.800
1
Ser
0
TEXT
8
HEADER
62
7
10
56.000
20
283.000
40
2.800
1
Fm
0
TEXT
8
HEADER
62
7
10
71.000
20
283.000
40
2.800
1
Sym
0
TEXT
8
HEADER
62
7
10
80.500
20
283.000
40
2.800
1
Fossils
0
TEXT
8
HEADER
62
7
10
104.000
20
283.000
40
2.800
1
Lithology
0
TEXT
8
HEADER
62
7
10
131.500
20
283.000
40
2.800
1
Grain
0
TEXT
8
HEADER
62
7
10
142.500
20
283.000
40
2.800
1
Struc
0
TEXT
8
HEADER
62
7
10
151.000
20
283.000
40
2.800
1
Thick(m)
0
TEXT
8
HEADER
62
7
10
188.500
20
283.000
40
2.800
1
Description
0
LINE
8
GRID
62
8
10
21.000
20
22.000
11
21.000
21
290.000
0
LINE
8
GRID
62
8
10
34.000
20
22.000
11
34.000
21
290.000
0
LINE
8
GRID
62
8
10
47.000
20
22.000
11
47.000
21
290.000
0
LINE
8
GRID
62
8
10
65.000
20
22.000
11
65.000
21
290.000
0
LINE
8
GRID
62
8
10
77.000
20
22.000
11
77.000
21
290.000
0
LINE
8
GRID
62
8
10
84.000
20
22.000
11
84.000
21
290.000
0
LINE
8
GRID
62
8
10
124.000
20
22.000
11
124.000
21
290.000
0
LINE
8
GRID
62
8
10
139.000
20
22.000
11
139.000
21
290.000
0
LINE
8
GRID
62
8
10
146.000
20
22.000
11
146.000
21
290.000
0
LINE
8
GRID
62
8
10
156.000
20
22.000
11
156.000
21
290.000
0
LINE
8
BORDER
62
7
10
8.000
20
22.000
11
8.000
21
290.000
0
LINE
8
BORDER
62
7
10
205.000
20
22.000
11
205.000
21
290.000
0
LINE
8
BORDER
62
7
10
8.000
20
290.000
11
205.000
21
290.000
0
LINE
8
BORDER
62
7
10
8.000
20
22.000
11
205.000
21
22.000
0
POLYLINE
8
LITHOLOGY
62
2
66
1
70
1
0
VERTEX
8
LITHOLOGY
10
84.300
20
266.969
0
VERTEX
8
LITHOLOGY
10
121.800
20
266.969
0
VERTEX
8
LITHOLOGY
10
121.800
20
276.000
0
VERTEX
8
LITHOLOGY
10
84.300
20
276.000
0
SEQEND
0
TEXT
8
TEXT
62
7
10
48.000
20
271.484
40
2.200
1
Hangenberg Shale
0
TEXT
8
TEXT
62
7
10
66.000
20
271.484
40
2.200
1
C?h
0
TEXT
8
TEXT
62
7
10
147.000
20
271.484
40
2.200
1
8.0
0
TEXT
8
TEXT
62
7
10
157.000
20
271.484
40
2.000
1
Black shale, Hangenberg Event
0
LINE
8
GRID
62
8
10
8.000
20
276.000
11
205.000
21
276.000
0
POLYLINE
8
LITHOLOGY
62
6
66
1
70
1
0
VERTEX
8
LITHOLOGY
10
84.300
20
250.036
0
VERTEX
8
LITHOLOGY
10
121.800
20
250.036
0
VERTEX
8
LITHOLOGY
10
121.800
20
266.969
0
VERTEX
8
LITHOLOGY
10
84.300
20
266.969
0
SEQEND
0
TEXT
8
TEXT
62
7
10
48.000
20
258.502
40
2.200
1
Wocklum Limestone
0
TEXT
8
TEXT
62
7
10
66.000
20
258.502
40
2.200
1
D?w
0
TEXT
8
TEXT
62
7
10
147.000
20
258.502
40
2.200
1
15.0
0
TEXT
8
TEXT
62
7
10
157.000
20
258.502
40
2.000
1
Grey nodular limestone
0
LINE
8
GRID
62
8
10
8.000
20
266.969
11
205.000
21
266.969
0
POLYLINE
8
LITHOLOGY
62
1
66
1
70
1
0
VERTEX
8
LITHOLOGY
10
84.300
20
246.536
0
VERTEX
8
LITHOLOGY
10
121.800
20
246.536
0
VERTEX
8
LITHOLOGY
10
121.800
20
250.036
0
VERTEX
8
LITHOLOGY
10
84.300
20
250.036
0
SEQEND
0
TEXT
8
TEXT
62
7
10
48.000
20
248.286
40
2.200
1
Kellwasser Horizon
0
TEXT
8
TEXT
62
7
10
66.000
20
248.286
40
2.200
1
D?k
0
TEXT
8
TEXT
62
7
10
147.000
20
248.286
40
2.200
1
2.0
0
TEXT
8
TEXT
62
7
10
157.000
20
248.286
40
2.000
1
Black bituminous shale, Upper Kellwasser ???C +4?
0
LINE
8
GRID
62
8
10
8.000
20
250.036
11
205.000
21
250.036
0
POLYLINE
8
LITHOLOGY
62
6
66
1
70
1
0
VERTEX
8
LITHOLOGY
10
84.300
20
218.313
0
VERTEX
8
LITHOLOGY
10
121.800
20
218.313
0
VERTEX
8
LITHOLOGY
10
121.800
20
246.536
0
VERTEX
8
LITHOLOGY
10
84.300
20
246.536
0
SEQEND
0
TEXT
8
TEXT
62
7
10
48.000
20
232.424
40
2.200
1
Adorf Limestone
0
TEXT
8
TEXT
62
7
10
66.000
20
232.424
40
2.200
1
D?a
0
TEXT
8
TEXT
62
7
10
147.000
20
232.424
40
2.200
1
25.0
0
TEXT
8
TEXT
62
7
10
157.000
20
232.424
40
2.000
1
Dark grey cephalopod limestone
0
LINE
8
GRID
62
8
10
8.000
20
246.536
11
205.000
21
246.536
0
POLYLINE
8
LITHOLOGY
62
8
66
1
70
1
0
VERTEX
8
LITHOLOGY
10
84.300
20
173.158
0
VERTEX
8
LITHOLOGY
10
121.800
20
173.158
0
VERTEX
8
LITHOLOGY
10
121.800
20
218.313
0
VERTEX
8
LITHOLOGY
10
84.300
20
218.313
0
SEQEND
0
TEXT
8
TEXT
62
7
10
48.000
20
195.736
40
2.200
1
Stringocephalus Limestone
0
TEXT
8
TEXT
62
7
10
66.000
20
195.736
40
2.200
1
D?s
0
TEXT
8
TEXT
62
7
10
147.000
20
195.736
40
2.200
1
40.0
0
TEXT
8
TEXT
62
7
10
157.000
20
195.736
40
2.000
1
Massive reef limestone, Stringocephalus
0
LINE
8
GRID
62
8
10
8.000
20
218.313
11
205.000
21
218.313
0
POLYLINE
8
LITHOLOGY
62
5
66
1
70
1
0
VERTEX
8
LITHOLOGY
10
84.300
20
111.069
0
VERTEX
8
LITHOLOGY
10
121.800
20
111.069
0
VERTEX
8
LITHOLOGY
10
121.800
20
173.158
0
VERTEX
8
LITHOLOGY
10
84.300
20
173.158
0
SEQEND
0
TEXT
8
TEXT
62
7
10
48.000
20
142.113
40
2.200
1
Wissenbach Shale
0
TEXT
8
TEXT
62
7
10
66.000
20
142.113
40
2.200
1
D?w
0
TEXT
8
TEXT
62
7
10
147.000
20
142.113
40
2.200
1
55.0
0
TEXT
8
TEXT
62
7
10
157.000
20
142.113
40
2.000
1
Dark grey shale with limestone nodules
0
LINE
8
GRID
62
8
10
8.000
20
173.158
11
205.000
21
173.158
0
POLYLINE
8
LITHOLOGY
62
4
66
1
70
1
0
VERTEX
8
LITHOLOGY
10
84.300
20
20.758
0
VERTEX
8
LITHOLOGY
10
121.800
20
20.758
0
VERTEX
8
LITHOLOGY
10
121.800
20
111.069
0
VERTEX
8
LITHOLOGY
10
84.300
20
111.069
0
SEQEND
0
TEXT
8
TEXT
62
7
10
48.000
20
65.913
40
2.200
1
Hunsr?ck Slate
0
TEXT
8
TEXT
62
7
10
66.000
20
65.913
40
2.200
1
D?h
0
TEXT
8
TEXT
62
7
10
147.000
20
65.913
40
2.200
1
80.0
0
TEXT
8
TEXT
62
7
10
157.000
20
65.913
40
2.000
1
Dark grey slate with exceptional preservation
0
LINE
8
GRID
62
8
10
8.000
20
111.069
11
205.000
21
111.069
0
TEXT
8
FOOTER
62
8
10
8.000
20
17.000
40
2.000
1
Late Devonian Kellwasser Crisis ? Rhenish Massif | 225m | 7 layers | Scale 1:885
0
TEXT
8
FOOTER
62
9
10
8.000
20
14.000
40
1.600
1
CorelDRAWer-Skill (github.com/Reasonite-lab/CorelDRAWer-Skill)
0
ENDSEC
0
EOF