0
SECTION
2
ENTITIES
0
TEXT
8
TITLE
62
7
10
106.500
20
302.000
40
4.500
1
Early Jurassic Toarcian OAE ? Yorkshire Coast
0
POLYLINE
8
HEADER
62
8
66
1
70
1
0
VERTEX
8
HEADER
10
8.000
20
276.000
0
VERTEX
8
HEADER
10
205.000
20
276.000
0
VERTEX
8
HEADER
10
205.000
20
290.000
0
VERTEX
8
HEADER
10
8.000
20
290.000
0
SEQEND
0
TEXT
8
HEADER
62
7
10
14.500
20
283.000
40
2.800
1
Era
0
TEXT
8
HEADER
62
7
10
27.500
20
283.000
40
2.800
1
Sys
0
TEXT
8
HEADER
62
7
10
40.500
20
283.000
40
2.800
1
Ser
0
TEXT
8
HEADER
62
7
10
56.000
20
283.000
40
2.800
1
Fm
0
TEXT
8
HEADER
62
7
10
71.000
20
283.000
40
2.800
1
Sym
0
TEXT
8
HEADER
62
7
10
80.500
20
283.000
40
2.800
1
Fossils
0
TEXT
8
HEADER
62
7
10
104.000
20
283.000
40
2.800
1
Lithology
0
TEXT
8
HEADER
62
7
10
131.500
20
283.000
40
2.800
1
Grain
0
TEXT
8
HEADER
62
7
10
142.500
20
283.000
40
2.800
1
Struc
0
TEXT
8
HEADER
62
7
10
151.000
20
283.000
40
2.800
1
Thick(m)
0
TEXT
8
HEADER
62
7
10
188.500
20
283.000
40
2.800
1
Description
0
LINE
8
GRID
62
8
10
21.000
20
22.000
11
21.000
21
290.000
0
LINE
8
GRID
62
8
10
34.000
20
22.000
11
34.000
21
290.000
0
LINE
8
GRID
62
8
10
47.000
20
22.000
11
47.000
21
290.000
0
LINE
8
GRID
62
8
10
65.000
20
22.000
11
65.000
21
290.000
0
LINE
8
GRID
62
8
10
77.000
20
22.000
11
77.000
21
290.000
0
LINE
8
GRID
62
8
10
84.000
20
22.000
11
84.000
21
290.000
0
LINE
8
GRID
62
8
10
124.000
20
22.000
11
124.000
21
290.000
0
LINE
8
GRID
62
8
10
139.000
20
22.000
11
139.000
21
290.000
0
LINE
8
GRID
62
8
10
146.000
20
22.000
11
146.000
21
290.000
0
LINE
8
GRID
62
8
10
156.000
20
22.000
11
156.000
21
290.000
0
LINE
8
BORDER
62
7
10
8.000
20
22.000
11
8.000
21
290.000
0
LINE
8
BORDER
62
7
10
205.000
20
22.000
11
205.000
21
290.000
0
LINE
8
BORDER
62
7
10
8.000
20
290.000
11
205.000
21
290.000
0
LINE
8
BORDER
62
7
10
8.000
20
22.000
11
205.000
21
22.000
0
POLYLINE
8
LITHOLOGY
62
1
66
1
70
1
0
VERTEX
8
LITHOLOGY
10
84.300
20
217.895
0
VERTEX
8
LITHOLOGY
10
121.800
20
217.895
0
VERTEX
8
LITHOLOGY
10
121.800
20
276.000
0
VERTEX
8
LITHOLOGY
10
84.300
20
276.000
0
SEQEND
0
CIRCLE
8
PATTERN
62
8
10
115.277
20
261.420
40
0.300
0
CIRCLE
8
PATTERN
62
8
10
100.230
20
233.422
40
0.300
0
CIRCLE
8
PATTERN
62
8
10
103.450
20
241.614
40
0.300
0
CIRCLE
8
PATTERN
62
8
10
113.125
20
235.913
40
0.300
0
CIRCLE
8
PATTERN
62
8
10
102.219
20
251.626
40
0.300
0
CIRCLE
8
PATTERN
62
8
10
117.538
20
247.211
40
0.300
0
CIRCLE
8
PATTERN
62
8
10
95.305
20
261.299
40
0.300
0
CIRCLE
8
PATTERN
62
8
10
107.252
20
232.950
40
0.300
0
CIRCLE
8
PATTERN
62
8
10
117.596
20
274.034
40
0.300
0
CIRCLE
8
PATTERN
62
8
10
114.063
20
269.511
40
0.300
0
CIRCLE
8
PATTERN
62
8
10
96.310
20
259.842
40
0.300
0
CIRCLE
8
PATTERN
62
8
10
117.209
20
257.270
40
0.300
0
CIRCLE
8
PATTERN
62
8
10
102.061
20
224.545
40
0.300
0
CIRCLE
8
PATTERN
62
8
10
100.713
20
253.169
40
0.300
0
CIRCLE
8
PATTERN
62
8
10
117.712
20
273.126
40
0.300
0
CIRCLE
8
PATTERN
62
8
10
102.234
20
267.443
40
0.300
0
CIRCLE
8
PATTERN
62
8
10
94.547
20
264.061
40
0.300
0
CIRCLE
8
PATTERN
62
8
10
104.779
20
219.683
40
0.300
0
CIRCLE
8
PATTERN
62
8
10
110.850
20
241.271
40
0.300
0
CIRCLE
8
PATTERN
62
8
10
114.582
20
256.382
40
0.300
0
CIRCLE
8
PATTERN
62
8
10
85.341
20
246.587
40
0.300
0
CIRCLE
8
PATTERN
62
8
10
116.100
20
232.580
40
0.300
0
CIRCLE
8
PATTERN
62
8
10
96.845
20
267.733
40
0.300
0
CIRCLE
8
PATTERN
62
8
10
92.083
20
250.735
40
0.300
0
CIRCLE
8
PATTERN
62
8
10
93.771
20
273.179
40
0.300
0
CIRCLE
8
PATTERN
62
8
10
113.813
20
244.029
40
0.300
0
CIRCLE
8
PATTERN
62
8
10
88.156
20
236.852
40
0.300
0
CIRCLE
8
PATTERN
62
8
10
103.332
20
271.232
40
0.300
0
CIRCLE
8
PATTERN
62
8
10
89.172
20
249.824
40
0.300
0
CIRCLE
8
PATTERN
62
8
10
110.383
20
249.609
40
0.300
0
CIRCLE
8
PATTERN
62
8
10
114.214
20
249.208
40
0.300
0
CIRCLE
8
PATTERN
62
8
10
119.516
20
252.737
40
0.300
0
CIRCLE
8
PATTERN
62
8
10
106.160
20
243.861
40
0.300
0
CIRCLE
8
PATTERN
62
8
10
106.468
20
240.490
40
0.300
0
CIRCLE
8
PATTERN
62
8
10
105.736
20
235.184
40
0.300
0
CIRCLE
8
PATTERN
62
8
10
92.023
20
229.372
40
0.300
0
CIRCLE
8
PATTERN
62
8
10
107.053
20
255.737
40
0.300
0
CIRCLE
8
PATTERN
62
8
10
102.217
20
223.935
40
0.300
0
CIRCLE
8
PATTERN
62
8
10
112.195
20
268.086
40
0.300
0
CIRCLE
8
PATTERN
62
8
10
118.080
20
266.161
40
0.300
0
CIRCLE
8
PATTERN
62
8
10
117.185
20
270.685
40
0.300
0
CIRCLE
8
PATTERN
62
8
10
104.491
20
240.849
40
0.300
0
CIRCLE
8
PATTERN
62
8
10
110.338
20
234.360
40
0.300
0
CIRCLE
8
PATTERN
62
8
10
114.113
20
266.555
40
0.300
0
CIRCLE
8
PATTERN
62
8
10
117.074
20
251.986
40
0.300
0
CIRCLE
8
PATTERN
62
8
10
119.017
20
251.419
40
0.300
0
CIRCLE
8
PATTERN
62
8
10
101.295
20
255.938
40
0.300
0
CIRCLE
8
PATTERN
62
8
10
120.667
20
270.340
40
0.300
0
CIRCLE
8
PATTERN
62
8
10
113.463
20
223.517
40
0.300
0
CIRCLE
8
PATTERN
62
8
10
107.054
20
246.187
40
0.300
0
CIRCLE
8
PATTERN
62
8
10
107.670
20
266.308
40
0.300
0
CIRCLE
8
PATTERN
62
8
10
93.928
20
259.935
40
0.300
0
CIRCLE
8
PATTERN
62
8
10
89.458
20
231.264
40
0.300
0
CIRCLE
8
PATTERN
62
8
10
113.508
20
237.552
40
0.300
0
CIRCLE
8
PATTERN
62
8
10
114.265
20
224.540
40
0.300
0
CIRCLE
8
PATTERN
62
8
10
90.496
20
258.038
40
0.300
0
CIRCLE
8
PATTERN
62
8
10
86.906
20
251.092
40
0.300
0
CIRCLE
8
PATTERN
62
8
10
117.606
20
248.866
40
0.300
0
CIRCLE
8
PATTERN
62
8
10
109.461
20
220.393
40
0.300
0
CIRCLE
8
PATTERN
62
8
10
107.842
20
252.914
40
0.300
0
CIRCLE
8
PATTERN
62
8
10
105.746
20
240.844
40
0.300
0
CIRCLE
8
PATTERN
62
8
10
98.440
20
273.907
40
0.300
0
CIRCLE
8
PATTERN
62
8
10
86.592
20
220.109
40
0.300
0
CIRCLE
8
PATTERN
62
8
10
119.417
20
229.273
40
0.300
0
CIRCLE
8
PATTERN
62
8
10
89.698
20
230.710
40
0.300
0
CIRCLE
8
PATTERN
62
8
10
113.727
20
271.464
40
0.300
0
CIRCLE
8
PATTERN
62
8
10
86.109
20
242.775
40
0.300
0
CIRCLE
8
PATTERN
62
8
10
88.903
20
233.478
40
0.300
0
CIRCLE
8
PATTERN
62
8
10
93.139
20
255.191
40
0.300
0
CIRCLE
8
PATTERN
62
8
10
97.735
20
229.012
40
0.300
0
CIRCLE
8
PATTERN
62
8
10
103.179
20
221.105
40
0.300
0
CIRCLE
8
PATTERN
62
8
10
88.883
20
274.340
40
0.300
0
CIRCLE
8
PATTERN
62
8
10
92.377
20
239.012
40
0.300
0
CIRCLE
8
PATTERN
62
8
10
111.272
20
265.929
40
0.300
0
CIRCLE
8
PATTERN
62
8
10
117.906
20
228.401
40
0.300
0
CIRCLE
8
PATTERN
62
8
10
109.179
20
273.123
40
0.300
0
CIRCLE
8
PATTERN
62
8
10
87.361
20
256.833
40
0.300
0
CIRCLE
8
PATTERN
62
8
10
115.313
20
238.101
40
0.300
0
CIRCLE
8
PATTERN
62
8
10
94.199
20
252.378
40
0.300
0
CIRCLE
8
PATTERN
62
8
10
101.002
20
228.704
40
0.300
0
CIRCLE
8
PATTERN
62
8
10
102.043
20
241.893
40
0.300
0
CIRCLE
8
PATTERN
62
8
10
105.504
20
247.430
40
0.300
0
CIRCLE
8
PATTERN
62
8
10
96.356
20
238.933
40
0.300
0
CIRCLE
8
PATTERN
62
8
10
115.037
20
232.974
40
0.300
0
CIRCLE
8
PATTERN
62
8
10
105.201
20
219.593
40
0.300
0
CIRCLE
8
PATTERN
62
8
10
111.626
20
237.742
40
0.300
0
CIRCLE
8
PATTERN
62
8
10
86.922
20
234.654
40
0.300
0
CIRCLE
8
PATTERN
62
8
10
93.825
20
272.370
40
0.300
0
CIRCLE
8
PATTERN
62
8
10
97.804
20
235.047
40
0.300
0
CIRCLE
8
PATTERN
62
8
10
98.052
20
272.021
40
0.300
0
CIRCLE
8
PATTERN
62
8
10
107.798
20
253.741
40
0.300
0
CIRCLE
8
PATTERN
62
8
10
110.704
20
240.665
40
0.300
0
CIRCLE
8
PATTERN
62
8
10
100.012
20
255.410
40
0.300
0
CIRCLE
8
PATTERN
62
8
10
85.354
20
229.685
40
0.300
0
CIRCLE
8
PATTERN
62
8
10
97.171
20
232.328
40
0.300
0
CIRCLE
8
PATTERN
62
8
10
107.928
20
240.139
40
0.300
0
CIRCLE
8
PATTERN
62
8
10
116.378
20
250.771
40
0.300
0
CIRCLE
8
PATTERN
62
8
10
100.011
20
241.464
40
0.300
0
CIRCLE
8
PATTERN
62
8
10
110.215
20
242.360
40
0.300
0
CIRCLE
8
PATTERN
62
8
10
108.808
20
221.520
40
0.300
0
CIRCLE
8
PATTERN
62
8
10
101.110
20
233.439
40
0.300
0
CIRCLE
8
PATTERN
62
8
10
90.898
20
248.495
40
0.300
0
CIRCLE
8
PATTERN
62
8
10
102.598
20
250.393
40
0.300
0
CIRCLE
8
PATTERN
62
8
10
112.120
20
268.485
40
0.300
0
CIRCLE
8
PATTERN
62
8
10
102.858
20
236.403
40
0.300
0
CIRCLE
8
PATTERN
62
8
10
101.875
20
264.287
40
0.300
0
CIRCLE
8
PATTERN
62
8
10
116.363
20
264.476
40
0.300
0
CIRCLE
8
PATTERN
62
8
10
91.974
20
274.967
40
0.300
0
CIRCLE
8
PATTERN
62
8
10
107.775
20
223.578
40
0.300
0
CIRCLE
8
PATTERN
62
8
10
111.057
20
274.261
40
0.300
0
CIRCLE
8
PATTERN
62
8
10
99.564
20
256.963
40
0.300
0
CIRCLE
8
PATTERN
62
8
10
96.524
20
230.875
40
0.300
0
CIRCLE
8
PATTERN
62
8
10
110.765
20
219.028
40
0.300
0
CIRCLE
8
PATTERN
62
8
10
114.507
20
248.538
40
0.300
0
CIRCLE
8
PATTERN
62
8
10
88.771
20
225.566
40
0.300
0
CIRCLE
8
PATTERN
62
8
10
108.349
20
267.911
40
0.300
0
CIRCLE
8
PATTERN
62
8
10
95.239
20
273.795
40
0.300
0
CIRCLE
8
PATTERN
62
8
10
88.856
20
266.805
40
0.300
0
CIRCLE
8
PATTERN
62
8
10
99.383
20
223.459
40
0.300
0
CIRCLE
8
PATTERN
62
8
10
95.052
20
244.310
40
0.300
0
CIRCLE
8
PATTERN
62
8
10
113.428
20
267.222
40
0.300
0
CIRCLE
8
PATTERN
62
8
10
90.036
20
248.118
40
0.300
0
CIRCLE
8
PATTERN
62
8
10
108.403
20
238.367
40
0.300
0
CIRCLE
8
PATTERN
62
8
10
116.251
20
234.515
40
0.300
0
CIRCLE
8
PATTERN
62
8
10
85.959
20
221.177
40
0.300
0
CIRCLE
8
PATTERN
62
8
10
109.475
20
250.222
40
0.300
0
CIRCLE
8
PATTERN
62
8
10
118.901
20
271.546
40
0.300
0
CIRCLE
8
PATTERN
62
8
10
117.600
20
221.252
40
0.300
0
CIRCLE
8
PATTERN
62
8
10
111.894
20
258.243
40
0.300
0
CIRCLE
8
PATTERN
62
8
10
108.565
20
258.862
40
0.300
0
CIRCLE
8
PATTERN
62
8
10
117.346
20
254.810
40
0.300
0
CIRCLE
8
PATTERN
62
8
10
98.522
20
249.076
40
0.300
0
CIRCLE
8
PATTERN
62
8
10
92.678
20
251.836
40
0.300
0
CIRCLE
8
PATTERN
62
8
10
85.616
20
227.369
40
0.300
0
CIRCLE
8
PATTERN
62
8
10
97.136
20
263.197
40
0.300
0
CIRCLE
8
PATTERN
62
8
10
110.807
20
237.873
40
0.300
0
CIRCLE
8
PATTERN
62
8
10
107.329
20
221.207
40
0.300
0
CIRCLE
8
PATTERN
62
8
10
91.117
20
273.985
40
0.300
0
CIRCLE
8
PATTERN
62
8
10
95.578
20
241.045
40
0.300
0
CIRCLE
8
PATTERN
62
8
10
104.771
20
235.357
40
0.300
0
CIRCLE
8
PATTERN
62
8
10
102.271
20
232.344
40
0.300
0
CIRCLE
8
PATTERN
62
8
10
87.013
20
228.971
40
0.300
0
CIRCLE
8
PATTERN
62
8
10
103.868
20
222.871
40
0.300
0
CIRCLE
8
PATTERN
62
8
10
99.613
20
237.327
40
0.300
0
CIRCLE
8
PATTERN
62
8
10
100.023
20
224.472
40
0.300
0
CIRCLE
8
PATTERN
62
8
10
117.557
20
245.489
40
0.300
0
CIRCLE
8
PATTERN
62
8
10
115.150
20
273.666
40
0.300
0
CIRCLE
8
PATTERN
62
8
10
97.500
20
245.774
40
0.300
0
CIRCLE
8
PATTERN
62
8
10
110.136
20
242.826
40
0.300
0
CIRCLE
8
PATTERN
62
8
10
96.018
20
260.118
40
0.300
0
CIRCLE
8
PATTERN
62
8
10
117.051
20
270.494
40
0.300
0
CIRCLE
8
PATTERN
62
8
10
107.549
20
239.967
40
0.300
0
CIRCLE
8
PATTERN
62
8
10
119.897
20
254.739
40
0.300
0
CIRCLE
8
PATTERN
62
8
10
87.637
20
223.646
40
0.300
0
CIRCLE
8
PATTERN
62
8
10
111.920
20
222.327
40
0.300
0
CIRCLE
8
PATTERN
62
8
10
85.579
20
240.990
40
0.300
0
CIRCLE
8
PATTERN
62
8
10
103.725
20
244.061
40
0.300
0
CIRCLE
8
PATTERN
62
8
10
102.646
20
251.710
40
0.300
0
CIRCLE
8
PATTERN
62
8
10
109.415
20
242.630
40
0.300
0
CIRCLE
8
PATTERN
62
8
10
98.376
20
274.353
40
0.300
0
CIRCLE
8
PATTERN
62
8
10
94.563
20
262.494
40
0.300
0
CIRCLE
8
PATTERN
62
8
10
100.608
20
239.010
40
0.300
0
CIRCLE
8
PATTERN
62
8
10
87.567
20
267.346
40
0.300
0
CIRCLE
8
PATTERN
62
8
10
110.221
20
269.558
40
0.300
0
CIRCLE
8
PATTERN
62
8
10
101.332
20
256.874
40
0.300
0
CIRCLE
8
PATTERN
62
8
10
89.521
20
241.222
40
0.300
0
CIRCLE
8
PATTERN
62
8
10
92.657
20
221.258
40
0.300
0
CIRCLE
8
PATTERN
62
8
10
118.953
20
231.008
40
0.300
0
CIRCLE
8
PATTERN
62
8
10
90.496
20
230.002
40
0.300
0
CIRCLE
8
PATTERN
62
8
10
98.720
20
249.550
40
0.300
0
CIRCLE
8
PATTERN
62
8
10
90.672
20
274.365
40
0.300
0
CIRCLE
8
PATTERN
62
8
10
120.196
20
227.221
40
0.300
0
CIRCLE
8
PATTERN
62
8
10
99.710
20
257.043
40
0.300
0
CIRCLE
8
PATTERN
62
8
10
116.457
20
246.690
40
0.300
0
CIRCLE
8
PATTERN
62
8
10
117.855
20
236.987
40
0.300
0
CIRCLE
8
PATTERN
62
8
10
102.995
20
246.872
40
0.300
0
CIRCLE
8
PATTERN
62
8
10
109.087
20
230.228
40
0.300
0
CIRCLE
8
PATTERN
62
8
10
106.947
20
231.170
40
0.300
0
CIRCLE
8
PATTERN
62
8
10
97.378
20
272.900
40
0.300
0
CIRCLE
8
PATTERN
62
8
10
117.215
20
264.796
40
0.300
0
CIRCLE
8
PATTERN
62
8
10
86.559
20
227.219
40
0.300
0
CIRCLE
8
PATTERN
62
8
10
94.419
20
262.891
40
0.300
0
CIRCLE
8
PATTERN
62
8
10
115.203
20
251.601
40
0.300
0
CIRCLE
8
PATTERN
62
8
10
110.794
20
264.175
40
0.300
0
CIRCLE
8
PATTERN
62
8
10
87.656
20
223.644
40
0.300
0
CIRCLE
8
PATTERN
62
8
10
116.146
20
221.107
40
0.300
0
CIRCLE
8
PATTERN
62
8
10
93.291
20
221.175
40
0.300
0
CIRCLE
8
PATTERN
62
8
10
85.843
20
266.245
40
0.300
0
CIRCLE
8
PATTERN
62
8
10
97.036
20
227.911
40
0.300
0
CIRCLE
8
PATTERN
62
8
10
90.583
20
255.705
40
0.300
0
CIRCLE
8
PATTERN
62
8
10
119.685
20
247.228
40
0.300
0
CIRCLE
8
PATTERN
62
8
10
117.289
20
247.084
40
0.300
0
CIRCLE
8
PATTERN
62
8
10
105.672
20
256.966
40
0.300
0
CIRCLE
8
PATTERN
62
8
10
113.881
20
261.414
40
0.300
0
CIRCLE
8
PATTERN
62
8
10
120.464
20
260.804
40
0.300
0
CIRCLE
8
PATTERN
62
8
10
117.455
20
230.459
40
0.300
0
CIRCLE
8
PATTERN
62
8
10
104.307
20
252.480
40
0.300
0
CIRCLE
8
PATTERN
62
8
10
114.612
20
245.950
40
0.300
0
CIRCLE
8
PATTERN
62
8
10
113.382
20
240.696
40
0.300
0
CIRCLE
8
PATTERN
62
8
10
106.117
20
266.658
40
0.300
0
CIRCLE
8
PATTERN
62
8
10
113.631
20
255.755
40
0.300
0
CIRCLE
8
PATTERN
62
8
10
85.309
20
229.105
40
0.300
0
CIRCLE
8
PATTERN
62
8
10
103.293
20
233.172
40
0.300
0
CIRCLE
8
PATTERN
62
8
10
87.630
20
267.139
40
0.300
0
CIRCLE
8
PATTERN
62
8
10
118.775
20
235.884
40
0.300
0
CIRCLE
8
PATTERN
62
8
10
99.787
20
264.342
40
0.300
0
CIRCLE
8
PATTERN
62
8
10
87.510
20
254.858
40
0.300
0
CIRCLE
8
PATTERN
62
8
10
89.820
20
235.002
40
0.300
0
CIRCLE
8
PATTERN
62
8
10
114.763
20
222.011
40
0.300
0
CIRCLE
8
PATTERN
62
8
10
86.576
20
242.340
40
0.300
0
CIRCLE
8
PATTERN
62
8
10
102.760
20
267.332
40
0.300
0
CIRCLE
8
PATTERN
62
8
10
110.760
20
256.684
40
0.300
0
CIRCLE
8
PATTERN
62
8
10
90.674
20
274.254
40
0.300
0
CIRCLE
8
PATTERN
62
8
10
99.895
20
253.219
40
0.300
0
CIRCLE
8
PATTERN
62
8
10
99.027
20
221.534
40
0.300
0
CIRCLE
8
PATTERN
62
8
10
102.017
20
227.388
40
0.300
0
CIRCLE
8
PATTERN
62
8
10
86.453
20
253.534
40
0.300
0
CIRCLE
8
PATTERN
62
8
10
107.664
20
224.803
40
0.300
0
CIRCLE
8
PATTERN
62
8
10
104.795
20
238.345
40
0.300
0
CIRCLE
8
PATTERN
62
8
10
98.911
20
262.456
40
0.300
0
CIRCLE
8
PATTERN
62
8
10
102.706
20
268.339
40
0.300
0
CIRCLE
8
PATTERN
62
8
10
106.959
20
245.107
40
0.300
0
CIRCLE
8
PATTERN
62
8
10
107.747
20
237.851
40
0.300
0
CIRCLE
8
PATTERN
62
8
10
89.713
20
257.188
40
0.300
0
CIRCLE
8
PATTERN
62
8
10
107.382
20
263.138
40
0.300
0
CIRCLE
8
PATTERN
62
8
10
89.812
20
270.051
40
0.300
0
CIRCLE
8
PATTERN
62
8
10
113.677
20
270.337
40
0.300
0
CIRCLE
8
PATTERN
62
8
10
116.275
20
257.103
40
0.300
0
CIRCLE
8
PATTERN
62
8
10
114.064
20
248.014
40
0.300
0
CIRCLE
8
PATTERN
62
8
10
113.185
20
229.506
40
0.300
0
CIRCLE
8
PATTERN
62
8
10
113.065
20
243.838
40
0.300
0
CIRCLE
8
PATTERN
62
8
10
112.160
20
244.449
40
0.300
0
CIRCLE
8
PATTERN
62
8
10
113.329
20
223.122
40
0.300
0
CIRCLE
8
PATTERN
62
8
10
86.885
20
271.313
40
0.300
0
CIRCLE
8
PATTERN
62
8
10
102.559
20
269.450
40
0.300
0
CIRCLE
8
PATTERN
62
8
10
118.840
20
256.290
40
0.300
0
CIRCLE
8
PATTERN
62
8
10
105.599
20
231.013
40
0.300
0
CIRCLE
8
PATTERN
62
8
10
88.618
20
264.867
40
0.300
0
CIRCLE
8
PATTERN
62
8
10
116.851
20
262.623
40
0.300
0
CIRCLE
8
PATTERN
62
8
10
110.097
20
242.466
40
0.300
0
CIRCLE
8
PATTERN
62
8
10
96.139
20
225.260
40
0.300
0
CIRCLE
8
PATTERN
62
8
10
100.422
20
250.651
40
0.300
0
CIRCLE
8
PATTERN
62
8
10
118.062
20
271.396
40
0.300
0
CIRCLE
8
PATTERN
62
8
10
100.055
20
224.462
40
0.300
0
CIRCLE
8
PATTERN
62
8
10
112.771
20
260.092
40
0.300
0
CIRCLE
8
PATTERN
62
8
10
86.390
20
243.958
40
0.300
0
CIRCLE
8
PATTERN
62
8
10
109.668
20
220.586
40
0.300
0
CIRCLE
8
PATTERN
62
8
10
117.935
20
272.882
40
0.300
0
CIRCLE
8
PATTERN
62
8
10
110.950
20
223.302
40
0.300
0
CIRCLE
8
PATTERN
62
8
10
87.797
20
239.051
40
0.300
0
CIRCLE
8
PATTERN
62
8
10
86.343
20
238.413
40
0.300
0
CIRCLE
8
PATTERN
62
8
10
85.654
20
273.559
40
0.300
0
CIRCLE
8
PATTERN
62
8
10
114.375
20
222.852
40
0.300
0
CIRCLE
8
PATTERN
62
8
10
117.017
20
230.564
40
0.300
0
CIRCLE
8
PATTERN
62
8
10
92.570
20
256.696
40
0.300
0
CIRCLE
8
PATTERN
62
8
10
118.608
20
225.807
40
0.300
0
CIRCLE
8
PATTERN
62
8
10
85.555
20
239.605
40
0.300
0
CIRCLE
8
PATTERN
62
8
10
86.175
20
252.830
40
0.300
0
CIRCLE
8
PATTERN
62
8
10
115.801
20
229.387
40
0.300
0
CIRCLE
8
PATTERN
62
8
10
89.290
20
238.221
40
0.300
0
CIRCLE
8
PATTERN
62
8
10
119.351
20
226.198
40
0.300
0
CIRCLE
8
PATTERN
62
8
10
119.611
20
239.219
40
0.300
0
CIRCLE
8
PATTERN
62
8
10
102.105
20
235.313
40
0.300
0
CIRCLE
8
PATTERN
62
8
10
118.568
20
272.652
40
0.300
0
CIRCLE
8
PATTERN
62
8
10
107.875
20
229.221
40
0.300
0
CIRCLE
8
PATTERN
62
8
10
120.550
20
224.651
40
0.300
0
CIRCLE
8
PATTERN
62
8
10
105.920
20
227.670
40
0.300
0
CIRCLE
8
PATTERN
62
8
10
117.167
20
271.952
40
0.300
0
CIRCLE
8
PATTERN
62
8
10
113.856
20
236.618
40
0.300
0
CIRCLE
8
PATTERN
62
8
10
93.921
20
261.246
40
0.300
0
CIRCLE
8
PATTERN
62
8
10
95.633
20
242.447
40
0.300
0
CIRCLE
8
PATTERN
62
8
10
86.942
20
226.314
40
0.300
0
TEXT
8
TEXT
62
7
10
48.000
20
246.948
40
2.200
1
Ravenscar Group
0
TEXT
8
TEXT
62
7
10
66.000
20
246.948
40
2.200
1
J?r
0
TEXT
8
TEXT
62
7
10
147.000
20
246.948
40
2.200
1
35.0
0
TEXT
8
TEXT
62
7
10
157.000
20
246.948
40
2.000
1
Fluvial sandstone, plant remains
0
LINE
8
GRID
62
8
10
8.000
20
276.000
11
205.000
21
276.000
0
POLYLINE
8
LITHOLOGY
62
1
66
1
70
1
0
VERTEX
8
LITHOLOGY
10
84.300
20
184.693
0
VERTEX
8
LITHOLOGY
10
121.800
20
184.693
0
VERTEX
8
LITHOLOGY
10
121.800
20
217.895
0
VERTEX
8
LITHOLOGY
10
84.300
20
217.895
0
SEQEND
0
CIRCLE
8
PATTERN
62
8
10
90.471
20
199.888
40
0.300
0
CIRCLE
8
PATTERN
62
8
10
112.663
20
207.707
40
0.300
0
CIRCLE
8
PATTERN
62
8
10
111.285
20
199.220
40
0.300
0
CIRCLE
8
PATTERN
62
8
10
113.701
20
202.321
40
0.300
0
CIRCLE
8
PATTERN
62
8
10
88.145
20
199.920
40
0.300
0
CIRCLE
8
PATTERN
62
8
10
87.000
20
214.804
40
0.300
0
CIRCLE
8
PATTERN
62
8
10
118.921
20
196.157
40
0.300
0
CIRCLE
8
PATTERN
62
8
10
96.284
20
209.657
40
0.300
0
CIRCLE
8
PATTERN
62
8
10
92.537
20
191.261
40
0.300
0
CIRCLE
8
PATTERN
62
8
10
91.995
20
196.520
40
0.300
0
CIRCLE
8
PATTERN
62
8
10
107.534
20
215.751
40
0.300
0
CIRCLE
8
PATTERN
62
8
10
92.785
20
215.526
40
0.300
0
CIRCLE
8
PATTERN
62
8
10
105.017
20
213.811
40
0.300
0
CIRCLE
8
PATTERN
62
8
10
114.340
20
190.698
40
0.300
0
CIRCLE
8
PATTERN
62
8
10
108.323
20
189.565
40
0.300
0
CIRCLE
8
PATTERN
62
8
10
85.500
20
198.034
40
0.300
0
CIRCLE
8
PATTERN
62
8
10
112.759
20
203.358
40
0.300
0
CIRCLE
8
PATTERN
62
8
10
92.139
20
211.940
40
0.300
0
CIRCLE
8
PATTERN
62
8
10
117.739
20
193.095
40
0.300
0
CIRCLE
8
PATTERN
62
8
10
101.211
20
205.594
40
0.300
0
CIRCLE
8
PATTERN
62
8
10
117.333
20
189.644
40
0.300
0
CIRCLE
8
PATTERN
62
8
10
104.965
20
215.913
40
0.300
0
CIRCLE
8
PATTERN
62
8
10
106.923
20
208.075
40
0.300
0
CIRCLE
8
PATTERN
62
8
10
112.811
20
201.516
40
0.300
0
CIRCLE
8
PATTERN
62
8
10
95.590
20
204.114
40
0.300
0
CIRCLE
8
PATTERN
62
8
10
104.050
20
196.404
40
0.300
0
CIRCLE
8
PATTERN
62
8
10
115.623
20
197.019
40
0.300
0
CIRCLE
8
PATTERN
62
8
10
102.467
20
209.454
40
0.300
0
CIRCLE
8
PATTERN
62
8
10
114.191
20
213.477
40
0.300
0
CIRCLE
8
PATTERN
62
8
10
108.428
20
193.572
40
0.300
0
CIRCLE
8
PATTERN
62
8
10
115.382
20
214.065
40
0.300
0
CIRCLE
8
PATTERN
62
8
10
110.673
20
209.624
40
0.300
0
CIRCLE
8
PATTERN
62
8
10
103.532
20
201.091
40
0.300
0
CIRCLE
8
PATTERN
62
8
10
105.985
20
190.285
40
0.300
0
CIRCLE
8
PATTERN
62
8
10
109.297
20
212.569
40
0.300
0
CIRCLE
8
PATTERN
62
8
10
91.147
20
209.216
40
0.300
0
CIRCLE
8
PATTERN
62
8
10
110.369
20
189.468
40
0.300
0
CIRCLE
8
PATTERN
62
8
10
87.101
20
204.270
40
0.300
0
CIRCLE
8
PATTERN
62
8
10
93.080
20
195.361
40
0.300
0
CIRCLE
8
PATTERN
62
8
10
107.352
20
206.000
40
0.300
0
CIRCLE
8
PATTERN
62
8
10
111.881
20
203.423
40
0.300
0
CIRCLE
8
PATTERN
62
8
10
97.148
20
186.084
40
0.300
0
CIRCLE
8
PATTERN
62
8
10
89.348
20
191.710
40
0.300
0
CIRCLE
8
PATTERN
62
8
10
103.948
20
208.162
40
0.300
0
CIRCLE
8
PATTERN
62
8
10
92.725
20
197.857
40
0.300
0
CIRCLE
8
PATTERN
62
8
10
118.543
20
198.193
40
0.300
0
CIRCLE
8
PATTERN
62
8
10
110.619
20
204.991
40
0.300
0
CIRCLE
8
PATTERN
62
8
10
108.721
20
200.567
40
0.300
0
CIRCLE
8
PATTERN
62
8
10
104.651
20
207.561
40
0.300
0
CIRCLE
8
PATTERN
62
8
10
91.020
20
210.616
40
0.300
0
CIRCLE
8
PATTERN
62
8
10
116.287
20
187.162
40
0.300
0
CIRCLE
8
PATTERN
62
8
10
92.333
20
193.456
40
0.300
0
CIRCLE
8
PATTERN
62
8
10
88.649
20
190.061
40
0.300
0
CIRCLE
8
PATTERN
62
8
10
108.071
20
189.531
40
0.300
0
CIRCLE
8
PATTERN
62
8
10
87.671
20
215.205
40
0.300
0
CIRCLE
8
PATTERN
62
8
10
99.572
20
202.559
40
0.300
0
CIRCLE
8
PATTERN
62
8
10
102.131
20
196.416
40
0.300
0
CIRCLE
8
PATTERN
62
8
10
101.425
20
191.752
40
0.300
0
CIRCLE
8
PATTERN
62
8
10
105.881
20
193.531
40
0.300
0
CIRCLE
8
PATTERN
62
8
10
90.459
20
192.204
40
0.300
0
CIRCLE
8
PATTERN
62
8
10
99.952
20
214.722
40
0.300
0
CIRCLE
8
PATTERN
62
8
10
106.525
20
216.295
40
0.300
0
CIRCLE
8
PATTERN
62
8
10
99.528
20
193.820
40
0.300
0
CIRCLE
8
PATTERN
62
8
10
110.529
20
191.636
40
0.300
0
CIRCLE
8
PATTERN
62
8
10
120.731
20
197.879
40
0.300
0
CIRCLE
8
PATTERN
62
8
10
94.935
20
194.157
40
0.300
0
CIRCLE
8
PATTERN
62
8
10
96.109
20
214.921
40
0.300
0
CIRCLE
8
PATTERN
62
8
10
120.522
20
203.117
40
0.300
0
CIRCLE
8
PATTERN
62
8
10
93.535
20
185.997
40
0.300
0
CIRCLE
8
PATTERN
62
8
10
88.140
20
194.991
40
0.300
0
CIRCLE
8
PATTERN
62
8
10
108.118
20
205.237
40
0.300
0
CIRCLE
8
PATTERN
62
8
10
115.593
20
211.312
40
0.300
0
CIRCLE
8
PATTERN
62
8
10
97.818
20
206.718
40
0.300
0
CIRCLE
8
PATTERN
62
8
10
101.074
20
208.415
40
0.300
0
CIRCLE
8
PATTERN
62
8
10
91.842
20
216.163
40
0.300
0
CIRCLE
8
PATTERN
62
8
10
86.111
20
204.965
40
0.300
0
CIRCLE
8
PATTERN
62
8
10
97.813
20
210.678
40
0.300
0
CIRCLE
8
PATTERN
62
8
10
90.400
20
213.492
40
0.300
0
CIRCLE
8
PATTERN
62
8
10
85.414
20
208.633
40
0.300
0
CIRCLE
8
PATTERN
62
8
10
110.273
20
201.523
40
0.300
0
CIRCLE
8
PATTERN
62
8
10
91.494
20
197.617
40
0.300
0
CIRCLE
8
PATTERN
62
8
10
101.156
20
192.326
40
0.300
0
CIRCLE
8
PATTERN
62
8
10
91.015
20
211.979
40
0.300
0
CIRCLE
8
PATTERN
62
8
10
104.811
20
194.142
40
0.300
0
CIRCLE
8
PATTERN
62
8
10
107.502
20
205.443
40
0.300
0
CIRCLE
8
PATTERN
62
8
10
90.130
20
203.934
40
0.300
0
CIRCLE
8
PATTERN
62
8
10
106.046
20
189.158
40
0.300
0
CIRCLE
8
PATTERN
62
8
10
95.978
20
212.627
40
0.300
0
CIRCLE
8
PATTERN
62
8
10
105.856
20
192.654
40
0.300
0
CIRCLE
8
PATTERN
62
8
10
99.270
20
199.996
40
0.300
0
CIRCLE
8
PATTERN
62
8
10
110.443
20
212.550
40
0.300
0
CIRCLE
8
PATTERN
62
8
10
88.404
20
187.149
40
0.300
0
CIRCLE
8
PATTERN
62
8
10
100.974
20
186.316
40
0.300
0
CIRCLE
8
PATTERN
62
8
10
90.778
20
189.007
40
0.300
0
CIRCLE
8
PATTERN
62
8
10
88.442
20
205.204
40
0.300
0
CIRCLE
8
PATTERN
62
8
10
88.689
20
203.374
40
0.300
0
CIRCLE
8
PATTERN
62
8
10
119.598
20
190.076
40
0.300
0
CIRCLE
8
PATTERN
62
8
10
112.244
20
203.921
40
0.300
0
CIRCLE
8
PATTERN
62
8
10
91.342
20
215.331
40
0.300
0
CIRCLE
8
PATTERN
62
8
10
111.453
20
197.532
40
0.300
0
CIRCLE
8
PATTERN
62
8
10
116.838
20
188.942
40
0.300
0
CIRCLE
8
PATTERN
62
8
10
114.897
20
211.980
40
0.300
0
CIRCLE
8
PATTERN
62
8
10
89.418
20
214.255
40
0.300
0
CIRCLE
8
PATTERN
62
8
10
113.133
20
214.231
40
0.300
0
CIRCLE
8
PATTERN
62
8
10
95.294
20
208.733
40
0.300
0
CIRCLE
8
PATTERN
62
8
10
112.979
20
196.561
40
0.300
0
CIRCLE
8
PATTERN
62
8
10
86.543
20
186.136
40
0.300
0
CIRCLE
8
PATTERN
62
8
10
103.285
20
202.792
40
0.300
0
CIRCLE
8
PATTERN
62
8
10
89.738
20
205.380
40
0.300
0
CIRCLE
8
PATTERN
62
8
10
87.150
20
200.610
40
0.300
0
CIRCLE
8
PATTERN
62
8
10
103.427
20
192.044
40
0.300
0
CIRCLE
8
PATTERN
62
8
10
86.987
20
213.870
40
0.300
0
CIRCLE
8
PATTERN
62
8
10
115.562
20
204.044
40
0.300
0
CIRCLE
8
PATTERN
62
8
10
86.342
20
202.085
40
0.300
0
CIRCLE
8
PATTERN
62
8
10
119.486
20
209.627
40
0.300
0
CIRCLE
8
PATTERN
62
8
10
109.742
20
186.928
40
0.300
0
CIRCLE
8
PATTERN
62
8
10
105.831
20
192.953
40
0.300
0
CIRCLE
8
PATTERN
62
8
10
120.321
20
186.034
40
0.300
0
CIRCLE
8
PATTERN
62
8
10
93.207
20
213.150
40
0.300
0
CIRCLE
8
PATTERN
62
8
10
89.564
20
195.055
40
0.300
0
CIRCLE
8
PATTERN
62
8
10
96.177
20
213.202
40
0.300
0
CIRCLE
8
PATTERN
62
8
10
110.016
20
214.834
40
0.300
0
CIRCLE
8
PATTERN
62
8
10
92.116
20
188.447
40
0.300
0
CIRCLE
8
PATTERN
62
8
10
97.486
20
209.598
40
0.300
0
CIRCLE
8
PATTERN
62
8
10
107.278
20
214.871
40
0.300
0
CIRCLE
8
PATTERN
62
8
10
110.607
20
188.248
40
0.300
0
CIRCLE
8
PATTERN
62
8
10
96.486
20
192.049
40
0.300
0
CIRCLE
8
PATTERN
62
8
10
94.804
20
206.490
40
0.300
0
CIRCLE
8
PATTERN
62
8
10
101.050
20
209.300
40
0.300
0
CIRCLE
8
PATTERN
62
8
10
85.866
20
214.049
40
0.300
0
CIRCLE
8
PATTERN
62
8
10
91.061
20
208.866
40
0.300
0
CIRCLE
8
PATTERN
62
8
10
115.275
20
187.009
40
0.300
0
CIRCLE
8
PATTERN
62
8
10
104.554
20
216.117
40
0.300
0
CIRCLE
8
PATTERN
62
8
10
85.560
20
201.206
40
0.300
0
CIRCLE
8
PATTERN
62
8
10
100.398
20
197.597
40
0.300
0
CIRCLE
8
PATTERN
62
8
10
92.201
20
191.321
40
0.300
0
CIRCLE
8
PATTERN
62
8
10
94.742
20
192.480
40
0.300
0
CIRCLE
8
PATTERN
62
8
10
95.734
20
213.832
40
0.300
0
CIRCLE
8
PATTERN
62
8
10
118.990
20
193.800
40
0.300
0
CIRCLE
8
PATTERN
62
8
10
86.277
20
193.997
40
0.300
0
CIRCLE
8
PATTERN
62
8
10
115.709
20
191.186
40
0.300
0
CIRCLE
8
PATTERN
62
8
10
108.801
20
188.590
40
0.300
0
CIRCLE
8
PATTERN
62
8
10
97.811
20
190.982
40
0.300
0
CIRCLE
8
PATTERN
62
8
10
107.184
20
197.246
40
0.300
0
CIRCLE
8
PATTERN
62
8
10
112.771
20
201.862
40
0.300
0
CIRCLE
8
PATTERN
62
8
10
99.634
20
186.363
40
0.300
0
CIRCLE
8
PATTERN
62
8
10
115.071
20
186.912
40
0.300
0
CIRCLE
8
PATTERN
62
8
10
103.011
20
216.516
40
0.300
0
CIRCLE
8
PATTERN
62
8
10
113.366
20
196.786
40
0.300
0
CIRCLE
8
PATTERN
62
8
10
118.309
20
193.750
40
0.300
0
CIRCLE
8
PATTERN
62
8
10
105.945
20
203.644
40
0.300
0
CIRCLE
8
PATTERN
62
8
10
110.894
20
194.697
40
0.300
0
CIRCLE
8
PATTERN
62
8
10
99.417
20
195.819
40
0.300
0
CIRCLE
8
PATTERN
62
8
10
117.915
20
208.718
40
0.300
0
CIRCLE
8
PATTERN
62
8
10
97.367
20
209.838
40
0.300
0
TEXT
8
TEXT
62
7
10
48.000
20
201.294
40
2.200
1
Blea Wyke Sandstone
0
TEXT
8
TEXT
62
7
10
66.000
20
201.294
40
2.200
1
J?b
0
TEXT
8
TEXT
62
7
10
147.000
20
201.294
40
2.200
1
20.0
0
TEXT
8
TEXT
62
7
10
157.000
20
201.294
40
2.000
1
Yellow-brown bioturbated sandstone
0
LINE
8
GRID
62
8
10
8.000
20
217.895
11
205.000
21
217.895
0
POLYLINE
8
LITHOLOGY
62
4
66
1
70
1
0
VERTEX
8
LITHOLOGY
10
84.300
20
109.987
0
VERTEX
8
LITHOLOGY
10
121.800
20
109.987
0
VERTEX
8
LITHOLOGY
10
121.800
20
184.693
0
VERTEX
8
LITHOLOGY
10
84.300
20
184.693
0
SEQEND
0
TEXT
8
TEXT
62
7
10
48.000
20
147.340
40
2.200
1
Whitby Mudstone
0
TEXT
8
TEXT
62
7
10
66.000
20
147.340
40
2.200
1
J?w
0
TEXT
8
TEXT
62
7
10
147.000
20
147.340
40
2.200
1
45.0
0
TEXT
8
TEXT
62
7
10
157.000
20
147.340
40
2.000
1
Grey fossiliferous mudstone, jet
0
LINE
8
GRID
62
8
10
8.000
20
184.693
11
205.000
21
184.693
0
POLYLINE
8
LITHOLOGY
62
1
66
1
70
1
0
VERTEX
8
LITHOLOGY
10
84.300
20
96.706
0
VERTEX
8
LITHOLOGY
10
121.800
20
96.706
0
VERTEX
8
LITHOLOGY
10
121.800
20
109.987
0
VERTEX
8
LITHOLOGY
10
84.300
20
109.987
0
SEQEND
0
TEXT
8
TEXT
62
7
10
48.000
20
103.346
40
2.200
1
Jet Rock
0
TEXT
8
TEXT
62
7
10
66.000
20
103.346
40
2.200
1
J?j
0
TEXT
8
TEXT
62
7
10
147.000
20
103.346
40
2.200
1
8.0
0
TEXT
8
TEXT
62
7
10
157.000
20
103.346
40
2.000
1
Laminated black shale, Toarcian OAE, ???C ?6?
0
LINE
8
GRID
62
8
10
8.000
20
109.987
11
205.000
21
109.987
0
POLYLINE
8
LITHOLOGY
62
6
66
1
70
1
0
VERTEX
8
LITHOLOGY
10
84.300
20
46.902
0
VERTEX
8
LITHOLOGY
10
121.800
20
46.902
0
VERTEX
8
LITHOLOGY
10
121.800
20
96.706
0
VERTEX
8
LITHOLOGY
10
84.300
20
96.706
0
SEQEND
0
TEXT
8
TEXT
62
7
10
48.000
20
71.804
40
2.200
1
Grey Shales
0
TEXT
8
TEXT
62
7
10
66.000
20
71.804
40
2.200
1
J?g
0
TEXT
8
TEXT
62
7
10
147.000
20
71.804
40
2.200
1
30.0
0
TEXT
8
TEXT
62
7
10
157.000
20
71.804
40
2.000
1
Grey silty shale with concretions
0
LINE
8
GRID
62
8
10
8.000
20
96.706
11
205.000
21
96.706
0
POLYLINE
8
LITHOLOGY
62
1
66
1
70
1
0
VERTEX
8
LITHOLOGY
10
84.300
20
22.000
0
VERTEX
8
LITHOLOGY
10
121.800
20
22.000
0
VERTEX
8
LITHOLOGY
10
121.800
20
46.902
0
VERTEX
8
LITHOLOGY
10
84.300
20
46.902
0
SEQEND
0
TEXT
8
TEXT
62
7
10
48.000
20
34.451
40
2.200
1
Cleveland Ironstone
0
TEXT
8
TEXT
62
7
10
66.000
20
34.451
40
2.200
1
J?c
0
TEXT
8
TEXT
62
7
10
147.000
20
34.451
40
2.200
1
15.0
0
TEXT
8
TEXT
62
7
10
157.000
20
34.451
40
2.000
1
Sideritic mudstone, ooidal ironstone
0
LINE
8
GRID
62
8
10
8.000
20
46.902
11
205.000
21
46.902
0
TEXT
8
FOOTER
62
8
10
8.000
20
17.000
40
2.000
1
Early Jurassic Toarcian OAE ? Yorkshire Coast | 153m | 6 layers | Scale 1:602
0
TEXT
8
FOOTER
62
9
10
8.000
20
14.000
40
1.600
1
CorelDRAWer-Skill (github.com/Reasonite-lab/CorelDRAWer-Skill)
0
ENDSEC
0
EOF