0
SECTION
2
ENTITIES
0
TEXT
8
TITLE
62
7
10
106.500
20
302.000
40
4.500
1
Plio-Pleistocene Climatic Transition ? Mediterranean Reference
0
POLYLINE
8
HEADER
62
8
66
1
70
1
0
VERTEX
8
HEADER
10
8.000
20
276.000
0
VERTEX
8
HEADER
10
205.000
20
276.000
0
VERTEX
8
HEADER
10
205.000
20
290.000
0
VERTEX
8
HEADER
10
8.000
20
290.000
0
SEQEND
0
TEXT
8
HEADER
62
7
10
14.500
20
283.000
40
2.800
1
Era
0
TEXT
8
HEADER
62
7
10
27.500
20
283.000
40
2.800
1
Sys
0
TEXT
8
HEADER
62
7
10
40.500
20
283.000
40
2.800
1
Ser
0
TEXT
8
HEADER
62
7
10
56.000
20
283.000
40
2.800
1
Fm
0
TEXT
8
HEADER
62
7
10
71.000
20
283.000
40
2.800
1
Sym
0
TEXT
8
HEADER
62
7
10
80.500
20
283.000
40
2.800
1
Fossils
0
TEXT
8
HEADER
62
7
10
104.000
20
283.000
40
2.800
1
Lithology
0
TEXT
8
HEADER
62
7
10
131.500
20
283.000
40
2.800
1
Grain
0
TEXT
8
HEADER
62
7
10
142.500
20
283.000
40
2.800
1
Struc
0
TEXT
8
HEADER
62
7
10
151.000
20
283.000
40
2.800
1
Thick(m)
0
TEXT
8
HEADER
62
7
10
188.500
20
283.000
40
2.800
1
Description
0
LINE
8
GRID
62
8
10
21.000
20
22.000
11
21.000
21
290.000
0
LINE
8
GRID
62
8
10
34.000
20
22.000
11
34.000
21
290.000
0
LINE
8
GRID
62
8
10
47.000
20
22.000
11
47.000
21
290.000
0
LINE
8
GRID
62
8
10
65.000
20
22.000
11
65.000
21
290.000
0
LINE
8
GRID
62
8
10
77.000
20
22.000
11
77.000
21
290.000
0
LINE
8
GRID
62
8
10
84.000
20
22.000
11
84.000
21
290.000
0
LINE
8
GRID
62
8
10
124.000
20
22.000
11
124.000
21
290.000
0
LINE
8
GRID
62
8
10
139.000
20
22.000
11
139.000
21
290.000
0
LINE
8
GRID
62
8
10
146.000
20
22.000
11
146.000
21
290.000
0
LINE
8
GRID
62
8
10
156.000
20
22.000
11
156.000
21
290.000
0
LINE
8
BORDER
62
7
10
8.000
20
22.000
11
8.000
21
290.000
0
LINE
8
BORDER
62
7
10
205.000
20
22.000
11
205.000
21
290.000
0
LINE
8
BORDER
62
7
10
8.000
20
290.000
11
205.000
21
290.000
0
LINE
8
BORDER
62
7
10
8.000
20
22.000
11
205.000
21
22.000
0
POLYLINE
8
LITHOLOGY
62
2
66
1
70
1
0
VERTEX
8
LITHOLOGY
10
84.300
20
272.500
0
VERTEX
8
LITHOLOGY
10
121.800
20
272.500
0
VERTEX
8
LITHOLOGY
10
121.800
20
276.000
0
VERTEX
8
LITHOLOGY
10
84.300
20
276.000
0
SEQEND
0
TEXT
8
TEXT
62
7
10
48.000
20
274.250
40
2.200
1
Sapropel S5
0
TEXT
8
TEXT
62
7
10
66.000
20
274.250
40
2.200
1
Qp
0
TEXT
8
TEXT
62
7
10
147.000
20
274.250
40
2.200
1
0.5
0
TEXT
8
TEXT
62
7
10
157.000
20
274.250
40
2.000
1
Organic-rich layer, interglacial ???O minimum
0
LINE
8
GRID
62
8
10
8.000
20
276.000
11
205.000
21
276.000
0
POLYLINE
8
LITHOLOGY
62
7
66
1
70
1
0
VERTEX
8
LITHOLOGY
10
84.300
20
235.887
0
VERTEX
8
LITHOLOGY
10
121.800
20
235.887
0
VERTEX
8
LITHOLOGY
10
121.800
20
272.500
0
VERTEX
8
LITHOLOGY
10
84.300
20
272.500
0
SEQEND
0
TEXT
8
TEXT
62
7
10
48.000
20
254.194
40
2.200
1
Marly Clay
0
TEXT
8
TEXT
62
7
10
66.000
20
254.194
40
2.200
1
Qp
0
TEXT
8
TEXT
62
7
10
147.000
20
254.194
40
2.200
1
8.0
0
TEXT
8
TEXT
62
7
10
157.000
20
254.194
40
2.000
1
Grey hemipelagic marl, glacial-interglacial cycles
0
LINE
8
GRID
62
8
10
8.000
20
272.500
11
205.000
21
272.500
0
POLYLINE
8
LITHOLOGY
62
8
66
1
70
1
0
VERTEX
8
LITHOLOGY
10
84.300
20
167.239
0
VERTEX
8
LITHOLOGY
10
121.800
20
167.239
0
VERTEX
8
LITHOLOGY
10
121.800
20
235.887
0
VERTEX
8
LITHOLOGY
10
84.300
20
235.887
0
SEQEND
0
TEXT
8
TEXT
62
7
10
48.000
20
201.563
40
2.200
1
Trubi Fm
0
TEXT
8
TEXT
62
7
10
66.000
20
201.563
40
2.200
1
N?t
0
TEXT
8
TEXT
62
7
10
147.000
20
201.563
40
2.200
1
15.0
0
TEXT
8
TEXT
62
7
10
157.000
20
201.563
40
2.000
1
White foraminiferal marl, Mid-Pliocene Warm Period
0
LINE
8
GRID
62
8
10
8.000
20
235.887
11
205.000
21
235.887
0
POLYLINE
8
LITHOLOGY
62
1
66
1
70
1
0
VERTEX
8
LITHOLOGY
10
84.300
20
158.086
0
VERTEX
8
LITHOLOGY
10
121.800
20
158.086
0
VERTEX
8
LITHOLOGY
10
121.800
20
167.239
0
VERTEX
8
LITHOLOGY
10
84.300
20
167.239
0
SEQEND
0
CIRCLE
8
PATTERN
62
8
10
106.518
20
161.551
40
0.300
0
CIRCLE
8
PATTERN
62
8
10
85.353
20
161.564
40
0.300
0
CIRCLE
8
PATTERN
62
8
10
114.522
20
162.115
40
0.300
0
CIRCLE
8
PATTERN
62
8
10
105.884
20
160.242
40
0.300
0
CIRCLE
8
PATTERN
62
8
10
100.482
20
161.719
40
0.300
0
CIRCLE
8
PATTERN
62
8
10
90.219
20
160.848
40
0.300
0
CIRCLE
8
PATTERN
62
8
10
88.648
20
165.299
40
0.300
0
CIRCLE
8
PATTERN
62
8
10
103.149
20
162.771
40
0.300
0
CIRCLE
8
PATTERN
62
8
10
112.708
20
164.024
40
0.300
0
CIRCLE
8
PATTERN
62
8
10
95.836
20
165.426
40
0.300
0
CIRCLE
8
PATTERN
62
8
10
105.064
20
165.931
40
0.300
0
CIRCLE
8
PATTERN
62
8
10
95.047
20
161.592
40
0.300
0
CIRCLE
8
PATTERN
62
8
10
87.655
20
164.839
40
0.300
0
CIRCLE
8
PATTERN
62
8
10
107.460
20
164.873
40
0.300
0
CIRCLE
8
PATTERN
62
8
10
98.652
20
165.660
40
0.300
0
CIRCLE
8
PATTERN
62
8
10
111.977
20
164.910
40
0.300
0
CIRCLE
8
PATTERN
62
8
10
86.527
20
164.973
40
0.300
0
CIRCLE
8
PATTERN
62
8
10
119.178
20
164.320
40
0.300
0
CIRCLE
8
PATTERN
62
8
10
101.071
20
163.507
40
0.300
0
CIRCLE
8
PATTERN
62
8
10
94.925
20
160.491
40
0.300
0
CIRCLE
8
PATTERN
62
8
10
116.987
20
163.673
40
0.300
0
CIRCLE
8
PATTERN
62
8
10
116.398
20
160.789
40
0.300
0
CIRCLE
8
PATTERN
62
8
10
99.821
20
164.957
40
0.300
0
CIRCLE
8
PATTERN
62
8
10
90.292
20
162.813
40
0.300
0
CIRCLE
8
PATTERN
62
8
10
101.428
20
160.800
40
0.300
0
CIRCLE
8
PATTERN
62
8
10
112.027
20
163.795
40
0.300
0
CIRCLE
8
PATTERN
62
8
10
99.564
20
164.545
40
0.300
0
CIRCLE
8
PATTERN
62
8
10
119.996
20
159.728
40
0.300
0
CIRCLE
8
PATTERN
62
8
10
120.674
20
161.002
40
0.300
0
CIRCLE
8
PATTERN
62
8
10
100.608
20
160.579
40
0.300
0
CIRCLE
8
PATTERN
62
8
10
87.160
20
163.130
40
0.300
0
CIRCLE
8
PATTERN
62
8
10
89.514
20
163.359
40
0.300
0
CIRCLE
8
PATTERN
62
8
10
118.513
20
164.910
40
0.300
0
CIRCLE
8
PATTERN
62
8
10
91.555
20
160.477
40
0.300
0
CIRCLE
8
PATTERN
62
8
10
115.831
20
162.785
40
0.300
0
CIRCLE
8
PATTERN
62
8
10
120.589
20
161.679
40
0.300
0
CIRCLE
8
PATTERN
62
8
10
105.735
20
161.957
40
0.300
0
CIRCLE
8
PATTERN
62
8
10
88.420
20
162.615
40
0.300
0
CIRCLE
8
PATTERN
62
8
10
103.522
20
161.803
40
0.300
0
CIRCLE
8
PATTERN
62
8
10
120.538
20
164.149
40
0.300
0
CIRCLE
8
PATTERN
62
8
10
91.914
20
159.122
40
0.300
0
CIRCLE
8
PATTERN
62
8
10
88.498
20
160.168
40
0.300
0
TEXT
8
TEXT
62
7
10
48.000
20
162.662
40
2.200
1
Arenazzolo
0
TEXT
8
TEXT
62
7
10
66.000
20
162.662
40
2.200
1
N?a
0
TEXT
8
TEXT
62
7
10
147.000
20
162.662
40
2.200
1
2.0
0
TEXT
8
TEXT
62
7
10
157.000
20
162.662
40
2.000
1
Sandy layer, Zanclean flood, Mediterranean refilling
0
LINE
8
GRID
62
8
10
8.000
20
167.239
11
205.000
21
167.239
0
POLYLINE
8
LITHOLOGY
62
9
66
1
70
1
0
VERTEX
8
LITHOLOGY
10
84.300
20
103.167
0
VERTEX
8
LITHOLOGY
10
121.800
20
103.167
0
VERTEX
8
LITHOLOGY
10
121.800
20
158.086
0
VERTEX
8
LITHOLOGY
10
84.300
20
158.086
0
SEQEND
0
TEXT
8
TEXT
62
7
10
48.000
20
130.626
40
2.200
1
Messinian Evaporite
0
TEXT
8
TEXT
62
7
10
66.000
20
130.626
40
2.200
1
N?m
0
TEXT
8
TEXT
62
7
10
147.000
20
130.626
40
2.200
1
12.0
0
TEXT
8
TEXT
62
7
10
157.000
20
130.626
40
2.000
1
Gypsum-anhydrite cycles, Messinian Salinity Crisis
0
LINE
8
GRID
62
8
10
8.000
20
158.086
11
205.000
21
158.086
0
POLYLINE
8
LITHOLOGY
62
1
66
1
70
1
0
VERTEX
8
LITHOLOGY
10
84.300
20
57.401
0
VERTEX
8
LITHOLOGY
10
121.800
20
57.401
0
VERTEX
8
LITHOLOGY
10
121.800
20
103.167
0
VERTEX
8
LITHOLOGY
10
84.300
20
103.167
0
SEQEND
0
TEXT
8
TEXT
62
7
10
48.000
20
80.284
40
2.200
1
Tripoli Fm
0
TEXT
8
TEXT
62
7
10
66.000
20
80.284
40
2.200
1
N?t
0
TEXT
8
TEXT
62
7
10
147.000
20
80.284
40
2.200
1
10.0
0
TEXT
8
TEXT
62
7
10
157.000
20
80.284
40
2.000
1
Diatomite, pre-evaporitic, laminated
0
LINE
8
GRID
62
8
10
8.000
20
103.167
11
205.000
21
103.167
0
POLYLINE
8
LITHOLOGY
62
6
66
1
70
1
0
VERTEX
8
LITHOLOGY
10
84.300
20
20.788
0
VERTEX
8
LITHOLOGY
10
121.800
20
20.788
0
VERTEX
8
LITHOLOGY
10
121.800
20
57.401
0
VERTEX
8
LITHOLOGY
10
84.300
20
57.401
0
SEQEND
0
TEXT
8
TEXT
62
7
10
48.000
20
39.095
40
2.200
1
Calcare di Base
0
TEXT
8
TEXT
62
7
10
66.000
20
39.095
40
2.200
1
N?c
0
TEXT
8
TEXT
62
7
10
147.000
20
39.095
40
2.200
1
8.0
0
TEXT
8
TEXT
62
7
10
157.000
20
39.095
40
2.000
1
Brecciated limestone, collapse breccia
0
LINE
8
GRID
62
8
10
8.000
20
57.401
11
205.000
21
57.401
0
TEXT
8
FOOTER
62
8
10
8.000
20
17.000
40
2.000
1
Plio-Pleistocene Climatic Transition ? Mediterranean Reference | 56m | 7 layers | Scale 1:218
0
TEXT
8
FOOTER
62
9
10
8.000
20
14.000
40
1.600
1
CorelDRAWer-Skill (github.com/Reasonite-lab/CorelDRAWer-Skill)
0
ENDSEC
0
EOF