0
SECTION
2
ENTITIES
0
TEXT
8
TITLE
62
7
10
106.500
20
302.000
40
4.500
1
Permian-Triassic Boundary ? Meishan GSSP Extended
0
POLYLINE
8
HEADER
62
8
66
1
70
1
0
VERTEX
8
HEADER
10
8.000
20
276.000
0
VERTEX
8
HEADER
10
205.000
20
276.000
0
VERTEX
8
HEADER
10
205.000
20
290.000
0
VERTEX
8
HEADER
10
8.000
20
290.000
0
SEQEND
0
TEXT
8
HEADER
62
7
10
14.500
20
283.000
40
2.800
1
Era
0
TEXT
8
HEADER
62
7
10
27.500
20
283.000
40
2.800
1
Sys
0
TEXT
8
HEADER
62
7
10
40.500
20
283.000
40
2.800
1
Ser
0
TEXT
8
HEADER
62
7
10
56.000
20
283.000
40
2.800
1
Fm
0
TEXT
8
HEADER
62
7
10
71.000
20
283.000
40
2.800
1
Sym
0
TEXT
8
HEADER
62
7
10
80.500
20
283.000
40
2.800
1
Fossils
0
TEXT
8
HEADER
62
7
10
104.000
20
283.000
40
2.800
1
Lithology
0
TEXT
8
HEADER
62
7
10
131.500
20
283.000
40
2.800
1
Grain
0
TEXT
8
HEADER
62
7
10
142.500
20
283.000
40
2.800
1
Struc
0
TEXT
8
HEADER
62
7
10
151.000
20
283.000
40
2.800
1
Thick(m)
0
TEXT
8
HEADER
62
7
10
188.500
20
283.000
40
2.800
1
Description
0
LINE
8
GRID
62
8
10
21.000
20
22.000
11
21.000
21
290.000
0
LINE
8
GRID
62
8
10
34.000
20
22.000
11
34.000
21
290.000
0
LINE
8
GRID
62
8
10
47.000
20
22.000
11
47.000
21
290.000
0
LINE
8
GRID
62
8
10
65.000
20
22.000
11
65.000
21
290.000
0
LINE
8
GRID
62
8
10
77.000
20
22.000
11
77.000
21
290.000
0
LINE
8
GRID
62
8
10
84.000
20
22.000
11
84.000
21
290.000
0
LINE
8
GRID
62
8
10
124.000
20
22.000
11
124.000
21
290.000
0
LINE
8
GRID
62
8
10
139.000
20
22.000
11
139.000
21
290.000
0
LINE
8
GRID
62
8
10
146.000
20
22.000
11
146.000
21
290.000
0
LINE
8
GRID
62
8
10
156.000
20
22.000
11
156.000
21
290.000
0
LINE
8
BORDER
62
7
10
8.000
20
22.000
11
8.000
21
290.000
0
LINE
8
BORDER
62
7
10
205.000
20
22.000
11
205.000
21
290.000
0
LINE
8
BORDER
62
7
10
8.000
20
290.000
11
205.000
21
290.000
0
LINE
8
BORDER
62
7
10
8.000
20
22.000
11
205.000
21
22.000
0
POLYLINE
8
LITHOLOGY
62
8
66
1
70
1
0
VERTEX
8
LITHOLOGY
10
84.300
20
237.515
0
VERTEX
8
LITHOLOGY
10
121.800
20
237.515
0
VERTEX
8
LITHOLOGY
10
121.800
20
276.000
0
VERTEX
8
LITHOLOGY
10
84.300
20
276.000
0
SEQEND
0
TEXT
8
TEXT
62
7
10
48.000
20
256.758
40
2.200
1
Helongshan Fm
0
TEXT
8
TEXT
62
7
10
66.000
20
256.758
40
2.200
1
T?h
0
TEXT
8
TEXT
62
7
10
147.000
20
256.758
40
2.200
1
25.0
0
TEXT
8
TEXT
62
7
10
157.000
20
256.758
40
2.000
1
Thin-bedded argillaceous limestone
0
LINE
8
GRID
62
8
10
8.000
20
276.000
11
205.000
21
276.000
0
POLYLINE
8
LITHOLOGY
62
1
66
1
70
1
0
VERTEX
8
LITHOLOGY
10
84.300
20
225.200
0
VERTEX
8
LITHOLOGY
10
121.800
20
225.200
0
VERTEX
8
LITHOLOGY
10
121.800
20
237.515
0
VERTEX
8
LITHOLOGY
10
84.300
20
237.515
0
SEQEND
0
TEXT
8
TEXT
62
7
10
48.000
20
231.358
40
2.200
1
Yinkeng Fm
0
TEXT
8
TEXT
62
7
10
66.000
20
231.358
40
2.200
1
T?y
0
TEXT
8
TEXT
62
7
10
147.000
20
231.358
40
2.200
1
8.0
0
TEXT
8
TEXT
62
7
10
157.000
20
231.358
40
2.000
1
Yellow-green calcareous mudstone, H. parvus FAD
0
LINE
8
GRID
62
8
10
8.000
20
237.515
11
205.000
21
237.515
0
POLYLINE
8
LITHOLOGY
62
6
66
1
70
1
0
VERTEX
8
LITHOLOGY
10
84.300
20
197.491
0
VERTEX
8
LITHOLOGY
10
121.800
20
197.491
0
VERTEX
8
LITHOLOGY
10
121.800
20
225.200
0
VERTEX
8
LITHOLOGY
10
84.300
20
225.200
0
SEQEND
0
TEXT
8
TEXT
62
7
10
48.000
20
211.345
40
2.200
1
Changxing Fm
0
TEXT
8
TEXT
62
7
10
66.000
20
211.345
40
2.200
1
P?c
0
TEXT
8
TEXT
62
7
10
147.000
20
211.345
40
2.200
1
18.0
0
TEXT
8
TEXT
62
7
10
157.000
20
211.345
40
2.000
1
Dark grey bioclastic limestone, abundant fusulinids
0
LINE
8
GRID
62
8
10
8.000
20
225.200
11
205.000
21
225.200
0
POLYLINE
8
LITHOLOGY
62
5
66
1
70
1
0
VERTEX
8
LITHOLOGY
10
84.300
20
179.018
0
VERTEX
8
LITHOLOGY
10
121.800
20
179.018
0
VERTEX
8
LITHOLOGY
10
121.800
20
197.491
0
VERTEX
8
LITHOLOGY
10
84.300
20
197.491
0
SEQEND
0
TEXT
8
TEXT
62
7
10
48.000
20
188.255
40
2.200
1
Changxing Fm
0
TEXT
8
TEXT
62
7
10
66.000
20
188.255
40
2.200
1
P?c
0
TEXT
8
TEXT
62
7
10
147.000
20
188.255
40
2.200
1
12.0
0
TEXT
8
TEXT
62
7
10
157.000
20
188.255
40
2.000
1
Black cherty limestone with ammonoids
0
LINE
8
GRID
62
8
10
8.000
20
197.491
11
205.000
21
197.491
0
POLYLINE
8
LITHOLOGY
62
1
66
1
70
1
0
VERTEX
8
LITHOLOGY
10
84.300
20
125.139
0
VERTEX
8
LITHOLOGY
10
121.800
20
125.139
0
VERTEX
8
LITHOLOGY
10
121.800
20
179.018
0
VERTEX
8
LITHOLOGY
10
84.300
20
179.018
0
SEQEND
0
CIRCLE
8
PATTERN
62
8
10
96.223
20
139.306
40
0.300
0
CIRCLE
8
PATTERN
62
8
10
114.158
20
155.500
40
0.300
0
CIRCLE
8
PATTERN
62
8
10
112.973
20
149.920
40
0.300
0
CIRCLE
8
PATTERN
62
8
10
118.519
20
170.266
40
0.300
0
CIRCLE
8
PATTERN
62
8
10
104.722
20
175.062
40
0.300
0
CIRCLE
8
PATTERN
62
8
10
95.412
20
137.153
40
0.300
0
CIRCLE
8
PATTERN
62
8
10
117.349
20
175.494
40
0.300
0
CIRCLE
8
PATTERN
62
8
10
113.362
20
163.773
40
0.300
0
CIRCLE
8
PATTERN
62
8
10
86.888
20
139.086
40
0.300
0
CIRCLE
8
PATTERN
62
8
10
112.751
20
126.464
40
0.300
0
CIRCLE
8
PATTERN
62
8
10
96.206
20
138.010
40
0.300
0
CIRCLE
8
PATTERN
62
8
10
118.438
20
137.494
40
0.300
0
CIRCLE
8
PATTERN
62
8
10
88.801
20
143.049
40
0.300
0
CIRCLE
8
PATTERN
62
8
10
118.070
20
157.083
40
0.300
0
CIRCLE
8
PATTERN
62
8
10
116.149
20
166.264
40
0.300
0
CIRCLE
8
PATTERN
62
8
10
116.056
20
177.815
40
0.300
0
CIRCLE
8
PATTERN
62
8
10
107.929
20
129.283
40
0.300
0
CIRCLE
8
PATTERN
62
8
10
88.681
20
172.785
40
0.300
0
CIRCLE
8
PATTERN
62
8
10
104.787
20
177.905
40
0.300
0
CIRCLE
8
PATTERN
62
8
10
107.311
20
177.765
40
0.300
0
CIRCLE
8
PATTERN
62
8
10
99.622
20
172.404
40
0.300
0
CIRCLE
8
PATTERN
62
8
10
115.890
20
172.821
40
0.300
0
CIRCLE
8
PATTERN
62
8
10
100.285
20
140.847
40
0.300
0
CIRCLE
8
PATTERN
62
8
10
109.859
20
161.154
40
0.300
0
CIRCLE
8
PATTERN
62
8
10
95.141
20
164.181
40
0.300
0
CIRCLE
8
PATTERN
62
8
10
116.395
20
169.706
40
0.300
0
CIRCLE
8
PATTERN
62
8
10
91.237
20
153.903
40
0.300
0
CIRCLE
8
PATTERN
62
8
10
110.200
20
157.923
40
0.300
0
CIRCLE
8
PATTERN
62
8
10
93.666
20
134.009
40
0.300
0
CIRCLE
8
PATTERN
62
8
10
106.983
20
173.894
40
0.300
0
CIRCLE
8
PATTERN
62
8
10
87.998
20
167.338
40
0.300
0
CIRCLE
8
PATTERN
62
8
10
95.224
20
146.617
40
0.300
0
CIRCLE
8
PATTERN
62
8
10
118.845
20
164.819
40
0.300
0
CIRCLE
8
PATTERN
62
8
10
89.676
20
146.590
40
0.300
0
CIRCLE
8
PATTERN
62
8
10
100.907
20
160.897
40
0.300
0
CIRCLE
8
PATTERN
62
8
10
111.073
20
167.660
40
0.300
0
CIRCLE
8
PATTERN
62
8
10
96.654
20
161.450
40
0.300
0
CIRCLE
8
PATTERN
62
8
10
104.695
20
144.898
40
0.300
0
CIRCLE
8
PATTERN
62
8
10
101.612
20
153.887
40
0.300
0
CIRCLE
8
PATTERN
62
8
10
115.500
20
171.159
40
0.300
0
CIRCLE
8
PATTERN
62
8
10
96.234
20
150.817
40
0.300
0
CIRCLE
8
PATTERN
62
8
10
111.010
20
146.939
40
0.300
0
CIRCLE
8
PATTERN
62
8
10
86.235
20
165.602
40
0.300
0
CIRCLE
8
PATTERN
62
8
10
86.535
20
165.737
40
0.300
0
CIRCLE
8
PATTERN
62
8
10
89.578
20
129.249
40
0.300
0
CIRCLE
8
PATTERN
62
8
10
96.781
20
143.991
40
0.300
0
CIRCLE
8
PATTERN
62
8
10
94.099
20
165.287
40
0.300
0
CIRCLE
8
PATTERN
62
8
10
113.223
20
136.896
40
0.300
0
CIRCLE
8
PATTERN
62
8
10
113.469
20
161.296
40
0.300
0
CIRCLE
8
PATTERN
62
8
10
105.877
20
163.894
40
0.300
0
CIRCLE
8
PATTERN
62
8
10
114.353
20
155.980
40
0.300
0
CIRCLE
8
PATTERN
62
8
10
87.241
20
156.740
40
0.300
0
CIRCLE
8
PATTERN
62
8
10
88.140
20
177.588
40
0.300
0
CIRCLE
8
PATTERN
62
8
10
103.343
20
157.064
40
0.300
0
CIRCLE
8
PATTERN
62
8
10
107.684
20
150.420
40
0.300
0
CIRCLE
8
PATTERN
62
8
10
106.162
20
144.562
40
0.300
0
CIRCLE
8
PATTERN
62
8
10
93.132
20
144.428
40
0.300
0
CIRCLE
8
PATTERN
62
8
10
109.309
20
145.077
40
0.300
0
CIRCLE
8
PATTERN
62
8
10
104.764
20
172.262
40
0.300
0
CIRCLE
8
PATTERN
62
8
10
100.680
20
133.860
40
0.300
0
CIRCLE
8
PATTERN
62
8
10
94.144
20
154.885
40
0.300
0
CIRCLE
8
PATTERN
62
8
10
116.612
20
176.674
40
0.300
0
CIRCLE
8
PATTERN
62
8
10
86.942
20
165.856
40
0.300
0
CIRCLE
8
PATTERN
62
8
10
112.607
20
160.007
40
0.300
0
CIRCLE
8
PATTERN
62
8
10
116.602
20
131.538
40
0.300
0
CIRCLE
8
PATTERN
62
8
10
109.906
20
155.532
40
0.300
0
CIRCLE
8
PATTERN
62
8
10
88.087
20
170.130
40
0.300
0
CIRCLE
8
PATTERN
62
8
10
90.589
20
154.676
40
0.300
0
CIRCLE
8
PATTERN
62
8
10
93.798
20
150.471
40
0.300
0
CIRCLE
8
PATTERN
62
8
10
119.406
20
140.035
40
0.300
0
CIRCLE
8
PATTERN
62
8
10
113.310
20
174.569
40
0.300
0
CIRCLE
8
PATTERN
62
8
10
113.150
20
141.359
40
0.300
0
CIRCLE
8
PATTERN
62
8
10
101.669
20
141.282
40
0.300
0
CIRCLE
8
PATTERN
62
8
10
90.215
20
175.759
40
0.300
0
CIRCLE
8
PATTERN
62
8
10
109.302
20
167.242
40
0.300
0
CIRCLE
8
PATTERN
62
8
10
95.740
20
162.074
40
0.300
0
CIRCLE
8
PATTERN
62
8
10
100.392
20
159.423
40
0.300
0
CIRCLE
8
PATTERN
62
8
10
119.564
20
172.306
40
0.300
0
CIRCLE
8
PATTERN
62
8
10
114.542
20
128.862
40
0.300
0
CIRCLE
8
PATTERN
62
8
10
100.544
20
140.722
40
0.300
0
CIRCLE
8
PATTERN
62
8
10
91.989
20
171.162
40
0.300
0
CIRCLE
8
PATTERN
62
8
10
107.456
20
164.966
40
0.300
0
CIRCLE
8
PATTERN
62
8
10
117.581
20
133.652
40
0.300
0
CIRCLE
8
PATTERN
62
8
10
113.002
20
128.232
40
0.300
0
CIRCLE
8
PATTERN
62
8
10
111.887
20
146.342
40
0.300
0
CIRCLE
8
PATTERN
62
8
10
88.333
20
127.520
40
0.300
0
CIRCLE
8
PATTERN
62
8
10
93.835
20
126.507
40
0.300
0
CIRCLE
8
PATTERN
62
8
10
90.723
20
141.871
40
0.300
0
CIRCLE
8
PATTERN
62
8
10
119.481
20
165.177
40
0.300
0
CIRCLE
8
PATTERN
62
8
10
101.364
20
137.064
40
0.300
0
CIRCLE
8
PATTERN
62
8
10
119.958
20
172.413
40
0.300
0
CIRCLE
8
PATTERN
62
8
10
114.431
20
150.546
40
0.300
0
CIRCLE
8
PATTERN
62
8
10
99.768
20
135.712
40
0.300
0
CIRCLE
8
PATTERN
62
8
10
99.759
20
173.822
40
0.300
0
CIRCLE
8
PATTERN
62
8
10
105.030
20
147.530
40
0.300
0
CIRCLE
8
PATTERN
62
8
10
95.997
20
149.224
40
0.300
0
CIRCLE
8
PATTERN
62
8
10
89.202
20
163.801
40
0.300
0
CIRCLE
8
PATTERN
62
8
10
104.544
20
139.647
40
0.300
0
CIRCLE
8
PATTERN
62
8
10
92.142
20
149.996
40
0.300
0
CIRCLE
8
PATTERN
62
8
10
114.378
20
133.798
40
0.300
0
CIRCLE
8
PATTERN
62
8
10
119.805
20
145.564
40
0.300
0
CIRCLE
8
PATTERN
62
8
10
104.624
20
126.497
40
0.300
0
CIRCLE
8
PATTERN
62
8
10
97.149
20
152.131
40
0.300
0
CIRCLE
8
PATTERN
62
8
10
93.651
20
152.316
40
0.300
0
CIRCLE
8
PATTERN
62
8
10
86.298
20
170.249
40
0.300
0
CIRCLE
8
PATTERN
62
8
10
98.690
20
152.043
40
0.300
0
CIRCLE
8
PATTERN
62
8
10
106.221
20
153.432
40
0.300
0
CIRCLE
8
PATTERN
62
8
10
101.299
20
175.160
40
0.300
0
CIRCLE
8
PATTERN
62
8
10
97.980
20
136.322
40
0.300
0
CIRCLE
8
PATTERN
62
8
10
86.239
20
137.686
40
0.300
0
CIRCLE
8
PATTERN
62
8
10
110.005
20
154.583
40
0.300
0
CIRCLE
8
PATTERN
62
8
10
92.909
20
132.706
40
0.300
0
CIRCLE
8
PATTERN
62
8
10
96.672
20
163.838
40
0.300
0
CIRCLE
8
PATTERN
62
8
10
92.799
20
139.370
40
0.300
0
CIRCLE
8
PATTERN
62
8
10
99.803
20
153.973
40
0.300
0
CIRCLE
8
PATTERN
62
8
10
116.592
20
168.864
40
0.300
0
CIRCLE
8
PATTERN
62
8
10
86.119
20
136.361
40
0.300
0
CIRCLE
8
PATTERN
62
8
10
114.228
20
146.590
40
0.300
0
CIRCLE
8
PATTERN
62
8
10
100.168
20
152.178
40
0.300
0
CIRCLE
8
PATTERN
62
8
10
110.043
20
170.209
40
0.300
0
CIRCLE
8
PATTERN
62
8
10
116.864
20
127.406
40
0.300
0
CIRCLE
8
PATTERN
62
8
10
114.294
20
163.553
40
0.300
0
CIRCLE
8
PATTERN
62
8
10
115.294
20
175.240
40
0.300
0
CIRCLE
8
PATTERN
62
8
10
91.489
20
140.065
40
0.300
0
CIRCLE
8
PATTERN
62
8
10
111.110
20
163.902
40
0.300
0
CIRCLE
8
PATTERN
62
8
10
99.123
20
170.505
40
0.300
0
CIRCLE
8
PATTERN
62
8
10
112.154
20
163.677
40
0.300
0
CIRCLE
8
PATTERN
62
8
10
111.715
20
151.821
40
0.300
0
CIRCLE
8
PATTERN
62
8
10
106.255
20
144.408
40
0.300
0
CIRCLE
8
PATTERN
62
8
10
95.829
20
165.466
40
0.300
0
CIRCLE
8
PATTERN
62
8
10
106.076
20
136.452
40
0.300
0
CIRCLE
8
PATTERN
62
8
10
113.642
20
161.161
40
0.300
0
CIRCLE
8
PATTERN
62
8
10
117.513
20
150.055
40
0.300
0
CIRCLE
8
PATTERN
62
8
10
120.049
20
139.818
40
0.300
0
CIRCLE
8
PATTERN
62
8
10
97.117
20
135.906
40
0.300
0
CIRCLE
8
PATTERN
62
8
10
110.182
20
147.798
40
0.300
0
CIRCLE
8
PATTERN
62
8
10
99.842
20
162.379
40
0.300
0
CIRCLE
8
PATTERN
62
8
10
107.552
20
140.390
40
0.300
0
CIRCLE
8
PATTERN
62
8
10
111.943
20
144.281
40
0.300
0
CIRCLE
8
PATTERN
62
8
10
119.816
20
153.892
40
0.300
0
CIRCLE
8
PATTERN
62
8
10
108.521
20
131.686
40
0.300
0
CIRCLE
8
PATTERN
62
8
10
117.528
20
126.837
40
0.300
0
CIRCLE
8
PATTERN
62
8
10
110.661
20
174.688
40
0.300
0
CIRCLE
8
PATTERN
62
8
10
98.939
20
164.326
40
0.300
0
CIRCLE
8
PATTERN
62
8
10
103.488
20
152.162
40
0.300
0
CIRCLE
8
PATTERN
62
8
10
110.270
20
157.754
40
0.300
0
CIRCLE
8
PATTERN
62
8
10
108.702
20
164.331
40
0.300
0
CIRCLE
8
PATTERN
62
8
10
115.780
20
170.933
40
0.300
0
CIRCLE
8
PATTERN
62
8
10
85.457
20
134.873
40
0.300
0
CIRCLE
8
PATTERN
62
8
10
112.505
20
152.100
40
0.300
0
CIRCLE
8
PATTERN
62
8
10
86.028
20
175.980
40
0.300
0
CIRCLE
8
PATTERN
62
8
10
94.398
20
176.548
40
0.300
0
CIRCLE
8
PATTERN
62
8
10
107.004
20
133.047
40
0.300
0
CIRCLE
8
PATTERN
62
8
10
111.367
20
163.483
40
0.300
0
CIRCLE
8
PATTERN
62
8
10
114.575
20
156.452
40
0.300
0
CIRCLE
8
PATTERN
62
8
10
101.520
20
147.778
40
0.300
0
CIRCLE
8
PATTERN
62
8
10
104.509
20
152.079
40
0.300
0
CIRCLE
8
PATTERN
62
8
10
115.315
20
146.779
40
0.300
0
CIRCLE
8
PATTERN
62
8
10
103.053
20
174.363
40
0.300
0
CIRCLE
8
PATTERN
62
8
10
95.363
20
158.833
40
0.300
0
CIRCLE
8
PATTERN
62
8
10
100.840
20
174.170
40
0.300
0
CIRCLE
8
PATTERN
62
8
10
111.357
20
174.103
40
0.300
0
CIRCLE
8
PATTERN
62
8
10
97.943
20
143.216
40
0.300
0
CIRCLE
8
PATTERN
62
8
10
86.010
20
155.942
40
0.300
0
CIRCLE
8
PATTERN
62
8
10
86.020
20
144.506
40
0.300
0
CIRCLE
8
PATTERN
62
8
10
120.571
20
142.464
40
0.300
0
CIRCLE
8
PATTERN
62
8
10
103.954
20
177.186
40
0.300
0
CIRCLE
8
PATTERN
62
8
10
117.601
20
129.395
40
0.300
0
CIRCLE
8
PATTERN
62
8
10
115.739
20
145.150
40
0.300
0
CIRCLE
8
PATTERN
62
8
10
92.820
20
126.202
40
0.300
0
CIRCLE
8
PATTERN
62
8
10
114.102
20
165.838
40
0.300
0
CIRCLE
8
PATTERN
62
8
10
87.671
20
128.399
40
0.300
0
CIRCLE
8
PATTERN
62
8
10
106.774
20
153.985
40
0.300
0
CIRCLE
8
PATTERN
62
8
10
114.136
20
140.180
40
0.300
0
CIRCLE
8
PATTERN
62
8
10
97.223
20
153.070
40
0.300
0
CIRCLE
8
PATTERN
62
8
10
120.581
20
141.643
40
0.300
0
CIRCLE
8
PATTERN
62
8
10
116.281
20
155.576
40
0.300
0
CIRCLE
8
PATTERN
62
8
10
97.366
20
163.567
40
0.300
0
CIRCLE
8
PATTERN
62
8
10
110.095
20
174.386
40
0.300
0
CIRCLE
8
PATTERN
62
8
10
113.939
20
158.082
40
0.300
0
CIRCLE
8
PATTERN
62
8
10
93.958
20
143.989
40
0.300
0
CIRCLE
8
PATTERN
62
8
10
102.662
20
170.768
40
0.300
0
CIRCLE
8
PATTERN
62
8
10
114.112
20
169.362
40
0.300
0
CIRCLE
8
PATTERN
62
8
10
117.180
20
131.432
40
0.300
0
CIRCLE
8
PATTERN
62
8
10
110.059
20
127.178
40
0.300
0
CIRCLE
8
PATTERN
62
8
10
119.950
20
175.951
40
0.300
0
CIRCLE
8
PATTERN
62
8
10
118.481
20
174.833
40
0.300
0
CIRCLE
8
PATTERN
62
8
10
116.903
20
170.844
40
0.300
0
CIRCLE
8
PATTERN
62
8
10
97.186
20
150.204
40
0.300
0
CIRCLE
8
PATTERN
62
8
10
88.087
20
146.899
40
0.300
0
CIRCLE
8
PATTERN
62
8
10
114.375
20
131.028
40
0.300
0
CIRCLE
8
PATTERN
62
8
10
102.062
20
143.803
40
0.300
0
CIRCLE
8
PATTERN
62
8
10
117.562
20
168.366
40
0.300
0
CIRCLE
8
PATTERN
62
8
10
93.369
20
167.120
40
0.300
0
CIRCLE
8
PATTERN
62
8
10
114.382
20
128.569
40
0.300
0
CIRCLE
8
PATTERN
62
8
10
107.761
20
132.882
40
0.300
0
CIRCLE
8
PATTERN
62
8
10
94.504
20
166.382
40
0.300
0
CIRCLE
8
PATTERN
62
8
10
115.420
20
172.193
40
0.300
0
CIRCLE
8
PATTERN
62
8
10
103.110
20
127.184
40
0.300
0
CIRCLE
8
PATTERN
62
8
10
104.858
20
134.197
40
0.300
0
CIRCLE
8
PATTERN
62
8
10
85.322
20
171.090
40
0.300
0
CIRCLE
8
PATTERN
62
8
10
96.534
20
174.131
40
0.300
0
CIRCLE
8
PATTERN
62
8
10
102.780
20
154.465
40
0.300
0
CIRCLE
8
PATTERN
62
8
10
89.165
20
167.722
40
0.300
0
CIRCLE
8
PATTERN
62
8
10
115.314
20
165.310
40
0.300
0
CIRCLE
8
PATTERN
62
8
10
96.969
20
134.267
40
0.300
0
CIRCLE
8
PATTERN
62
8
10
107.452
20
177.688
40
0.300
0
CIRCLE
8
PATTERN
62
8
10
107.399
20
154.103
40
0.300
0
CIRCLE
8
PATTERN
62
8
10
104.438
20
163.083
40
0.300
0
CIRCLE
8
PATTERN
62
8
10
89.407
20
138.674
40
0.300
0
CIRCLE
8
PATTERN
62
8
10
92.120
20
155.101
40
0.300
0
CIRCLE
8
PATTERN
62
8
10
113.106
20
141.401
40
0.300
0
CIRCLE
8
PATTERN
62
8
10
95.412
20
159.026
40
0.300
0
CIRCLE
8
PATTERN
62
8
10
102.466
20
166.391
40
0.300
0
CIRCLE
8
PATTERN
62
8
10
116.613
20
170.874
40
0.300
0
CIRCLE
8
PATTERN
62
8
10
107.458
20
151.562
40
0.300
0
CIRCLE
8
PATTERN
62
8
10
109.722
20
170.451
40
0.300
0
CIRCLE
8
PATTERN
62
8
10
93.571
20
170.788
40
0.300
0
CIRCLE
8
PATTERN
62
8
10
116.517
20
166.199
40
0.300
0
CIRCLE
8
PATTERN
62
8
10
114.174
20
145.265
40
0.300
0
CIRCLE
8
PATTERN
62
8
10
107.348
20
170.802
40
0.300
0
CIRCLE
8
PATTERN
62
8
10
114.706
20
157.186
40
0.300
0
CIRCLE
8
PATTERN
62
8
10
114.231
20
171.789
40
0.300
0
CIRCLE
8
PATTERN
62
8
10
109.582
20
152.626
40
0.300
0
CIRCLE
8
PATTERN
62
8
10
109.378
20
175.549
40
0.300
0
CIRCLE
8
PATTERN
62
8
10
96.001
20
173.930
40
0.300
0
CIRCLE
8
PATTERN
62
8
10
112.334
20
164.876
40
0.300
0
CIRCLE
8
PATTERN
62
8
10
107.940
20
148.786
40
0.300
0
CIRCLE
8
PATTERN
62
8
10
100.604
20
133.300
40
0.300
0
CIRCLE
8
PATTERN
62
8
10
106.963
20
131.615
40
0.300
0
CIRCLE
8
PATTERN
62
8
10
103.244
20
166.157
40
0.300
0
CIRCLE
8
PATTERN
62
8
10
94.376
20
166.854
40
0.300
0
CIRCLE
8
PATTERN
62
8
10
118.737
20
137.382
40
0.300
0
CIRCLE
8
PATTERN
62
8
10
102.896
20
168.025
40
0.300
0
CIRCLE
8
PATTERN
62
8
10
91.446
20
138.212
40
0.300
0
CIRCLE
8
PATTERN
62
8
10
92.245
20
138.842
40
0.300
0
CIRCLE
8
PATTERN
62
8
10
104.818
20
154.793
40
0.300
0
CIRCLE
8
PATTERN
62
8
10
120.103
20
136.563
40
0.300
0
CIRCLE
8
PATTERN
62
8
10
114.251
20
160.599
40
0.300
0
CIRCLE
8
PATTERN
62
8
10
90.204
20
162.834
40
0.300
0
CIRCLE
8
PATTERN
62
8
10
108.514
20
127.606
40
0.300
0
CIRCLE
8
PATTERN
62
8
10
117.631
20
175.136
40
0.300
0
CIRCLE
8
PATTERN
62
8
10
104.207
20
127.676
40
0.300
0
CIRCLE
8
PATTERN
62
8
10
100.443
20
146.884
40
0.300
0
CIRCLE
8
PATTERN
62
8
10
119.504
20
173.367
40
0.300
0
CIRCLE
8
PATTERN
62
8
10
110.178
20
174.377
40
0.300
0
CIRCLE
8
PATTERN
62
8
10
97.215
20
134.838
40
0.300
0
CIRCLE
8
PATTERN
62
8
10
96.857
20
172.562
40
0.300
0
CIRCLE
8
PATTERN
62
8
10
112.251
20
161.336
40
0.300
0
CIRCLE
8
PATTERN
62
8
10
113.233
20
177.750
40
0.300
0
CIRCLE
8
PATTERN
62
8
10
108.240
20
133.306
40
0.300
0
CIRCLE
8
PATTERN
62
8
10
85.835
20
136.721
40
0.300
0
TEXT
8
TEXT
62
7
10
48.000
20
152.079
40
2.200
1
Longtan Fm
0
TEXT
8
TEXT
62
7
10
66.000
20
152.079
40
2.200
1
P?l
0
TEXT
8
TEXT
62
7
10
147.000
20
152.079
40
2.200
1
35.0
0
TEXT
8
TEXT
62
7
10
157.000
20
152.079
40
2.000
1
Sandstone, mudstone, coal seams ? paralic facies
0
LINE
8
GRID
62
8
10
8.000
20
179.018
11
205.000
21
179.018
0
POLYLINE
8
LITHOLOGY
62
4
66
1
70
1
0
VERTEX
8
LITHOLOGY
10
84.300
20
91.273
0
VERTEX
8
LITHOLOGY
10
121.800
20
91.273
0
VERTEX
8
LITHOLOGY
10
121.800
20
125.139
0
VERTEX
8
LITHOLOGY
10
84.300
20
125.139
0
SEQEND
0
TEXT
8
TEXT
62
7
10
48.000
20
108.206
40
2.200
1
Gufeng Fm
0
TEXT
8
TEXT
62
7
10
66.000
20
108.206
40
2.200
1
P?g
0
TEXT
8
TEXT
62
7
10
147.000
20
108.206
40
2.200
1
22.0
0
TEXT
8
TEXT
62
7
10
157.000
20
108.206
40
2.000
1
Black siliceous shale with phosphate nodules
0
LINE
8
GRID
62
8
10
8.000
20
125.139
11
205.000
21
125.139
0
POLYLINE
8
LITHOLOGY
62
6
66
1
70
1
0
VERTEX
8
LITHOLOGY
10
84.300
20
22.000
0
VERTEX
8
LITHOLOGY
10
121.800
20
22.000
0
VERTEX
8
LITHOLOGY
10
121.800
20
91.273
0
VERTEX
8
LITHOLOGY
10
84.300
20
91.273
0
SEQEND
0
TEXT
8
TEXT
62
7
10
48.000
20
56.636
40
2.200
1
Qixia Fm
0
TEXT
8
TEXT
62
7
10
66.000
20
56.636
40
2.200
1
P?q
0
TEXT
8
TEXT
62
7
10
147.000
20
56.636
40
2.200
1
45.0
0
TEXT
8
TEXT
62
7
10
157.000
20
56.636
40
2.000
1
Dark grey bituminous limestone with chert
0
LINE
8
GRID
62
8
10
8.000
20
91.273
11
205.000
21
91.273
0
TEXT
8
FOOTER
62
8
10
8.000
20
17.000
40
2.000
1
Permian-Triassic Boundary ? Meishan GSSP Extended | 165m | 7 layers | Scale 1:649
0
TEXT
8
FOOTER
62
9
10
8.000
20
14.000
40
1.600
1
CorelDRAWer-Skill (github.com/Reasonite-lab/CorelDRAWer-Skill)
0
ENDSEC
0
EOF