0
SECTION
2
ENTITIES
0
TEXT
8
TITLE
62
7
10
106.500
20
302.000
40
4.500
1
Great Ordovician Biodiversification Event ? Yangtze Platform
0
POLYLINE
8
HEADER
62
8
66
1
70
1
0
VERTEX
8
HEADER
10
8.000
20
276.000
0
VERTEX
8
HEADER
10
205.000
20
276.000
0
VERTEX
8
HEADER
10
205.000
20
290.000
0
VERTEX
8
HEADER
10
8.000
20
290.000
0
SEQEND
0
TEXT
8
HEADER
62
7
10
14.500
20
283.000
40
2.800
1
Era
0
TEXT
8
HEADER
62
7
10
27.500
20
283.000
40
2.800
1
Sys
0
TEXT
8
HEADER
62
7
10
40.500
20
283.000
40
2.800
1
Ser
0
TEXT
8
HEADER
62
7
10
56.000
20
283.000
40
2.800
1
Fm
0
TEXT
8
HEADER
62
7
10
71.000
20
283.000
40
2.800
1
Sym
0
TEXT
8
HEADER
62
7
10
80.500
20
283.000
40
2.800
1
Fossils
0
TEXT
8
HEADER
62
7
10
104.000
20
283.000
40
2.800
1
Lithology
0
TEXT
8
HEADER
62
7
10
131.500
20
283.000
40
2.800
1
Grain
0
TEXT
8
HEADER
62
7
10
142.500
20
283.000
40
2.800
1
Struc
0
TEXT
8
HEADER
62
7
10
151.000
20
283.000
40
2.800
1
Thick(m)
0
TEXT
8
HEADER
62
7
10
188.500
20
283.000
40
2.800
1
Description
0
LINE
8
GRID
62
8
10
21.000
20
22.000
11
21.000
21
290.000
0
LINE
8
GRID
62
8
10
34.000
20
22.000
11
34.000
21
290.000
0
LINE
8
GRID
62
8
10
47.000
20
22.000
11
47.000
21
290.000
0
LINE
8
GRID
62
8
10
65.000
20
22.000
11
65.000
21
290.000
0
LINE
8
GRID
62
8
10
77.000
20
22.000
11
77.000
21
290.000
0
LINE
8
GRID
62
8
10
84.000
20
22.000
11
84.000
21
290.000
0
LINE
8
GRID
62
8
10
124.000
20
22.000
11
124.000
21
290.000
0
LINE
8
GRID
62
8
10
139.000
20
22.000
11
139.000
21
290.000
0
LINE
8
GRID
62
8
10
146.000
20
22.000
11
146.000
21
290.000
0
LINE
8
GRID
62
8
10
156.000
20
22.000
11
156.000
21
290.000
0
LINE
8
BORDER
62
7
10
8.000
20
22.000
11
8.000
21
290.000
0
LINE
8
BORDER
62
7
10
205.000
20
22.000
11
205.000
21
290.000
0
LINE
8
BORDER
62
7
10
8.000
20
290.000
11
205.000
21
290.000
0
LINE
8
BORDER
62
7
10
8.000
20
22.000
11
205.000
21
22.000
0
POLYLINE
8
LITHOLOGY
62
4
66
1
70
1
0
VERTEX
8
LITHOLOGY
10
84.300
20
249.993
0
VERTEX
8
LITHOLOGY
10
121.800
20
249.993
0
VERTEX
8
LITHOLOGY
10
121.800
20
276.000
0
VERTEX
8
LITHOLOGY
10
84.300
20
276.000
0
SEQEND
0
TEXT
8
TEXT
62
7
10
48.000
20
262.997
40
2.200
1
Longmaxi Fm
0
TEXT
8
TEXT
62
7
10
66.000
20
262.997
40
2.200
1
S?l
0
TEXT
8
TEXT
62
7
10
147.000
20
262.997
40
2.200
1
30.0
0
TEXT
8
TEXT
62
7
10
157.000
20
262.997
40
2.000
1
Black graptolitic shale
0
LINE
8
GRID
62
8
10
8.000
20
276.000
11
205.000
21
276.000
0
POLYLINE
8
LITHOLOGY
62
4
66
1
70
1
0
VERTEX
8
LITHOLOGY
10
84.300
20
243.058
0
VERTEX
8
LITHOLOGY
10
121.800
20
243.058
0
VERTEX
8
LITHOLOGY
10
121.800
20
249.993
0
VERTEX
8
LITHOLOGY
10
84.300
20
249.993
0
SEQEND
0
TEXT
8
TEXT
62
7
10
48.000
20
246.526
40
2.200
1
Wufeng Fm
0
TEXT
8
TEXT
62
7
10
66.000
20
246.526
40
2.200
1
O?w
0
TEXT
8
TEXT
62
7
10
147.000
20
246.526
40
2.200
1
8.0
0
TEXT
8
TEXT
62
7
10
157.000
20
246.526
40
2.000
1
Black shale, Hirnantian glaciation
0
LINE
8
GRID
62
8
10
8.000
20
249.993
11
205.000
21
249.993
0
POLYLINE
8
LITHOLOGY
62
1
66
1
70
1
0
VERTEX
8
LITHOLOGY
10
84.300
20
225.720
0
VERTEX
8
LITHOLOGY
10
121.800
20
225.720
0
VERTEX
8
LITHOLOGY
10
121.800
20
243.058
0
VERTEX
8
LITHOLOGY
10
84.300
20
243.058
0
SEQEND
0
TEXT
8
TEXT
62
7
10
48.000
20
234.389
40
2.200
1
Pagoda Fm
0
TEXT
8
TEXT
62
7
10
66.000
20
234.389
40
2.200
1
O?p
0
TEXT
8
TEXT
62
7
10
147.000
20
234.389
40
2.200
1
20.0
0
TEXT
8
TEXT
62
7
10
157.000
20
234.389
40
2.000
1
Red nodular limestone, Sinoceras
0
LINE
8
GRID
62
8
10
8.000
20
243.058
11
205.000
21
243.058
0
POLYLINE
8
LITHOLOGY
62
7
66
1
70
1
0
VERTEX
8
LITHOLOGY
10
84.300
20
178.041
0
VERTEX
8
LITHOLOGY
10
121.800
20
178.041
0
VERTEX
8
LITHOLOGY
10
121.800
20
225.720
0
VERTEX
8
LITHOLOGY
10
84.300
20
225.720
0
SEQEND
0
TEXT
8
TEXT
62
7
10
48.000
20
201.881
40
2.200
1
Dawan Fm
0
TEXT
8
TEXT
62
7
10
66.000
20
201.881
40
2.200
1
O?d
0
TEXT
8
TEXT
62
7
10
147.000
20
201.881
40
2.200
1
55.0
0
TEXT
8
TEXT
62
7
10
157.000
20
201.881
40
2.000
1
Grey bioclastic limestone, Yangtzeella
0
LINE
8
GRID
62
8
10
8.000
20
225.720
11
205.000
21
225.720
0
POLYLINE
8
LITHOLOGY
62
6
66
1
70
1
0
VERTEX
8
LITHOLOGY
10
84.300
20
147.700
0
VERTEX
8
LITHOLOGY
10
121.800
20
147.700
0
VERTEX
8
LITHOLOGY
10
121.800
20
178.041
0
VERTEX
8
LITHOLOGY
10
84.300
20
178.041
0
SEQEND
0
TEXT
8
TEXT
62
7
10
48.000
20
162.870
40
2.200
1
Honghuayuan Fm
0
TEXT
8
TEXT
62
7
10
66.000
20
162.870
40
2.200
1
O?h
0
TEXT
8
TEXT
62
7
10
147.000
20
162.870
40
2.200
1
35.0
0
TEXT
8
TEXT
62
7
10
157.000
20
162.870
40
2.000
1
Grey thick-bedded calcarenite
0
LINE
8
GRID
62
8
10
8.000
20
178.041
11
205.000
21
178.041
0
POLYLINE
8
LITHOLOGY
62
7
66
1
70
1
0
VERTEX
8
LITHOLOGY
10
84.300
20
126.027
0
VERTEX
8
LITHOLOGY
10
121.800
20
126.027
0
VERTEX
8
LITHOLOGY
10
121.800
20
147.700
0
VERTEX
8
LITHOLOGY
10
84.300
20
147.700
0
SEQEND
0
TEXT
8
TEXT
62
7
10
48.000
20
136.863
40
2.200
1
Fenxiang Fm
0
TEXT
8
TEXT
62
7
10
66.000
20
136.863
40
2.200
1
O?f
0
TEXT
8
TEXT
62
7
10
147.000
20
136.863
40
2.200
1
25.0
0
TEXT
8
TEXT
62
7
10
157.000
20
136.863
40
2.000
1
Green-grey shale with limestone interbeds
0
LINE
8
GRID
62
8
10
8.000
20
147.700
11
205.000
21
147.700
0
POLYLINE
8
LITHOLOGY
62
9
66
1
70
1
0
VERTEX
8
LITHOLOGY
10
84.300
20
22.000
0
VERTEX
8
LITHOLOGY
10
121.800
20
22.000
0
VERTEX
8
LITHOLOGY
10
121.800
20
126.027
0
VERTEX
8
LITHOLOGY
10
84.300
20
126.027
0
SEQEND
0
TEXT
8
TEXT
62
7
10
48.000
20
74.014
40
2.200
1
Sanyoudong Fm
0
TEXT
8
TEXT
62
7
10
66.000
20
74.014
40
2.200
1
??s
0
TEXT
8
TEXT
62
7
10
147.000
20
74.014
40
2.200
1
120.0
0
TEXT
8
TEXT
62
7
10
157.000
20
74.014
40
2.000
1
Massive dolomite
0
LINE
8
GRID
62
8
10
8.000
20
126.027
11
205.000
21
126.027
0
TEXT
8
FOOTER
62
8
10
8.000
20
17.000
40
2.000
1
Great Ordovician Biodiversification Event ? Yangtze Platform | 293m | 7 layers | Scale 1:1,153
0
TEXT
8
FOOTER
62
9
10
8.000
20
14.000
40
1.600
1
CorelDRAWer-Skill (github.com/Reasonite-lab/CorelDRAWer-Skill)
0
ENDSEC
0
EOF