0
SECTION
2
ENTITIES
0
TEXT
8
TITLE
62
7
10
106.500
20
302.000
40
4.500
1
Paleocene-Eocene Thermal Maximum ? Bighorn Basin
0
POLYLINE
8
HEADER
62
8
66
1
70
1
0
VERTEX
8
HEADER
10
8.000
20
276.000
0
VERTEX
8
HEADER
10
205.000
20
276.000
0
VERTEX
8
HEADER
10
205.000
20
290.000
0
VERTEX
8
HEADER
10
8.000
20
290.000
0
SEQEND
0
TEXT
8
HEADER
62
7
10
14.500
20
283.000
40
2.800
1
Era
0
TEXT
8
HEADER
62
7
10
27.500
20
283.000
40
2.800
1
Sys
0
TEXT
8
HEADER
62
7
10
40.500
20
283.000
40
2.800
1
Ser
0
TEXT
8
HEADER
62
7
10
56.000
20
283.000
40
2.800
1
Fm
0
TEXT
8
HEADER
62
7
10
71.000
20
283.000
40
2.800
1
Sym
0
TEXT
8
HEADER
62
7
10
80.500
20
283.000
40
2.800
1
Fossils
0
TEXT
8
HEADER
62
7
10
104.000
20
283.000
40
2.800
1
Lithology
0
TEXT
8
HEADER
62
7
10
131.500
20
283.000
40
2.800
1
Grain
0
TEXT
8
HEADER
62
7
10
142.500
20
283.000
40
2.800
1
Struc
0
TEXT
8
HEADER
62
7
10
151.000
20
283.000
40
2.800
1
Thick(m)
0
TEXT
8
HEADER
62
7
10
188.500
20
283.000
40
2.800
1
Description
0
LINE
8
GRID
62
8
10
21.000
20
22.000
11
21.000
21
290.000
0
LINE
8
GRID
62
8
10
34.000
20
22.000
11
34.000
21
290.000
0
LINE
8
GRID
62
8
10
47.000
20
22.000
11
47.000
21
290.000
0
LINE
8
GRID
62
8
10
65.000
20
22.000
11
65.000
21
290.000
0
LINE
8
GRID
62
8
10
77.000
20
22.000
11
77.000
21
290.000
0
LINE
8
GRID
62
8
10
84.000
20
22.000
11
84.000
21
290.000
0
LINE
8
GRID
62
8
10
124.000
20
22.000
11
124.000
21
290.000
0
LINE
8
GRID
62
8
10
139.000
20
22.000
11
139.000
21
290.000
0
LINE
8
GRID
62
8
10
146.000
20
22.000
11
146.000
21
290.000
0
LINE
8
GRID
62
8
10
156.000
20
22.000
11
156.000
21
290.000
0
LINE
8
BORDER
62
7
10
8.000
20
22.000
11
8.000
21
290.000
0
LINE
8
BORDER
62
7
10
205.000
20
22.000
11
205.000
21
290.000
0
LINE
8
BORDER
62
7
10
8.000
20
290.000
11
205.000
21
290.000
0
LINE
8
BORDER
62
7
10
8.000
20
22.000
11
205.000
21
22.000
0
POLYLINE
8
LITHOLOGY
62
1
66
1
70
1
0
VERTEX
8
LITHOLOGY
10
84.300
20
209.158
0
VERTEX
8
LITHOLOGY
10
121.800
20
209.158
0
VERTEX
8
LITHOLOGY
10
121.800
20
276.000
0
VERTEX
8
LITHOLOGY
10
84.300
20
276.000
0
SEQEND
0
TEXT
8
TEXT
62
7
10
48.000
20
242.579
40
2.200
1
Willwood Fm
0
TEXT
8
TEXT
62
7
10
66.000
20
242.579
40
2.200
1
T?w
0
TEXT
8
TEXT
62
7
10
147.000
20
242.579
40
2.200
1
60.0
0
TEXT
8
TEXT
62
7
10
157.000
20
242.579
40
2.000
1
Variegated paleosol mudstone
0
LINE
8
GRID
62
8
10
8.000
20
276.000
11
205.000
21
276.000
0
POLYLINE
8
LITHOLOGY
62
1
66
1
70
1
0
VERTEX
8
LITHOLOGY
10
84.300
20
181.307
0
VERTEX
8
LITHOLOGY
10
121.800
20
181.307
0
VERTEX
8
LITHOLOGY
10
121.800
20
209.158
0
VERTEX
8
LITHOLOGY
10
84.300
20
209.158
0
SEQEND
0
TEXT
8
TEXT
62
7
10
48.000
20
195.232
40
2.200
1
Willwood Fm
0
TEXT
8
TEXT
62
7
10
66.000
20
195.232
40
2.200
1
T?w
0
TEXT
8
TEXT
62
7
10
147.000
20
195.232
40
2.200
1
25.0
0
TEXT
8
TEXT
62
7
10
157.000
20
195.232
40
2.000
1
Red paleosol with carbon isotope excursion
0
LINE
8
GRID
62
8
10
8.000
20
209.158
11
205.000
21
209.158
0
POLYLINE
8
LITHOLOGY
62
2
66
1
70
1
0
VERTEX
8
LITHOLOGY
10
84.300
20
177.807
0
VERTEX
8
LITHOLOGY
10
121.800
20
177.807
0
VERTEX
8
LITHOLOGY
10
121.800
20
181.307
0
VERTEX
8
LITHOLOGY
10
84.300
20
181.307
0
SEQEND
0
TEXT
8
TEXT
62
7
10
48.000
20
179.557
40
2.200
1
PETM Interval
0
TEXT
8
TEXT
62
7
10
66.000
20
179.557
40
2.200
1
T?p
0
TEXT
8
TEXT
62
7
10
147.000
20
179.557
40
2.200
1
3.0
0
TEXT
8
TEXT
62
7
10
157.000
20
179.557
40
2.000
1
Carbonaceous shale, CIE ?4?, mammal turnover
0
LINE
8
GRID
62
8
10
8.000
20
181.307
11
205.000
21
181.307
0
POLYLINE
8
LITHOLOGY
62
1
66
1
70
1
0
VERTEX
8
LITHOLOGY
10
84.300
20
127.675
0
VERTEX
8
LITHOLOGY
10
121.800
20
127.675
0
VERTEX
8
LITHOLOGY
10
121.800
20
177.807
0
VERTEX
8
LITHOLOGY
10
84.300
20
177.807
0
SEQEND
0
CIRCLE
8
PATTERN
62
8
10
106.518
20
145.267
40
0.300
0
CIRCLE
8
PATTERN
62
8
10
85.353
20
145.350
40
0.300
0
CIRCLE
8
PATTERN
62
8
10
114.522
20
149.057
40
0.300
0
CIRCLE
8
PATTERN
62
8
10
105.884
20
136.459
40
0.300
0
CIRCLE
8
PATTERN
62
8
10
100.482
20
146.397
40
0.300
0
CIRCLE
8
PATTERN
62
8
10
90.219
20
140.532
40
0.300
0
CIRCLE
8
PATTERN
62
8
10
88.648
20
170.483
40
0.300
0
CIRCLE
8
PATTERN
62
8
10
103.149
20
153.473
40
0.300
0
CIRCLE
8
PATTERN
62
8
10
112.708
20
161.903
40
0.300
0
CIRCLE
8
PATTERN
62
8
10
95.836
20
171.338
40
0.300
0
CIRCLE
8
PATTERN
62
8
10
105.064
20
174.739
40
0.300
0
CIRCLE
8
PATTERN
62
8
10
95.047
20
145.541
40
0.300
0
CIRCLE
8
PATTERN
62
8
10
87.655
20
167.390
40
0.300
0
CIRCLE
8
PATTERN
62
8
10
107.460
20
167.617
40
0.300
0
CIRCLE
8
PATTERN
62
8
10
98.652
20
172.911
40
0.300
0
CIRCLE
8
PATTERN
62
8
10
111.977
20
167.865
40
0.300
0
CIRCLE
8
PATTERN
62
8
10
86.527
20
168.290
40
0.300
0
CIRCLE
8
PATTERN
62
8
10
119.178
20
163.900
40
0.300
0
CIRCLE
8
PATTERN
62
8
10
101.071
20
158.428
40
0.300
0
CIRCLE
8
PATTERN
62
8
10
94.925
20
138.129
40
0.300
0
CIRCLE
8
PATTERN
62
8
10
116.987
20
159.544
40
0.300
0
CIRCLE
8
PATTERN
62
8
10
116.398
20
140.136
40
0.300
0
CIRCLE
8
PATTERN
62
8
10
99.821
20
168.185
40
0.300
0
CIRCLE
8
PATTERN
62
8
10
90.292
20
153.754
40
0.300
0
CIRCLE
8
PATTERN
62
8
10
101.428
20
140.208
40
0.300
0
CIRCLE
8
PATTERN
62
8
10
112.027
20
160.365
40
0.300
0
CIRCLE
8
PATTERN
62
8
10
99.564
20
165.414
40
0.300
0
CIRCLE
8
PATTERN
62
8
10
119.996
20
132.997
40
0.300
0
CIRCLE
8
PATTERN
62
8
10
120.674
20
141.574
40
0.300
0
CIRCLE
8
PATTERN
62
8
10
100.608
20
138.722
40
0.300
0
CIRCLE
8
PATTERN
62
8
10
87.160
20
155.886
40
0.300
0
CIRCLE
8
PATTERN
62
8
10
89.514
20
157.432
40
0.300
0
CIRCLE
8
PATTERN
62
8
10
118.513
20
167.869
40
0.300
0
CIRCLE
8
PATTERN
62
8
10
91.555
20
138.035
40
0.300
0
CIRCLE
8
PATTERN
62
8
10
115.831
20
153.569
40
0.300
0
CIRCLE
8
PATTERN
62
8
10
120.589
20
146.124
40
0.300
0
CIRCLE
8
PATTERN
62
8
10
105.735
20
147.998
40
0.300
0
CIRCLE
8
PATTERN
62
8
10
88.420
20
152.421
40
0.300
0
CIRCLE
8
PATTERN
62
8
10
103.522
20
146.963
40
0.300
0
CIRCLE
8
PATTERN
62
8
10
120.538
20
162.747
40
0.300
0
CIRCLE
8
PATTERN
62
8
10
91.914
20
128.921
40
0.300
0
CIRCLE
8
PATTERN
62
8
10
88.498
20
135.961
40
0.300
0
CIRCLE
8
PATTERN
62
8
10
89.621
20
131.532
40
0.300
0
CIRCLE
8
PATTERN
62
8
10
112.981
20
143.536
40
0.300
0
CIRCLE
8
PATTERN
62
8
10
98.117
20
147.700
40
0.300
0
CIRCLE
8
PATTERN
62
8
10
101.182
20
145.116
40
0.300
0
CIRCLE
8
PATTERN
62
8
10
103.763
20
156.274
40
0.300
0
CIRCLE
8
PATTERN
62
8
10
95.699
20
152.927
40
0.300
0
CIRCLE
8
PATTERN
62
8
10
90.790
20
138.596
40
0.300
0
CIRCLE
8
PATTERN
62
8
10
96.984
20
144.969
40
0.300
0
CIRCLE
8
PATTERN
62
8
10
96.263
20
153.309
40
0.300
0
CIRCLE
8
PATTERN
62
8
10
109.863
20
156.563
40
0.300
0
CIRCLE
8
PATTERN
62
8
10
89.637
20
129.047
40
0.300
0
CIRCLE
8
PATTERN
62
8
10
92.002
20
137.411
40
0.300
0
CIRCLE
8
PATTERN
62
8
10
113.554
20
168.385
40
0.300
0
CIRCLE
8
PATTERN
62
8
10
91.988
20
167.365
40
0.300
0
CIRCLE
8
PATTERN
62
8
10
116.079
20
159.930
40
0.300
0
CIRCLE
8
PATTERN
62
8
10
105.421
20
144.908
40
0.300
0
CIRCLE
8
PATTERN
62
8
10
107.181
20
141.354
40
0.300
0
CIRCLE
8
PATTERN
62
8
10
97.729
20
161.279
40
0.300
0
CIRCLE
8
PATTERN
62
8
10
94.158
20
172.990
40
0.300
0
CIRCLE
8
PATTERN
62
8
10
96.579
20
133.855
40
0.300
0
CIRCLE
8
PATTERN
62
8
10
106.902
20
141.730
40
0.300
0
CIRCLE
8
PATTERN
62
8
10
100.139
20
155.258
40
0.300
0
CIRCLE
8
PATTERN
62
8
10
92.279
20
137.998
40
0.300
0
CIRCLE
8
PATTERN
62
8
10
109.204
20
172.752
40
0.300
0
CIRCLE
8
PATTERN
62
8
10
88.566
20
133.660
40
0.300
0
CIRCLE
8
PATTERN
62
8
10
89.619
20
133.639
40
0.300
0
CIRCLE
8
PATTERN
62
8
10
87.091
20
158.755
40
0.300
0
CIRCLE
8
PATTERN
62
8
10
103.347
20
141.947
40
0.300
0
CIRCLE
8
PATTERN
62
8
10
98.412
20
148.709
40
0.300
0
CIRCLE
8
PATTERN
62
8
10
97.222
20
164.909
40
0.300
0
CIRCLE
8
PATTERN
62
8
10
89.035
20
146.321
40
0.300
0
CIRCLE
8
PATTERN
62
8
10
101.648
20
134.212
40
0.300
0
CIRCLE
8
PATTERN
62
8
10
100.601
20
138.282
40
0.300
0
CIRCLE
8
PATTERN
62
8
10
109.960
20
133.321
40
0.300
0
CIRCLE
8
PATTERN
62
8
10
92.475
20
135.232
40
0.300
0
CIRCLE
8
PATTERN
62
8
10
88.029
20
156.832
40
0.300
0
CIRCLE
8
PATTERN
62
8
10
92.886
20
168.851
40
0.300
0
CIRCLE
8
PATTERN
62
8
10
102.873
20
129.430
40
0.300
0
CIRCLE
8
PATTERN
62
8
10
97.102
20
175.524
40
0.300
0
CIRCLE
8
PATTERN
62
8
10
113.321
20
172.899
40
0.300
0
CIRCLE
8
PATTERN
62
8
10
90.487
20
134.489
40
0.300
0
CIRCLE
8
PATTERN
62
8
10
89.907
20
162.331
40
0.300
0
CIRCLE
8
PATTERN
62
8
10
116.502
20
133.214
40
0.300
0
CIRCLE
8
PATTERN
62
8
10
88.290
20
153.022
40
0.300
0
CIRCLE
8
PATTERN
62
8
10
95.272
20
147.510
40
0.300
0
CIRCLE
8
PATTERN
62
8
10
100.225
20
175.099
40
0.300
0
CIRCLE
8
PATTERN
62
8
10
93.917
20
164.221
40
0.300
0
CIRCLE
8
PATTERN
62
8
10
92.296
20
155.171
40
0.300
0
CIRCLE
8
PATTERN
62
8
10
102.288
20
130.657
40
0.300
0
CIRCLE
8
PATTERN
62
8
10
118.844
20
161.200
40
0.300
0
CIRCLE
8
PATTERN
62
8
10
105.734
20
174.473
40
0.300
0
CIRCLE
8
PATTERN
62
8
10
107.638
20
132.953
40
0.300
0
CIRCLE
8
PATTERN
62
8
10
97.310
20
139.264
40
0.300
0
CIRCLE
8
PATTERN
62
8
10
120.410
20
172.988
40
0.300
0
CIRCLE
8
PATTERN
62
8
10
110.826
20
168.574
40
0.300
0
CIRCLE
8
PATTERN
62
8
10
102.819
20
132.248
40
0.300
0
CIRCLE
8
PATTERN
62
8
10
120.118
20
167.192
40
0.300
0
CIRCLE
8
PATTERN
62
8
10
117.875
20
165.239
40
0.300
0
CIRCLE
8
PATTERN
62
8
10
99.477
20
157.471
40
0.300
0
CIRCLE
8
PATTERN
62
8
10
89.130
20
174.352
40
0.300
0
CIRCLE
8
PATTERN
62
8
10
115.210
20
139.532
40
0.300
0
CIRCLE
8
PATTERN
62
8
10
106.629
20
139.877
40
0.300
0
CIRCLE
8
PATTERN
62
8
10
99.522
20
159.223
40
0.300
0
CIRCLE
8
PATTERN
62
8
10
96.055
20
151.239
40
0.300
0
CIRCLE
8
PATTERN
62
8
10
118.415
20
171.414
40
0.300
0
CIRCLE
8
PATTERN
62
8
10
113.020
20
170.024
40
0.300
0
CIRCLE
8
PATTERN
62
8
10
94.834
20
157.251
40
0.300
0
CIRCLE
8
PATTERN
62
8
10
106.910
20
174.187
40
0.300
0
CIRCLE
8
PATTERN
62
8
10
86.723
20
164.420
40
0.300
0
CIRCLE
8
PATTERN
62
8
10
108.364
20
154.621
40
0.300
0
CIRCLE
8
PATTERN
62
8
10
102.118
20
156.846
40
0.300
0
CIRCLE
8
PATTERN
62
8
10
113.421
20
149.655
40
0.300
0
CIRCLE
8
PATTERN
62
8
10
109.712
20
144.973
40
0.300
0
CIRCLE
8
PATTERN
62
8
10
117.683
20
158.222
40
0.300
0
CIRCLE
8
PATTERN
62
8
10
116.362
20
144.778
40
0.300
0
CIRCLE
8
PATTERN
62
8
10
116.792
20
151.060
40
0.300
0
CIRCLE
8
PATTERN
62
8
10
119.405
20
167.579
40
0.300
0
CIRCLE
8
PATTERN
62
8
10
89.453
20
151.491
40
0.300
0
CIRCLE
8
PATTERN
62
8
10
99.547
20
140.274
40
0.300
0
CIRCLE
8
PATTERN
62
8
10
95.873
20
131.418
40
0.300
0
CIRCLE
8
PATTERN
62
8
10
120.195
20
136.100
40
0.300
0
CIRCLE
8
PATTERN
62
8
10
116.696
20
163.780
40
0.300
0
CIRCLE
8
PATTERN
62
8
10
95.699
20
143.041
40
0.300
0
CIRCLE
8
PATTERN
62
8
10
115.005
20
148.542
40
0.300
0
CIRCLE
8
PATTERN
62
8
10
90.407
20
150.475
40
0.300
0
CIRCLE
8
PATTERN
62
8
10
107.075
20
128.684
40
0.300
0
CIRCLE
8
PATTERN
62
8
10
107.548
20
136.573
40
0.300
0
CIRCLE
8
PATTERN
62
8
10
104.662
20
166.618
40
0.300
0
CIRCLE
8
PATTERN
62
8
10
113.595
20
140.844
40
0.300
0
CIRCLE
8
PATTERN
62
8
10
113.964
20
148.877
40
0.300
0
CIRCLE
8
PATTERN
62
8
10
99.488
20
154.901
40
0.300
0
CIRCLE
8
PATTERN
62
8
10
98.346
20
152.539
40
0.300
0
CIRCLE
8
PATTERN
62
8
10
118.746
20
166.941
40
0.300
0
CIRCLE
8
PATTERN
62
8
10
96.805
20
132.229
40
0.300
0
CIRCLE
8
PATTERN
62
8
10
112.132
20
130.038
40
0.300
0
CIRCLE
8
PATTERN
62
8
10
105.046
20
157.690
40
0.300
0
CIRCLE
8
PATTERN
62
8
10
118.675
20
162.652
40
0.300
0
CIRCLE
8
PATTERN
62
8
10
113.239
20
154.819
40
0.300
0
CIRCLE
8
PATTERN
62
8
10
101.334
20
150.756
40
0.300
0
CIRCLE
8
PATTERN
62
8
10
119.537
20
129.648
40
0.300
0
CIRCLE
8
PATTERN
62
8
10
109.972
20
138.261
40
0.300
0
CIRCLE
8
PATTERN
62
8
10
100.802
20
151.782
40
0.300
0
CIRCLE
8
PATTERN
62
8
10
89.669
20
134.727
40
0.300
0
CIRCLE
8
PATTERN
62
8
10
108.187
20
175.439
40
0.300
0
CIRCLE
8
PATTERN
62
8
10
89.533
20
140.939
40
0.300
0
CIRCLE
8
PATTERN
62
8
10
104.928
20
149.161
40
0.300
0
CIRCLE
8
PATTERN
62
8
10
91.707
20
161.667
40
0.300
0
CIRCLE
8
PATTERN
62
8
10
107.231
20
146.274
40
0.300
0
CIRCLE
8
PATTERN
62
8
10
104.586
20
146.827
40
0.300
0
CIRCLE
8
PATTERN
62
8
10
97.438
20
143.866
40
0.300
0
CIRCLE
8
PATTERN
62
8
10
89.554
20
168.365
40
0.300
0
CIRCLE
8
PATTERN
62
8
10
86.344
20
154.244
40
0.300
0
CIRCLE
8
PATTERN
62
8
10
110.876
20
156.346
40
0.300
0
CIRCLE
8
PATTERN
62
8
10
91.622
20
155.232
40
0.300
0
CIRCLE
8
PATTERN
62
8
10
112.245
20
151.872
40
0.300
0
CIRCLE
8
PATTERN
62
8
10
107.516
20
141.445
40
0.300
0
CIRCLE
8
PATTERN
62
8
10
95.986
20
174.645
40
0.300
0
CIRCLE
8
PATTERN
62
8
10
99.708
20
163.656
40
0.300
0
CIRCLE
8
PATTERN
62
8
10
113.541
20
129.232
40
0.300
0
CIRCLE
8
PATTERN
62
8
10
120.050
20
159.248
40
0.300
0
CIRCLE
8
PATTERN
62
8
10
92.052
20
155.197
40
0.300
0
CIRCLE
8
PATTERN
62
8
10
112.358
20
138.043
40
0.300
0
CIRCLE
8
PATTERN
62
8
10
86.561
20
135.225
40
0.300
0
CIRCLE
8
PATTERN
62
8
10
85.857
20
155.658
40
0.300
0
CIRCLE
8
PATTERN
62
8
10
120.746
20
135.090
40
0.300
0
CIRCLE
8
PATTERN
62
8
10
113.712
20
164.826
40
0.300
0
CIRCLE
8
PATTERN
62
8
10
85.746
20
174.333
40
0.300
0
CIRCLE
8
PATTERN
62
8
10
106.769
20
140.164
40
0.300
0
CIRCLE
8
PATTERN
62
8
10
120.151
20
168.312
40
0.300
0
CIRCLE
8
PATTERN
62
8
10
99.473
20
166.568
40
0.300
0
CIRCLE
8
PATTERN
62
8
10
107.633
20
148.359
40
0.300
0
CIRCLE
8
PATTERN
62
8
10
96.175
20
146.782
40
0.300
0
CIRCLE
8
PATTERN
62
8
10
117.128
20
171.851
40
0.300
0
CIRCLE
8
PATTERN
62
8
10
112.587
20
145.793
40
0.300
0
CIRCLE
8
PATTERN
62
8
10
99.134
20
135.604
40
0.300
0
CIRCLE
8
PATTERN
62
8
10
107.398
20
175.969
40
0.300
0
CIRCLE
8
PATTERN
62
8
10
108.246
20
161.030
40
0.300
0
CIRCLE
8
PATTERN
62
8
10
94.897
20
147.284
40
0.300
0
CIRCLE
8
PATTERN
62
8
10
107.226
20
131.250
40
0.300
0
CIRCLE
8
PATTERN
62
8
10
113.957
20
152.101
40
0.300
0
CIRCLE
8
PATTERN
62
8
10
99.202
20
154.728
40
0.300
0
CIRCLE
8
PATTERN
62
8
10
113.467
20
162.832
40
0.300
0
CIRCLE
8
PATTERN
62
8
10
108.940
20
134.079
40
0.300
0
CIRCLE
8
PATTERN
62
8
10
117.001
20
151.215
40
0.300
0
CIRCLE
8
PATTERN
62
8
10
102.831
20
139.426
40
0.300
0
CIRCLE
8
PATTERN
62
8
10
97.143
20
164.302
40
0.300
0
CIRCLE
8
PATTERN
62
8
10
106.167
20
139.483
40
0.300
0
CIRCLE
8
PATTERN
62
8
10
90.117
20
129.747
40
0.300
0
CIRCLE
8
PATTERN
62
8
10
87.372
20
175.439
40
0.300
0
CIRCLE
8
PATTERN
62
8
10
112.208
20
165.607
40
0.300
0
CIRCLE
8
PATTERN
62
8
10
85.908
20
163.222
40
0.300
0
CIRCLE
8
PATTERN
62
8
10
94.828
20
163.553
40
0.300
0
CIRCLE
8
PATTERN
62
8
10
113.822
20
162.128
40
0.300
0
CIRCLE
8
PATTERN
62
8
10
107.004
20
149.177
40
0.300
0
CIRCLE
8
PATTERN
62
8
10
107.988
20
142.229
40
0.300
0
CIRCLE
8
PATTERN
62
8
10
99.430
20
136.783
40
0.300
0
CIRCLE
8
PATTERN
62
8
10
92.860
20
130.594
40
0.300
0
CIRCLE
8
PATTERN
62
8
10
118.557
20
134.020
40
0.300
0
CIRCLE
8
PATTERN
62
8
10
111.109
20
152.625
40
0.300
0
CIRCLE
8
PATTERN
62
8
10
111.747
20
150.277
40
0.300
0
CIRCLE
8
PATTERN
62
8
10
112.534
20
130.131
40
0.300
0
CIRCLE
8
PATTERN
62
8
10
107.978
20
147.963
40
0.300
0
CIRCLE
8
PATTERN
62
8
10
104.986
20
144.253
40
0.300
0
CIRCLE
8
PATTERN
62
8
10
111.800
20
150.144
40
0.300
0
CIRCLE
8
PATTERN
62
8
10
114.939
20
165.931
40
0.300
0
CIRCLE
8
PATTERN
62
8
10
98.670
20
135.146
40
0.300
0
CIRCLE
8
PATTERN
62
8
10
109.489
20
142.748
40
0.300
0
CIRCLE
8
PATTERN
62
8
10
101.550
20
137.647
40
0.300
0
CIRCLE
8
PATTERN
62
8
10
116.079
20
170.435
40
0.300
0
CIRCLE
8
PATTERN
62
8
10
102.123
20
132.300
40
0.300
0
CIRCLE
8
PATTERN
62
8
10
99.081
20
169.981
40
0.300
0
CIRCLE
8
PATTERN
62
8
10
116.521
20
170.235
40
0.300
0
CIRCLE
8
PATTERN
62
8
10
99.684
20
171.208
40
0.300
0
CIRCLE
8
PATTERN
62
8
10
103.076
20
135.805
40
0.300
0
CIRCLE
8
PATTERN
62
8
10
92.529
20
133.332
40
0.300
0
CIRCLE
8
PATTERN
62
8
10
103.337
20
163.300
40
0.300
0
CIRCLE
8
PATTERN
62
8
10
88.427
20
155.623
40
0.300
0
CIRCLE
8
PATTERN
62
8
10
111.633
20
166.549
40
0.300
0
CIRCLE
8
PATTERN
62
8
10
106.229
20
143.832
40
0.300
0
CIRCLE
8
PATTERN
62
8
10
113.623
20
156.645
40
0.300
0
CIRCLE
8
PATTERN
62
8
10
113.936
20
148.118
40
0.300
0
CIRCLE
8
PATTERN
62
8
10
99.857
20
155.630
40
0.300
0
CIRCLE
8
PATTERN
62
8
10
107.360
20
134.852
40
0.300
0
CIRCLE
8
PATTERN
62
8
10
116.735
20
139.957
40
0.300
0
CIRCLE
8
PATTERN
62
8
10
90.539
20
151.163
40
0.300
0
CIRCLE
8
PATTERN
62
8
10
96.841
20
139.096
40
0.300
0
CIRCLE
8
PATTERN
62
8
10
104.002
20
174.992
40
0.300
0
CIRCLE
8
PATTERN
62
8
10
97.978
20
155.959
40
0.300
0
CIRCLE
8
PATTERN
62
8
10
92.842
20
160.657
40
0.300
0
CIRCLE
8
PATTERN
62
8
10
110.235
20
142.124
40
0.300
0
CIRCLE
8
PATTERN
62
8
10
111.755
20
144.486
40
0.300
0
CIRCLE
8
PATTERN
62
8
10
114.636
20
172.709
40
0.300
0
TEXT
8
TEXT
62
7
10
48.000
20
152.741
40
2.200
1
Fort Union Fm
0
TEXT
8
TEXT
62
7
10
66.000
20
152.741
40
2.200
1
T?f
0
TEXT
8
TEXT
62
7
10
147.000
20
152.741
40
2.200
1
45.0
0
TEXT
8
TEXT
62
7
10
157.000
20
152.741
40
2.000
1
Grey sandstone, coal beds
0
LINE
8
GRID
62
8
10
8.000
20
177.807
11
205.000
21
177.807
0
POLYLINE
8
LITHOLOGY
62
1
66
1
70
1
0
VERTEX
8
LITHOLOGY
10
84.300
20
66.404
0
VERTEX
8
LITHOLOGY
10
121.800
20
66.404
0
VERTEX
8
LITHOLOGY
10
121.800
20
127.675
0
VERTEX
8
LITHOLOGY
10
84.300
20
127.675
0
SEQEND
0
TEXT
8
TEXT
62
7
10
48.000
20
97.039
40
2.200
1
Fort Union Fm
0
TEXT
8
TEXT
62
7
10
66.000
20
97.039
40
2.200
1
T?f
0
TEXT
8
TEXT
62
7
10
147.000
20
97.039
40
2.200
1
55.0
0
TEXT
8
TEXT
62
7
10
157.000
20
97.039
40
2.000
1
Drab mudstone with lignite
0
LINE
8
GRID
62
8
10
8.000
20
127.675
11
205.000
21
127.675
0
POLYLINE
8
LITHOLOGY
62
1
66
1
70
1
0
VERTEX
8
LITHOLOGY
10
84.300
20
21.842
0
VERTEX
8
LITHOLOGY
10
121.800
20
21.842
0
VERTEX
8
LITHOLOGY
10
121.800
20
66.404
0
VERTEX
8
LITHOLOGY
10
84.300
20
66.404
0
SEQEND
0
CIRCLE
8
PATTERN
62
8
10
113.605
20
63.253
40
0.300
0
CIRCLE
8
PATTERN
62
8
10
105.830
20
33.722
40
0.300
0
CIRCLE
8
PATTERN
62
8
10
112.137
20
38.844
40
0.300
0
CIRCLE
8
PATTERN
62
8
10
113.748
20
37.284
40
0.300
0
CIRCLE
8
PATTERN
62
8
10
105.565
20
56.532
40
0.300
0
CIRCLE
8
PATTERN
62
8
10
85.943
20
36.903
40
0.300
0
CIRCLE
8
PATTERN
62
8
10
99.436
20
35.392
40
0.300
0
CIRCLE
8
PATTERN
62
8
10
117.930
20
25.788
40
0.300
0
CIRCLE
8
PATTERN
62
8
10
101.211
20
35.933
40
0.300
0
CIRCLE
8
PATTERN
62
8
10
90.049
20
27.807
40
0.300
0
CIRCLE
8
PATTERN
62
8
10
116.885
20
38.594
40
0.300
0
CIRCLE
8
PATTERN
62
8
10
118.010
20
38.745
40
0.300
0
CIRCLE
8
PATTERN
62
8
10
97.217
20
30.613
40
0.300
0
CIRCLE
8
PATTERN
62
8
10
88.143
20
23.165
40
0.300
0
CIRCLE
8
PATTERN
62
8
10
112.538
20
60.728
40
0.300
0
CIRCLE
8
PATTERN
62
8
10
118.741
20
53.545
40
0.300
0
CIRCLE
8
PATTERN
62
8
10
116.632
20
48.371
40
0.300
0
CIRCLE
8
PATTERN
62
8
10
102.249
20
63.157
40
0.300
0
CIRCLE
8
PATTERN
62
8
10
104.911
20
30.344
40
0.300
0
CIRCLE
8
PATTERN
62
8
10
105.666
20
60.031
40
0.300
0
CIRCLE
8
PATTERN
62
8
10
112.071
20
45.251
40
0.300
0
CIRCLE
8
PATTERN
62
8
10
111.428
20
34.635
40
0.300
0
CIRCLE
8
PATTERN
62
8
10
109.344
20
48.788
40
0.300
0
CIRCLE
8
PATTERN
62
8
10
87.454
20
63.057
40
0.300
0
CIRCLE
8
PATTERN
62
8
10
115.227
20
56.208
40
0.300
0
CIRCLE
8
PATTERN
62
8
10
94.754
20
55.969
40
0.300
0
CIRCLE
8
PATTERN
62
8
10
97.991
20
25.234
40
0.300
0
CIRCLE
8
PATTERN
62
8
10
117.305
20
52.998
40
0.300
0
CIRCLE
8
PATTERN
62
8
10
94.492
20
42.596
40
0.300
0
CIRCLE
8
PATTERN
62
8
10
91.808
20
60.602
40
0.300
0
CIRCLE
8
PATTERN
62
8
10
96.992
20
58.799
40
0.300
0
CIRCLE
8
PATTERN
62
8
10
100.191
20
47.459
40
0.300
0
CIRCLE
8
PATTERN
62
8
10
94.860
20
24.405
40
0.300
0
CIRCLE
8
PATTERN
62
8
10
86.341
20
30.266
40
0.300
0
CIRCLE
8
PATTERN
62
8
10
99.284
20
25.947
40
0.300
0
CIRCLE
8
PATTERN
62
8
10
102.217
20
33.102
40
0.300
0
CIRCLE
8
PATTERN
62
8
10
94.871
20
39.337
40
0.300
0
CIRCLE
8
PATTERN
62
8
10
95.446
20
42.466
40
0.300
0
CIRCLE
8
PATTERN
62
8
10
105.867
20
46.367
40
0.300
0
CIRCLE
8
PATTERN
62
8
10
85.453
20
29.025
40
0.300
0
CIRCLE
8
PATTERN
62
8
10
88.158
20
44.359
40
0.300
0
CIRCLE
8
PATTERN
62
8
10
102.293
20
37.241
40
0.300
0
CIRCLE
8
PATTERN
62
8
10
100.036
20
29.115
40
0.300
0
CIRCLE
8
PATTERN
62
8
10
98.416
20
47.372
40
0.300
0
CIRCLE
8
PATTERN
62
8
10
115.081
20
43.154
40
0.300
0
CIRCLE
8
PATTERN
62
8
10
109.969
20
25.033
40
0.300
0
CIRCLE
8
PATTERN
62
8
10
111.657
20
44.653
40
0.300
0
CIRCLE
8
PATTERN
62
8
10
104.686
20
56.334
40
0.300
0
CIRCLE
8
PATTERN
62
8
10
111.066
20
37.853
40
0.300
0
CIRCLE
8
PATTERN
62
8
10
98.998
20
63.365
40
0.300
0
CIRCLE
8
PATTERN
62
8
10
110.764
20
62.992
40
0.300
0
CIRCLE
8
PATTERN
62
8
10
102.687
20
55.131
40
0.300
0
CIRCLE
8
PATTERN
62
8
10
107.408
20
46.675
40
0.300
0
CIRCLE
8
PATTERN
62
8
10
107.406
20
51.415
40
0.300
0
CIRCLE
8
PATTERN
62
8
10
97.671
20
34.457
40
0.300
0
CIRCLE
8
PATTERN
62
8
10
114.808
20
53.541
40
0.300
0
CIRCLE
8
PATTERN
62
8
10
98.104
20
43.504
40
0.300
0
CIRCLE
8
PATTERN
62
8
10
119.135
20
55.441
40
0.300
0
CIRCLE
8
PATTERN
62
8
10
119.379
20
61.748
40
0.300
0
CIRCLE
8
PATTERN
62
8
10
93.010
20
45.011
40
0.300
0
CIRCLE
8
PATTERN
62
8
10
116.255
20
62.653
40
0.300
0
CIRCLE
8
PATTERN
62
8
10
120.274
20
34.550
40
0.300
0
CIRCLE
8
PATTERN
62
8
10
97.354
20
50.639
40
0.300
0
CIRCLE
8
PATTERN
62
8
10
94.722
20
27.270
40
0.300
0
CIRCLE
8
PATTERN
62
8
10
103.355
20
55.084
40
0.300
0
CIRCLE
8
PATTERN
62
8
10
102.765
20
45.183
40
0.300
0
CIRCLE
8
PATTERN
62
8
10
101.045
20
24.956
40
0.300
0
CIRCLE
8
PATTERN
62
8
10
109.604
20
61.260
40
0.300
0
CIRCLE
8
PATTERN
62
8
10
116.411
20
42.674
40
0.300
0
CIRCLE
8
PATTERN
62
8
10
98.665
20
59.603
40
0.300
0
CIRCLE
8
PATTERN
62
8
10
92.507
20
24.668
40
0.300
0
CIRCLE
8
PATTERN
62
8
10
116.524
20
38.612
40
0.300
0
CIRCLE
8
PATTERN
62
8
10
97.210
20
38.278
40
0.300
0
CIRCLE
8
PATTERN
62
8
10
91.355
20
63.684
40
0.300
0
CIRCLE
8
PATTERN
62
8
10
104.750
20
63.989
40
0.300
0
CIRCLE
8
PATTERN
62
8
10
99.325
20
48.059
40
0.300
0
CIRCLE
8
PATTERN
62
8
10
106.230
20
23.476
40
0.300
0
CIRCLE
8
PATTERN
62
8
10
110.239
20
28.073
40
0.300
0
CIRCLE
8
PATTERN
62
8
10
116.638
20
47.801
40
0.300
0
CIRCLE
8
PATTERN
62
8
10
112.293
20
57.264
40
0.300
0
CIRCLE
8
PATTERN
62
8
10
90.695
20
26.775
40
0.300
0
CIRCLE
8
PATTERN
62
8
10
105.206
20
56.998
40
0.300
0
CIRCLE
8
PATTERN
62
8
10
86.507
20
50.853
40
0.300
0
CIRCLE
8
PATTERN
62
8
10
93.378
20
43.651
40
0.300
0
CIRCLE
8
PATTERN
62
8
10
100.021
20
32.984
40
0.300
0
CIRCLE
8
PATTERN
62
8
10
117.854
20
47.327
40
0.300
0
CIRCLE
8
PATTERN
62
8
10
95.209
20
25.067
40
0.300
0
CIRCLE
8
PATTERN
62
8
10
114.291
20
59.793
40
0.300
0
CIRCLE
8
PATTERN
62
8
10
88.563
20
28.172
40
0.300
0
CIRCLE
8
PATTERN
62
8
10
107.848
20
32.999
40
0.300
0
CIRCLE
8
PATTERN
62
8
10
113.457
20
54.884
40
0.300
0
CIRCLE
8
PATTERN
62
8
10
106.701
20
23.749
40
0.300
0
CIRCLE
8
PATTERN
62
8
10
112.322
20
36.917
40
0.300
0
CIRCLE
8
PATTERN
62
8
10
103.337
20
33.520
40
0.300
0
CIRCLE
8
PATTERN
62
8
10
96.876
20
24.688
40
0.300
0
CIRCLE
8
PATTERN
62
8
10
103.392
20
36.245
40
0.300
0
CIRCLE
8
PATTERN
62
8
10
120.142
20
44.595
40
0.300
0
CIRCLE
8
PATTERN
62
8
10
112.457
20
53.970
40
0.300
0
CIRCLE
8
PATTERN
62
8
10
97.411
20
23.510
40
0.300
0
CIRCLE
8
PATTERN
62
8
10
97.519
20
49.899
40
0.300
0
CIRCLE
8
PATTERN
62
8
10
102.249
20
55.483
40
0.300
0
CIRCLE
8
PATTERN
62
8
10
86.271
20
49.224
40
0.300
0
CIRCLE
8
PATTERN
62
8
10
93.156
20
41.829
40
0.300
0
CIRCLE
8
PATTERN
62
8
10
117.478
20
54.423
40
0.300
0
CIRCLE
8
PATTERN
62
8
10
104.814
20
65.075
40
0.300
0
CIRCLE
8
PATTERN
62
8
10
90.564
20
34.201
40
0.300
0
CIRCLE
8
PATTERN
62
8
10
89.420
20
49.452
40
0.300
0
CIRCLE
8
PATTERN
62
8
10
112.584
20
59.351
40
0.300
0
CIRCLE
8
PATTERN
62
8
10
88.995
20
51.234
40
0.300
0
CIRCLE
8
PATTERN
62
8
10
113.905
20
28.239
40
0.300
0
CIRCLE
8
PATTERN
62
8
10
120.688
20
55.421
40
0.300
0
CIRCLE
8
PATTERN
62
8
10
118.964
20
31.610
40
0.300
0
CIRCLE
8
PATTERN
62
8
10
103.944
20
31.821
40
0.300
0
CIRCLE
8
PATTERN
62
8
10
101.550
20
51.365
40
0.300
0
CIRCLE
8
PATTERN
62
8
10
103.242
20
43.409
40
0.300
0
CIRCLE
8
PATTERN
62
8
10
113.005
20
61.092
40
0.300
0
CIRCLE
8
PATTERN
62
8
10
96.001
20
24.367
40
0.300
0
CIRCLE
8
PATTERN
62
8
10
98.790
20
23.359
40
0.300
0
CIRCLE
8
PATTERN
62
8
10
96.251
20
62.888
40
0.300
0
CIRCLE
8
PATTERN
62
8
10
96.053
20
33.465
40
0.300
0
CIRCLE
8
PATTERN
62
8
10
118.489
20
50.071
40
0.300
0
CIRCLE
8
PATTERN
62
8
10
99.942
20
59.914
40
0.300
0
CIRCLE
8
PATTERN
62
8
10
117.325
20
51.900
40
0.300
0
CIRCLE
8
PATTERN
62
8
10
111.890
20
47.847
40
0.300
0
CIRCLE
8
PATTERN
62
8
10
90.523
20
42.819
40
0.300
0
CIRCLE
8
PATTERN
62
8
10
101.475
20
44.967
40
0.300
0
CIRCLE
8
PATTERN
62
8
10
112.055
20
29.874
40
0.300
0
CIRCLE
8
PATTERN
62
8
10
120.788
20
60.286
40
0.300
0
CIRCLE
8
PATTERN
62
8
10
98.083
20
54.671
40
0.300
0
CIRCLE
8
PATTERN
62
8
10
109.723
20
30.534
40
0.300
0
CIRCLE
8
PATTERN
62
8
10
113.182
20
50.275
40
0.300
0
CIRCLE
8
PATTERN
62
8
10
109.682
20
27.327
40
0.300
0
CIRCLE
8
PATTERN
62
8
10
110.773
20
48.419
40
0.300
0
CIRCLE
8
PATTERN
62
8
10
87.882
20
64.134
40
0.300
0
CIRCLE
8
PATTERN
62
8
10
107.944
20
54.171
40
0.300
0
CIRCLE
8
PATTERN
62
8
10
100.816
20
61.747
40
0.300
0
CIRCLE
8
PATTERN
62
8
10
116.441
20
33.702
40
0.300
0
CIRCLE
8
PATTERN
62
8
10
115.234
20
62.032
40
0.300
0
CIRCLE
8
PATTERN
62
8
10
100.193
20
37.709
40
0.300
0
CIRCLE
8
PATTERN
62
8
10
117.818
20
24.430
40
0.300
0
CIRCLE
8
PATTERN
62
8
10
88.566
20
62.512
40
0.300
0
CIRCLE
8
PATTERN
62
8
10
108.507
20
51.049
40
0.300
0
CIRCLE
8
PATTERN
62
8
10
95.207
20
48.855
40
0.300
0
CIRCLE
8
PATTERN
62
8
10
91.193
20
44.875
40
0.300
0
CIRCLE
8
PATTERN
62
8
10
88.793
20
26.942
40
0.300
0
CIRCLE
8
PATTERN
62
8
10
85.319
20
39.163
40
0.300
0
CIRCLE
8
PATTERN
62
8
10
109.690
20
35.483
40
0.300
0
CIRCLE
8
PATTERN
62
8
10
111.275
20
63.410
40
0.300
0
CIRCLE
8
PATTERN
62
8
10
108.265
20
52.809
40
0.300
0
CIRCLE
8
PATTERN
62
8
10
92.657
20
38.887
40
0.300
0
CIRCLE
8
PATTERN
62
8
10
87.048
20
43.223
40
0.300
0
CIRCLE
8
PATTERN
62
8
10
111.734
20
45.106
40
0.300
0
CIRCLE
8
PATTERN
62
8
10
88.597
20
56.494
40
0.300
0
CIRCLE
8
PATTERN
62
8
10
104.106
20
37.330
40
0.300
0
CIRCLE
8
PATTERN
62
8
10
112.502
20
54.910
40
0.300
0
CIRCLE
8
PATTERN
62
8
10
105.180
20
25.163
40
0.300
0
CIRCLE
8
PATTERN
62
8
10
106.758
20
43.428
40
0.300
0
CIRCLE
8
PATTERN
62
8
10
91.351
20
44.668
40
0.300
0
CIRCLE
8
PATTERN
62
8
10
113.453
20
40.727
40
0.300
0
CIRCLE
8
PATTERN
62
8
10
118.785
20
28.514
40
0.300
0
CIRCLE
8
PATTERN
62
8
10
91.677
20
43.452
40
0.300
0
CIRCLE
8
PATTERN
62
8
10
108.882
20
30.521
40
0.300
0
CIRCLE
8
PATTERN
62
8
10
120.752
20
58.654
40
0.300
0
CIRCLE
8
PATTERN
62
8
10
94.646
20
38.632
40
0.300
0
CIRCLE
8
PATTERN
62
8
10
105.342
20
24.032
40
0.300
0
CIRCLE
8
PATTERN
62
8
10
112.675
20
53.348
40
0.300
0
CIRCLE
8
PATTERN
62
8
10
94.798
20
44.424
40
0.300
0
CIRCLE
8
PATTERN
62
8
10
110.133
20
31.814
40
0.300
0
CIRCLE
8
PATTERN
62
8
10
113.221
20
48.774
40
0.300
0
CIRCLE
8
PATTERN
62
8
10
110.215
20
48.281
40
0.300
0
CIRCLE
8
PATTERN
62
8
10
106.340
20
39.454
40
0.300
0
CIRCLE
8
PATTERN
62
8
10
90.142
20
46.015
40
0.300
0
CIRCLE
8
PATTERN
62
8
10
110.305
20
30.376
40
0.300
0
CIRCLE
8
PATTERN
62
8
10
97.626
20
45.338
40
0.300
0
CIRCLE
8
PATTERN
62
8
10
99.321
20
51.618
40
0.300
0
CIRCLE
8
PATTERN
62
8
10
87.590
20
40.177
40
0.300
0
CIRCLE
8
PATTERN
62
8
10
99.504
20
55.095
40
0.300
0
CIRCLE
8
PATTERN
62
8
10
99.330
20
30.920
40
0.300
0
CIRCLE
8
PATTERN
62
8
10
120.709
20
54.797
40
0.300
0
CIRCLE
8
PATTERN
62
8
10
102.508
20
33.274
40
0.300
0
CIRCLE
8
PATTERN
62
8
10
90.020
20
55.010
40
0.300
0
CIRCLE
8
PATTERN
62
8
10
111.126
20
40.420
40
0.300
0
CIRCLE
8
PATTERN
62
8
10
108.323
20
48.690
40
0.300
0
CIRCLE
8
PATTERN
62
8
10
114.969
20
58.751
40
0.300
0
CIRCLE
8
PATTERN
62
8
10
110.857
20
40.549
40
0.300
0
CIRCLE
8
PATTERN
62
8
10
93.468
20
62.047
40
0.300
0
CIRCLE
8
PATTERN
62
8
10
112.485
20
35.816
40
0.300
0
CIRCLE
8
PATTERN
62
8
10
92.180
20
35.686
40
0.300
0
CIRCLE
8
PATTERN
62
8
10
86.214
20
62.752
40
0.300
0
CIRCLE
8
PATTERN
62
8
10
109.276
20
43.650
40
0.300
0
CIRCLE
8
PATTERN
62
8
10
99.260
20
50.282
40
0.300
0
CIRCLE
8
PATTERN
62
8
10
90.888
20
23.916
40
0.300
0
CIRCLE
8
PATTERN
62
8
10
113.551
20
44.756
40
0.300
0
CIRCLE
8
PATTERN
62
8
10
103.440
20
53.879
40
0.300
0
CIRCLE
8
PATTERN
62
8
10
120.777
20
64.025
40
0.300
0
CIRCLE
8
PATTERN
62
8
10
90.589
20
57.744
40
0.300
0
CIRCLE
8
PATTERN
62
8
10
96.676
20
27.113
40
0.300
0
CIRCLE
8
PATTERN
62
8
10
116.191
20
38.414
40
0.300
0
CIRCLE
8
PATTERN
62
8
10
115.963
20
50.265
40
0.300
0
CIRCLE
8
PATTERN
62
8
10
107.106
20
55.349
40
0.300
0
CIRCLE
8
PATTERN
62
8
10
85.446
20
31.059
40
0.300
0
CIRCLE
8
PATTERN
62
8
10
96.517
20
59.855
40
0.300
0
CIRCLE
8
PATTERN
62
8
10
118.501
20
41.255
40
0.300
0
CIRCLE
8
PATTERN
62
8
10
89.741
20
25.695
40
0.300
0
CIRCLE
8
PATTERN
62
8
10
96.562
20
49.481
40
0.300
0
CIRCLE
8
PATTERN
62
8
10
86.555
20
30.882
40
0.300
0
CIRCLE
8
PATTERN
62
8
10
113.980
20
28.835
40
0.300
0
CIRCLE
8
PATTERN
62
8
10
92.105
20
62.018
40
0.300
0
TEXT
8
TEXT
62
7
10
48.000
20
44.123
40
2.200
1
Lance Fm
0
TEXT
8
TEXT
62
7
10
66.000
20
44.123
40
2.200
1
K?l
0
TEXT
8
TEXT
62
7
10
147.000
20
44.123
40
2.200
1
40.0
0
TEXT
8
TEXT
62
7
10
157.000
20
44.123
40
2.000
1
Fluvial sandstone, dinosaur bones
0
LINE
8
GRID
62
8
10
8.000
20
66.404
11
205.000
21
66.404
0
TEXT
8
FOOTER
62
8
10
8.000
20
17.000
40
2.000
1
Paleocene-Eocene Thermal Maximum ? Bighorn Basin | 228m | 6 layers | Scale 1:897
0
TEXT
8
FOOTER
62
9
10
8.000
20
14.000
40
1.600
1
CorelDRAWer-Skill (github.com/Reasonite-lab/CorelDRAWer-Skill)
0
ENDSEC
0
EOF