0
SECTION
2
ENTITIES
0
TEXT
8
TITLE
62
7
10
106.500
20
302.000
40
4.500
1
S?o Lu?s?Graja? Basin ? Aptian Stratigraphy
0
POLYLINE
8
HEADER
62
8
66
1
70
1
0
VERTEX
8
HEADER
10
8.000
20
276.000
0
VERTEX
8
HEADER
10
205.000
20
276.000
0
VERTEX
8
HEADER
10
205.000
20
290.000
0
VERTEX
8
HEADER
10
8.000
20
290.000
0
SEQEND
0
TEXT
8
HEADER
62
7
10
14.500
20
283.000
40
2.800
1
Era
0
TEXT
8
HEADER
62
7
10
27.500
20
283.000
40
2.800
1
Sys
0
TEXT
8
HEADER
62
7
10
40.500
20
283.000
40
2.800
1
Ser
0
TEXT
8
HEADER
62
7
10
56.000
20
283.000
40
2.800
1
Fm
0
TEXT
8
HEADER
62
7
10
71.000
20
283.000
40
2.800
1
Sym
0
TEXT
8
HEADER
62
7
10
80.500
20
283.000
40
2.800
1
Fossils
0
TEXT
8
HEADER
62
7
10
104.000
20
283.000
40
2.800
1
Lithology
0
TEXT
8
HEADER
62
7
10
131.500
20
283.000
40
2.800
1
Grain
0
TEXT
8
HEADER
62
7
10
142.500
20
283.000
40
2.800
1
Struc
0
TEXT
8
HEADER
62
7
10
151.000
20
283.000
40
2.800
1
Thick(m)
0
TEXT
8
HEADER
62
7
10
188.500
20
283.000
40
2.800
1
Description
0
LINE
8
GRID
62
8
10
21.000
20
22.000
11
21.000
21
290.000
0
LINE
8
GRID
62
8
10
34.000
20
22.000
11
34.000
21
290.000
0
LINE
8
GRID
62
8
10
47.000
20
22.000
11
47.000
21
290.000
0
LINE
8
GRID
62
8
10
65.000
20
22.000
11
65.000
21
290.000
0
LINE
8
GRID
62
8
10
77.000
20
22.000
11
77.000
21
290.000
0
LINE
8
GRID
62
8
10
84.000
20
22.000
11
84.000
21
290.000
0
LINE
8
GRID
62
8
10
124.000
20
22.000
11
124.000
21
290.000
0
LINE
8
GRID
62
8
10
139.000
20
22.000
11
139.000
21
290.000
0
LINE
8
GRID
62
8
10
146.000
20
22.000
11
146.000
21
290.000
0
LINE
8
GRID
62
8
10
156.000
20
22.000
11
156.000
21
290.000
0
LINE
8
BORDER
62
7
10
8.000
20
22.000
11
8.000
21
290.000
0
LINE
8
BORDER
62
7
10
205.000
20
22.000
11
205.000
21
290.000
0
LINE
8
BORDER
62
7
10
8.000
20
290.000
11
205.000
21
290.000
0
LINE
8
BORDER
62
7
10
8.000
20
22.000
11
205.000
21
22.000
0
POLYLINE
8
LITHOLOGY
62
7
66
1
70
1
0
VERTEX
8
LITHOLOGY
10
84.300
20
245.157
0
VERTEX
8
LITHOLOGY
10
121.800
20
245.157
0
VERTEX
8
LITHOLOGY
10
121.800
20
276.000
0
VERTEX
8
LITHOLOGY
10
84.300
20
276.000
0
SEQEND
0
TEXT
8
TEXT
62
7
10
48.000
20
260.579
40
2.200
1
Upper Carbonate
0
TEXT
8
TEXT
62
7
10
66.000
20
260.579
40
2.200
1
K?u
0
TEXT
8
TEXT
62
7
10
147.000
20
260.579
40
2.200
1
85.0
0
TEXT
8
TEXT
62
7
10
157.000
20
260.579
40
2.000
1
Grey limestone with dolomite interbeds
0
LINE
8
GRID
62
8
10
8.000
20
276.000
11
205.000
21
276.000
0
POLYLINE
8
LITHOLOGY
62
4
66
1
70
1
0
VERTEX
8
LITHOLOGY
10
84.300
20
201.614
0
VERTEX
8
LITHOLOGY
10
121.800
20
201.614
0
VERTEX
8
LITHOLOGY
10
121.800
20
245.157
0
VERTEX
8
LITHOLOGY
10
84.300
20
245.157
0
SEQEND
0
TEXT
8
TEXT
62
7
10
48.000
20
223.386
40
2.200
1
Marine Shale
0
TEXT
8
TEXT
62
7
10
66.000
20
223.386
40
2.200
1
K?m
0
TEXT
8
TEXT
62
7
10
147.000
20
223.386
40
2.200
1
120.0
0
TEXT
8
TEXT
62
7
10
157.000
20
223.386
40
2.000
1
Dark grey marine shale with TOC-rich intervals
0
LINE
8
GRID
62
8
10
8.000
20
245.157
11
205.000
21
245.157
0
POLYLINE
8
LITHOLOGY
62
9
66
1
70
1
0
VERTEX
8
LITHOLOGY
10
84.300
20
185.286
0
VERTEX
8
LITHOLOGY
10
121.800
20
185.286
0
VERTEX
8
LITHOLOGY
10
121.800
20
201.614
0
VERTEX
8
LITHOLOGY
10
84.300
20
201.614
0
SEQEND
0
TEXT
8
TEXT
62
7
10
48.000
20
193.450
40
2.200
1
Evaporite-Anhydrite
0
TEXT
8
TEXT
62
7
10
66.000
20
193.450
40
2.200
1
K?e
0
TEXT
8
TEXT
62
7
10
147.000
20
193.450
40
2.200
1
45.0
0
TEXT
8
TEXT
62
7
10
157.000
20
193.450
40
2.000
1
White-grey anhydrite with thin halite layers
0
LINE
8
GRID
62
8
10
8.000
20
201.614
11
205.000
21
201.614
0
POLYLINE
8
LITHOLOGY
62
1
66
1
70
1
0
VERTEX
8
LITHOLOGY
10
84.300
20
127.229
0
VERTEX
8
LITHOLOGY
10
121.800
20
127.229
0
VERTEX
8
LITHOLOGY
10
121.800
20
185.286
0
VERTEX
8
LITHOLOGY
10
84.300
20
185.286
0
SEQEND
0
CIRCLE
8
PATTERN
62
8
10
106.518
20
147.552
40
0.300
0
CIRCLE
8
PATTERN
62
8
10
85.353
20
147.649
40
0.300
0
CIRCLE
8
PATTERN
62
8
10
114.522
20
151.966
40
0.300
0
CIRCLE
8
PATTERN
62
8
10
105.884
20
137.294
40
0.300
0
CIRCLE
8
PATTERN
62
8
10
100.482
20
148.869
40
0.300
0
CIRCLE
8
PATTERN
62
8
10
90.219
20
142.038
40
0.300
0
CIRCLE
8
PATTERN
62
8
10
88.648
20
176.920
40
0.300
0
CIRCLE
8
PATTERN
62
8
10
103.149
20
157.110
40
0.300
0
CIRCLE
8
PATTERN
62
8
10
112.708
20
166.928
40
0.300
0
CIRCLE
8
PATTERN
62
8
10
95.836
20
177.916
40
0.300
0
CIRCLE
8
PATTERN
62
8
10
105.064
20
181.878
40
0.300
0
CIRCLE
8
PATTERN
62
8
10
95.047
20
147.871
40
0.300
0
CIRCLE
8
PATTERN
62
8
10
87.655
20
173.318
40
0.300
0
CIRCLE
8
PATTERN
62
8
10
107.460
20
173.582
40
0.300
0
CIRCLE
8
PATTERN
62
8
10
98.652
20
179.748
40
0.300
0
CIRCLE
8
PATTERN
62
8
10
111.977
20
173.871
40
0.300
0
CIRCLE
8
PATTERN
62
8
10
86.527
20
174.367
40
0.300
0
CIRCLE
8
PATTERN
62
8
10
119.178
20
169.253
40
0.300
0
CIRCLE
8
PATTERN
62
8
10
101.071
20
162.880
40
0.300
0
CIRCLE
8
PATTERN
62
8
10
94.925
20
139.239
40
0.300
0
CIRCLE
8
PATTERN
62
8
10
116.987
20
164.180
40
0.300
0
CIRCLE
8
PATTERN
62
8
10
116.398
20
141.576
40
0.300
0
CIRCLE
8
PATTERN
62
8
10
99.821
20
174.244
40
0.300
0
CIRCLE
8
PATTERN
62
8
10
90.292
20
157.437
40
0.300
0
CIRCLE
8
PATTERN
62
8
10
101.428
20
141.660
40
0.300
0
CIRCLE
8
PATTERN
62
8
10
112.027
20
165.137
40
0.300
0
CIRCLE
8
PATTERN
62
8
10
99.564
20
171.016
40
0.300
0
CIRCLE
8
PATTERN
62
8
10
119.996
20
133.262
40
0.300
0
CIRCLE
8
PATTERN
62
8
10
120.674
20
143.251
40
0.300
0
CIRCLE
8
PATTERN
62
8
10
100.608
20
139.930
40
0.300
0
CIRCLE
8
PATTERN
62
8
10
87.160
20
159.920
40
0.300
0
CIRCLE
8
PATTERN
62
8
10
89.514
20
161.720
40
0.300
0
CIRCLE
8
PATTERN
62
8
10
118.513
20
173.876
40
0.300
0
CIRCLE
8
PATTERN
62
8
10
91.555
20
139.130
40
0.300
0
CIRCLE
8
PATTERN
62
8
10
115.831
20
157.221
40
0.300
0
CIRCLE
8
PATTERN
62
8
10
120.589
20
148.550
40
0.300
0
CIRCLE
8
PATTERN
62
8
10
105.735
20
150.733
40
0.300
0
CIRCLE
8
PATTERN
62
8
10
88.420
20
155.884
40
0.300
0
CIRCLE
8
PATTERN
62
8
10
103.522
20
149.527
40
0.300
0
CIRCLE
8
PATTERN
62
8
10
120.538
20
167.911
40
0.300
0
CIRCLE
8
PATTERN
62
8
10
91.914
20
128.515
40
0.300
0
CIRCLE
8
PATTERN
62
8
10
88.498
20
136.713
40
0.300
0
CIRCLE
8
PATTERN
62
8
10
89.621
20
131.556
40
0.300
0
CIRCLE
8
PATTERN
62
8
10
112.981
20
145.536
40
0.300
0
CIRCLE
8
PATTERN
62
8
10
98.117
20
150.386
40
0.300
0
CIRCLE
8
PATTERN
62
8
10
101.182
20
147.377
40
0.300
0
CIRCLE
8
PATTERN
62
8
10
103.763
20
160.372
40
0.300
0
CIRCLE
8
PATTERN
62
8
10
95.699
20
156.473
40
0.300
0
CIRCLE
8
PATTERN
62
8
10
90.790
20
139.783
40
0.300
0
CIRCLE
8
PATTERN
62
8
10
96.984
20
147.205
40
0.300
0
CIRCLE
8
PATTERN
62
8
10
96.263
20
156.919
40
0.300
0
CIRCLE
8
PATTERN
62
8
10
109.863
20
160.708
40
0.300
0
CIRCLE
8
PATTERN
62
8
10
89.637
20
128.661
40
0.300
0
CIRCLE
8
PATTERN
62
8
10
92.002
20
138.402
40
0.300
0
CIRCLE
8
PATTERN
62
8
10
113.554
20
174.477
40
0.300
0
CIRCLE
8
PATTERN
62
8
10
91.988
20
173.289
40
0.300
0
CIRCLE
8
PATTERN
62
8
10
116.079
20
164.630
40
0.300
0
CIRCLE
8
PATTERN
62
8
10
105.421
20
147.133
40
0.300
0
CIRCLE
8
PATTERN
62
8
10
107.181
20
142.995
40
0.300
0
CIRCLE
8
PATTERN
62
8
10
97.729
20
166.201
40
0.300
0
CIRCLE
8
PATTERN
62
8
10
94.158
20
179.841
40
0.300
0
CIRCLE
8
PATTERN
62
8
10
96.579
20
134.261
40
0.300
0
CIRCLE
8
PATTERN
62
8
10
106.902
20
143.433
40
0.300
0
CIRCLE
8
PATTERN
62
8
10
100.139
20
159.189
40
0.300
0
CIRCLE
8
PATTERN
62
8
10
92.279
20
139.086
40
0.300
0
CIRCLE
8
PATTERN
62
8
10
109.204
20
179.563
40
0.300
0
CIRCLE
8
PATTERN
62
8
10
88.566
20
134.034
40
0.300
0
CIRCLE
8
PATTERN
62
8
10
89.619
20
134.010
40
0.300
0
CIRCLE
8
PATTERN
62
8
10
87.091
20
163.261
40
0.300
0
CIRCLE
8
PATTERN
62
8
10
103.347
20
143.685
40
0.300
0
CIRCLE
8
PATTERN
62
8
10
98.412
20
151.561
40
0.300
0
CIRCLE
8
PATTERN
62
8
10
97.222
20
170.428
40
0.300
0
CIRCLE
8
PATTERN
62
8
10
89.035
20
148.780
40
0.300
0
CIRCLE
8
PATTERN
62
8
10
101.648
20
134.677
40
0.300
0
CIRCLE
8
PATTERN
62
8
10
100.601
20
139.417
40
0.300
0
CIRCLE
8
PATTERN
62
8
10
109.960
20
133.639
40
0.300
0
CIRCLE
8
PATTERN
62
8
10
92.475
20
135.864
40
0.300
0
CIRCLE
8
PATTERN
62
8
10
88.029
20
161.021
40
0.300
0
CIRCLE
8
PATTERN
62
8
10
92.886
20
175.020
40
0.300
0
CIRCLE
8
PATTERN
62
8
10
102.873
20
129.108
40
0.300
0
CIRCLE
8
PATTERN
62
8
10
97.102
20
182.791
40
0.300
0
CIRCLE
8
PATTERN
62
8
10
113.321
20
179.734
40
0.300
0
CIRCLE
8
PATTERN
62
8
10
90.487
20
134.999
40
0.300
0
CIRCLE
8
PATTERN
62
8
10
89.907
20
167.426
40
0.300
0
CIRCLE
8
PATTERN
62
8
10
116.502
20
133.514
40
0.300
0
CIRCLE
8
PATTERN
62
8
10
88.290
20
156.584
40
0.300
0
CIRCLE
8
PATTERN
62
8
10
95.272
20
150.165
40
0.300
0
CIRCLE
8
PATTERN
62
8
10
100.225
20
182.297
40
0.300
0
CIRCLE
8
PATTERN
62
8
10
93.917
20
169.628
40
0.300
0
CIRCLE
8
PATTERN
62
8
10
92.296
20
159.087
40
0.300
0
CIRCLE
8
PATTERN
62
8
10
102.288
20
130.536
40
0.300
0
CIRCLE
8
PATTERN
62
8
10
118.844
20
166.109
40
0.300
0
CIRCLE
8
PATTERN
62
8
10
105.734
20
181.567
40
0.300
0
CIRCLE
8
PATTERN
62
8
10
107.638
20
133.211
40
0.300
0
CIRCLE
8
PATTERN
62
8
10
97.310
20
140.561
40
0.300
0
CIRCLE
8
PATTERN
62
8
10
120.410
20
179.838
40
0.300
0
CIRCLE
8
PATTERN
62
8
10
110.826
20
174.697
40
0.300
0
CIRCLE
8
PATTERN
62
8
10
102.819
20
132.389
40
0.300
0
CIRCLE
8
PATTERN
62
8
10
120.118
20
173.087
40
0.300
0
CIRCLE
8
PATTERN
62
8
10
117.875
20
170.813
40
0.300
0
CIRCLE
8
PATTERN
62
8
10
99.477
20
161.765
40
0.300
0
CIRCLE
8
PATTERN
62
8
10
89.130
20
181.426
40
0.300
0
CIRCLE
8
PATTERN
62
8
10
115.210
20
140.873
40
0.300
0
CIRCLE
8
PATTERN
62
8
10
106.629
20
141.275
40
0.300
0
CIRCLE
8
PATTERN
62
8
10
99.522
20
163.806
40
0.300
0
CIRCLE
8
PATTERN
62
8
10
96.055
20
154.507
40
0.300
0
CIRCLE
8
PATTERN
62
8
10
118.415
20
178.005
40
0.300
0
CIRCLE
8
PATTERN
62
8
10
113.020
20
176.386
40
0.300
0
CIRCLE
8
PATTERN
62
8
10
94.834
20
161.509
40
0.300
0
CIRCLE
8
PATTERN
62
8
10
106.910
20
181.234
40
0.300
0
CIRCLE
8
PATTERN
62
8
10
86.723
20
169.859
40
0.300
0
CIRCLE
8
PATTERN
62
8
10
108.364
20
158.446
40
0.300
0
CIRCLE
8
PATTERN
62
8
10
102.118
20
161.038
40
0.300
0
CIRCLE
8
PATTERN
62
8
10
113.421
20
152.663
40
0.300
0
CIRCLE
8
PATTERN
62
8
10
109.712
20
147.210
40
0.300
0
CIRCLE
8
PATTERN
62
8
10
117.683
20
162.641
40
0.300
0
CIRCLE
8
PATTERN
62
8
10
116.362
20
146.983
40
0.300
0
CIRCLE
8
PATTERN
62
8
10
116.792
20
154.299
40
0.300
0
CIRCLE
8
PATTERN
62
8
10
119.405
20
173.538
40
0.300
0
CIRCLE
8
PATTERN
62
8
10
89.453
20
154.801
40
0.300
0
CIRCLE
8
PATTERN
62
8
10
99.547
20
141.738
40
0.300
0
CIRCLE
8
PATTERN
62
8
10
95.873
20
131.423
40
0.300
0
CIRCLE
8
PATTERN
62
8
10
120.195
20
136.876
40
0.300
0
CIRCLE
8
PATTERN
62
8
10
116.696
20
169.114
40
0.300
0
CIRCLE
8
PATTERN
62
8
10
95.699
20
144.960
40
0.300
0
CIRCLE
8
PATTERN
62
8
10
115.005
20
151.367
40
0.300
0
CIRCLE
8
PATTERN
62
8
10
90.407
20
153.617
40
0.300
0
CIRCLE
8
PATTERN
62
8
10
107.075
20
128.238
40
0.300
0
CIRCLE
8
PATTERN
62
8
10
107.548
20
137.426
40
0.300
0
CIRCLE
8
PATTERN
62
8
10
104.662
20
172.419
40
0.300
0
CIRCLE
8
PATTERN
62
8
10
113.595
20
142.400
40
0.300
0
CIRCLE
8
PATTERN
62
8
10
113.964
20
151.756
40
0.300
0
CIRCLE
8
PATTERN
62
8
10
99.488
20
158.773
40
0.300
0
CIRCLE
8
PATTERN
62
8
10
98.346
20
156.022
40
0.300
0
CIRCLE
8
PATTERN
62
8
10
118.746
20
172.795
40
0.300
0
CIRCLE
8
PATTERN
62
8
10
96.805
20
132.367
40
0.300
0
CIRCLE
8
PATTERN
62
8
10
112.132
20
129.815
40
0.300
0
CIRCLE
8
PATTERN
62
8
10
105.046
20
162.020
40
0.300
0
CIRCLE
8
PATTERN
62
8
10
118.675
20
167.800
40
0.300
0
CIRCLE
8
PATTERN
62
8
10
113.239
20
158.677
40
0.300
0
CIRCLE
8
PATTERN
62
8
10
101.334
20
153.945
40
0.300
0
CIRCLE
8
PATTERN
62
8
10
119.537
20
129.361
40
0.300
0
CIRCLE
8
PATTERN
62
8
10
109.972
20
139.392
40
0.300
0
CIRCLE
8
PATTERN
62
8
10
100.802
20
155.140
40
0.300
0
CIRCLE
8
PATTERN
62
8
10
89.669
20
135.276
40
0.300
0
CIRCLE
8
PATTERN
62
8
10
108.187
20
182.692
40
0.300
0
CIRCLE
8
PATTERN
62
8
10
89.533
20
142.511
40
0.300
0
CIRCLE
8
PATTERN
62
8
10
104.928
20
152.088
40
0.300
0
CIRCLE
8
PATTERN
62
8
10
91.707
20
166.652
40
0.300
0
CIRCLE
8
PATTERN
62
8
10
107.231
20
148.725
40
0.300
0
CIRCLE
8
PATTERN
62
8
10
104.586
20
149.369
40
0.300
0
CIRCLE
8
PATTERN
62
8
10
97.438
20
145.920
40
0.300
0
CIRCLE
8
PATTERN
62
8
10
89.554
20
174.454
40
0.300
0
CIRCLE
8
PATTERN
62
8
10
86.344
20
158.007
40
0.300
0
CIRCLE
8
PATTERN
62
8
10
110.876
20
160.456
40
0.300
0
CIRCLE
8
PATTERN
62
8
10
91.622
20
159.158
40
0.300
0
CIRCLE
8
PATTERN
62
8
10
112.245
20
155.245
40
0.300
0
CIRCLE
8
PATTERN
62
8
10
107.516
20
143.101
40
0.300
0
CIRCLE
8
PATTERN
62
8
10
95.986
20
181.768
40
0.300
0
CIRCLE
8
PATTERN
62
8
10
99.708
20
168.969
40
0.300
0
CIRCLE
8
PATTERN
62
8
10
113.541
20
128.877
40
0.300
0
CIRCLE
8
PATTERN
62
8
10
120.050
20
163.836
40
0.300
0
CIRCLE
8
PATTERN
62
8
10
92.052
20
159.117
40
0.300
0
CIRCLE
8
PATTERN
62
8
10
112.358
20
139.139
40
0.300
0
CIRCLE
8
PATTERN
62
8
10
86.561
20
135.857
40
0.300
0
CIRCLE
8
PATTERN
62
8
10
85.857
20
159.655
40
0.300
0
CIRCLE
8
PATTERN
62
8
10
120.746
20
135.699
40
0.300
0
CIRCLE
8
PATTERN
62
8
10
113.712
20
170.332
40
0.300
0
CIRCLE
8
PATTERN
62
8
10
85.746
20
181.404
40
0.300
0
CIRCLE
8
PATTERN
62
8
10
106.769
20
141.609
40
0.300
0
CIRCLE
8
PATTERN
62
8
10
120.151
20
174.391
40
0.300
0
CIRCLE
8
PATTERN
62
8
10
99.473
20
172.361
40
0.300
0
CIRCLE
8
PATTERN
62
8
10
107.633
20
151.153
40
0.300
0
CIRCLE
8
PATTERN
62
8
10
96.175
20
149.316
40
0.300
0
CIRCLE
8
PATTERN
62
8
10
117.128
20
178.514
40
0.300
0
CIRCLE
8
PATTERN
62
8
10
112.587
20
148.165
40
0.300
0
CIRCLE
8
PATTERN
62
8
10
99.134
20
136.298
40
0.300
0
CIRCLE
8
PATTERN
62
8
10
107.398
20
183.310
40
0.300
0
CIRCLE
8
PATTERN
62
8
10
108.246
20
165.910
40
0.300
0
CIRCLE
8
PATTERN
62
8
10
94.897
20
149.902
40
0.300
0
CIRCLE
8
PATTERN
62
8
10
107.226
20
131.227
40
0.300
0
CIRCLE
8
PATTERN
62
8
10
113.957
20
155.512
40
0.300
0
CIRCLE
8
PATTERN
62
8
10
99.202
20
158.571
40
0.300
0
CIRCLE
8
PATTERN
62
8
10
113.467
20
168.010
40
0.300
0
CIRCLE
8
PATTERN
62
8
10
108.940
20
134.522
40
0.300
0
CIRCLE
8
PATTERN
62
8
10
117.001
20
154.479
40
0.300
0
CIRCLE
8
PATTERN
62
8
10
102.831
20
140.749
40
0.300
0
CIRCLE
8
PATTERN
62
8
10
97.143
20
169.721
40
0.300
0
CIRCLE
8
PATTERN
62
8
10
106.167
20
140.815
40
0.300
0
CIRCLE
8
PATTERN
62
8
10
90.117
20
129.477
40
0.300
0
CIRCLE
8
PATTERN
62
8
10
87.372
20
182.692
40
0.300
0
CIRCLE
8
PATTERN
62
8
10
112.208
20
171.241
40
0.300
0
CIRCLE
8
PATTERN
62
8
10
85.908
20
168.464
40
0.300
0
CIRCLE
8
PATTERN
62
8
10
94.828
20
168.850
40
0.300
0
CIRCLE
8
PATTERN
62
8
10
113.822
20
167.189
40
0.300
0
CIRCLE
8
PATTERN
62
8
10
107.004
20
152.106
40
0.300
0
CIRCLE
8
PATTERN
62
8
10
107.988
20
144.014
40
0.300
0
CIRCLE
8
PATTERN
62
8
10
99.430
20
137.672
40
0.300
0
CIRCLE
8
PATTERN
62
8
10
92.860
20
130.462
40
0.300
0
CIRCLE
8
PATTERN
62
8
10
118.557
20
134.453
40
0.300
0
CIRCLE
8
PATTERN
62
8
10
111.109
20
156.122
40
0.300
0
CIRCLE
8
PATTERN
62
8
10
111.747
20
153.387
40
0.300
0
CIRCLE
8
PATTERN
62
8
10
112.534
20
129.924
40
0.300
0
CIRCLE
8
PATTERN
62
8
10
107.978
20
150.692
40
0.300
0
CIRCLE
8
PATTERN
62
8
10
104.986
20
146.372
40
0.300
0
CIRCLE
8
PATTERN
62
8
10
111.800
20
153.233
40
0.300
0
CIRCLE
8
PATTERN
62
8
10
114.939
20
171.618
40
0.300
0
CIRCLE
8
PATTERN
62
8
10
98.670
20
135.765
40
0.300
0
CIRCLE
8
PATTERN
62
8
10
109.489
20
144.619
40
0.300
0
CIRCLE
8
PATTERN
62
8
10
101.550
20
138.677
40
0.300
0
CIRCLE
8
PATTERN
62
8
10
116.079
20
176.865
40
0.300
0
CIRCLE
8
PATTERN
62
8
10
102.123
20
132.450
40
0.300
0
CIRCLE
8
PATTERN
62
8
10
99.081
20
176.335
40
0.300
0
CIRCLE
8
PATTERN
62
8
10
116.521
20
176.632
40
0.300
0
CIRCLE
8
PATTERN
62
8
10
99.684
20
177.765
40
0.300
0
CIRCLE
8
PATTERN
62
8
10
103.076
20
136.532
40
0.300
0
CIRCLE
8
PATTERN
62
8
10
92.529
20
133.652
40
0.300
0
CIRCLE
8
PATTERN
62
8
10
103.337
20
168.555
40
0.300
0
CIRCLE
8
PATTERN
62
8
10
88.427
20
159.614
40
0.300
0
CIRCLE
8
PATTERN
62
8
10
111.633
20
172.338
40
0.300
0
CIRCLE
8
PATTERN
62
8
10
106.229
20
145.881
40
0.300
0
CIRCLE
8
PATTERN
62
8
10
113.623
20
160.804
40
0.300
0
CIRCLE
8
PATTERN
62
8
10
113.936
20
150.873
40
0.300
0
CIRCLE
8
PATTERN
62
8
10
99.857
20
159.622
40
0.300
0
CIRCLE
8
PATTERN
62
8
10
107.360
20
135.422
40
0.300
0
CIRCLE
8
PATTERN
62
8
10
116.735
20
141.368
40
0.300
0
CIRCLE
8
PATTERN
62
8
10
90.539
20
154.419
40
0.300
0
CIRCLE
8
PATTERN
62
8
10
96.841
20
140.364
40
0.300
0
CIRCLE
8
PATTERN
62
8
10
104.002
20
182.172
40
0.300
0
CIRCLE
8
PATTERN
62
8
10
97.978
20
160.004
40
0.300
0
CIRCLE
8
PATTERN
62
8
10
92.842
20
165.476
40
0.300
0
CIRCLE
8
PATTERN
62
8
10
110.235
20
143.892
40
0.300
0
CIRCLE
8
PATTERN
62
8
10
111.755
20
146.642
40
0.300
0
CIRCLE
8
PATTERN
62
8
10
114.636
20
179.513
40
0.300
0
CIRCLE
8
PATTERN
62
8
10
116.612
20
162.996
40
0.300
0
CIRCLE
8
PATTERN
62
8
10
104.349
20
137.507
40
0.300
0
CIRCLE
8
PATTERN
62
8
10
106.682
20
129.507
40
0.300
0
CIRCLE
8
PATTERN
62
8
10
119.097
20
175.699
40
0.300
0
CIRCLE
8
PATTERN
62
8
10
111.485
20
131.102
40
0.300
0
CIRCLE
8
PATTERN
62
8
10
107.592
20
159.575
40
0.300
0
CIRCLE
8
PATTERN
62
8
10
93.086
20
134.097
40
0.300
0
CIRCLE
8
PATTERN
62
8
10
86.413
20
136.563
40
0.300
0
CIRCLE
8
PATTERN
62
8
10
105.637
20
136.784
40
0.300
0
CIRCLE
8
PATTERN
62
8
10
93.110
20
172.549
40
0.300
0
CIRCLE
8
PATTERN
62
8
10
108.368
20
159.765
40
0.300
0
CIRCLE
8
PATTERN
62
8
10
99.905
20
158.700
40
0.300
0
CIRCLE
8
PATTERN
62
8
10
106.926
20
174.825
40
0.300
0
CIRCLE
8
PATTERN
62
8
10
107.802
20
134.224
40
0.300
0
CIRCLE
8
PATTERN
62
8
10
109.018
20
145.441
40
0.300
0
CIRCLE
8
PATTERN
62
8
10
100.610
20
178.510
40
0.300
0
CIRCLE
8
PATTERN
62
8
10
108.185
20
178.790
40
0.300
0
CIRCLE
8
PATTERN
62
8
10
111.780
20
161.291
40
0.300
0
CIRCLE
8
PATTERN
62
8
10
92.505
20
182.732
40
0.300
0
CIRCLE
8
PATTERN
62
8
10
105.940
20
154.658
40
0.300
0
CIRCLE
8
PATTERN
62
8
10
114.007
20
167.629
40
0.300
0
CIRCLE
8
PATTERN
62
8
10
105.946
20
157.299
40
0.300
0
CIRCLE
8
PATTERN
62
8
10
101.412
20
163.928
40
0.300
0
CIRCLE
8
PATTERN
62
8
10
120.255
20
139.291
40
0.300
0
CIRCLE
8
PATTERN
62
8
10
115.698
20
154.378
40
0.300
0
CIRCLE
8
PATTERN
62
8
10
100.572
20
177.243
40
0.300
0
CIRCLE
8
PATTERN
62
8
10
89.018
20
150.398
40
0.300
0
CIRCLE
8
PATTERN
62
8
10
103.655
20
178.411
40
0.300
0
CIRCLE
8
PATTERN
62
8
10
110.502
20
158.036
40
0.300
0
CIRCLE
8
PATTERN
62
8
10
91.361
20
130.975
40
0.300
0
CIRCLE
8
PATTERN
62
8
10
106.263
20
135.977
40
0.300
0
CIRCLE
8
PATTERN
62
8
10
116.231
20
137.433
40
0.300
0
CIRCLE
8
PATTERN
62
8
10
112.948
20
153.031
40
0.300
0
CIRCLE
8
PATTERN
62
8
10
85.683
20
183.161
40
0.300
0
CIRCLE
8
PATTERN
62
8
10
120.575
20
157.365
40
0.300
0
CIRCLE
8
PATTERN
62
8
10
108.897
20
165.366
40
0.300
0
CIRCLE
8
PATTERN
62
8
10
104.628
20
160.119
40
0.300
0
CIRCLE
8
PATTERN
62
8
10
119.518
20
150.226
40
0.300
0
TEXT
8
TEXT
62
7
10
48.000
20
156.257
40
2.200
1
Pre-Salt Siliciclastic
0
TEXT
8
TEXT
62
7
10
66.000
20
156.257
40
2.200
1
K?p
0
TEXT
8
TEXT
62
7
10
147.000
20
156.257
40
2.200
1
160.0
0
TEXT
8
TEXT
62
7
10
157.000
20
156.257
40
2.000
1
Red-brown fluvial-lacustrine sandstone with conglomerate lenses
0
LINE
8
GRID
62
8
10
8.000
20
185.286
11
205.000
21
185.286
0
POLYLINE
8
LITHOLOGY
62
3
66
1
70
1
0
VERTEX
8
LITHOLOGY
10
84.300
20
51.029
0
VERTEX
8
LITHOLOGY
10
121.800
20
51.029
0
VERTEX
8
LITHOLOGY
10
121.800
20
127.229
0
VERTEX
8
LITHOLOGY
10
84.300
20
127.229
0
SEQEND
0
CIRCLE
8
PATTERN
62
8
10
96.223
20
70.860
40
0.300
0
CIRCLE
8
PATTERN
62
8
10
114.158
20
94.021
40
0.300
0
CIRCLE
8
PATTERN
62
8
10
112.973
20
86.040
40
0.300
0
CIRCLE
8
PATTERN
62
8
10
118.519
20
115.140
40
0.300
0
CIRCLE
8
PATTERN
62
8
10
104.722
20
122.000
40
0.300
0
CIRCLE
8
PATTERN
62
8
10
95.412
20
67.781
40
0.300
0
CIRCLE
8
PATTERN
62
8
10
117.349
20
122.618
40
0.300
0
CIRCLE
8
PATTERN
62
8
10
113.362
20
105.855
40
0.300
0
CIRCLE
8
PATTERN
62
8
10
86.888
20
70.546
40
0.300
0
CIRCLE
8
PATTERN
62
8
10
112.751
20
52.493
40
0.300
0
CIRCLE
8
PATTERN
62
8
10
96.206
20
69.007
40
0.300
0
CIRCLE
8
PATTERN
62
8
10
118.438
20
68.269
40
0.300
0
CIRCLE
8
PATTERN
62
8
10
88.801
20
76.214
40
0.300
0
CIRCLE
8
PATTERN
62
8
10
118.070
20
96.285
40
0.300
0
CIRCLE
8
PATTERN
62
8
10
116.149
20
109.417
40
0.300
0
CIRCLE
8
PATTERN
62
8
10
116.056
20
125.939
40
0.300
0
CIRCLE
8
PATTERN
62
8
10
107.929
20
56.524
40
0.300
0
CIRCLE
8
PATTERN
62
8
10
88.681
20
118.743
40
0.300
0
CIRCLE
8
PATTERN
62
8
10
104.787
20
126.067
40
0.300
0
CIRCLE
8
PATTERN
62
8
10
107.311
20
125.867
40
0.300
0
CIRCLE
8
PATTERN
62
8
10
99.622
20
118.199
40
0.300
0
CIRCLE
8
PATTERN
62
8
10
115.890
20
118.795
40
0.300
0
CIRCLE
8
PATTERN
62
8
10
100.285
20
73.064
40
0.300
0
CIRCLE
8
PATTERN
62
8
10
109.859
20
102.108
40
0.300
0
CIRCLE
8
PATTERN
62
8
10
95.141
20
106.438
40
0.300
0
CIRCLE
8
PATTERN
62
8
10
116.395
20
114.340
40
0.300
0
CIRCLE
8
PATTERN
62
8
10
91.237
20
91.737
40
0.300
0
CIRCLE
8
PATTERN
62
8
10
110.200
20
97.487
40
0.300
0
CIRCLE
8
PATTERN
62
8
10
93.666
20
63.284
40
0.300
0
CIRCLE
8
PATTERN
62
8
10
106.983
20
120.329
40
0.300
0
CIRCLE
8
PATTERN
62
8
10
87.998
20
110.953
40
0.300
0
CIRCLE
8
PATTERN
62
8
10
95.224
20
81.317
40
0.300
0
CIRCLE
8
PATTERN
62
8
10
118.845
20
107.350
40
0.300
0
CIRCLE
8
PATTERN
62
8
10
89.676
20
81.278
40
0.300
0
CIRCLE
8
PATTERN
62
8
10
100.907
20
101.741
40
0.300
0
CIRCLE
8
PATTERN
62
8
10
111.073
20
111.414
40
0.300
0
CIRCLE
8
PATTERN
62
8
10
96.654
20
102.531
40
0.300
0
CIRCLE
8
PATTERN
62
8
10
104.695
20
78.859
40
0.300
0
CIRCLE
8
PATTERN
62
8
10
101.612
20
91.715
40
0.300
0
CIRCLE
8
PATTERN
62
8
10
115.500
20
116.419
40
0.300
0
CIRCLE
8
PATTERN
62
8
10
96.234
20
87.324
40
0.300
0
CIRCLE
8
PATTERN
62
8
10
111.010
20
81.778
40
0.300
0
CIRCLE
8
PATTERN
62
8
10
86.235
20
108.470
40
0.300
0
CIRCLE
8
PATTERN
62
8
10
86.535
20
108.663
40
0.300
0
CIRCLE
8
PATTERN
62
8
10
89.578
20
56.476
40
0.300
0
CIRCLE
8
PATTERN
62
8
10
96.781
20
77.561
40
0.300
0
CIRCLE
8
PATTERN
62
8
10
94.099
20
108.020
40
0.300
0
CIRCLE
8
PATTERN
62
8
10
113.223
20
67.413
40
0.300
0
CIRCLE
8
PATTERN
62
8
10
113.469
20
102.311
40
0.300
0
CIRCLE
8
PATTERN
62
8
10
105.877
20
106.027
40
0.300
0
CIRCLE
8
PATTERN
62
8
10
114.353
20
94.708
40
0.300
0
CIRCLE
8
PATTERN
62
8
10
87.241
20
95.795
40
0.300
0
CIRCLE
8
PATTERN
62
8
10
88.140
20
125.614
40
0.300
0
CIRCLE
8
PATTERN
62
8
10
103.343
20
96.258
40
0.300
0
CIRCLE
8
PATTERN
62
8
10
107.684
20
86.757
40
0.300
0
CIRCLE
8
PATTERN
62
8
10
106.162
20
78.377
40
0.300
0
CIRCLE
8
PATTERN
62
8
10
93.132
20
78.185
40
0.300
0
CIRCLE
8
PATTERN
62
8
10
109.309
20
79.114
40
0.300
0
CIRCLE
8
PATTERN
62
8
10
104.764
20
117.996
40
0.300
0
CIRCLE
8
PATTERN
62
8
10
100.680
20
63.071
40
0.300
0
CIRCLE
8
PATTERN
62
8
10
94.144
20
93.142
40
0.300
0
CIRCLE
8
PATTERN
62
8
10
116.612
20
124.306
40
0.300
0
CIRCLE
8
PATTERN
62
8
10
86.942
20
108.834
40
0.300
0
CIRCLE
8
PATTERN
62
8
10
112.607
20
100.468
40
0.300
0
CIRCLE
8
PATTERN
62
8
10
116.602
20
59.750
40
0.300
0
CIRCLE
8
PATTERN
62
8
10
109.906
20
94.068
40
0.300
0
CIRCLE
8
PATTERN
62
8
10
88.087
20
114.946
40
0.300
0
CIRCLE
8
PATTERN
62
8
10
90.589
20
92.843
40
0.300
0
CIRCLE
8
PATTERN
62
8
10
93.798
20
86.829
40
0.300
0
CIRCLE
8
PATTERN
62
8
10
119.406
20
71.903
40
0.300
0
CIRCLE
8
PATTERN
62
8
10
113.310
20
121.296
40
0.300
0
CIRCLE
8
PATTERN
62
8
10
113.150
20
73.797
40
0.300
0
CIRCLE
8
PATTERN
62
8
10
101.669
20
73.686
40
0.300
0
CIRCLE
8
PATTERN
62
8
10
90.215
20
122.997
40
0.300
0
CIRCLE
8
PATTERN
62
8
10
109.302
20
110.816
40
0.300
0
CIRCLE
8
PATTERN
62
8
10
95.740
20
103.424
40
0.300
0
CIRCLE
8
PATTERN
62
8
10
100.392
20
99.632
40
0.300
0
CIRCLE
8
PATTERN
62
8
10
119.564
20
118.059
40
0.300
0
CIRCLE
8
PATTERN
62
8
10
114.542
20
55.922
40
0.300
0
CIRCLE
8
PATTERN
62
8
10
100.544
20
72.886
40
0.300
0
CIRCLE
8
PATTERN
62
8
10
91.989
20
116.422
40
0.300
0
CIRCLE
8
PATTERN
62
8
10
107.456
20
107.561
40
0.300
0
CIRCLE
8
PATTERN
62
8
10
117.581
20
62.773
40
0.300
0
CIRCLE
8
PATTERN
62
8
10
113.002
20
55.022
40
0.300
0
CIRCLE
8
PATTERN
62
8
10
111.887
20
80.924
40
0.300
0
CIRCLE
8
PATTERN
62
8
10
88.333
20
54.004
40
0.300
0
CIRCLE
8
PATTERN
62
8
10
93.835
20
52.554
40
0.300
0
CIRCLE
8
PATTERN
62
8
10
90.723
20
74.529
40
0.300
0
CIRCLE
8
PATTERN
62
8
10
119.481
20
107.862
40
0.300
0
CIRCLE
8
PATTERN
62
8
10
101.364
20
67.653
40
0.300
0
CIRCLE
8
PATTERN
62
8
10
119.958
20
118.212
40
0.300
0
CIRCLE
8
PATTERN
62
8
10
114.431
20
86.936
40
0.300
0
CIRCLE
8
PATTERN
62
8
10
99.768
20
65.720
40
0.300
0
CIRCLE
8
PATTERN
62
8
10
99.759
20
120.227
40
0.300
0
CIRCLE
8
PATTERN
62
8
10
105.030
20
82.623
40
0.300
0
CIRCLE
8
PATTERN
62
8
10
95.997
20
85.045
40
0.300
0
CIRCLE
8
PATTERN
62
8
10
89.202
20
105.895
40
0.300
0
CIRCLE
8
PATTERN
62
8
10
104.544
20
71.348
40
0.300
0
CIRCLE
8
PATTERN
62
8
10
92.142
20
86.150
40
0.300
0
CIRCLE
8
PATTERN
62
8
10
114.378
20
62.982
40
0.300
0
CIRCLE
8
PATTERN
62
8
10
119.805
20
79.811
40
0.300
0
CIRCLE
8
PATTERN
62
8
10
104.624
20
52.540
40
0.300
0
CIRCLE
8
PATTERN
62
8
10
97.149
20
89.203
40
0.300
0
CIRCLE
8
PATTERN
62
8
10
93.651
20
89.468
40
0.300
0
CIRCLE
8
PATTERN
62
8
10
86.298
20
115.117
40
0.300
0
CIRCLE
8
PATTERN
62
8
10
98.690
20
89.077
40
0.300
0
CIRCLE
8
PATTERN
62
8
10
106.221
20
91.064
40
0.300
0
CIRCLE
8
PATTERN
62
8
10
101.299
20
122.141
40
0.300
0
CIRCLE
8
PATTERN
62
8
10
97.980
20
66.592
40
0.300
0
CIRCLE
8
PATTERN
62
8
10
86.239
20
68.544
40
0.300
0
CIRCLE
8
PATTERN
62
8
10
110.005
20
92.710
40
0.300
0
CIRCLE
8
PATTERN
62
8
10
92.909
20
61.421
40
0.300
0
CIRCLE
8
PATTERN
62
8
10
96.672
20
105.947
40
0.300
0
CIRCLE
8
PATTERN
62
8
10
92.799
20
70.952
40
0.300
0
CIRCLE
8
PATTERN
62
8
10
99.803
20
91.838
40
0.300
0
CIRCLE
8
PATTERN
62
8
10
116.592
20
113.135
40
0.300
0
CIRCLE
8
PATTERN
62
8
10
86.119
20
66.648
40
0.300
0
CIRCLE
8
PATTERN
62
8
10
114.228
20
81.278
40
0.300
0
CIRCLE
8
PATTERN
62
8
10
100.168
20
89.271
40
0.300
0
CIRCLE
8
PATTERN
62
8
10
110.043
20
115.059
40
0.300
0
CIRCLE
8
PATTERN
62
8
10
116.864
20
53.841
40
0.300
0
CIRCLE
8
PATTERN
62
8
10
114.294
20
105.540
40
0.300
0
CIRCLE
8
PATTERN
62
8
10
115.294
20
122.255
40
0.300
0
CIRCLE
8
PATTERN
62
8
10
91.489
20
71.946
40
0.300
0
CIRCLE
8
PATTERN
62
8
10
111.110
20
106.038
40
0.300
0
CIRCLE
8
PATTERN
62
8
10
99.123
20
115.482
40
0.300
0
CIRCLE
8
PATTERN
62
8
10
112.154
20
105.718
40
0.300
0
CIRCLE
8
PATTERN
62
8
10
111.715
20
88.759
40
0.300
0
CIRCLE
8
PATTERN
62
8
10
106.255
20
78.157
40
0.300
0
CIRCLE
8
PATTERN
62
8
10
95.829
20
108.276
40
0.300
0
CIRCLE
8
PATTERN
62
8
10
106.076
20
66.778
40
0.300
0
CIRCLE
8
PATTERN
62
8
10
113.642
20
102.118
40
0.300
0
CIRCLE
8
PATTERN
62
8
10
117.513
20
86.234
40
0.300
0
CIRCLE
8
PATTERN
62
8
10
120.049
20
71.593
40
0.300
0
CIRCLE
8
PATTERN
62
8
10
97.117
20
65.998
40
0.300
0
CIRCLE
8
PATTERN
62
8
10
110.182
20
83.006
40
0.300
0
CIRCLE
8
PATTERN
62
8
10
99.842
20
103.861
40
0.300
0
CIRCLE
8
PATTERN
62
8
10
107.552
20
72.411
40
0.300
0
CIRCLE
8
PATTERN
62
8
10
111.943
20
77.975
40
0.300
0
CIRCLE
8
PATTERN
62
8
10
119.816
20
91.722
40
0.300
0
CIRCLE
8
PATTERN
62
8
10
108.521
20
59.961
40
0.300
0
CIRCLE
8
PATTERN
62
8
10
117.528
20
53.026
40
0.300
0
CIRCLE
8
PATTERN
62
8
10
110.661
20
121.466
40
0.300
0
CIRCLE
8
PATTERN
62
8
10
98.939
20
106.645
40
0.300
0
CIRCLE
8
PATTERN
62
8
10
103.488
20
89.247
40
0.300
0
CIRCLE
8
PATTERN
62
8
10
110.270
20
97.246
40
0.300
0
CIRCLE
8
PATTERN
62
8
10
108.702
20
106.652
40
0.300
0
CIRCLE
8
PATTERN
62
8
10
115.780
20
116.095
40
0.300
0
CIRCLE
8
PATTERN
62
8
10
85.457
20
64.520
40
0.300
0
CIRCLE
8
PATTERN
62
8
10
112.505
20
89.159
40
0.300
0
CIRCLE
8
PATTERN
62
8
10
86.028
20
123.313
40
0.300
0
CIRCLE
8
PATTERN
62
8
10
94.398
20
124.125
40
0.300
0
CIRCLE
8
PATTERN
62
8
10
107.004
20
61.908
40
0.300
0
CIRCLE
8
PATTERN
62
8
10
111.367
20
105.439
40
0.300
0
CIRCLE
8
PATTERN
62
8
10
114.575
20
95.383
40
0.300
0
CIRCLE
8
PATTERN
62
8
10
101.520
20
82.978
40
0.300
0
CIRCLE
8
PATTERN
62
8
10
104.509
20
89.129
40
0.300
0
CIRCLE
8
PATTERN
62
8
10
115.315
20
81.548
40
0.300
0
CIRCLE
8
PATTERN
62
8
10
103.053
20
121.001
40
0.300
0
CIRCLE
8
PATTERN
62
8
10
95.363
20
98.789
40
0.300
0
CIRCLE
8
PATTERN
62
8
10
100.840
20
120.725
40
0.300
0
CIRCLE
8
PATTERN
62
8
10
111.357
20
120.629
40
0.300
0
CIRCLE
8
PATTERN
62
8
10
97.943
20
76.452
40
0.300
0
CIRCLE
8
PATTERN
62
8
10
86.010
20
94.654
40
0.300
0
CIRCLE
8
PATTERN
62
8
10
86.020
20
78.297
40
0.300
0
CIRCLE
8
PATTERN
62
8
10
120.571
20
75.376
40
0.300
0
CIRCLE
8
PATTERN
62
8
10
103.954
20
125.038
40
0.300
0
CIRCLE
8
PATTERN
62
8
10
117.601
20
56.686
40
0.300
0
CIRCLE
8
PATTERN
62
8
10
115.739
20
79.219
40
0.300
0
CIRCLE
8
PATTERN
62
8
10
92.820
20
52.119
40
0.300
0
CIRCLE
8
PATTERN
62
8
10
114.102
20
108.807
40
0.300
0
CIRCLE
8
PATTERN
62
8
10
87.671
20
55.261
40
0.300
0
CIRCLE
8
PATTERN
62
8
10
106.774
20
91.855
40
0.300
0
CIRCLE
8
PATTERN
62
8
10
114.136
20
72.110
40
0.300
0
CIRCLE
8
PATTERN
62
8
10
97.223
20
90.546
40
0.300
0
CIRCLE
8
PATTERN
62
8
10
120.581
20
74.203
40
0.300
0
CIRCLE
8
PATTERN
62
8
10
116.281
20
94.131
40
0.300
0
CIRCLE
8
PATTERN
62
8
10
97.366
20
105.560
40
0.300
0
CIRCLE
8
PATTERN
62
8
10
110.095
20
121.033
40
0.300
0
CIRCLE
8
PATTERN
62
8
10
113.939
20
97.714
40
0.300
0
CIRCLE
8
PATTERN
62
8
10
93.958
20
77.558
40
0.300
0
CIRCLE
8
PATTERN
62
8
10
102.662
20
115.859
40
0.300
0
CIRCLE
8
PATTERN
62
8
10
114.112
20
113.848
40
0.300
0
CIRCLE
8
PATTERN
62
8
10
117.180
20
59.598
40
0.300
0
CIRCLE
8
PATTERN
62
8
10
110.059
20
53.514
40
0.300
0
CIRCLE
8
PATTERN
62
8
10
119.950
20
123.272
40
0.300
0
CIRCLE
8
PATTERN
62
8
10
118.481
20
121.672
40
0.300
0
CIRCLE
8
PATTERN
62
8
10
116.903
20
115.967
40
0.300
0
CIRCLE
8
PATTERN
62
8
10
97.186
20
86.448
40
0.300
0
CIRCLE
8
PATTERN
62
8
10
88.087
20
81.720
40
0.300
0
CIRCLE
8
PATTERN
62
8
10
114.375
20
59.020
40
0.300
0
CIRCLE
8
PATTERN
62
8
10
102.062
20
77.292
40
0.300
0
CIRCLE
8
PATTERN
62
8
10
117.562
20
112.423
40
0.300
0
CIRCLE
8
PATTERN
62
8
10
93.369
20
110.641
40
0.300
0
CIRCLE
8
PATTERN
62
8
10
114.382
20
55.504
40
0.300
0
CIRCLE
8
PATTERN
62
8
10
107.761
20
61.672
40
0.300
0
CIRCLE
8
PATTERN
62
8
10
94.504
20
109.585
40
0.300
0
CIRCLE
8
PATTERN
62
8
10
115.420
20
117.897
40
0.300
0
CIRCLE
8
PATTERN
62
8
10
103.110
20
53.523
40
0.300
0
CIRCLE
8
PATTERN
62
8
10
104.858
20
63.553
40
0.300
0
CIRCLE
8
PATTERN
62
8
10
85.322
20
116.320
40
0.300
0
CIRCLE
8
PATTERN
62
8
10
96.534
20
120.669
40
0.300
0
CIRCLE
8
PATTERN
62
8
10
102.780
20
92.542
40
0.300
0
CIRCLE
8
PATTERN
62
8
10
89.165
20
111.503
40
0.300
0
CIRCLE
8
PATTERN
62
8
10
115.314
20
108.053
40
0.300
0
CIRCLE
8
PATTERN
62
8
10
96.969
20
63.653
40
0.300
0
CIRCLE
8
PATTERN
62
8
10
107.452
20
125.756
40
0.300
0
CIRCLE
8
PATTERN
62
8
10
107.399
20
92.024
40
0.300
0
CIRCLE
8
PATTERN
62
8
10
104.438
20
104.867
40
0.300
0
CIRCLE
8
PATTERN
62
8
10
89.407
20
69.957
40
0.300
0
CIRCLE
8
PATTERN
62
8
10
92.120
20
93.451
40
0.300
0
CIRCLE
8
PATTERN
62
8
10
113.106
20
73.856
40
0.300
0
CIRCLE
8
PATTERN
62
8
10
95.412
20
99.066
40
0.300
0
CIRCLE
8
PATTERN
62
8
10
102.466
20
109.598
40
0.300
0
CIRCLE
8
PATTERN
62
8
10
116.613
20
116.010
40
0.300
0
CIRCLE
8
PATTERN
62
8
10
107.458
20
88.390
40
0.300
0
CIRCLE
8
PATTERN
62
8
10
109.722
20
115.406
40
0.300
0
CIRCLE
8
PATTERN
62
8
10
93.571
20
115.887
40
0.300
0
CIRCLE
8
PATTERN
62
8
10
116.517
20
109.323
40
0.300
0
CIRCLE
8
PATTERN
62
8
10
114.174
20
79.383
40
0.300
0
CIRCLE
8
PATTERN
62
8
10
107.348
20
115.908
40
0.300
0
CIRCLE
8
PATTERN
62
8
10
114.706
20
96.434
40
0.300
0
CIRCLE
8
PATTERN
62
8
10
114.231
20
117.320
40
0.300
0
CIRCLE
8
PATTERN
62
8
10
109.582
20
89.912
40
0.300
0
CIRCLE
8
PATTERN
62
8
10
109.378
20
122.697
40
0.300
0
CIRCLE
8
PATTERN
62
8
10
96.001
20
120.381
40
0.300
0
CIRCLE
8
PATTERN
62
8
10
112.334
20
107.431
40
0.300
0
CIRCLE
8
PATTERN
62
8
10
107.940
20
84.419
40
0.300
0
CIRCLE
8
PATTERN
62
8
10
100.604
20
62.270
40
0.300
0
CIRCLE
8
PATTERN
62
8
10
106.963
20
59.860
40
0.300
0
CIRCLE
8
PATTERN
62
8
10
103.244
20
109.264
40
0.300
0
CIRCLE
8
PATTERN
62
8
10
94.376
20
110.260
40
0.300
0
CIRCLE
8
PATTERN
62
8
10
118.737
20
68.108
40
0.300
0
CIRCLE
8
PATTERN
62
8
10
102.896
20
111.935
40
0.300
0
CIRCLE
8
PATTERN
62
8
10
91.446
20
69.295
40
0.300
0
CIRCLE
8
PATTERN
62
8
10
92.245
20
70.197
40
0.300
0
CIRCLE
8
PATTERN
62
8
10
104.818
20
93.010
40
0.300
0
CIRCLE
8
PATTERN
62
8
10
120.103
20
66.937
40
0.300
0
CIRCLE
8
PATTERN
62
8
10
114.251
20
101.315
40
0.300
0
CIRCLE
8
PATTERN
62
8
10
90.204
20
104.511
40
0.300
0
CIRCLE
8
PATTERN
62
8
10
108.514
20
54.126
40
0.300
0
CIRCLE
8
PATTERN
62
8
10
117.631
20
122.106
40
0.300
0
CIRCLE
8
PATTERN
62
8
10
104.207
20
54.226
40
0.300
0
CIRCLE
8
PATTERN
62
8
10
100.443
20
81.698
40
0.300
0
CIRCLE
8
PATTERN
62
8
10
119.504
20
119.577
40
0.300
0
CIRCLE
8
PATTERN
62
8
10
110.178
20
121.020
40
0.300
0
CIRCLE
8
PATTERN
62
8
10
97.215
20
64.470
40
0.300
0
CIRCLE
8
PATTERN
62
8
10
96.857
20
118.426
40
0.300
0
CIRCLE
8
PATTERN
62
8
10
112.251
20
102.369
40
0.300
0
CIRCLE
8
PATTERN
62
8
10
113.233
20
125.845
40
0.300
0
CIRCLE
8
PATTERN
62
8
10
108.240
20
62.279
40
0.300
0
CIRCLE
8
PATTERN
62
8
10
85.835
20
67.163
40
0.300
0
CIRCLE
8
PATTERN
62
8
10
87.538
20
119.059
40
0.300
0
CIRCLE
8
PATTERN
62
8
10
97.739
20
70.241
40
0.300
0
CIRCLE
8
PATTERN
62
8
10
106.145
20
118.823
40
0.300
0
CIRCLE
8
PATTERN
62
8
10
114.797
20
105.906
40
0.300
0
CIRCLE
8
PATTERN
62
8
10
100.455
20
55.925
40
0.300
0
CIRCLE
8
PATTERN
62
8
10
93.247
20
122.783
40
0.300
0
CIRCLE
8
PATTERN
62
8
10
98.012
20
68.003
40
0.300
0
CIRCLE
8
PATTERN
62
8
10
112.146
20
85.624
40
0.300
0
CIRCLE
8
PATTERN
62
8
10
115.393
20
73.875
40
0.300
0
CIRCLE
8
PATTERN
62
8
10
108.051
20
102.478
40
0.300
0
CIRCLE
8
PATTERN
62
8
10
103.579
20
70.445
40
0.300
0
CIRCLE
8
PATTERN
62
8
10
113.526
20
75.367
40
0.300
0
CIRCLE
8
PATTERN
62
8
10
88.161
20
54.425
40
0.300
0
CIRCLE
8
PATTERN
62
8
10
105.994
20
87.208
40
0.300
0
CIRCLE
8
PATTERN
62
8
10
89.958
20
102.434
40
0.300
0
CIRCLE
8
PATTERN
62
8
10
108.639
20
121.546
40
0.300
0
CIRCLE
8
PATTERN
62
8
10
96.841
20
67.618
40
0.300
0
CIRCLE
8
PATTERN
62
8
10
91.724
20
60.416
40
0.300
0
CIRCLE
8
PATTERN
62
8
10
107.501
20
83.838
40
0.300
0
CIRCLE
8
PATTERN
62
8
10
113.015
20
81.875
40
0.300
0
CIRCLE
8
PATTERN
62
8
10
97.828
20
55.301
40
0.300
0
CIRCLE
8
PATTERN
62
8
10
99.874
20
65.770
40
0.300
0
CIRCLE
8
PATTERN
62
8
10
90.369
20
93.334
40
0.300
0
CIRCLE
8
PATTERN
62
8
10
109.553
20
85.827
40
0.300
0
CIRCLE
8
PATTERN
62
8
10
106.254
20
78.074
40
0.300
0
CIRCLE
8
PATTERN
62
8
10
114.556
20
109.192
40
0.300
0
CIRCLE
8
PATTERN
62
8
10
106.042
20
105.846
40
0.300
0
CIRCLE
8
PATTERN
62
8
10
104.395
20
123.256
40
0.300
0
CIRCLE
8
PATTERN
62
8
10
115.122
20
68.586
40
0.300
0
CIRCLE
8
PATTERN
62
8
10
86.922
20
123.554
40
0.300
0
CIRCLE
8
PATTERN
62
8
10
88.505
20
61.095
40
0.300
0
CIRCLE
8
PATTERN
62
8
10
86.047
20
84.177
40
0.300
0
CIRCLE
8
PATTERN
62
8
10
97.098
20
58.788
40
0.300
0
CIRCLE
8
PATTERN
62
8
10
100.196
20
109.727
40
0.300
0
CIRCLE
8
PATTERN
62
8
10
120.247
20
68.439
40
0.300
0
CIRCLE
8
PATTERN
62
8
10
97.211
20
103.380
40
0.300
0
CIRCLE
8
PATTERN
62
8
10
104.081
20
81.929
40
0.300
0
CIRCLE
8
PATTERN
62
8
10
119.431
20
66.063
40
0.300
0
CIRCLE
8
PATTERN
62
8
10
96.014
20
62.512
40
0.300
0
CIRCLE
8
PATTERN
62
8
10
102.055
20
109.617
40
0.300
0
CIRCLE
8
PATTERN
62
8
10
106.243
20
123.645
40
0.300
0
CIRCLE
8
PATTERN
62
8
10
97.402
20
123.919
40
0.300
0
CIRCLE
8
PATTERN
62
8
10
116.156
20
75.608
40
0.300
0
CIRCLE
8
PATTERN
62
8
10
92.506
20
70.026
40
0.300
0
CIRCLE
8
PATTERN
62
8
10
98.138
20
79.838
40
0.300
0
CIRCLE
8
PATTERN
62
8
10
107.752
20
56.193
40
0.300
0
CIRCLE
8
PATTERN
62
8
10
98.266
20
57.694
40
0.300
0
CIRCLE
8
PATTERN
62
8
10
91.673
20
67.920
40
0.300
0
CIRCLE
8
PATTERN
62
8
10
112.026
20
93.221
40
0.300
0
CIRCLE
8
PATTERN
62
8
10
107.283
20
99.539
40
0.300
0
CIRCLE
8
PATTERN
62
8
10
96.857
20
123.231
40
0.300
0
CIRCLE
8
PATTERN
62
8
10
116.396
20
119.519
40
0.300
0
CIRCLE
8
PATTERN
62
8
10
98.170
20
78.662
40
0.300
0
CIRCLE
8
PATTERN
62
8
10
114.460
20
70.491
40
0.300
0
CIRCLE
8
PATTERN
62
8
10
96.892
20
78.897
40
0.300
0
CIRCLE
8
PATTERN
62
8
10
113.400
20
93.423
40
0.300
0
CIRCLE
8
PATTERN
62
8
10
99.555
20
102.856
40
0.300
0
CIRCLE
8
PATTERN
62
8
10
112.236
20
62.490
40
0.300
0
CIRCLE
8
PATTERN
62
8
10
92.006
20
101.792
40
0.300
0
CIRCLE
8
PATTERN
62
8
10
96.596
20
57.804
40
0.300
0
CIRCLE
8
PATTERN
62
8
10
120.134
20
77.127
40
0.300
0
CIRCLE
8
PATTERN
62
8
10
111.159
20
56.123
40
0.300
0
CIRCLE
8
PATTERN
62
8
10
98.407
20
108.761
40
0.300
0
CIRCLE
8
PATTERN
62
8
10
108.327
20
86.860
40
0.300
0
CIRCLE
8
PATTERN
62
8
10
114.003
20
86.484
40
0.300
0
CIRCLE
8
PATTERN
62
8
10
105.904
20
65.201
40
0.300
0
CIRCLE
8
PATTERN
62
8
10
112.108
20
74.961
40
0.300
0
CIRCLE
8
PATTERN
62
8
10
111.991
20
110.416
40
0.300
0
CIRCLE
8
PATTERN
62
8
10
115.450
20
53.376
40
0.300
0
CIRCLE
8
PATTERN
62
8
10
89.233
20
113.139
40
0.300
0
CIRCLE
8
PATTERN
62
8
10
94.759
20
104.343
40
0.300
0
CIRCLE
8
PATTERN
62
8
10
105.597
20
122.515
40
0.300
0
CIRCLE
8
PATTERN
62
8
10
110.555
20
108.047
40
0.300
0
CIRCLE
8
PATTERN
62
8
10
88.819
20
114.489
40
0.300
0
CIRCLE
8
PATTERN
62
8
10
110.574
20
93.166
40
0.300
0
CIRCLE
8
PATTERN
62
8
10
104.571
20
93.562
40
0.300
0
CIRCLE
8
PATTERN
62
8
10
115.748
20
91.265
40
0.300
0
CIRCLE
8
PATTERN
62
8
10
96.381
20
72.202
40
0.300
0
CIRCLE
8
PATTERN
62
8
10
94.386
20
94.708
40
0.300
0
CIRCLE
8
PATTERN
62
8
10
107.229
20
92.380
40
0.300
0
CIRCLE
8
PATTERN
62
8
10
102.483
20
70.646
40
0.300
0
CIRCLE
8
PATTERN
62
8
10
116.152
20
69.529
40
0.300
0
CIRCLE
8
PATTERN
62
8
10
113.159
20
100.137
40
0.300
0
CIRCLE
8
PATTERN
62
8
10
94.326
20
120.030
40
0.300
0
CIRCLE
8
PATTERN
62
8
10
117.876
20
59.316
40
0.300
0
CIRCLE
8
PATTERN
62
8
10
99.697
20
122.724
40
0.300
0
CIRCLE
8
PATTERN
62
8
10
87.313
20
67.867
40
0.300
0
CIRCLE
8
PATTERN
62
8
10
93.197
20
124.222
40
0.300
0
CIRCLE
8
PATTERN
62
8
10
110.935
20
99.202
40
0.300
0
CIRCLE
8
PATTERN
62
8
10
113.024
20
55.072
40
0.300
0
CIRCLE
8
PATTERN
62
8
10
118.121
20
113.875
40
0.300
0
CIRCLE
8
PATTERN
62
8
10
88.921
20
70.182
40
0.300
0
CIRCLE
8
PATTERN
62
8
10
96.966
20
107.858
40
0.300
0
CIRCLE
8
PATTERN
62
8
10
116.151
20
105.977
40
0.300
0
CIRCLE
8
PATTERN
62
8
10
111.924
20
62.698
40
0.300
0
CIRCLE
8
PATTERN
62
8
10
112.162
20
66.992
40
0.300
0
CIRCLE
8
PATTERN
62
8
10
90.342
20
77.758
40
0.300
0
CIRCLE
8
PATTERN
62
8
10
106.902
20
96.535
40
0.300
0
CIRCLE
8
PATTERN
62
8
10
106.695
20
98.736
40
0.300
0
CIRCLE
8
PATTERN
62
8
10
103.867
20
82.529
40
0.300
0
CIRCLE
8
PATTERN
62
8
10
89.389
20
85.478
40
0.300
0
CIRCLE
8
PATTERN
62
8
10
99.376
20
106.033
40
0.300
0
CIRCLE
8
PATTERN
62
8
10
116.845
20
58.150
40
0.300
0
CIRCLE
8
PATTERN
62
8
10
100.323
20
58.406
40
0.300
0
CIRCLE
8
PATTERN
62
8
10
91.527
20
63.277
40
0.300
0
TEXT
8
TEXT
62
7
10
48.000
20
89.129
40
2.200
1
Rift Basin Fill
0
TEXT
8
TEXT
62
7
10
66.000
20
89.129
40
2.200
1
K?r
0
TEXT
8
TEXT
62
7
10
147.000
20
89.129
40
2.200
1
210.0
0
TEXT
8
TEXT
62
7
10
157.000
20
89.129
40
2.000
1
Variegated conglomerate and coarse sandstone ? syn-rift deposits
0
LINE
8
GRID
62
8
10
8.000
20
127.229
11
205.000
21
127.229
0
POLYLINE
8
LITHOLOGY
62
1
66
1
70
1
0
VERTEX
8
LITHOLOGY
10
84.300
20
22.000
0
VERTEX
8
LITHOLOGY
10
121.800
20
22.000
0
VERTEX
8
LITHOLOGY
10
121.800
20
51.029
0
VERTEX
8
LITHOLOGY
10
84.300
20
51.029
0
SEQEND
0
TEXT
8
TEXT
62
7
10
48.000
20
36.514
40
2.200
1
Crystalline Basement
0
TEXT
8
TEXT
62
7
10
66.000
20
36.514
40
2.200
1
Pt
0
TEXT
8
TEXT
62
7
10
147.000
20
36.514
40
2.200
1
80.0
0
TEXT
8
TEXT
62
7
10
157.000
20
36.514
40
2.000
1
Granite-gneiss basement complex
0
LINE
8
GRID
62
8
10
8.000
20
51.029
11
205.000
21
51.029
0
TEXT
8
FOOTER
62
8
10
8.000
20
17.000
40
2.000
1
S?o Lu?s?Graja? Basin ? Aptian Stratigraphy | 700m | 6 layers | Scale 1:2,755
0
TEXT
8
FOOTER
62
9
10
8.000
20
14.000
40
1.600
1
CorelDRAWer-Skill (github.com/Reasonite-lab/CorelDRAWer-Skill)
0
ENDSEC
0
EOF