0
SECTION
2
ENTITIES
0
TEXT
8
TITLE
62
7
10
106.500
20
302.000
40
4.500
1
Nantuo-Doushantuo Transition ? Snowball Earth Cap Carbonate
0
POLYLINE
8
HEADER
62
8
66
1
70
1
0
VERTEX
8
HEADER
10
8.000
20
276.000
0
VERTEX
8
HEADER
10
205.000
20
276.000
0
VERTEX
8
HEADER
10
205.000
20
290.000
0
VERTEX
8
HEADER
10
8.000
20
290.000
0
SEQEND
0
TEXT
8
HEADER
62
7
10
14.500
20
283.000
40
2.800
1
Era
0
TEXT
8
HEADER
62
7
10
27.500
20
283.000
40
2.800
1
Sys
0
TEXT
8
HEADER
62
7
10
40.500
20
283.000
40
2.800
1
Ser
0
TEXT
8
HEADER
62
7
10
56.000
20
283.000
40
2.800
1
Fm
0
TEXT
8
HEADER
62
7
10
71.000
20
283.000
40
2.800
1
Sym
0
TEXT
8
HEADER
62
7
10
80.500
20
283.000
40
2.800
1
Fossils
0
TEXT
8
HEADER
62
7
10
104.000
20
283.000
40
2.800
1
Lithology
0
TEXT
8
HEADER
62
7
10
131.500
20
283.000
40
2.800
1
Grain
0
TEXT
8
HEADER
62
7
10
142.500
20
283.000
40
2.800
1
Struc
0
TEXT
8
HEADER
62
7
10
151.000
20
283.000
40
2.800
1
Thick(m)
0
TEXT
8
HEADER
62
7
10
188.500
20
283.000
40
2.800
1
Description
0
LINE
8
GRID
62
8
10
21.000
20
22.000
11
21.000
21
290.000
0
LINE
8
GRID
62
8
10
34.000
20
22.000
11
34.000
21
290.000
0
LINE
8
GRID
62
8
10
47.000
20
22.000
11
47.000
21
290.000
0
LINE
8
GRID
62
8
10
65.000
20
22.000
11
65.000
21
290.000
0
LINE
8
GRID
62
8
10
77.000
20
22.000
11
77.000
21
290.000
0
LINE
8
GRID
62
8
10
84.000
20
22.000
11
84.000
21
290.000
0
LINE
8
GRID
62
8
10
124.000
20
22.000
11
124.000
21
290.000
0
LINE
8
GRID
62
8
10
139.000
20
22.000
11
139.000
21
290.000
0
LINE
8
GRID
62
8
10
146.000
20
22.000
11
146.000
21
290.000
0
LINE
8
GRID
62
8
10
156.000
20
22.000
11
156.000
21
290.000
0
LINE
8
BORDER
62
7
10
8.000
20
22.000
11
8.000
21
290.000
0
LINE
8
BORDER
62
7
10
205.000
20
22.000
11
205.000
21
290.000
0
LINE
8
BORDER
62
7
10
8.000
20
290.000
11
205.000
21
290.000
0
LINE
8
BORDER
62
7
10
8.000
20
22.000
11
205.000
21
22.000
0
POLYLINE
8
LITHOLOGY
62
4
66
1
70
1
0
VERTEX
8
LITHOLOGY
10
84.300
20
258.534
0
VERTEX
8
LITHOLOGY
10
121.800
20
258.534
0
VERTEX
8
LITHOLOGY
10
121.800
20
276.000
0
VERTEX
8
LITHOLOGY
10
84.300
20
276.000
0
SEQEND
0
TEXT
8
TEXT
62
7
10
48.000
20
267.267
40
2.200
1
Yanjiahe Fm
0
TEXT
8
TEXT
62
7
10
66.000
20
267.267
40
2.200
1
??y
0
TEXT
8
TEXT
62
7
10
147.000
20
267.267
40
2.200
1
35.0
0
TEXT
8
TEXT
62
7
10
157.000
20
267.267
40
2.000
1
Siliceous shale with SSF
0
LINE
8
GRID
62
8
10
8.000
20
276.000
11
205.000
21
276.000
0
POLYLINE
8
LITHOLOGY
62
9
66
1
70
1
0
VERTEX
8
LITHOLOGY
10
84.300
20
118.809
0
VERTEX
8
LITHOLOGY
10
121.800
20
118.809
0
VERTEX
8
LITHOLOGY
10
121.800
20
258.534
0
VERTEX
8
LITHOLOGY
10
84.300
20
258.534
0
SEQEND
0
TEXT
8
TEXT
62
7
10
48.000
20
188.672
40
2.200
1
Dengying Fm
0
TEXT
8
TEXT
62
7
10
66.000
20
188.672
40
2.200
1
Z?dy
0
TEXT
8
TEXT
62
7
10
147.000
20
188.672
40
2.200
1
280.0
0
TEXT
8
TEXT
62
7
10
157.000
20
188.672
40
2.000
1
Thick-bedded peritidal dolomite
0
LINE
8
GRID
62
8
10
8.000
20
258.534
11
205.000
21
258.534
0
POLYLINE
8
LITHOLOGY
62
4
66
1
70
1
0
VERTEX
8
LITHOLOGY
10
84.300
20
83.878
0
VERTEX
8
LITHOLOGY
10
121.800
20
83.878
0
VERTEX
8
LITHOLOGY
10
121.800
20
118.809
0
VERTEX
8
LITHOLOGY
10
84.300
20
118.809
0
SEQEND
0
TEXT
8
TEXT
62
7
10
48.000
20
101.344
40
2.200
1
Doushantuo Fm
0
TEXT
8
TEXT
62
7
10
66.000
20
101.344
40
2.200
1
Z?d
0
TEXT
8
TEXT
62
7
10
147.000
20
101.344
40
2.200
1
70.0
0
TEXT
8
TEXT
62
7
10
157.000
20
101.344
40
2.000
1
Black shale with large acanthomorphic acritarchs
0
LINE
8
GRID
62
8
10
8.000
20
118.809
11
205.000
21
118.809
0
POLYLINE
8
LITHOLOGY
62
8
66
1
70
1
0
VERTEX
8
LITHOLOGY
10
84.300
20
71.403
0
VERTEX
8
LITHOLOGY
10
121.800
20
71.403
0
VERTEX
8
LITHOLOGY
10
121.800
20
83.878
0
VERTEX
8
LITHOLOGY
10
84.300
20
83.878
0
SEQEND
0
TEXT
8
TEXT
62
7
10
48.000
20
77.640
40
2.200
1
Doushantuo Fm
0
TEXT
8
TEXT
62
7
10
66.000
20
77.640
40
2.200
1
Z?d
0
TEXT
8
TEXT
62
7
10
147.000
20
77.640
40
2.200
1
25.0
0
TEXT
8
TEXT
62
7
10
157.000
20
77.640
40
2.000
1
Grey dolomitic limestone (upper cap)
0
LINE
8
GRID
62
8
10
8.000
20
83.878
11
205.000
21
83.878
0
POLYLINE
8
LITHOLOGY
62
2
66
1
70
1
0
VERTEX
8
LITHOLOGY
10
84.300
20
67.411
0
VERTEX
8
LITHOLOGY
10
121.800
20
67.411
0
VERTEX
8
LITHOLOGY
10
121.800
20
71.403
0
VERTEX
8
LITHOLOGY
10
84.300
20
71.403
0
SEQEND
0
TEXT
8
TEXT
62
7
10
48.000
20
69.407
40
2.200
1
Doushantuo Fm
0
TEXT
8
TEXT
62
7
10
66.000
20
69.407
40
2.200
1
Z?d
0
TEXT
8
TEXT
62
7
10
147.000
20
69.407
40
2.200
1
8.0
0
TEXT
8
TEXT
62
7
10
157.000
20
69.407
40
2.000
1
Pink crystalline dolomite (middle cap)
0
LINE
8
GRID
62
8
10
8.000
20
71.403
11
205.000
21
71.403
0
POLYLINE
8
LITHOLOGY
62
8
66
1
70
1
0
VERTEX
8
LITHOLOGY
10
84.300
20
63.911
0
VERTEX
8
LITHOLOGY
10
121.800
20
63.911
0
VERTEX
8
LITHOLOGY
10
121.800
20
67.411
0
VERTEX
8
LITHOLOGY
10
84.300
20
67.411
0
SEQEND
0
TEXT
8
TEXT
62
7
10
48.000
20
65.661
40
2.200
1
Doushantuo Fm
0
TEXT
8
TEXT
62
7
10
66.000
20
65.661
40
2.200
1
Z?d
0
TEXT
8
TEXT
62
7
10
147.000
20
65.661
40
2.200
1
6.0
0
TEXT
8
TEXT
62
7
10
157.000
20
65.661
40
2.000
1
Pale grey microcrystalline dolomite with tepee structures (lower cap)
0
LINE
8
GRID
62
8
10
8.000
20
67.411
11
205.000
21
67.411
0
POLYLINE
8
LITHOLOGY
62
3
66
1
70
1
0
VERTEX
8
LITHOLOGY
10
84.300
20
36.465
0
VERTEX
8
LITHOLOGY
10
121.800
20
36.465
0
VERTEX
8
LITHOLOGY
10
121.800
20
63.911
0
VERTEX
8
LITHOLOGY
10
84.300
20
63.911
0
SEQEND
0
CIRCLE
8
PATTERN
62
8
10
118.690
20
46.218
40
0.300
0
CIRCLE
8
PATTERN
62
8
10
100.901
20
61.819
40
0.300
0
CIRCLE
8
PATTERN
62
8
10
118.332
20
47.402
40
0.300
0
CIRCLE
8
PATTERN
62
8
10
101.051
20
60.692
40
0.300
0
CIRCLE
8
PATTERN
62
8
10
109.896
20
51.617
40
0.300
0
CIRCLE
8
PATTERN
62
8
10
85.666
20
56.809
40
0.300
0
CIRCLE
8
PATTERN
62
8
10
107.498
20
46.141
40
0.300
0
CIRCLE
8
PATTERN
62
8
10
91.246
20
37.539
40
0.300
0
CIRCLE
8
PATTERN
62
8
10
91.050
20
40.996
40
0.300
0
CIRCLE
8
PATTERN
62
8
10
99.158
20
55.218
40
0.300
0
CIRCLE
8
PATTERN
62
8
10
114.205
20
40.742
40
0.300
0
CIRCLE
8
PATTERN
62
8
10
118.606
20
48.447
40
0.300
0
CIRCLE
8
PATTERN
62
8
10
109.707
20
51.201
40
0.300
0
CIRCLE
8
PATTERN
62
8
10
114.360
20
44.653
40
0.300
0
CIRCLE
8
PATTERN
62
8
10
106.692
20
40.240
40
0.300
0
CIRCLE
8
PATTERN
62
8
10
107.976
20
47.693
40
0.300
0
CIRCLE
8
PATTERN
62
8
10
108.534
20
52.338
40
0.300
0
CIRCLE
8
PATTERN
62
8
10
105.817
20
60.316
40
0.300
0
CIRCLE
8
PATTERN
62
8
10
119.438
20
43.442
40
0.300
0
CIRCLE
8
PATTERN
62
8
10
89.934
20
62.261
40
0.300
0
CIRCLE
8
PATTERN
62
8
10
102.803
20
57.116
40
0.300
0
CIRCLE
8
PATTERN
62
8
10
98.357
20
52.531
40
0.300
0
CIRCLE
8
PATTERN
62
8
10
116.829
20
37.776
40
0.300
0
CIRCLE
8
PATTERN
62
8
10
92.872
20
53.380
40
0.300
0
CIRCLE
8
PATTERN
62
8
10
104.370
20
59.159
40
0.300
0
CIRCLE
8
PATTERN
62
8
10
104.975
20
44.844
40
0.300
0
CIRCLE
8
PATTERN
62
8
10
97.261
20
56.131
40
0.300
0
CIRCLE
8
PATTERN
62
8
10
91.363
20
53.124
40
0.300
0
CIRCLE
8
PATTERN
62
8
10
100.847
20
41.339
40
0.300
0
CIRCLE
8
PATTERN
62
8
10
108.529
20
40.416
40
0.300
0
CIRCLE
8
PATTERN
62
8
10
116.812
20
62.414
40
0.300
0
CIRCLE
8
PATTERN
62
8
10
105.309
20
51.219
40
0.300
0
CIRCLE
8
PATTERN
62
8
10
91.664
20
51.730
40
0.300
0
CIRCLE
8
PATTERN
62
8
10
93.638
20
54.597
40
0.300
0
CIRCLE
8
PATTERN
62
8
10
96.108
20
38.218
40
0.300
0
CIRCLE
8
PATTERN
62
8
10
113.631
20
53.843
40
0.300
0
CIRCLE
8
PATTERN
62
8
10
103.802
20
61.166
40
0.300
0
CIRCLE
8
PATTERN
62
8
10
115.059
20
40.484
40
0.300
0
CIRCLE
8
PATTERN
62
8
10
91.996
20
56.949
40
0.300
0
CIRCLE
8
PATTERN
62
8
10
111.035
20
62.588
40
0.300
0
CIRCLE
8
PATTERN
62
8
10
110.051
20
44.309
40
0.300
0
CIRCLE
8
PATTERN
62
8
10
115.596
20
48.697
40
0.300
0
CIRCLE
8
PATTERN
62
8
10
88.810
20
38.430
40
0.300
0
CIRCLE
8
PATTERN
62
8
10
110.414
20
50.068
40
0.300
0
CIRCLE
8
PATTERN
62
8
10
111.328
20
54.918
40
0.300
0
CIRCLE
8
PATTERN
62
8
10
90.925
20
61.992
40
0.300
0
CIRCLE
8
PATTERN
62
8
10
107.143
20
47.135
40
0.300
0
CIRCLE
8
PATTERN
62
8
10
96.260
20
54.276
40
0.300
0
CIRCLE
8
PATTERN
62
8
10
96.061
20
47.093
40
0.300
0
CIRCLE
8
PATTERN
62
8
10
105.730
20
49.040
40
0.300
0
CIRCLE
8
PATTERN
62
8
10
87.337
20
49.795
40
0.300
0
CIRCLE
8
PATTERN
62
8
10
103.687
20
51.271
40
0.300
0
CIRCLE
8
PATTERN
62
8
10
99.032
20
57.956
40
0.300
0
CIRCLE
8
PATTERN
62
8
10
91.808
20
56.958
40
0.300
0
CIRCLE
8
PATTERN
62
8
10
103.484
20
62.687
40
0.300
0
CIRCLE
8
PATTERN
62
8
10
88.490
20
58.133
40
0.300
0
CIRCLE
8
PATTERN
62
8
10
110.541
20
43.090
40
0.300
0
CIRCLE
8
PATTERN
62
8
10
101.375
20
60.415
40
0.300
0
CIRCLE
8
PATTERN
62
8
10
110.843
20
48.512
40
0.300
0
CIRCLE
8
PATTERN
62
8
10
104.959
20
54.733
40
0.300
0
CIRCLE
8
PATTERN
62
8
10
110.846
20
50.729
40
0.300
0
CIRCLE
8
PATTERN
62
8
10
112.946
20
61.378
40
0.300
0
CIRCLE
8
PATTERN
62
8
10
110.953
20
43.903
40
0.300
0
CIRCLE
8
PATTERN
62
8
10
119.067
20
42.686
40
0.300
0
CIRCLE
8
PATTERN
62
8
10
99.597
20
37.941
40
0.300
0
CIRCLE
8
PATTERN
62
8
10
115.147
20
52.616
40
0.300
0
CIRCLE
8
PATTERN
62
8
10
103.342
20
61.358
40
0.300
0
CIRCLE
8
PATTERN
62
8
10
118.299
20
48.616
40
0.300
0
CIRCLE
8
PATTERN
62
8
10
119.681
20
39.378
40
0.300
0
CIRCLE
8
PATTERN
62
8
10
104.327
20
44.533
40
0.300
0
CIRCLE
8
PATTERN
62
8
10
97.953
20
44.706
40
0.300
0
CIRCLE
8
PATTERN
62
8
10
117.855
20
37.993
40
0.300
0
CIRCLE
8
PATTERN
62
8
10
97.296
20
60.444
40
0.300
0
CIRCLE
8
PATTERN
62
8
10
111.989
20
37.678
40
0.300
0
CIRCLE
8
PATTERN
62
8
10
100.533
20
53.241
40
0.300
0
CIRCLE
8
PATTERN
62
8
10
119.596
20
54.520
40
0.300
0
CIRCLE
8
PATTERN
62
8
10
114.810
20
58.024
40
0.300
0
CIRCLE
8
PATTERN
62
8
10
110.463
20
41.594
40
0.300
0
CIRCLE
8
PATTERN
62
8
10
106.337
20
56.942
40
0.300
0
CIRCLE
8
PATTERN
62
8
10
89.352
20
58.037
40
0.300
0
CIRCLE
8
PATTERN
62
8
10
86.612
20
44.091
40
0.300
0
CIRCLE
8
PATTERN
62
8
10
100.730
20
58.123
40
0.300
0
CIRCLE
8
PATTERN
62
8
10
112.956
20
52.774
40
0.300
0
CIRCLE
8
PATTERN
62
8
10
116.954
20
41.516
40
0.300
0
CIRCLE
8
PATTERN
62
8
10
114.523
20
55.104
40
0.300
0
CIRCLE
8
PATTERN
62
8
10
95.852
20
47.720
40
0.300
0
CIRCLE
8
PATTERN
62
8
10
94.370
20
47.943
40
0.300
0
CIRCLE
8
PATTERN
62
8
10
109.222
20
45.021
40
0.300
0
CIRCLE
8
PATTERN
62
8
10
114.580
20
42.136
40
0.300
0
CIRCLE
8
PATTERN
62
8
10
94.011
20
50.608
40
0.300
0
CIRCLE
8
PATTERN
62
8
10
98.519
20
47.604
40
0.300
0
CIRCLE
8
PATTERN
62
8
10
102.695
20
58.693
40
0.300
0
CIRCLE
8
PATTERN
62
8
10
111.490
20
52.551
40
0.300
0
CIRCLE
8
PATTERN
62
8
10
86.369
20
45.317
40
0.300
0
CIRCLE
8
PATTERN
62
8
10
105.807
20
42.125
40
0.300
0
CIRCLE
8
PATTERN
62
8
10
86.352
20
60.465
40
0.300
0
CIRCLE
8
PATTERN
62
8
10
106.650
20
46.777
40
0.300
0
CIRCLE
8
PATTERN
62
8
10
90.531
20
58.379
40
0.300
0
CIRCLE
8
PATTERN
62
8
10
100.180
20
46.763
40
0.300
0
CIRCLE
8
PATTERN
62
8
10
105.530
20
44.388
40
0.300
0
CIRCLE
8
PATTERN
62
8
10
109.448
20
58.966
40
0.300
0
CIRCLE
8
PATTERN
62
8
10
119.299
20
52.972
40
0.300
0
CIRCLE
8
PATTERN
62
8
10
101.227
20
56.380
40
0.300
0
CIRCLE
8
PATTERN
62
8
10
116.224
20
38.101
40
0.300
0
CIRCLE
8
PATTERN
62
8
10
114.414
20
47.857
40
0.300
0
CIRCLE
8
PATTERN
62
8
10
97.568
20
41.529
40
0.300
0
CIRCLE
8
PATTERN
62
8
10
102.524
20
58.749
40
0.300
0
CIRCLE
8
PATTERN
62
8
10
110.426
20
58.720
40
0.300
0
CIRCLE
8
PATTERN
62
8
10
97.652
20
57.469
40
0.300
0
CIRCLE
8
PATTERN
62
8
10
118.651
20
48.334
40
0.300
0
CIRCLE
8
PATTERN
62
8
10
102.198
20
61.927
40
0.300
0
CIRCLE
8
PATTERN
62
8
10
111.198
20
41.636
40
0.300
0
CIRCLE
8
PATTERN
62
8
10
86.682
20
61.572
40
0.300
0
CIRCLE
8
PATTERN
62
8
10
99.578
20
45.976
40
0.300
0
CIRCLE
8
PATTERN
62
8
10
115.046
20
42.748
40
0.300
0
CIRCLE
8
PATTERN
62
8
10
96.143
20
60.544
40
0.300
0
CIRCLE
8
PATTERN
62
8
10
117.074
20
57.518
40
0.300
0
CIRCLE
8
PATTERN
62
8
10
110.377
20
55.763
40
0.300
0
CIRCLE
8
PATTERN
62
8
10
106.034
20
59.912
40
0.300
0
CIRCLE
8
PATTERN
62
8
10
107.897
20
59.089
40
0.300
0
CIRCLE
8
PATTERN
62
8
10
96.114
20
54.291
40
0.300
0
CIRCLE
8
PATTERN
62
8
10
100.151
20
43.006
40
0.300
0
CIRCLE
8
PATTERN
62
8
10
120.772
20
38.008
40
0.300
0
CIRCLE
8
PATTERN
62
8
10
117.932
20
50.251
40
0.300
0
CIRCLE
8
PATTERN
62
8
10
89.136
20
47.436
40
0.300
0
CIRCLE
8
PATTERN
62
8
10
102.366
20
47.295
40
0.300
0
CIRCLE
8
PATTERN
62
8
10
99.679
20
56.346
40
0.300
0
CIRCLE
8
PATTERN
62
8
10
112.346
20
56.655
40
0.300
0
TEXT
8
TEXT
62
7
10
48.000
20
50.188
40
2.200
1
Nantuo Fm
0
TEXT
8
TEXT
62
7
10
66.000
20
50.188
40
2.200
1
Nh?n
0
TEXT
8
TEXT
62
7
10
147.000
20
50.188
40
2.200
1
55.0
0
TEXT
8
TEXT
62
7
10
157.000
20
50.188
40
2.000
1
Green-grey massive diamictite with striated clasts
0
LINE
8
GRID
62
8
10
8.000
20
63.911
11
205.000
21
63.911
0
POLYLINE
8
LITHOLOGY
62
3
66
1
70
1
0
VERTEX
8
LITHOLOGY
10
84.300
20
21.494
0
VERTEX
8
LITHOLOGY
10
121.800
20
21.494
0
VERTEX
8
LITHOLOGY
10
121.800
20
36.465
0
VERTEX
8
LITHOLOGY
10
84.300
20
36.465
0
SEQEND
0
CIRCLE
8
PATTERN
62
8
10
91.201
20
24.982
40
0.300
0
CIRCLE
8
PATTERN
62
8
10
110.144
20
33.319
40
0.300
0
CIRCLE
8
PATTERN
62
8
10
107.120
20
26.694
40
0.300
0
CIRCLE
8
PATTERN
62
8
10
85.491
20
33.408
40
0.300
0
CIRCLE
8
PATTERN
62
8
10
88.438
20
24.547
40
0.300
0
CIRCLE
8
PATTERN
62
8
10
93.862
20
26.834
40
0.300
0
CIRCLE
8
PATTERN
62
8
10
114.737
20
26.234
40
0.300
0
CIRCLE
8
PATTERN
62
8
10
107.368
20
30.448
40
0.300
0
CIRCLE
8
PATTERN
62
8
10
96.825
20
26.791
40
0.300
0
CIRCLE
8
PATTERN
62
8
10
99.394
20
23.654
40
0.300
0
CIRCLE
8
PATTERN
62
8
10
103.981
20
23.281
40
0.300
0
CIRCLE
8
PATTERN
62
8
10
104.916
20
33.339
40
0.300
0
CIRCLE
8
PATTERN
62
8
10
116.587
20
29.843
40
0.300
0
CIRCLE
8
PATTERN
62
8
10
100.619
20
28.598
40
0.300
0
CIRCLE
8
PATTERN
62
8
10
106.571
20
33.187
40
0.300
0
CIRCLE
8
PATTERN
62
8
10
91.212
20
33.813
40
0.300
0
CIRCLE
8
PATTERN
62
8
10
116.378
20
27.416
40
0.300
0
CIRCLE
8
PATTERN
62
8
10
109.398
20
27.957
40
0.300
0
CIRCLE
8
PATTERN
62
8
10
110.158
20
33.411
40
0.300
0
CIRCLE
8
PATTERN
62
8
10
96.383
20
27.065
40
0.300
0
CIRCLE
8
PATTERN
62
8
10
105.631
20
30.688
40
0.300
0
CIRCLE
8
PATTERN
62
8
10
108.537
20
28.873
40
0.300
0
CIRCLE
8
PATTERN
62
8
10
91.119
20
30.154
40
0.300
0
CIRCLE
8
PATTERN
62
8
10
108.369
20
24.854
40
0.300
0
CIRCLE
8
PATTERN
62
8
10
90.625
20
34.999
40
0.300
0
CIRCLE
8
PATTERN
62
8
10
114.578
20
28.331
40
0.300
0
CIRCLE
8
PATTERN
62
8
10
85.372
20
23.232
40
0.300
0
CIRCLE
8
PATTERN
62
8
10
114.252
20
34.118
40
0.300
0
CIRCLE
8
PATTERN
62
8
10
94.781
20
31.541
40
0.300
0
CIRCLE
8
PATTERN
62
8
10
106.213
20
29.435
40
0.300
0
CIRCLE
8
PATTERN
62
8
10
119.877
20
31.065
40
0.300
0
CIRCLE
8
PATTERN
62
8
10
108.481
20
31.992
40
0.300
0
CIRCLE
8
PATTERN
62
8
10
112.258
20
25.447
40
0.300
0
CIRCLE
8
PATTERN
62
8
10
98.756
20
25.083
40
0.300
0
CIRCLE
8
PATTERN
62
8
10
118.447
20
32.653
40
0.300
0
CIRCLE
8
PATTERN
62
8
10
108.000
20
22.957
40
0.300
0
CIRCLE
8
PATTERN
62
8
10
114.180
20
27.929
40
0.300
0
CIRCLE
8
PATTERN
62
8
10
107.804
20
30.929
40
0.300
0
CIRCLE
8
PATTERN
62
8
10
87.762
20
34.761
40
0.300
0
CIRCLE
8
PATTERN
62
8
10
98.650
20
24.655
40
0.300
0
CIRCLE
8
PATTERN
62
8
10
98.049
20
27.784
40
0.300
0
CIRCLE
8
PATTERN
62
8
10
91.445
20
22.718
40
0.300
0
CIRCLE
8
PATTERN
62
8
10
99.693
20
31.308
40
0.300
0
CIRCLE
8
PATTERN
62
8
10
116.291
20
22.836
40
0.300
0
CIRCLE
8
PATTERN
62
8
10
115.191
20
26.986
40
0.300
0
CIRCLE
8
PATTERN
62
8
10
109.134
20
24.252
40
0.300
0
CIRCLE
8
PATTERN
62
8
10
95.060
20
27.811
40
0.300
0
CIRCLE
8
PATTERN
62
8
10
110.685
20
34.161
40
0.300
0
CIRCLE
8
PATTERN
62
8
10
98.090
20
33.816
40
0.300
0
CIRCLE
8
PATTERN
62
8
10
104.881
20
30.323
40
0.300
0
CIRCLE
8
PATTERN
62
8
10
102.803
20
33.325
40
0.300
0
CIRCLE
8
PATTERN
62
8
10
120.720
20
25.572
40
0.300
0
CIRCLE
8
PATTERN
62
8
10
112.210
20
33.745
40
0.300
0
CIRCLE
8
PATTERN
62
8
10
115.863
20
25.753
40
0.300
0
CIRCLE
8
PATTERN
62
8
10
104.413
20
25.875
40
0.300
0
CIRCLE
8
PATTERN
62
8
10
92.352
20
23.727
40
0.300
0
CIRCLE
8
PATTERN
62
8
10
103.271
20
23.360
40
0.300
0
CIRCLE
8
PATTERN
62
8
10
101.709
20
25.551
40
0.300
0
CIRCLE
8
PATTERN
62
8
10
99.130
20
24.509
40
0.300
0
CIRCLE
8
PATTERN
62
8
10
101.665
20
33.509
40
0.300
0
CIRCLE
8
PATTERN
62
8
10
106.067
20
32.020
40
0.300
0
CIRCLE
8
PATTERN
62
8
10
113.564
20
31.523
40
0.300
0
CIRCLE
8
PATTERN
62
8
10
86.447
20
29.740
40
0.300
0
CIRCLE
8
PATTERN
62
8
10
107.558
20
32.413
40
0.300
0
CIRCLE
8
PATTERN
62
8
10
87.970
20
32.309
40
0.300
0
CIRCLE
8
PATTERN
62
8
10
103.187
20
31.493
40
0.300
0
CIRCLE
8
PATTERN
62
8
10
102.137
20
34.924
40
0.300
0
CIRCLE
8
PATTERN
62
8
10
108.132
20
27.911
40
0.300
0
CIRCLE
8
PATTERN
62
8
10
88.271
20
34.129
40
0.300
0
CIRCLE
8
PATTERN
62
8
10
100.330
20
28.934
40
0.300
0
TEXT
8
TEXT
62
7
10
48.000
20
28.979
40
2.200
1
Nantuo Fm
0
TEXT
8
TEXT
62
7
10
66.000
20
28.979
40
2.200
1
Nh?n
0
TEXT
8
TEXT
62
7
10
147.000
20
28.979
40
2.200
1
30.0
0
TEXT
8
TEXT
62
7
10
157.000
20
28.979
40
2.000
1
Dark grey sandy diamictite with dropstones
0
LINE
8
GRID
62
8
10
8.000
20
36.465
11
205.000
21
36.465
0
TEXT
8
FOOTER
62
8
10
8.000
20
17.000
40
2.000
1
Nantuo-Doushantuo Transition ? Snowball Earth Cap Carbonate | 509m | 8 layers | Scale 1:2,003
0
TEXT
8
FOOTER
62
9
10
8.000
20
14.000
40
1.600
1
CorelDRAWer-Skill (github.com/Reasonite-lab/CorelDRAWer-Skill)
0
ENDSEC
0
EOF