<?xml version="1.0" encoding="UTF-8"?>
<svg xmlns="http://www.w3.org/2000/svg" xmlns:xlink="http://www.w3.org/1999/xlink" viewBox="0 0 880 500" width="880mm" height="500mm" version="1.1">
  <defs>
    <clipPath id="clip_xsec_0">
      <polygon points="50.0,50.0 373.1,109.6 650.0,161.7 650.0,185.9 373.1,144.9 50.0,81.6"/>
    </clipPath>
    <clipPath id="clip_xsec_1">
      <polygon points="50.0,81.6 373.1,144.9 650.0,185.9 650.0,197.1 373.1,165.4 50.0,96.5"/>
    </clipPath>
    <clipPath id="clip_xsec_2">
      <polygon points="50.0,96.5 373.1,165.4 650.0,197.1 650.0,279.0 373.1,344.1 50.0,226.9"/>
    </clipPath>
    <clipPath id="clip_xsec_3">
      <polygon points="50.0,226.9 373.1,344.1 650.0,279.0 650.0,310.6 373.1,400.0 50.0,271.5"/>
    </clipPath>
  </defs>
  <g id="cdr-background" data-cdr-layer="background">
    <rect x="0" y="0" width="880" height="500" fill="#fff" stroke="none" stroke-width="0"/>
  </g>
  <g id="cdr-title" data-cdr-layer="title">
    <text x="350.0" y="20" font-family="SimHei, Heiti SC, sans-serif" font-size="5" font-weight="bold" text-anchor="middle" fill="#000" data-cdr-type="title">Three Gorges Transect — Ediacaran-Cambrian Cross-Section</text>
    <text x="350.0" y="28" font-family="SimHei, Heiti SC, sans-serif" font-size="3" font-weight="normal" text-anchor="middle" fill="#666" data-cdr-type="orientation">NW → SE (along Yangtze River)</text>
    <text x="350.0" y="35" font-family="SimHei, Heiti SC, sans-serif" font-size="2.5" font-weight="normal" text-anchor="middle" fill="#999" data-cdr-type="ve-note">Vertical exaggeration: 4×</text>
  </g>
  <g id="cdr-body" data-cdr-layer="body">
    <path d="M 50.0,50.0 L 373.0769230769231,109.57446808510639 L 650.0,161.70212765957444" fill="none" stroke="#2e7d32" stroke-width="1.2" data-cdr-type="surface-line"/>
    <path d="M 50.0,50.0 L 373.0769230769231,109.57446808510639 L 650.0,161.70212765957444 L 650.0,20 L 50.0,20 Z" fill="#e8f5e9" stroke="none" data-cdr-type="surface-fill"/>
    <line x1="50.0" y1="50.0" x2="50.0" y2="271.54255319148933" stroke="#333" stroke-width="0.4" data-cdr-type="borehole-line"/>
    <circle cx="50.0" cy="50.0" r="2.5" fill="#c0392b" stroke="#fff" stroke-width="0.5"/>
    <text x="50.0" y="45.0" font-family="SimHei, Heiti SC, sans-serif" font-size="3" font-weight="bold" text-anchor="middle" fill="#c0392b" data-cdr-type="borehole-label">ZK-NW</text>
    <line x1="373.0769230769231" y1="109.57446808510639" x2="373.0769230769231" y2="400.0" stroke="#333" stroke-width="0.4" data-cdr-type="borehole-line"/>
    <circle cx="373.0769230769231" cy="109.57446808510639" r="2.5" fill="#c0392b" stroke="#fff" stroke-width="0.5"/>
    <text x="373.0769230769231" y="104.57446808510639" font-family="SimHei, Heiti SC, sans-serif" font-size="3" font-weight="bold" text-anchor="middle" fill="#c0392b" data-cdr-type="borehole-label">ZK-Center</text>
    <line x1="650.0" y1="161.70212765957444" x2="650.0" y2="310.6382978723404" stroke="#333" stroke-width="0.4" data-cdr-type="borehole-line"/>
    <circle cx="650.0" cy="161.70212765957444" r="2.5" fill="#c0392b" stroke="#fff" stroke-width="0.5"/>
    <text x="650.0" y="156.70212765957444" font-family="SimHei, Heiti SC, sans-serif" font-size="3" font-weight="bold" text-anchor="middle" fill="#c0392b" data-cdr-type="borehole-label">ZK-SE</text>
    <g data-cdr-type="layer-band" data-cdr-name="Shuijingtuo Fm (black shale)" data-cdr-pattern="carbShale">
      <polygon points="50.0,50.0 373.1,109.6 650.0,161.7 650.0,185.9 373.1,144.9 50.0,81.6" fill="#595450" stroke="#444" stroke-width="0.3" data-cdr-type="layer-fill"/>
      <g clip-path="url(#clip_xsec_0)">
        <line x1="50.3" y1="53.78" x2="649.7" y2="53.78" stroke="#eee" stroke-width="0.15"/>
        <line x1="50.3" y1="66.38" x2="649.7" y2="66.38" stroke="#eee" stroke-width="0.15"/>
        <line x1="50.3" y1="78.97999999999999" x2="649.7" y2="78.97999999999999" stroke="#eee" stroke-width="0.15"/>
        <line x1="50.3" y1="91.57999999999998" x2="649.7" y2="91.57999999999998" stroke="#eee" stroke-width="0.15"/>
        <line x1="50.3" y1="104.17999999999998" x2="649.7" y2="104.17999999999998" stroke="#eee" stroke-width="0.15"/>
        <line x1="50.3" y1="116.77999999999997" x2="649.7" y2="116.77999999999997" stroke="#eee" stroke-width="0.15"/>
        <line x1="50.3" y1="129.37999999999997" x2="649.7" y2="129.37999999999997" stroke="#eee" stroke-width="0.15"/>
        <line x1="50.3" y1="141.97999999999996" x2="649.7" y2="141.97999999999996" stroke="#eee" stroke-width="0.15"/>
        <line x1="50.3" y1="154.57999999999996" x2="649.7" y2="154.57999999999996" stroke="#eee" stroke-width="0.15"/>
        <line x1="50.3" y1="167.17999999999995" x2="649.7" y2="167.17999999999995" stroke="#eee" stroke-width="0.15"/>
        <line x1="50.3" y1="179.77999999999994" x2="649.7" y2="179.77999999999994" stroke="#eee" stroke-width="0.15"/>
      </g>
      <text x="357.6923076923077" y="122.29609929078013" font-family="SimHei, Heiti SC, sans-serif" font-size="2.5" font-weight="normal" text-anchor="middle" fill="#222" data-cdr-type="formation-label">Shuijingtuo Fm (black shale)</text>
    </g>
    <g data-cdr-type="layer-band" data-cdr-name="Yanjiahe Fm (siliceous)" data-cdr-pattern="shale">
      <polygon points="50.0,81.6 373.1,144.9 650.0,185.9 650.0,197.1 373.1,165.4 50.0,96.5" fill="#7f7f79" stroke="#444" stroke-width="0.3" data-cdr-type="layer-fill"/>
      <g clip-path="url(#clip_xsec_1)">
        <line x1="50.3" y1="85.42893617021276" x2="649.7" y2="85.42893617021276" stroke="#555" stroke-width="0.2"/>
        <line x1="60.08" y1="81.64893617021276" x2="60.08" y2="89.20893617021277" stroke="#999" stroke-width="0.12"/>
        <line x1="78.97999999999999" y1="81.64893617021276" x2="78.97999999999999" y2="89.20893617021277" stroke="#999" stroke-width="0.12"/>
        <line x1="97.88" y1="81.64893617021276" x2="97.88" y2="89.20893617021277" stroke="#999" stroke-width="0.12"/>
        <line x1="116.78" y1="81.64893617021276" x2="116.78" y2="89.20893617021277" stroke="#999" stroke-width="0.12"/>
        <line x1="135.68" y1="81.64893617021276" x2="135.68" y2="89.20893617021277" stroke="#999" stroke-width="0.12"/>
        <line x1="154.58" y1="81.64893617021276" x2="154.58" y2="89.20893617021277" stroke="#999" stroke-width="0.12"/>
        <line x1="173.48000000000002" y1="81.64893617021276" x2="173.48000000000002" y2="89.20893617021277" stroke="#999" stroke-width="0.12"/>
        <line x1="192.38000000000002" y1="81.64893617021276" x2="192.38000000000002" y2="89.20893617021277" stroke="#999" stroke-width="0.12"/>
        <line x1="211.28000000000003" y1="81.64893617021276" x2="211.28000000000003" y2="89.20893617021277" stroke="#999" stroke-width="0.12"/>
        <line x1="230.18000000000004" y1="81.64893617021276" x2="230.18000000000004" y2="89.20893617021277" stroke="#999" stroke-width="0.12"/>
        <line x1="249.08000000000004" y1="81.64893617021276" x2="249.08000000000004" y2="89.20893617021277" stroke="#999" stroke-width="0.12"/>
        <line x1="267.98" y1="81.64893617021276" x2="267.98" y2="89.20893617021277" stroke="#999" stroke-width="0.12"/>
        <line x1="286.88" y1="81.64893617021276" x2="286.88" y2="89.20893617021277" stroke="#999" stroke-width="0.12"/>
        <line x1="305.78" y1="81.64893617021276" x2="305.78" y2="89.20893617021277" stroke="#999" stroke-width="0.12"/>
        <line x1="324.67999999999995" y1="81.64893617021276" x2="324.67999999999995" y2="89.20893617021277" stroke="#999" stroke-width="0.12"/>
        <line x1="343.5799999999999" y1="81.64893617021276" x2="343.5799999999999" y2="89.20893617021277" stroke="#999" stroke-width="0.12"/>
        <line x1="362.4799999999999" y1="81.64893617021276" x2="362.4799999999999" y2="89.20893617021277" stroke="#999" stroke-width="0.12"/>
        <line x1="381.3799999999999" y1="81.64893617021276" x2="381.3799999999999" y2="89.20893617021277" stroke="#999" stroke-width="0.12"/>
        <line x1="400.27999999999986" y1="81.64893617021276" x2="400.27999999999986" y2="89.20893617021277" stroke="#999" stroke-width="0.12"/>
        <line x1="419.17999999999984" y1="81.64893617021276" x2="419.17999999999984" y2="89.20893617021277" stroke="#999" stroke-width="0.12"/>
        <line x1="438.0799999999998" y1="81.64893617021276" x2="438.0799999999998" y2="89.20893617021277" stroke="#999" stroke-width="0.12"/>
        <line x1="456.9799999999998" y1="81.64893617021276" x2="456.9799999999998" y2="89.20893617021277" stroke="#999" stroke-width="0.12"/>
        <line x1="475.87999999999977" y1="81.64893617021276" x2="475.87999999999977" y2="89.20893617021277" stroke="#999" stroke-width="0.12"/>
        <line x1="494.77999999999975" y1="81.64893617021276" x2="494.77999999999975" y2="89.20893617021277" stroke="#999" stroke-width="0.12"/>
        <line x1="513.6799999999997" y1="81.64893617021276" x2="513.6799999999997" y2="89.20893617021277" stroke="#999" stroke-width="0.12"/>
        <line x1="532.5799999999997" y1="81.64893617021276" x2="532.5799999999997" y2="89.20893617021277" stroke="#999" stroke-width="0.12"/>
        <line x1="551.4799999999997" y1="81.64893617021276" x2="551.4799999999997" y2="89.20893617021277" stroke="#999" stroke-width="0.12"/>
        <line x1="570.3799999999997" y1="81.64893617021276" x2="570.3799999999997" y2="89.20893617021277" stroke="#999" stroke-width="0.12"/>
        <line x1="589.2799999999996" y1="81.64893617021276" x2="589.2799999999996" y2="89.20893617021277" stroke="#999" stroke-width="0.12"/>
        <line x1="608.1799999999996" y1="81.64893617021276" x2="608.1799999999996" y2="89.20893617021277" stroke="#999" stroke-width="0.12"/>
        <line x1="627.0799999999996" y1="81.64893617021276" x2="627.0799999999996" y2="89.20893617021277" stroke="#999" stroke-width="0.12"/>
        <line x1="645.9799999999996" y1="81.64893617021276" x2="645.9799999999996" y2="89.20893617021277" stroke="#999" stroke-width="0.12"/>
        <line x1="50.3" y1="98.02893617021276" x2="649.7" y2="98.02893617021276" stroke="#555" stroke-width="0.2"/>
        <line x1="60.08" y1="94.24893617021276" x2="60.08" y2="101.80893617021276" stroke="#999" stroke-width="0.12"/>
        <line x1="78.97999999999999" y1="94.24893617021276" x2="78.97999999999999" y2="101.80893617021276" stroke="#999" stroke-width="0.12"/>
        <line x1="97.88" y1="94.24893617021276" x2="97.88" y2="101.80893617021276" stroke="#999" stroke-width="0.12"/>
        <line x1="116.78" y1="94.24893617021276" x2="116.78" y2="101.80893617021276" stroke="#999" stroke-width="0.12"/>
        <line x1="135.68" y1="94.24893617021276" x2="135.68" y2="101.80893617021276" stroke="#999" stroke-width="0.12"/>
        <line x1="154.58" y1="94.24893617021276" x2="154.58" y2="101.80893617021276" stroke="#999" stroke-width="0.12"/>
        <line x1="173.48000000000002" y1="94.24893617021276" x2="173.48000000000002" y2="101.80893617021276" stroke="#999" stroke-width="0.12"/>
        <line x1="192.38000000000002" y1="94.24893617021276" x2="192.38000000000002" y2="101.80893617021276" stroke="#999" stroke-width="0.12"/>
        <line x1="211.28000000000003" y1="94.24893617021276" x2="211.28000000000003" y2="101.80893617021276" stroke="#999" stroke-width="0.12"/>
        <line x1="230.18000000000004" y1="94.24893617021276" x2="230.18000000000004" y2="101.80893617021276" stroke="#999" stroke-width="0.12"/>
        <line x1="249.08000000000004" y1="94.24893617021276" x2="249.08000000000004" y2="101.80893617021276" stroke="#999" stroke-width="0.12"/>
        <line x1="267.98" y1="94.24893617021276" x2="267.98" y2="101.80893617021276" stroke="#999" stroke-width="0.12"/>
        <line x1="286.88" y1="94.24893617021276" x2="286.88" y2="101.80893617021276" stroke="#999" stroke-width="0.12"/>
        <line x1="305.78" y1="94.24893617021276" x2="305.78" y2="101.80893617021276" stroke="#999" stroke-width="0.12"/>
        <line x1="324.67999999999995" y1="94.24893617021276" x2="324.67999999999995" y2="101.80893617021276" stroke="#999" stroke-width="0.12"/>
        <line x1="343.5799999999999" y1="94.24893617021276" x2="343.5799999999999" y2="101.80893617021276" stroke="#999" stroke-width="0.12"/>
        <line x1="362.4799999999999" y1="94.24893617021276" x2="362.4799999999999" y2="101.80893617021276" stroke="#999" stroke-width="0.12"/>
        <line x1="381.3799999999999" y1="94.24893617021276" x2="381.3799999999999" y2="101.80893617021276" stroke="#999" stroke-width="0.12"/>
        <line x1="400.27999999999986" y1="94.24893617021276" x2="400.27999999999986" y2="101.80893617021276" stroke="#999" stroke-width="0.12"/>
        <line x1="419.17999999999984" y1="94.24893617021276" x2="419.17999999999984" y2="101.80893617021276" stroke="#999" stroke-width="0.12"/>
        <line x1="438.0799999999998" y1="94.24893617021276" x2="438.0799999999998" y2="101.80893617021276" stroke="#999" stroke-width="0.12"/>
        <line x1="456.9799999999998" y1="94.24893617021276" x2="456.9799999999998" y2="101.80893617021276" stroke="#999" stroke-width="0.12"/>
        <line x1="475.87999999999977" y1="94.24893617021276" x2="475.87999999999977" y2="101.80893617021276" stroke="#999" stroke-width="0.12"/>
        <line x1="494.77999999999975" y1="94.24893617021276" x2="494.77999999999975" y2="101.80893617021276" stroke="#999" stroke-width="0.12"/>
        <line x1="513.6799999999997" y1="94.24893617021276" x2="513.6799999999997" y2="101.80893617021276" stroke="#999" stroke-width="0.12"/>
        <line x1="532.5799999999997" y1="94.24893617021276" x2="532.5799999999997" y2="101.80893617021276" stroke="#999" stroke-width="0.12"/>
        <line x1="551.4799999999997" y1="94.24893617021276" x2="551.4799999999997" y2="101.80893617021276" stroke="#999" stroke-width="0.12"/>
        <line x1="570.3799999999997" y1="94.24893617021276" x2="570.3799999999997" y2="101.80893617021276" stroke="#999" stroke-width="0.12"/>
        <line x1="589.2799999999996" y1="94.24893617021276" x2="589.2799999999996" y2="101.80893617021276" stroke="#999" stroke-width="0.12"/>
        <line x1="608.1799999999996" y1="94.24893617021276" x2="608.1799999999996" y2="101.80893617021276" stroke="#999" stroke-width="0.12"/>
        <line x1="627.0799999999996" y1="94.24893617021276" x2="627.0799999999996" y2="101.80893617021276" stroke="#999" stroke-width="0.12"/>
        <line x1="645.9799999999996" y1="94.24893617021276" x2="645.9799999999996" y2="101.80893617021276" stroke="#999" stroke-width="0.12"/>
        <line x1="50.3" y1="110.62893617021275" x2="649.7" y2="110.62893617021275" stroke="#555" stroke-width="0.2"/>
        <line x1="50.3" y1="123.22893617021275" x2="649.7" y2="123.22893617021275" stroke="#555" stroke-width="0.2"/>
        <line x1="60.08" y1="119.44893617021275" x2="60.08" y2="127.00893617021275" stroke="#999" stroke-width="0.12"/>
        <line x1="78.97999999999999" y1="119.44893617021275" x2="78.97999999999999" y2="127.00893617021275" stroke="#999" stroke-width="0.12"/>
        <line x1="97.88" y1="119.44893617021275" x2="97.88" y2="127.00893617021275" stroke="#999" stroke-width="0.12"/>
        <line x1="116.78" y1="119.44893617021275" x2="116.78" y2="127.00893617021275" stroke="#999" stroke-width="0.12"/>
        <line x1="135.68" y1="119.44893617021275" x2="135.68" y2="127.00893617021275" stroke="#999" stroke-width="0.12"/>
        <line x1="154.58" y1="119.44893617021275" x2="154.58" y2="127.00893617021275" stroke="#999" stroke-width="0.12"/>
        <line x1="173.48000000000002" y1="119.44893617021275" x2="173.48000000000002" y2="127.00893617021275" stroke="#999" stroke-width="0.12"/>
        <line x1="192.38000000000002" y1="119.44893617021275" x2="192.38000000000002" y2="127.00893617021275" stroke="#999" stroke-width="0.12"/>
        <line x1="211.28000000000003" y1="119.44893617021275" x2="211.28000000000003" y2="127.00893617021275" stroke="#999" stroke-width="0.12"/>
        <line x1="230.18000000000004" y1="119.44893617021275" x2="230.18000000000004" y2="127.00893617021275" stroke="#999" stroke-width="0.12"/>
        <line x1="249.08000000000004" y1="119.44893617021275" x2="249.08000000000004" y2="127.00893617021275" stroke="#999" stroke-width="0.12"/>
        <line x1="267.98" y1="119.44893617021275" x2="267.98" y2="127.00893617021275" stroke="#999" stroke-width="0.12"/>
        <line x1="286.88" y1="119.44893617021275" x2="286.88" y2="127.00893617021275" stroke="#999" stroke-width="0.12"/>
        <line x1="305.78" y1="119.44893617021275" x2="305.78" y2="127.00893617021275" stroke="#999" stroke-width="0.12"/>
        <line x1="324.67999999999995" y1="119.44893617021275" x2="324.67999999999995" y2="127.00893617021275" stroke="#999" stroke-width="0.12"/>
        <line x1="343.5799999999999" y1="119.44893617021275" x2="343.5799999999999" y2="127.00893617021275" stroke="#999" stroke-width="0.12"/>
        <line x1="362.4799999999999" y1="119.44893617021275" x2="362.4799999999999" y2="127.00893617021275" stroke="#999" stroke-width="0.12"/>
        <line x1="381.3799999999999" y1="119.44893617021275" x2="381.3799999999999" y2="127.00893617021275" stroke="#999" stroke-width="0.12"/>
        <line x1="400.27999999999986" y1="119.44893617021275" x2="400.27999999999986" y2="127.00893617021275" stroke="#999" stroke-width="0.12"/>
        <line x1="419.17999999999984" y1="119.44893617021275" x2="419.17999999999984" y2="127.00893617021275" stroke="#999" stroke-width="0.12"/>
        <line x1="438.0799999999998" y1="119.44893617021275" x2="438.0799999999998" y2="127.00893617021275" stroke="#999" stroke-width="0.12"/>
        <line x1="456.9799999999998" y1="119.44893617021275" x2="456.9799999999998" y2="127.00893617021275" stroke="#999" stroke-width="0.12"/>
        <line x1="475.87999999999977" y1="119.44893617021275" x2="475.87999999999977" y2="127.00893617021275" stroke="#999" stroke-width="0.12"/>
        <line x1="494.77999999999975" y1="119.44893617021275" x2="494.77999999999975" y2="127.00893617021275" stroke="#999" stroke-width="0.12"/>
        <line x1="513.6799999999997" y1="119.44893617021275" x2="513.6799999999997" y2="127.00893617021275" stroke="#999" stroke-width="0.12"/>
        <line x1="532.5799999999997" y1="119.44893617021275" x2="532.5799999999997" y2="127.00893617021275" stroke="#999" stroke-width="0.12"/>
        <line x1="551.4799999999997" y1="119.44893617021275" x2="551.4799999999997" y2="127.00893617021275" stroke="#999" stroke-width="0.12"/>
        <line x1="570.3799999999997" y1="119.44893617021275" x2="570.3799999999997" y2="127.00893617021275" stroke="#999" stroke-width="0.12"/>
        <line x1="589.2799999999996" y1="119.44893617021275" x2="589.2799999999996" y2="127.00893617021275" stroke="#999" stroke-width="0.12"/>
        <line x1="608.1799999999996" y1="119.44893617021275" x2="608.1799999999996" y2="127.00893617021275" stroke="#999" stroke-width="0.12"/>
        <line x1="627.0799999999996" y1="119.44893617021275" x2="627.0799999999996" y2="127.00893617021275" stroke="#999" stroke-width="0.12"/>
        <line x1="645.9799999999996" y1="119.44893617021275" x2="645.9799999999996" y2="127.00893617021275" stroke="#999" stroke-width="0.12"/>
        <line x1="50.3" y1="135.82893617021276" x2="649.7" y2="135.82893617021276" stroke="#555" stroke-width="0.2"/>
        <line x1="60.08" y1="132.04893617021276" x2="60.08" y2="139.60893617021276" stroke="#999" stroke-width="0.12"/>
        <line x1="78.97999999999999" y1="132.04893617021276" x2="78.97999999999999" y2="139.60893617021276" stroke="#999" stroke-width="0.12"/>
        <line x1="97.88" y1="132.04893617021276" x2="97.88" y2="139.60893617021276" stroke="#999" stroke-width="0.12"/>
        <line x1="116.78" y1="132.04893617021276" x2="116.78" y2="139.60893617021276" stroke="#999" stroke-width="0.12"/>
        <line x1="135.68" y1="132.04893617021276" x2="135.68" y2="139.60893617021276" stroke="#999" stroke-width="0.12"/>
        <line x1="154.58" y1="132.04893617021276" x2="154.58" y2="139.60893617021276" stroke="#999" stroke-width="0.12"/>
        <line x1="173.48000000000002" y1="132.04893617021276" x2="173.48000000000002" y2="139.60893617021276" stroke="#999" stroke-width="0.12"/>
        <line x1="192.38000000000002" y1="132.04893617021276" x2="192.38000000000002" y2="139.60893617021276" stroke="#999" stroke-width="0.12"/>
        <line x1="211.28000000000003" y1="132.04893617021276" x2="211.28000000000003" y2="139.60893617021276" stroke="#999" stroke-width="0.12"/>
        <line x1="230.18000000000004" y1="132.04893617021276" x2="230.18000000000004" y2="139.60893617021276" stroke="#999" stroke-width="0.12"/>
        <line x1="249.08000000000004" y1="132.04893617021276" x2="249.08000000000004" y2="139.60893617021276" stroke="#999" stroke-width="0.12"/>
        <line x1="267.98" y1="132.04893617021276" x2="267.98" y2="139.60893617021276" stroke="#999" stroke-width="0.12"/>
        <line x1="286.88" y1="132.04893617021276" x2="286.88" y2="139.60893617021276" stroke="#999" stroke-width="0.12"/>
        <line x1="305.78" y1="132.04893617021276" x2="305.78" y2="139.60893617021276" stroke="#999" stroke-width="0.12"/>
        <line x1="324.67999999999995" y1="132.04893617021276" x2="324.67999999999995" y2="139.60893617021276" stroke="#999" stroke-width="0.12"/>
        <line x1="343.5799999999999" y1="132.04893617021276" x2="343.5799999999999" y2="139.60893617021276" stroke="#999" stroke-width="0.12"/>
        <line x1="362.4799999999999" y1="132.04893617021276" x2="362.4799999999999" y2="139.60893617021276" stroke="#999" stroke-width="0.12"/>
        <line x1="381.3799999999999" y1="132.04893617021276" x2="381.3799999999999" y2="139.60893617021276" stroke="#999" stroke-width="0.12"/>
        <line x1="400.27999999999986" y1="132.04893617021276" x2="400.27999999999986" y2="139.60893617021276" stroke="#999" stroke-width="0.12"/>
        <line x1="419.17999999999984" y1="132.04893617021276" x2="419.17999999999984" y2="139.60893617021276" stroke="#999" stroke-width="0.12"/>
        <line x1="438.0799999999998" y1="132.04893617021276" x2="438.0799999999998" y2="139.60893617021276" stroke="#999" stroke-width="0.12"/>
        <line x1="456.9799999999998" y1="132.04893617021276" x2="456.9799999999998" y2="139.60893617021276" stroke="#999" stroke-width="0.12"/>
        <line x1="475.87999999999977" y1="132.04893617021276" x2="475.87999999999977" y2="139.60893617021276" stroke="#999" stroke-width="0.12"/>
        <line x1="494.77999999999975" y1="132.04893617021276" x2="494.77999999999975" y2="139.60893617021276" stroke="#999" stroke-width="0.12"/>
        <line x1="513.6799999999997" y1="132.04893617021276" x2="513.6799999999997" y2="139.60893617021276" stroke="#999" stroke-width="0.12"/>
        <line x1="532.5799999999997" y1="132.04893617021276" x2="532.5799999999997" y2="139.60893617021276" stroke="#999" stroke-width="0.12"/>
        <line x1="551.4799999999997" y1="132.04893617021276" x2="551.4799999999997" y2="139.60893617021276" stroke="#999" stroke-width="0.12"/>
        <line x1="570.3799999999997" y1="132.04893617021276" x2="570.3799999999997" y2="139.60893617021276" stroke="#999" stroke-width="0.12"/>
        <line x1="589.2799999999996" y1="132.04893617021276" x2="589.2799999999996" y2="139.60893617021276" stroke="#999" stroke-width="0.12"/>
        <line x1="608.1799999999996" y1="132.04893617021276" x2="608.1799999999996" y2="139.60893617021276" stroke="#999" stroke-width="0.12"/>
        <line x1="627.0799999999996" y1="132.04893617021276" x2="627.0799999999996" y2="139.60893617021276" stroke="#999" stroke-width="0.12"/>
        <line x1="645.9799999999996" y1="132.04893617021276" x2="645.9799999999996" y2="139.60893617021276" stroke="#999" stroke-width="0.12"/>
        <line x1="50.3" y1="148.42893617021275" x2="649.7" y2="148.42893617021275" stroke="#555" stroke-width="0.2"/>
        <line x1="50.3" y1="161.02893617021275" x2="649.7" y2="161.02893617021275" stroke="#555" stroke-width="0.2"/>
        <line x1="60.08" y1="157.24893617021274" x2="60.08" y2="164.80893617021275" stroke="#999" stroke-width="0.12"/>
        <line x1="78.97999999999999" y1="157.24893617021274" x2="78.97999999999999" y2="164.80893617021275" stroke="#999" stroke-width="0.12"/>
        <line x1="97.88" y1="157.24893617021274" x2="97.88" y2="164.80893617021275" stroke="#999" stroke-width="0.12"/>
        <line x1="116.78" y1="157.24893617021274" x2="116.78" y2="164.80893617021275" stroke="#999" stroke-width="0.12"/>
        <line x1="135.68" y1="157.24893617021274" x2="135.68" y2="164.80893617021275" stroke="#999" stroke-width="0.12"/>
        <line x1="154.58" y1="157.24893617021274" x2="154.58" y2="164.80893617021275" stroke="#999" stroke-width="0.12"/>
        <line x1="173.48000000000002" y1="157.24893617021274" x2="173.48000000000002" y2="164.80893617021275" stroke="#999" stroke-width="0.12"/>
        <line x1="192.38000000000002" y1="157.24893617021274" x2="192.38000000000002" y2="164.80893617021275" stroke="#999" stroke-width="0.12"/>
        <line x1="211.28000000000003" y1="157.24893617021274" x2="211.28000000000003" y2="164.80893617021275" stroke="#999" stroke-width="0.12"/>
        <line x1="230.18000000000004" y1="157.24893617021274" x2="230.18000000000004" y2="164.80893617021275" stroke="#999" stroke-width="0.12"/>
        <line x1="249.08000000000004" y1="157.24893617021274" x2="249.08000000000004" y2="164.80893617021275" stroke="#999" stroke-width="0.12"/>
        <line x1="267.98" y1="157.24893617021274" x2="267.98" y2="164.80893617021275" stroke="#999" stroke-width="0.12"/>
        <line x1="286.88" y1="157.24893617021274" x2="286.88" y2="164.80893617021275" stroke="#999" stroke-width="0.12"/>
        <line x1="305.78" y1="157.24893617021274" x2="305.78" y2="164.80893617021275" stroke="#999" stroke-width="0.12"/>
        <line x1="324.67999999999995" y1="157.24893617021274" x2="324.67999999999995" y2="164.80893617021275" stroke="#999" stroke-width="0.12"/>
        <line x1="343.5799999999999" y1="157.24893617021274" x2="343.5799999999999" y2="164.80893617021275" stroke="#999" stroke-width="0.12"/>
        <line x1="362.4799999999999" y1="157.24893617021274" x2="362.4799999999999" y2="164.80893617021275" stroke="#999" stroke-width="0.12"/>
        <line x1="381.3799999999999" y1="157.24893617021274" x2="381.3799999999999" y2="164.80893617021275" stroke="#999" stroke-width="0.12"/>
        <line x1="400.27999999999986" y1="157.24893617021274" x2="400.27999999999986" y2="164.80893617021275" stroke="#999" stroke-width="0.12"/>
        <line x1="419.17999999999984" y1="157.24893617021274" x2="419.17999999999984" y2="164.80893617021275" stroke="#999" stroke-width="0.12"/>
        <line x1="438.0799999999998" y1="157.24893617021274" x2="438.0799999999998" y2="164.80893617021275" stroke="#999" stroke-width="0.12"/>
        <line x1="456.9799999999998" y1="157.24893617021274" x2="456.9799999999998" y2="164.80893617021275" stroke="#999" stroke-width="0.12"/>
        <line x1="475.87999999999977" y1="157.24893617021274" x2="475.87999999999977" y2="164.80893617021275" stroke="#999" stroke-width="0.12"/>
        <line x1="494.77999999999975" y1="157.24893617021274" x2="494.77999999999975" y2="164.80893617021275" stroke="#999" stroke-width="0.12"/>
        <line x1="513.6799999999997" y1="157.24893617021274" x2="513.6799999999997" y2="164.80893617021275" stroke="#999" stroke-width="0.12"/>
        <line x1="532.5799999999997" y1="157.24893617021274" x2="532.5799999999997" y2="164.80893617021275" stroke="#999" stroke-width="0.12"/>
        <line x1="551.4799999999997" y1="157.24893617021274" x2="551.4799999999997" y2="164.80893617021275" stroke="#999" stroke-width="0.12"/>
        <line x1="570.3799999999997" y1="157.24893617021274" x2="570.3799999999997" y2="164.80893617021275" stroke="#999" stroke-width="0.12"/>
        <line x1="589.2799999999996" y1="157.24893617021274" x2="589.2799999999996" y2="164.80893617021275" stroke="#999" stroke-width="0.12"/>
        <line x1="608.1799999999996" y1="157.24893617021274" x2="608.1799999999996" y2="164.80893617021275" stroke="#999" stroke-width="0.12"/>
        <line x1="627.0799999999996" y1="157.24893617021274" x2="627.0799999999996" y2="164.80893617021275" stroke="#999" stroke-width="0.12"/>
        <line x1="645.9799999999996" y1="157.24893617021274" x2="645.9799999999996" y2="164.80893617021275" stroke="#999" stroke-width="0.12"/>
        <line x1="50.3" y1="173.62893617021274" x2="649.7" y2="173.62893617021274" stroke="#555" stroke-width="0.2"/>
        <line x1="60.08" y1="169.84893617021274" x2="60.08" y2="177.40893617021274" stroke="#999" stroke-width="0.12"/>
        <line x1="78.97999999999999" y1="169.84893617021274" x2="78.97999999999999" y2="177.40893617021274" stroke="#999" stroke-width="0.12"/>
        <line x1="97.88" y1="169.84893617021274" x2="97.88" y2="177.40893617021274" stroke="#999" stroke-width="0.12"/>
        <line x1="116.78" y1="169.84893617021274" x2="116.78" y2="177.40893617021274" stroke="#999" stroke-width="0.12"/>
        <line x1="135.68" y1="169.84893617021274" x2="135.68" y2="177.40893617021274" stroke="#999" stroke-width="0.12"/>
        <line x1="154.58" y1="169.84893617021274" x2="154.58" y2="177.40893617021274" stroke="#999" stroke-width="0.12"/>
        <line x1="173.48000000000002" y1="169.84893617021274" x2="173.48000000000002" y2="177.40893617021274" stroke="#999" stroke-width="0.12"/>
        <line x1="192.38000000000002" y1="169.84893617021274" x2="192.38000000000002" y2="177.40893617021274" stroke="#999" stroke-width="0.12"/>
        <line x1="211.28000000000003" y1="169.84893617021274" x2="211.28000000000003" y2="177.40893617021274" stroke="#999" stroke-width="0.12"/>
        <line x1="230.18000000000004" y1="169.84893617021274" x2="230.18000000000004" y2="177.40893617021274" stroke="#999" stroke-width="0.12"/>
        <line x1="249.08000000000004" y1="169.84893617021274" x2="249.08000000000004" y2="177.40893617021274" stroke="#999" stroke-width="0.12"/>
        <line x1="267.98" y1="169.84893617021274" x2="267.98" y2="177.40893617021274" stroke="#999" stroke-width="0.12"/>
        <line x1="286.88" y1="169.84893617021274" x2="286.88" y2="177.40893617021274" stroke="#999" stroke-width="0.12"/>
        <line x1="305.78" y1="169.84893617021274" x2="305.78" y2="177.40893617021274" stroke="#999" stroke-width="0.12"/>
        <line x1="324.67999999999995" y1="169.84893617021274" x2="324.67999999999995" y2="177.40893617021274" stroke="#999" stroke-width="0.12"/>
        <line x1="343.5799999999999" y1="169.84893617021274" x2="343.5799999999999" y2="177.40893617021274" stroke="#999" stroke-width="0.12"/>
        <line x1="362.4799999999999" y1="169.84893617021274" x2="362.4799999999999" y2="177.40893617021274" stroke="#999" stroke-width="0.12"/>
        <line x1="381.3799999999999" y1="169.84893617021274" x2="381.3799999999999" y2="177.40893617021274" stroke="#999" stroke-width="0.12"/>
        <line x1="400.27999999999986" y1="169.84893617021274" x2="400.27999999999986" y2="177.40893617021274" stroke="#999" stroke-width="0.12"/>
        <line x1="419.17999999999984" y1="169.84893617021274" x2="419.17999999999984" y2="177.40893617021274" stroke="#999" stroke-width="0.12"/>
        <line x1="438.0799999999998" y1="169.84893617021274" x2="438.0799999999998" y2="177.40893617021274" stroke="#999" stroke-width="0.12"/>
        <line x1="456.9799999999998" y1="169.84893617021274" x2="456.9799999999998" y2="177.40893617021274" stroke="#999" stroke-width="0.12"/>
        <line x1="475.87999999999977" y1="169.84893617021274" x2="475.87999999999977" y2="177.40893617021274" stroke="#999" stroke-width="0.12"/>
        <line x1="494.77999999999975" y1="169.84893617021274" x2="494.77999999999975" y2="177.40893617021274" stroke="#999" stroke-width="0.12"/>
        <line x1="513.6799999999997" y1="169.84893617021274" x2="513.6799999999997" y2="177.40893617021274" stroke="#999" stroke-width="0.12"/>
        <line x1="532.5799999999997" y1="169.84893617021274" x2="532.5799999999997" y2="177.40893617021274" stroke="#999" stroke-width="0.12"/>
        <line x1="551.4799999999997" y1="169.84893617021274" x2="551.4799999999997" y2="177.40893617021274" stroke="#999" stroke-width="0.12"/>
        <line x1="570.3799999999997" y1="169.84893617021274" x2="570.3799999999997" y2="177.40893617021274" stroke="#999" stroke-width="0.12"/>
        <line x1="589.2799999999996" y1="169.84893617021274" x2="589.2799999999996" y2="177.40893617021274" stroke="#999" stroke-width="0.12"/>
        <line x1="608.1799999999996" y1="169.84893617021274" x2="608.1799999999996" y2="177.40893617021274" stroke="#999" stroke-width="0.12"/>
        <line x1="627.0799999999996" y1="169.84893617021274" x2="627.0799999999996" y2="177.40893617021274" stroke="#999" stroke-width="0.12"/>
        <line x1="645.9799999999996" y1="169.84893617021274" x2="645.9799999999996" y2="177.40893617021274" stroke="#999" stroke-width="0.12"/>
        <line x1="50.3" y1="186.22893617021273" x2="649.7" y2="186.22893617021273" stroke="#555" stroke-width="0.2"/>
      </g>
      <text x="357.6923076923077" y="145.25709219858155" font-family="SimHei, Heiti SC, sans-serif" font-size="2.5" font-weight="normal" text-anchor="middle" fill="#222" data-cdr-type="formation-label">Yanjiahe Fm (siliceous)</text>
    </g>
    <g data-cdr-type="layer-band" data-cdr-name="Dengying Fm (dolomite)" data-cdr-pattern="dolo">
      <polygon points="50.0,96.5 373.1,165.4 650.0,197.1 650.0,279.0 373.1,344.1 50.0,226.9" fill="#eaeae3" stroke="#444" stroke-width="0.3" data-cdr-type="layer-fill"/>
      <g clip-path="url(#clip_xsec_2)">
        <line x1="-797.6063829787234" y1="96.54255319148936" x2="-550.0" y2="344.1489361702128" stroke="#999" stroke-width="0.12"/>
        <line x1="-776.0063829787234" y1="96.54255319148936" x2="-528.4" y2="344.1489361702128" stroke="#999" stroke-width="0.12"/>
        <line x1="-754.4063829787234" y1="96.54255319148936" x2="-506.79999999999995" y2="344.1489361702128" stroke="#999" stroke-width="0.12"/>
        <line x1="-732.8063829787234" y1="96.54255319148936" x2="-485.19999999999993" y2="344.1489361702128" stroke="#999" stroke-width="0.12"/>
        <line x1="-711.2063829787234" y1="96.54255319148936" x2="-463.5999999999999" y2="344.1489361702128" stroke="#999" stroke-width="0.12"/>
        <line x1="-689.6063829787233" y1="96.54255319148936" x2="-441.9999999999999" y2="344.1489361702128" stroke="#999" stroke-width="0.12"/>
        <line x1="-668.0063829787233" y1="96.54255319148936" x2="-420.39999999999986" y2="344.1489361702128" stroke="#999" stroke-width="0.12"/>
        <line x1="-646.4063829787233" y1="96.54255319148936" x2="-398.79999999999984" y2="344.1489361702128" stroke="#999" stroke-width="0.12"/>
        <line x1="-624.8063829787233" y1="96.54255319148936" x2="-377.1999999999998" y2="344.1489361702128" stroke="#999" stroke-width="0.12"/>
        <line x1="-603.2063829787232" y1="96.54255319148936" x2="-355.5999999999998" y2="344.1489361702128" stroke="#999" stroke-width="0.12"/>
        <line x1="-581.6063829787232" y1="96.54255319148936" x2="-333.9999999999998" y2="344.1489361702128" stroke="#999" stroke-width="0.12"/>
        <line x1="-560.0063829787232" y1="96.54255319148936" x2="-312.39999999999975" y2="344.1489361702128" stroke="#999" stroke-width="0.12"/>
        <line x1="-538.4063829787232" y1="96.54255319148936" x2="-290.7999999999997" y2="344.1489361702128" stroke="#999" stroke-width="0.12"/>
        <line x1="-516.8063829787231" y1="96.54255319148936" x2="-269.1999999999997" y2="344.1489361702128" stroke="#999" stroke-width="0.12"/>
        <line x1="-495.2063829787231" y1="96.54255319148936" x2="-247.5999999999997" y2="344.1489361702128" stroke="#999" stroke-width="0.12"/>
        <line x1="-473.6063829787231" y1="96.54255319148936" x2="-225.9999999999997" y2="344.1489361702128" stroke="#999" stroke-width="0.12"/>
        <line x1="-452.0063829787231" y1="96.54255319148936" x2="-204.39999999999966" y2="344.1489361702128" stroke="#999" stroke-width="0.12"/>
        <line x1="-430.40638297872306" y1="96.54255319148936" x2="-182.79999999999964" y2="344.1489361702128" stroke="#999" stroke-width="0.12"/>
        <line x1="-408.80638297872304" y1="96.54255319148936" x2="-161.19999999999962" y2="344.1489361702128" stroke="#999" stroke-width="0.12"/>
        <line x1="-387.206382978723" y1="96.54255319148936" x2="-139.5999999999996" y2="344.1489361702128" stroke="#999" stroke-width="0.12"/>
        <line x1="-365.606382978723" y1="96.54255319148936" x2="-117.99999999999957" y2="344.1489361702128" stroke="#999" stroke-width="0.12"/>
        <line x1="-344.00638297872297" y1="96.54255319148936" x2="-96.39999999999955" y2="344.1489361702128" stroke="#999" stroke-width="0.12"/>
        <line x1="-322.40638297872295" y1="96.54255319148936" x2="-74.79999999999953" y2="344.1489361702128" stroke="#999" stroke-width="0.12"/>
        <line x1="-300.8063829787229" y1="96.54255319148936" x2="-53.199999999999505" y2="344.1489361702128" stroke="#999" stroke-width="0.12"/>
        <line x1="-279.2063829787229" y1="96.54255319148936" x2="-31.599999999999483" y2="344.1489361702128" stroke="#999" stroke-width="0.12"/>
        <line x1="-257.6063829787229" y1="96.54255319148936" x2="-9.99999999999946" y2="344.1489361702128" stroke="#999" stroke-width="0.12"/>
        <line x1="-236.00638297872288" y1="96.54255319148936" x2="11.600000000000534" y2="344.1489361702128" stroke="#999" stroke-width="0.12"/>
        <line x1="-214.4063829787229" y1="96.54255319148936" x2="33.20000000000053" y2="344.1489361702128" stroke="#999" stroke-width="0.12"/>
        <line x1="-192.8063829787229" y1="96.54255319148936" x2="54.80000000000052" y2="344.1489361702128" stroke="#999" stroke-width="0.12"/>
        <line x1="-171.2063829787229" y1="96.54255319148936" x2="76.40000000000052" y2="344.1489361702128" stroke="#999" stroke-width="0.12"/>
        <line x1="-149.6063829787229" y1="96.54255319148936" x2="98.00000000000051" y2="344.1489361702128" stroke="#999" stroke-width="0.12"/>
        <line x1="-128.0063829787229" y1="96.54255319148936" x2="119.6000000000005" y2="344.1489361702128" stroke="#999" stroke-width="0.12"/>
        <line x1="-106.40638297872292" y1="96.54255319148936" x2="141.2000000000005" y2="344.1489361702128" stroke="#999" stroke-width="0.12"/>
        <line x1="-84.80638297872292" y1="96.54255319148936" x2="162.8000000000005" y2="344.1489361702128" stroke="#999" stroke-width="0.12"/>
        <line x1="-63.20638297872293" y1="96.54255319148936" x2="184.4000000000005" y2="344.1489361702128" stroke="#999" stroke-width="0.12"/>
        <line x1="-41.606382978722934" y1="96.54255319148936" x2="206.00000000000048" y2="344.1489361702128" stroke="#999" stroke-width="0.12"/>
        <line x1="-20.006382978722936" y1="96.54255319148936" x2="227.60000000000048" y2="344.1489361702128" stroke="#999" stroke-width="0.12"/>
        <line x1="1.593617021277062" y1="96.54255319148936" x2="249.20000000000047" y2="344.1489361702128" stroke="#999" stroke-width="0.12"/>
        <line x1="23.19361702127706" y1="96.54255319148936" x2="270.80000000000047" y2="344.1489361702128" stroke="#999" stroke-width="0.12"/>
        <line x1="44.79361702127706" y1="96.54255319148936" x2="292.4000000000005" y2="344.1489361702128" stroke="#999" stroke-width="0.12"/>
        <line x1="66.39361702127705" y1="96.54255319148936" x2="314.00000000000045" y2="344.1489361702128" stroke="#999" stroke-width="0.12"/>
        <line x1="87.99361702127705" y1="96.54255319148936" x2="335.6000000000005" y2="344.1489361702128" stroke="#999" stroke-width="0.12"/>
        <line x1="109.59361702127704" y1="96.54255319148936" x2="357.20000000000044" y2="344.1489361702128" stroke="#999" stroke-width="0.12"/>
        <line x1="131.19361702127705" y1="96.54255319148936" x2="378.80000000000047" y2="344.1489361702128" stroke="#999" stroke-width="0.12"/>
        <line x1="152.79361702127704" y1="96.54255319148936" x2="400.40000000000043" y2="344.1489361702128" stroke="#999" stroke-width="0.12"/>
        <line x1="174.39361702127704" y1="96.54255319148936" x2="422.00000000000045" y2="344.1489361702128" stroke="#999" stroke-width="0.12"/>
        <line x1="195.99361702127703" y1="96.54255319148936" x2="443.6000000000005" y2="344.1489361702128" stroke="#999" stroke-width="0.12"/>
        <line x1="217.59361702127703" y1="96.54255319148936" x2="465.20000000000044" y2="344.1489361702128" stroke="#999" stroke-width="0.12"/>
        <line x1="239.19361702127702" y1="96.54255319148936" x2="486.8000000000004" y2="344.1489361702128" stroke="#999" stroke-width="0.12"/>
        <line x1="260.79361702127704" y1="96.54255319148936" x2="508.40000000000043" y2="344.1489361702128" stroke="#999" stroke-width="0.12"/>
        <line x1="282.39361702127707" y1="96.54255319148936" x2="530.0000000000005" y2="344.1489361702128" stroke="#999" stroke-width="0.12"/>
        <line x1="303.9936170212771" y1="96.54255319148936" x2="551.6000000000005" y2="344.1489361702128" stroke="#999" stroke-width="0.12"/>
        <line x1="325.5936170212771" y1="96.54255319148936" x2="573.2000000000005" y2="344.1489361702128" stroke="#999" stroke-width="0.12"/>
        <line x1="347.19361702127713" y1="96.54255319148936" x2="594.8000000000005" y2="344.1489361702128" stroke="#999" stroke-width="0.12"/>
        <line x1="368.79361702127716" y1="96.54255319148936" x2="616.4000000000005" y2="344.1489361702128" stroke="#999" stroke-width="0.12"/>
        <line x1="390.3936170212772" y1="96.54255319148936" x2="638.0000000000006" y2="344.1489361702128" stroke="#999" stroke-width="0.12"/>
        <line x1="411.9936170212772" y1="96.54255319148936" x2="659.6000000000006" y2="344.1489361702128" stroke="#999" stroke-width="0.12"/>
        <line x1="433.5936170212772" y1="96.54255319148936" x2="681.2000000000006" y2="344.1489361702128" stroke="#999" stroke-width="0.12"/>
        <line x1="455.19361702127725" y1="96.54255319148936" x2="702.8000000000006" y2="344.1489361702128" stroke="#999" stroke-width="0.12"/>
        <line x1="476.79361702127727" y1="96.54255319148936" x2="724.4000000000007" y2="344.1489361702128" stroke="#999" stroke-width="0.12"/>
        <line x1="498.3936170212773" y1="96.54255319148936" x2="746.0000000000007" y2="344.1489361702128" stroke="#999" stroke-width="0.12"/>
        <line x1="519.9936170212773" y1="96.54255319148936" x2="767.6000000000007" y2="344.1489361702128" stroke="#999" stroke-width="0.12"/>
        <line x1="541.5936170212773" y1="96.54255319148936" x2="789.2000000000007" y2="344.1489361702128" stroke="#999" stroke-width="0.12"/>
        <line x1="563.1936170212773" y1="96.54255319148936" x2="810.8000000000008" y2="344.1489361702128" stroke="#999" stroke-width="0.12"/>
        <line x1="584.7936170212773" y1="96.54255319148936" x2="832.4000000000008" y2="344.1489361702128" stroke="#999" stroke-width="0.12"/>
        <line x1="606.3936170212774" y1="96.54255319148936" x2="854.0000000000008" y2="344.1489361702128" stroke="#999" stroke-width="0.12"/>
        <line x1="627.9936170212774" y1="96.54255319148936" x2="875.6000000000008" y2="344.1489361702128" stroke="#999" stroke-width="0.12"/>
        <line x1="649.5936170212774" y1="96.54255319148936" x2="897.2000000000008" y2="344.1489361702128" stroke="#999" stroke-width="0.12"/>
        <line x1="671.1936170212774" y1="96.54255319148936" x2="918.8000000000009" y2="344.1489361702128" stroke="#999" stroke-width="0.12"/>
        <line x1="692.7936170212774" y1="96.54255319148936" x2="940.4000000000009" y2="344.1489361702128" stroke="#999" stroke-width="0.12"/>
        <line x1="714.3936170212775" y1="96.54255319148936" x2="962.0000000000009" y2="344.1489361702128" stroke="#999" stroke-width="0.12"/>
        <line x1="735.9936170212775" y1="96.54255319148936" x2="983.6000000000009" y2="344.1489361702128" stroke="#999" stroke-width="0.12"/>
        <line x1="757.5936170212775" y1="96.54255319148936" x2="1005.200000000001" y2="344.1489361702128" stroke="#999" stroke-width="0.12"/>
        <line x1="779.1936170212775" y1="96.54255319148936" x2="1026.8000000000009" y2="344.1489361702128" stroke="#999" stroke-width="0.12"/>
        <line x1="800.7936170212776" y1="96.54255319148936" x2="1048.400000000001" y2="344.1489361702128" stroke="#999" stroke-width="0.12"/>
        <line x1="822.3936170212776" y1="96.54255319148936" x2="1070.000000000001" y2="344.1489361702128" stroke="#999" stroke-width="0.12"/>
        <line x1="843.9936170212776" y1="96.54255319148936" x2="1091.600000000001" y2="344.1489361702128" stroke="#999" stroke-width="0.12"/>
        <line x1="865.5936170212776" y1="96.54255319148936" x2="1113.200000000001" y2="344.1489361702128" stroke="#999" stroke-width="0.12"/>
        <line x1="887.1936170212776" y1="96.54255319148936" x2="1134.800000000001" y2="344.1489361702128" stroke="#999" stroke-width="0.12"/>
        <line x1="-797.6063829787234" y1="344.1489361702128" x2="-550.0" y2="96.54255319148936" stroke="#999" stroke-width="0.12"/>
        <line x1="-776.0063829787234" y1="344.1489361702128" x2="-528.4" y2="96.54255319148936" stroke="#999" stroke-width="0.12"/>
        <line x1="-754.4063829787234" y1="344.1489361702128" x2="-506.79999999999995" y2="96.54255319148936" stroke="#999" stroke-width="0.12"/>
        <line x1="-732.8063829787234" y1="344.1489361702128" x2="-485.19999999999993" y2="96.54255319148936" stroke="#999" stroke-width="0.12"/>
        <line x1="-711.2063829787234" y1="344.1489361702128" x2="-463.5999999999999" y2="96.54255319148936" stroke="#999" stroke-width="0.12"/>
        <line x1="-689.6063829787233" y1="344.1489361702128" x2="-441.9999999999999" y2="96.54255319148936" stroke="#999" stroke-width="0.12"/>
        <line x1="-668.0063829787233" y1="344.1489361702128" x2="-420.39999999999986" y2="96.54255319148936" stroke="#999" stroke-width="0.12"/>
        <line x1="-646.4063829787233" y1="344.1489361702128" x2="-398.79999999999984" y2="96.54255319148936" stroke="#999" stroke-width="0.12"/>
        <line x1="-624.8063829787233" y1="344.1489361702128" x2="-377.1999999999998" y2="96.54255319148936" stroke="#999" stroke-width="0.12"/>
        <line x1="-603.2063829787232" y1="344.1489361702128" x2="-355.5999999999998" y2="96.54255319148936" stroke="#999" stroke-width="0.12"/>
        <line x1="-581.6063829787232" y1="344.1489361702128" x2="-333.9999999999998" y2="96.54255319148936" stroke="#999" stroke-width="0.12"/>
        <line x1="-560.0063829787232" y1="344.1489361702128" x2="-312.39999999999975" y2="96.54255319148936" stroke="#999" stroke-width="0.12"/>
        <line x1="-538.4063829787232" y1="344.1489361702128" x2="-290.7999999999997" y2="96.54255319148936" stroke="#999" stroke-width="0.12"/>
        <line x1="-516.8063829787231" y1="344.1489361702128" x2="-269.1999999999997" y2="96.54255319148936" stroke="#999" stroke-width="0.12"/>
        <line x1="-495.2063829787231" y1="344.1489361702128" x2="-247.5999999999997" y2="96.54255319148936" stroke="#999" stroke-width="0.12"/>
        <line x1="-473.6063829787231" y1="344.1489361702128" x2="-225.9999999999997" y2="96.54255319148936" stroke="#999" stroke-width="0.12"/>
        <line x1="-452.0063829787231" y1="344.1489361702128" x2="-204.39999999999966" y2="96.54255319148936" stroke="#999" stroke-width="0.12"/>
        <line x1="-430.40638297872306" y1="344.1489361702128" x2="-182.79999999999964" y2="96.54255319148936" stroke="#999" stroke-width="0.12"/>
        <line x1="-408.80638297872304" y1="344.1489361702128" x2="-161.19999999999962" y2="96.54255319148936" stroke="#999" stroke-width="0.12"/>
        <line x1="-387.206382978723" y1="344.1489361702128" x2="-139.5999999999996" y2="96.54255319148936" stroke="#999" stroke-width="0.12"/>
        <line x1="-365.606382978723" y1="344.1489361702128" x2="-117.99999999999957" y2="96.54255319148936" stroke="#999" stroke-width="0.12"/>
        <line x1="-344.00638297872297" y1="344.1489361702128" x2="-96.39999999999955" y2="96.54255319148936" stroke="#999" stroke-width="0.12"/>
        <line x1="-322.40638297872295" y1="344.1489361702128" x2="-74.79999999999953" y2="96.54255319148936" stroke="#999" stroke-width="0.12"/>
        <line x1="-300.8063829787229" y1="344.1489361702128" x2="-53.199999999999505" y2="96.54255319148936" stroke="#999" stroke-width="0.12"/>
        <line x1="-279.2063829787229" y1="344.1489361702128" x2="-31.599999999999483" y2="96.54255319148936" stroke="#999" stroke-width="0.12"/>
        <line x1="-257.6063829787229" y1="344.1489361702128" x2="-9.99999999999946" y2="96.54255319148936" stroke="#999" stroke-width="0.12"/>
        <line x1="-236.00638297872288" y1="344.1489361702128" x2="11.600000000000534" y2="96.54255319148936" stroke="#999" stroke-width="0.12"/>
        <line x1="-214.4063829787229" y1="344.1489361702128" x2="33.20000000000053" y2="96.54255319148936" stroke="#999" stroke-width="0.12"/>
        <line x1="-192.8063829787229" y1="344.1489361702128" x2="54.80000000000052" y2="96.54255319148936" stroke="#999" stroke-width="0.12"/>
        <line x1="-171.2063829787229" y1="344.1489361702128" x2="76.40000000000052" y2="96.54255319148936" stroke="#999" stroke-width="0.12"/>
        <line x1="-149.6063829787229" y1="344.1489361702128" x2="98.00000000000051" y2="96.54255319148936" stroke="#999" stroke-width="0.12"/>
        <line x1="-128.0063829787229" y1="344.1489361702128" x2="119.6000000000005" y2="96.54255319148936" stroke="#999" stroke-width="0.12"/>
        <line x1="-106.40638297872292" y1="344.1489361702128" x2="141.2000000000005" y2="96.54255319148936" stroke="#999" stroke-width="0.12"/>
        <line x1="-84.80638297872292" y1="344.1489361702128" x2="162.8000000000005" y2="96.54255319148936" stroke="#999" stroke-width="0.12"/>
        <line x1="-63.20638297872293" y1="344.1489361702128" x2="184.4000000000005" y2="96.54255319148936" stroke="#999" stroke-width="0.12"/>
        <line x1="-41.606382978722934" y1="344.1489361702128" x2="206.00000000000048" y2="96.54255319148936" stroke="#999" stroke-width="0.12"/>
        <line x1="-20.006382978722936" y1="344.1489361702128" x2="227.60000000000048" y2="96.54255319148936" stroke="#999" stroke-width="0.12"/>
        <line x1="1.593617021277062" y1="344.1489361702128" x2="249.20000000000047" y2="96.54255319148936" stroke="#999" stroke-width="0.12"/>
        <line x1="23.19361702127706" y1="344.1489361702128" x2="270.80000000000047" y2="96.54255319148936" stroke="#999" stroke-width="0.12"/>
        <line x1="44.79361702127706" y1="344.1489361702128" x2="292.4000000000005" y2="96.54255319148936" stroke="#999" stroke-width="0.12"/>
        <line x1="66.39361702127705" y1="344.1489361702128" x2="314.00000000000045" y2="96.54255319148936" stroke="#999" stroke-width="0.12"/>
        <line x1="87.99361702127705" y1="344.1489361702128" x2="335.6000000000005" y2="96.54255319148936" stroke="#999" stroke-width="0.12"/>
        <line x1="109.59361702127704" y1="344.1489361702128" x2="357.20000000000044" y2="96.54255319148936" stroke="#999" stroke-width="0.12"/>
        <line x1="131.19361702127705" y1="344.1489361702128" x2="378.80000000000047" y2="96.54255319148936" stroke="#999" stroke-width="0.12"/>
        <line x1="152.79361702127704" y1="344.1489361702128" x2="400.40000000000043" y2="96.54255319148936" stroke="#999" stroke-width="0.12"/>
        <line x1="174.39361702127704" y1="344.1489361702128" x2="422.00000000000045" y2="96.54255319148936" stroke="#999" stroke-width="0.12"/>
        <line x1="195.99361702127703" y1="344.1489361702128" x2="443.6000000000005" y2="96.54255319148936" stroke="#999" stroke-width="0.12"/>
        <line x1="217.59361702127703" y1="344.1489361702128" x2="465.20000000000044" y2="96.54255319148936" stroke="#999" stroke-width="0.12"/>
        <line x1="239.19361702127702" y1="344.1489361702128" x2="486.8000000000004" y2="96.54255319148936" stroke="#999" stroke-width="0.12"/>
        <line x1="260.79361702127704" y1="344.1489361702128" x2="508.40000000000043" y2="96.54255319148936" stroke="#999" stroke-width="0.12"/>
        <line x1="282.39361702127707" y1="344.1489361702128" x2="530.0000000000005" y2="96.54255319148936" stroke="#999" stroke-width="0.12"/>
        <line x1="303.9936170212771" y1="344.1489361702128" x2="551.6000000000005" y2="96.54255319148936" stroke="#999" stroke-width="0.12"/>
        <line x1="325.5936170212771" y1="344.1489361702128" x2="573.2000000000005" y2="96.54255319148936" stroke="#999" stroke-width="0.12"/>
        <line x1="347.19361702127713" y1="344.1489361702128" x2="594.8000000000005" y2="96.54255319148936" stroke="#999" stroke-width="0.12"/>
        <line x1="368.79361702127716" y1="344.1489361702128" x2="616.4000000000005" y2="96.54255319148936" stroke="#999" stroke-width="0.12"/>
        <line x1="390.3936170212772" y1="344.1489361702128" x2="638.0000000000006" y2="96.54255319148936" stroke="#999" stroke-width="0.12"/>
        <line x1="411.9936170212772" y1="344.1489361702128" x2="659.6000000000006" y2="96.54255319148936" stroke="#999" stroke-width="0.12"/>
        <line x1="433.5936170212772" y1="344.1489361702128" x2="681.2000000000006" y2="96.54255319148936" stroke="#999" stroke-width="0.12"/>
        <line x1="455.19361702127725" y1="344.1489361702128" x2="702.8000000000006" y2="96.54255319148936" stroke="#999" stroke-width="0.12"/>
        <line x1="476.79361702127727" y1="344.1489361702128" x2="724.4000000000007" y2="96.54255319148936" stroke="#999" stroke-width="0.12"/>
        <line x1="498.3936170212773" y1="344.1489361702128" x2="746.0000000000007" y2="96.54255319148936" stroke="#999" stroke-width="0.12"/>
        <line x1="519.9936170212773" y1="344.1489361702128" x2="767.6000000000007" y2="96.54255319148936" stroke="#999" stroke-width="0.12"/>
        <line x1="541.5936170212773" y1="344.1489361702128" x2="789.2000000000007" y2="96.54255319148936" stroke="#999" stroke-width="0.12"/>
        <line x1="563.1936170212773" y1="344.1489361702128" x2="810.8000000000008" y2="96.54255319148936" stroke="#999" stroke-width="0.12"/>
        <line x1="584.7936170212773" y1="344.1489361702128" x2="832.4000000000008" y2="96.54255319148936" stroke="#999" stroke-width="0.12"/>
        <line x1="606.3936170212774" y1="344.1489361702128" x2="854.0000000000008" y2="96.54255319148936" stroke="#999" stroke-width="0.12"/>
        <line x1="627.9936170212774" y1="344.1489361702128" x2="875.6000000000008" y2="96.54255319148936" stroke="#999" stroke-width="0.12"/>
        <line x1="649.5936170212774" y1="344.1489361702128" x2="897.2000000000008" y2="96.54255319148936" stroke="#999" stroke-width="0.12"/>
        <line x1="671.1936170212774" y1="344.1489361702128" x2="918.8000000000009" y2="96.54255319148936" stroke="#999" stroke-width="0.12"/>
        <line x1="692.7936170212774" y1="344.1489361702128" x2="940.4000000000009" y2="96.54255319148936" stroke="#999" stroke-width="0.12"/>
        <line x1="714.3936170212775" y1="344.1489361702128" x2="962.0000000000009" y2="96.54255319148936" stroke="#999" stroke-width="0.12"/>
        <line x1="735.9936170212775" y1="344.1489361702128" x2="983.6000000000009" y2="96.54255319148936" stroke="#999" stroke-width="0.12"/>
        <line x1="757.5936170212775" y1="344.1489361702128" x2="1005.200000000001" y2="96.54255319148936" stroke="#999" stroke-width="0.12"/>
        <line x1="779.1936170212775" y1="344.1489361702128" x2="1026.8000000000009" y2="96.54255319148936" stroke="#999" stroke-width="0.12"/>
        <line x1="800.7936170212776" y1="344.1489361702128" x2="1048.400000000001" y2="96.54255319148936" stroke="#999" stroke-width="0.12"/>
        <line x1="822.3936170212776" y1="344.1489361702128" x2="1070.000000000001" y2="96.54255319148936" stroke="#999" stroke-width="0.12"/>
        <line x1="843.9936170212776" y1="344.1489361702128" x2="1091.600000000001" y2="96.54255319148936" stroke="#999" stroke-width="0.12"/>
        <line x1="865.5936170212776" y1="344.1489361702128" x2="1113.200000000001" y2="96.54255319148936" stroke="#999" stroke-width="0.12"/>
        <line x1="887.1936170212776" y1="344.1489361702128" x2="1134.800000000001" y2="96.54255319148936" stroke="#999" stroke-width="0.12"/>
      </g>
      <text x="357.6923076923077" y="218.17375886524823" font-family="SimHei, Heiti SC, sans-serif" font-size="2.5" font-weight="normal" text-anchor="middle" fill="#222" data-cdr-type="formation-label">Dengying Fm (dolomite)</text>
    </g>
    <g data-cdr-type="layer-band" data-cdr-name="Doushantuo Fm" data-cdr-pattern="doloLime">
      <polygon points="50.0,226.9 373.1,344.1 650.0,279.0 650.0,310.6 373.1,400.0 50.0,271.5" fill="#9da595" stroke="#444" stroke-width="0.3" data-cdr-type="layer-fill"/>
      <g clip-path="url(#clip_xsec_3)">
        <rect x="50.3" y="227.16170212765957" width="53.6" height="18.9" fill="none" stroke="#bbb" stroke-width="0.1"/>
        <rect x="104.3" y="227.16170212765957" width="53.6" height="18.9" fill="none" stroke="#bbb" stroke-width="0.1"/>
        <rect x="158.3" y="227.16170212765957" width="53.6" height="18.9" fill="none" stroke="#bbb" stroke-width="0.1"/>
        <rect x="212.3" y="227.16170212765957" width="53.6" height="18.9" fill="none" stroke="#bbb" stroke-width="0.1"/>
        <rect x="266.3" y="227.16170212765957" width="53.6" height="18.9" fill="none" stroke="#bbb" stroke-width="0.1"/>
        <rect x="320.3" y="227.16170212765957" width="53.6" height="18.9" fill="none" stroke="#bbb" stroke-width="0.1"/>
        <rect x="374.3" y="227.16170212765957" width="53.6" height="18.9" fill="none" stroke="#bbb" stroke-width="0.1"/>
        <rect x="428.3" y="227.16170212765957" width="53.6" height="18.9" fill="none" stroke="#bbb" stroke-width="0.1"/>
        <rect x="482.3" y="227.16170212765957" width="53.6" height="18.9" fill="none" stroke="#bbb" stroke-width="0.1"/>
        <rect x="536.3" y="227.16170212765957" width="53.6" height="18.9" fill="none" stroke="#bbb" stroke-width="0.1"/>
        <rect x="590.3" y="227.16170212765957" width="53.6" height="18.9" fill="none" stroke="#bbb" stroke-width="0.1"/>
        <rect x="644.3" y="227.16170212765957" width="53.6" height="18.9" fill="none" stroke="#bbb" stroke-width="0.1"/>
        <rect x="77.3" y="246.31170212765957" width="53.6" height="18.9" fill="none" stroke="#bbb" stroke-width="0.1"/>
        <rect x="131.3" y="246.31170212765957" width="53.6" height="18.9" fill="none" stroke="#bbb" stroke-width="0.1"/>
        <rect x="185.3" y="246.31170212765957" width="53.6" height="18.9" fill="none" stroke="#bbb" stroke-width="0.1"/>
        <rect x="239.3" y="246.31170212765957" width="53.6" height="18.9" fill="none" stroke="#bbb" stroke-width="0.1"/>
        <rect x="293.3" y="246.31170212765957" width="53.6" height="18.9" fill="none" stroke="#bbb" stroke-width="0.1"/>
        <rect x="347.3" y="246.31170212765957" width="53.6" height="18.9" fill="none" stroke="#bbb" stroke-width="0.1"/>
        <rect x="401.3" y="246.31170212765957" width="53.6" height="18.9" fill="none" stroke="#bbb" stroke-width="0.1"/>
        <rect x="455.3" y="246.31170212765957" width="53.6" height="18.9" fill="none" stroke="#bbb" stroke-width="0.1"/>
        <rect x="509.3" y="246.31170212765957" width="53.6" height="18.9" fill="none" stroke="#bbb" stroke-width="0.1"/>
        <rect x="563.3" y="246.31170212765957" width="53.6" height="18.9" fill="none" stroke="#bbb" stroke-width="0.1"/>
        <rect x="617.3" y="246.31170212765957" width="53.6" height="18.9" fill="none" stroke="#bbb" stroke-width="0.1"/>
        <rect x="50.3" y="265.4617021276596" width="53.6" height="18.9" fill="none" stroke="#bbb" stroke-width="0.1"/>
        <rect x="104.3" y="265.4617021276596" width="53.6" height="18.9" fill="none" stroke="#bbb" stroke-width="0.1"/>
        <rect x="158.3" y="265.4617021276596" width="53.6" height="18.9" fill="none" stroke="#bbb" stroke-width="0.1"/>
        <rect x="212.3" y="265.4617021276596" width="53.6" height="18.9" fill="none" stroke="#bbb" stroke-width="0.1"/>
        <rect x="266.3" y="265.4617021276596" width="53.6" height="18.9" fill="none" stroke="#bbb" stroke-width="0.1"/>
        <rect x="320.3" y="265.4617021276596" width="53.6" height="18.9" fill="none" stroke="#bbb" stroke-width="0.1"/>
        <rect x="374.3" y="265.4617021276596" width="53.6" height="18.9" fill="none" stroke="#bbb" stroke-width="0.1"/>
        <rect x="428.3" y="265.4617021276596" width="53.6" height="18.9" fill="none" stroke="#bbb" stroke-width="0.1"/>
        <rect x="482.3" y="265.4617021276596" width="53.6" height="18.9" fill="none" stroke="#bbb" stroke-width="0.1"/>
        <rect x="536.3" y="265.4617021276596" width="53.6" height="18.9" fill="none" stroke="#bbb" stroke-width="0.1"/>
        <rect x="590.3" y="265.4617021276596" width="53.6" height="18.9" fill="none" stroke="#bbb" stroke-width="0.1"/>
        <rect x="644.3" y="265.4617021276596" width="53.6" height="18.9" fill="none" stroke="#bbb" stroke-width="0.1"/>
        <rect x="77.3" y="284.61170212765956" width="53.6" height="18.9" fill="none" stroke="#bbb" stroke-width="0.1"/>
        <rect x="131.3" y="284.61170212765956" width="53.6" height="18.9" fill="none" stroke="#bbb" stroke-width="0.1"/>
        <rect x="185.3" y="284.61170212765956" width="53.6" height="18.9" fill="none" stroke="#bbb" stroke-width="0.1"/>
        <rect x="239.3" y="284.61170212765956" width="53.6" height="18.9" fill="none" stroke="#bbb" stroke-width="0.1"/>
        <rect x="293.3" y="284.61170212765956" width="53.6" height="18.9" fill="none" stroke="#bbb" stroke-width="0.1"/>
        <rect x="347.3" y="284.61170212765956" width="53.6" height="18.9" fill="none" stroke="#bbb" stroke-width="0.1"/>
        <rect x="401.3" y="284.61170212765956" width="53.6" height="18.9" fill="none" stroke="#bbb" stroke-width="0.1"/>
        <rect x="455.3" y="284.61170212765956" width="53.6" height="18.9" fill="none" stroke="#bbb" stroke-width="0.1"/>
        <rect x="509.3" y="284.61170212765956" width="53.6" height="18.9" fill="none" stroke="#bbb" stroke-width="0.1"/>
        <rect x="563.3" y="284.61170212765956" width="53.6" height="18.9" fill="none" stroke="#bbb" stroke-width="0.1"/>
        <rect x="617.3" y="284.61170212765956" width="53.6" height="18.9" fill="none" stroke="#bbb" stroke-width="0.1"/>
        <rect x="50.3" y="303.76170212765953" width="53.6" height="18.9" fill="none" stroke="#bbb" stroke-width="0.1"/>
        <rect x="104.3" y="303.76170212765953" width="53.6" height="18.9" fill="none" stroke="#bbb" stroke-width="0.1"/>
        <rect x="158.3" y="303.76170212765953" width="53.6" height="18.9" fill="none" stroke="#bbb" stroke-width="0.1"/>
        <rect x="212.3" y="303.76170212765953" width="53.6" height="18.9" fill="none" stroke="#bbb" stroke-width="0.1"/>
        <rect x="266.3" y="303.76170212765953" width="53.6" height="18.9" fill="none" stroke="#bbb" stroke-width="0.1"/>
        <rect x="320.3" y="303.76170212765953" width="53.6" height="18.9" fill="none" stroke="#bbb" stroke-width="0.1"/>
        <rect x="374.3" y="303.76170212765953" width="53.6" height="18.9" fill="none" stroke="#bbb" stroke-width="0.1"/>
        <rect x="428.3" y="303.76170212765953" width="53.6" height="18.9" fill="none" stroke="#bbb" stroke-width="0.1"/>
        <rect x="482.3" y="303.76170212765953" width="53.6" height="18.9" fill="none" stroke="#bbb" stroke-width="0.1"/>
        <rect x="536.3" y="303.76170212765953" width="53.6" height="18.9" fill="none" stroke="#bbb" stroke-width="0.1"/>
        <rect x="590.3" y="303.76170212765953" width="53.6" height="18.9" fill="none" stroke="#bbb" stroke-width="0.1"/>
        <rect x="644.3" y="303.76170212765953" width="53.6" height="18.9" fill="none" stroke="#bbb" stroke-width="0.1"/>
        <rect x="77.3" y="322.9117021276595" width="53.6" height="18.9" fill="none" stroke="#bbb" stroke-width="0.1"/>
        <rect x="131.3" y="322.9117021276595" width="53.6" height="18.9" fill="none" stroke="#bbb" stroke-width="0.1"/>
        <rect x="185.3" y="322.9117021276595" width="53.6" height="18.9" fill="none" stroke="#bbb" stroke-width="0.1"/>
        <rect x="239.3" y="322.9117021276595" width="53.6" height="18.9" fill="none" stroke="#bbb" stroke-width="0.1"/>
        <rect x="293.3" y="322.9117021276595" width="53.6" height="18.9" fill="none" stroke="#bbb" stroke-width="0.1"/>
        <rect x="347.3" y="322.9117021276595" width="53.6" height="18.9" fill="none" stroke="#bbb" stroke-width="0.1"/>
        <rect x="401.3" y="322.9117021276595" width="53.6" height="18.9" fill="none" stroke="#bbb" stroke-width="0.1"/>
        <rect x="455.3" y="322.9117021276595" width="53.6" height="18.9" fill="none" stroke="#bbb" stroke-width="0.1"/>
        <rect x="509.3" y="322.9117021276595" width="53.6" height="18.9" fill="none" stroke="#bbb" stroke-width="0.1"/>
        <rect x="563.3" y="322.9117021276595" width="53.6" height="18.9" fill="none" stroke="#bbb" stroke-width="0.1"/>
        <rect x="617.3" y="322.9117021276595" width="53.6" height="18.9" fill="none" stroke="#bbb" stroke-width="0.1"/>
        <rect x="50.3" y="342.0617021276595" width="53.6" height="18.9" fill="none" stroke="#bbb" stroke-width="0.1"/>
        <rect x="104.3" y="342.0617021276595" width="53.6" height="18.9" fill="none" stroke="#bbb" stroke-width="0.1"/>
        <rect x="158.3" y="342.0617021276595" width="53.6" height="18.9" fill="none" stroke="#bbb" stroke-width="0.1"/>
        <rect x="212.3" y="342.0617021276595" width="53.6" height="18.9" fill="none" stroke="#bbb" stroke-width="0.1"/>
        <rect x="266.3" y="342.0617021276595" width="53.6" height="18.9" fill="none" stroke="#bbb" stroke-width="0.1"/>
        <rect x="320.3" y="342.0617021276595" width="53.6" height="18.9" fill="none" stroke="#bbb" stroke-width="0.1"/>
        <rect x="374.3" y="342.0617021276595" width="53.6" height="18.9" fill="none" stroke="#bbb" stroke-width="0.1"/>
        <rect x="428.3" y="342.0617021276595" width="53.6" height="18.9" fill="none" stroke="#bbb" stroke-width="0.1"/>
        <rect x="482.3" y="342.0617021276595" width="53.6" height="18.9" fill="none" stroke="#bbb" stroke-width="0.1"/>
        <rect x="536.3" y="342.0617021276595" width="53.6" height="18.9" fill="none" stroke="#bbb" stroke-width="0.1"/>
        <rect x="590.3" y="342.0617021276595" width="53.6" height="18.9" fill="none" stroke="#bbb" stroke-width="0.1"/>
        <rect x="644.3" y="342.0617021276595" width="53.6" height="18.9" fill="none" stroke="#bbb" stroke-width="0.1"/>
        <rect x="77.3" y="361.21170212765946" width="53.6" height="18.9" fill="none" stroke="#bbb" stroke-width="0.1"/>
        <rect x="131.3" y="361.21170212765946" width="53.6" height="18.9" fill="none" stroke="#bbb" stroke-width="0.1"/>
        <rect x="185.3" y="361.21170212765946" width="53.6" height="18.9" fill="none" stroke="#bbb" stroke-width="0.1"/>
        <rect x="239.3" y="361.21170212765946" width="53.6" height="18.9" fill="none" stroke="#bbb" stroke-width="0.1"/>
        <rect x="293.3" y="361.21170212765946" width="53.6" height="18.9" fill="none" stroke="#bbb" stroke-width="0.1"/>
        <rect x="347.3" y="361.21170212765946" width="53.6" height="18.9" fill="none" stroke="#bbb" stroke-width="0.1"/>
        <rect x="401.3" y="361.21170212765946" width="53.6" height="18.9" fill="none" stroke="#bbb" stroke-width="0.1"/>
        <rect x="455.3" y="361.21170212765946" width="53.6" height="18.9" fill="none" stroke="#bbb" stroke-width="0.1"/>
        <rect x="509.3" y="361.21170212765946" width="53.6" height="18.9" fill="none" stroke="#bbb" stroke-width="0.1"/>
        <rect x="563.3" y="361.21170212765946" width="53.6" height="18.9" fill="none" stroke="#bbb" stroke-width="0.1"/>
        <rect x="617.3" y="361.21170212765946" width="53.6" height="18.9" fill="none" stroke="#bbb" stroke-width="0.1"/>
        <rect x="50.3" y="380.36170212765944" width="53.6" height="18.9" fill="none" stroke="#bbb" stroke-width="0.1"/>
        <rect x="104.3" y="380.36170212765944" width="53.6" height="18.9" fill="none" stroke="#bbb" stroke-width="0.1"/>
        <rect x="158.3" y="380.36170212765944" width="53.6" height="18.9" fill="none" stroke="#bbb" stroke-width="0.1"/>
        <rect x="212.3" y="380.36170212765944" width="53.6" height="18.9" fill="none" stroke="#bbb" stroke-width="0.1"/>
        <rect x="266.3" y="380.36170212765944" width="53.6" height="18.9" fill="none" stroke="#bbb" stroke-width="0.1"/>
        <rect x="320.3" y="380.36170212765944" width="53.6" height="18.9" fill="none" stroke="#bbb" stroke-width="0.1"/>
        <rect x="374.3" y="380.36170212765944" width="53.6" height="18.9" fill="none" stroke="#bbb" stroke-width="0.1"/>
        <rect x="428.3" y="380.36170212765944" width="53.6" height="18.9" fill="none" stroke="#bbb" stroke-width="0.1"/>
        <rect x="482.3" y="380.36170212765944" width="53.6" height="18.9" fill="none" stroke="#bbb" stroke-width="0.1"/>
        <rect x="536.3" y="380.36170212765944" width="53.6" height="18.9" fill="none" stroke="#bbb" stroke-width="0.1"/>
        <rect x="590.3" y="380.36170212765944" width="53.6" height="18.9" fill="none" stroke="#bbb" stroke-width="0.1"/>
        <rect x="644.3" y="380.36170212765944" width="53.6" height="18.9" fill="none" stroke="#bbb" stroke-width="0.1"/>
        <rect x="77.3" y="399.5117021276594" width="53.6" height="18.9" fill="none" stroke="#bbb" stroke-width="0.1"/>
        <rect x="131.3" y="399.5117021276594" width="53.6" height="18.9" fill="none" stroke="#bbb" stroke-width="0.1"/>
        <rect x="185.3" y="399.5117021276594" width="53.6" height="18.9" fill="none" stroke="#bbb" stroke-width="0.1"/>
        <rect x="239.3" y="399.5117021276594" width="53.6" height="18.9" fill="none" stroke="#bbb" stroke-width="0.1"/>
        <rect x="293.3" y="399.5117021276594" width="53.6" height="18.9" fill="none" stroke="#bbb" stroke-width="0.1"/>
        <rect x="347.3" y="399.5117021276594" width="53.6" height="18.9" fill="none" stroke="#bbb" stroke-width="0.1"/>
        <rect x="401.3" y="399.5117021276594" width="53.6" height="18.9" fill="none" stroke="#bbb" stroke-width="0.1"/>
        <rect x="455.3" y="399.5117021276594" width="53.6" height="18.9" fill="none" stroke="#bbb" stroke-width="0.1"/>
        <rect x="509.3" y="399.5117021276594" width="53.6" height="18.9" fill="none" stroke="#bbb" stroke-width="0.1"/>
        <rect x="563.3" y="399.5117021276594" width="53.6" height="18.9" fill="none" stroke="#bbb" stroke-width="0.1"/>
        <rect x="617.3" y="399.5117021276594" width="53.6" height="18.9" fill="none" stroke="#bbb" stroke-width="0.1"/>
        <line x1="-723.1382978723404" y1="226.86170212765956" x2="-550.0" y2="400.0" stroke="#ccc" stroke-width="0.08"/>
        <line x1="-669.1382978723404" y1="226.86170212765956" x2="-496.0" y2="400.0" stroke="#ccc" stroke-width="0.08"/>
        <line x1="-615.1382978723404" y1="226.86170212765956" x2="-442.0" y2="400.0" stroke="#ccc" stroke-width="0.08"/>
        <line x1="-561.1382978723404" y1="226.86170212765956" x2="-388.0" y2="400.0" stroke="#ccc" stroke-width="0.08"/>
        <line x1="-507.13829787234044" y1="226.86170212765956" x2="-334.0" y2="400.0" stroke="#ccc" stroke-width="0.08"/>
        <line x1="-453.13829787234044" y1="226.86170212765956" x2="-280.0" y2="400.0" stroke="#ccc" stroke-width="0.08"/>
        <line x1="-399.13829787234044" y1="226.86170212765956" x2="-226.0" y2="400.0" stroke="#ccc" stroke-width="0.08"/>
        <line x1="-345.13829787234044" y1="226.86170212765956" x2="-172.0" y2="400.0" stroke="#ccc" stroke-width="0.08"/>
        <line x1="-291.13829787234044" y1="226.86170212765956" x2="-118.0" y2="400.0" stroke="#ccc" stroke-width="0.08"/>
        <line x1="-237.13829787234044" y1="226.86170212765956" x2="-64.0" y2="400.0" stroke="#ccc" stroke-width="0.08"/>
        <line x1="-183.13829787234044" y1="226.86170212765956" x2="-10.0" y2="400.0" stroke="#ccc" stroke-width="0.08"/>
        <line x1="-129.13829787234044" y1="226.86170212765956" x2="44.0" y2="400.0" stroke="#ccc" stroke-width="0.08"/>
        <line x1="-75.13829787234044" y1="226.86170212765956" x2="98.0" y2="400.0" stroke="#ccc" stroke-width="0.08"/>
        <line x1="-21.138297872340445" y1="226.86170212765956" x2="152.0" y2="400.0" stroke="#ccc" stroke-width="0.08"/>
        <line x1="32.861702127659555" y1="226.86170212765956" x2="206.0" y2="400.0" stroke="#ccc" stroke-width="0.08"/>
        <line x1="86.86170212765956" y1="226.86170212765956" x2="260.0" y2="400.0" stroke="#ccc" stroke-width="0.08"/>
        <line x1="140.86170212765956" y1="226.86170212765956" x2="314.0" y2="400.0" stroke="#ccc" stroke-width="0.08"/>
        <line x1="194.86170212765956" y1="226.86170212765956" x2="368.0" y2="400.0" stroke="#ccc" stroke-width="0.08"/>
        <line x1="248.86170212765956" y1="226.86170212765956" x2="422.0" y2="400.0" stroke="#ccc" stroke-width="0.08"/>
        <line x1="302.86170212765956" y1="226.86170212765956" x2="476.0" y2="400.0" stroke="#ccc" stroke-width="0.08"/>
        <line x1="356.86170212765956" y1="226.86170212765956" x2="530.0" y2="400.0" stroke="#ccc" stroke-width="0.08"/>
        <line x1="410.86170212765956" y1="226.86170212765956" x2="584.0" y2="400.0" stroke="#ccc" stroke-width="0.08"/>
        <line x1="464.86170212765956" y1="226.86170212765956" x2="638.0" y2="400.0" stroke="#ccc" stroke-width="0.08"/>
        <line x1="518.8617021276596" y1="226.86170212765956" x2="692.0" y2="400.0" stroke="#ccc" stroke-width="0.08"/>
        <line x1="572.8617021276596" y1="226.86170212765956" x2="746.0" y2="400.0" stroke="#ccc" stroke-width="0.08"/>
        <line x1="626.8617021276596" y1="226.86170212765956" x2="800.0" y2="400.0" stroke="#ccc" stroke-width="0.08"/>
        <line x1="680.8617021276596" y1="226.86170212765956" x2="854.0" y2="400.0" stroke="#ccc" stroke-width="0.08"/>
        <line x1="734.8617021276596" y1="226.86170212765956" x2="908.0" y2="400.0" stroke="#ccc" stroke-width="0.08"/>
        <line x1="788.8617021276596" y1="226.86170212765956" x2="962.0" y2="400.0" stroke="#ccc" stroke-width="0.08"/>
      </g>
      <text x="357.6923076923077" y="305.36347517730496" font-family="SimHei, Heiti SC, sans-serif" font-size="2.5" font-weight="normal" text-anchor="middle" fill="#222" data-cdr-type="formation-label">Doushantuo Fm</text>
    </g>
    <line x1="223.0769230769231" y1="50.0" x2="265.49967678961457" y2="400.0" stroke="#c0392b" stroke-width="1.0" data-cdr-type="fault-line"/>
    <line x1="231.0769230769231" y1="225.0" x2="231.0769230769231" y2="254.7872340425532" stroke="#c0392b" stroke-width="0.6" data-cdr-type="fault-throw"/>
    <line x1="228.0769230769231" y1="251.7872340425532" x2="231.0769230769231" y2="254.7872340425532" stroke="#c0392b" stroke-width="0.5"/>
    <line x1="234.0769230769231" y1="251.7872340425532" x2="231.0769230769231" y2="254.7872340425532" stroke="#c0392b" stroke-width="0.5"/>
    <text x="235.0769230769231" y="65.0" font-family="SimHei, Heiti SC, sans-serif" font-size="2.2" font-weight="normal" text-anchor="start" fill="#c0392b" data-cdr-type="fault-label">normal fault</text>
    <text x="235.0769230769231" y="71.0" font-family="SimHei, Heiti SC, sans-serif" font-size="2.2" font-weight="normal" text-anchor="start" fill="#c0392b" data-cdr-type="fault-label">dip 68° SE</text>
    <line x1="50" y1="475" x2="61.53846153846154" y2="475" stroke="#000" stroke-width="0.8" data-cdr-type="scale-bar"/>
    <line x1="50" y1="471" x2="50" y2="479" stroke="#000" stroke-width="0.5"/>
    <line x1="61.53846153846154" y1="471" x2="61.53846153846154" y2="479" stroke="#000" stroke-width="0.5"/>
    <text x="55.76923076923077" y="470" font-family="SimHei, Heiti SC, sans-serif" font-size="2.8" font-weight="normal" text-anchor="middle" fill="#000" data-cdr-type="scale-label">100m</text>
    <line x1="91.53846153846155" y1="475" x2="91.53846153846155" y2="456.3829787234043" stroke="#000" stroke-width="0.8" data-cdr-type="vscale-bar"/>
    <line x1="87.53846153846155" y1="475" x2="95.53846153846155" y2="475" stroke="#000" stroke-width="0.5"/>
    <line x1="87.53846153846155" y1="456.3829787234043" x2="95.53846153846155" y2="456.3829787234043" stroke="#000" stroke-width="0.5"/>
    <text x="99.53846153846155" y="465.6914893617021" font-family="SimHei, Heiti SC, sans-serif" font-size="2.8" font-weight="normal" text-anchor="start" fill="#000" data-cdr-type="vscale-label">50m</text>
  </g>
  <g id="cdr-legend" data-cdr-layer="legend">
    <rect x="730" y="60" width="130" height="68" fill="#fff" stroke="#666" stroke-width="0.3" data-cdr-type="legend-box"/>
    <text x="795.0" y="68" font-family="SimHei, Heiti SC, sans-serif" font-size="3.5" font-weight="bold" text-anchor="middle" fill="#000" data-cdr-type="legend-title">Legend</text>
    <line x1="735" y1="74" x2="855" y2="74" stroke="#ccc" stroke-width="0.15"/>
    <rect x="738" y="75.5" width="9" height="9" fill="#595450" stroke="#888" stroke-width="0.15" data-cdr-type="legend-swatch"/>
    <text x="750" y="80" font-family="SimHei, Heiti SC, sans-serif" font-size="2.5" font-weight="normal" text-anchor="start" fill="#333" data-cdr-type="legend-label">Shuijingtuo Fm (black shale)</text>
    <rect x="738" y="87.5" width="9" height="9" fill="#7f7f79" stroke="#888" stroke-width="0.15" data-cdr-type="legend-swatch"/>
    <text x="750" y="92" font-family="SimHei, Heiti SC, sans-serif" font-size="2.5" font-weight="normal" text-anchor="start" fill="#333" data-cdr-type="legend-label">Yanjiahe Fm (siliceous)</text>
    <rect x="738" y="99.5" width="9" height="9" fill="#eaeae3" stroke="#888" stroke-width="0.15" data-cdr-type="legend-swatch"/>
    <text x="750" y="104" font-family="SimHei, Heiti SC, sans-serif" font-size="2.5" font-weight="normal" text-anchor="start" fill="#333" data-cdr-type="legend-label">Dengying Fm (dolomite)</text>
    <rect x="738" y="111.5" width="9" height="9" fill="#9da595" stroke="#888" stroke-width="0.15" data-cdr-type="legend-swatch"/>
    <text x="750" y="116" font-family="SimHei, Heiti SC, sans-serif" font-size="2.5" font-weight="normal" text-anchor="start" fill="#333" data-cdr-type="legend-label">Doushantuo Fm</text>
  </g>
  <g id="cdr-footer" data-cdr-layer="footer">
    <text x="50" y="492" font-family="SimHei, Heiti SC, sans-serif" font-size="2.2" font-weight="normal" text-anchor="start" fill="#888" data-cdr-type="footer-text">Three Gorges Transect — Ediacaran-Cambrian Cross-Section  |  3 boreholes  |  V.E. = 4×</text>
  </g>
</svg>
