0
SECTION
2
ENTITIES
0
TEXT
8
TITLE
62
7
10
106.500
20
302.000
40
4.500
1
Ediacaran-Cambrian Chemostratigraphy ? South China
0
POLYLINE
8
HEADER
62
8
66
1
70
1
0
VERTEX
8
HEADER
10
8.000
20
276.000
0
VERTEX
8
HEADER
10
205.000
20
276.000
0
VERTEX
8
HEADER
10
205.000
20
290.000
0
VERTEX
8
HEADER
10
8.000
20
290.000
0
SEQEND
0
TEXT
8
HEADER
62
7
10
14.500
20
283.000
40
2.800
1
Era
0
TEXT
8
HEADER
62
7
10
27.500
20
283.000
40
2.800
1
Sys
0
TEXT
8
HEADER
62
7
10
40.500
20
283.000
40
2.800
1
Ser
0
TEXT
8
HEADER
62
7
10
56.000
20
283.000
40
2.800
1
Fm
0
TEXT
8
HEADER
62
7
10
71.000
20
283.000
40
2.800
1
Sym
0
TEXT
8
HEADER
62
7
10
80.500
20
283.000
40
2.800
1
Fossils
0
TEXT
8
HEADER
62
7
10
104.000
20
283.000
40
2.800
1
Lithology
0
TEXT
8
HEADER
62
7
10
131.500
20
283.000
40
2.800
1
Grain
0
TEXT
8
HEADER
62
7
10
142.500
20
283.000
40
2.800
1
Struc
0
TEXT
8
HEADER
62
7
10
151.000
20
283.000
40
2.800
1
Thick(m)
0
TEXT
8
HEADER
62
7
10
188.500
20
283.000
40
2.800
1
Description
0
LINE
8
GRID
62
8
10
21.000
20
22.000
11
21.000
21
290.000
0
LINE
8
GRID
62
8
10
34.000
20
22.000
11
34.000
21
290.000
0
LINE
8
GRID
62
8
10
47.000
20
22.000
11
47.000
21
290.000
0
LINE
8
GRID
62
8
10
65.000
20
22.000
11
65.000
21
290.000
0
LINE
8
GRID
62
8
10
77.000
20
22.000
11
77.000
21
290.000
0
LINE
8
GRID
62
8
10
84.000
20
22.000
11
84.000
21
290.000
0
LINE
8
GRID
62
8
10
124.000
20
22.000
11
124.000
21
290.000
0
LINE
8
GRID
62
8
10
139.000
20
22.000
11
139.000
21
290.000
0
LINE
8
GRID
62
8
10
146.000
20
22.000
11
146.000
21
290.000
0
LINE
8
GRID
62
8
10
156.000
20
22.000
11
156.000
21
290.000
0
LINE
8
BORDER
62
7
10
8.000
20
22.000
11
8.000
21
290.000
0
LINE
8
BORDER
62
7
10
205.000
20
22.000
11
205.000
21
290.000
0
LINE
8
BORDER
62
7
10
8.000
20
290.000
11
205.000
21
290.000
0
LINE
8
BORDER
62
7
10
8.000
20
22.000
11
205.000
21
22.000
0
POLYLINE
8
LITHOLOGY
62
3
66
1
70
1
0
VERTEX
8
LITHOLOGY
10
84.300
20
244.662
0
VERTEX
8
LITHOLOGY
10
121.800
20
244.662
0
VERTEX
8
LITHOLOGY
10
121.800
20
276.000
0
VERTEX
8
LITHOLOGY
10
84.300
20
276.000
0
SEQEND
0
TEXT
8
TEXT
62
7
10
48.000
20
260.331
40
2.200
1
Shuijingtuo Fm
0
TEXT
8
TEXT
62
7
10
66.000
20
260.331
40
2.200
1
??s
0
TEXT
8
TEXT
62
7
10
147.000
20
260.331
40
2.200
1
95.0
0
TEXT
8
TEXT
62
7
10
157.000
20
260.331
40
2.000
1
Black shale, euxinic, Ni-Mo enrichment layer at base
0
LINE
8
GRID
62
8
10
8.000
20
276.000
11
205.000
21
276.000
0
POLYLINE
8
LITHOLOGY
62
4
66
1
70
1
0
VERTEX
8
LITHOLOGY
10
84.300
20
233.117
0
VERTEX
8
LITHOLOGY
10
121.800
20
233.117
0
VERTEX
8
LITHOLOGY
10
121.800
20
244.662
0
VERTEX
8
LITHOLOGY
10
84.300
20
244.662
0
SEQEND
0
TEXT
8
TEXT
62
7
10
48.000
20
238.890
40
2.200
1
Yanjiahe Fm
0
TEXT
8
TEXT
62
7
10
66.000
20
238.890
40
2.200
1
??y
0
TEXT
8
TEXT
62
7
10
147.000
20
238.890
40
2.200
1
35.0
0
TEXT
8
TEXT
62
7
10
157.000
20
238.890
40
2.000
1
Siliceous shale, small shelly fossils, barite layers
0
LINE
8
GRID
62
8
10
8.000
20
244.662
11
205.000
21
244.662
0
POLYLINE
8
LITHOLOGY
62
5
66
1
70
1
0
VERTEX
8
LITHOLOGY
10
84.300
20
226.519
0
VERTEX
8
LITHOLOGY
10
121.800
20
226.519
0
VERTEX
8
LITHOLOGY
10
121.800
20
233.117
0
VERTEX
8
LITHOLOGY
10
84.300
20
233.117
0
SEQEND
0
TEXT
8
TEXT
62
7
10
48.000
20
229.818
40
2.200
1
Yanjiahe Fm
0
TEXT
8
TEXT
62
7
10
66.000
20
229.818
40
2.200
1
??y
0
TEXT
8
TEXT
62
7
10
147.000
20
229.818
40
2.200
1
20.0
0
TEXT
8
TEXT
62
7
10
157.000
20
229.818
40
2.000
1
Phosphatic limestone with Anabarites, Protohertzina
0
LINE
8
GRID
62
8
10
8.000
20
233.117
11
205.000
21
233.117
0
POLYLINE
8
LITHOLOGY
62
8
66
1
70
1
0
VERTEX
8
LITHOLOGY
10
84.300
20
186.935
0
VERTEX
8
LITHOLOGY
10
121.800
20
186.935
0
VERTEX
8
LITHOLOGY
10
121.800
20
226.519
0
VERTEX
8
LITHOLOGY
10
84.300
20
226.519
0
SEQEND
0
TEXT
8
TEXT
62
7
10
48.000
20
206.727
40
2.200
1
Dengying Fm
0
TEXT
8
TEXT
62
7
10
66.000
20
206.727
40
2.200
1
Z?dy
0
TEXT
8
TEXT
62
7
10
147.000
20
206.727
40
2.200
1
120.0
0
TEXT
8
TEXT
62
7
10
157.000
20
206.727
40
2.000
1
Massive dolomite, Cloudina, Sinotubulites, ???C plateau ~+4?
0
LINE
8
GRID
62
8
10
8.000
20
226.519
11
205.000
21
226.519
0
POLYLINE
8
LITHOLOGY
62
9
66
1
70
1
0
VERTEX
8
LITHOLOGY
10
84.300
20
111.065
0
VERTEX
8
LITHOLOGY
10
121.800
20
111.065
0
VERTEX
8
LITHOLOGY
10
121.800
20
186.935
0
VERTEX
8
LITHOLOGY
10
84.300
20
186.935
0
SEQEND
0
TEXT
8
TEXT
62
7
10
48.000
20
149.000
40
2.200
1
Dengying Fm
0
TEXT
8
TEXT
62
7
10
66.000
20
149.000
40
2.200
1
Z?dy
0
TEXT
8
TEXT
62
7
10
147.000
20
149.000
40
2.200
1
230.0
0
TEXT
8
TEXT
62
7
10
157.000
20
149.000
40
2.000
1
Light grey thick-bedded peritidal dolomite, chert nodules
0
LINE
8
GRID
62
8
10
8.000
20
186.935
11
205.000
21
186.935
0
POLYLINE
8
LITHOLOGY
62
4
66
1
70
1
0
VERTEX
8
LITHOLOGY
10
84.300
20
86.325
0
VERTEX
8
LITHOLOGY
10
121.800
20
86.325
0
VERTEX
8
LITHOLOGY
10
121.800
20
111.065
0
VERTEX
8
LITHOLOGY
10
84.300
20
111.065
0
SEQEND
0
TEXT
8
TEXT
62
7
10
48.000
20
98.695
40
2.200
1
Doushantuo Fm
0
TEXT
8
TEXT
62
7
10
66.000
20
98.695
40
2.200
1
Z?d
0
TEXT
8
TEXT
62
7
10
147.000
20
98.695
40
2.200
1
75.0
0
TEXT
8
TEXT
62
7
10
157.000
20
98.695
40
2.000
1
Black shale, Doushantuo-Pertatataka acritarchs, Shuram ???C nadir ?10?
0
LINE
8
GRID
62
8
10
8.000
20
111.065
11
205.000
21
111.065
0
POLYLINE
8
LITHOLOGY
62
8
66
1
70
1
0
VERTEX
8
LITHOLOGY
10
84.300
20
58.286
0
VERTEX
8
LITHOLOGY
10
121.800
20
58.286
0
VERTEX
8
LITHOLOGY
10
121.800
20
86.325
0
VERTEX
8
LITHOLOGY
10
84.300
20
86.325
0
SEQEND
0
TEXT
8
TEXT
62
7
10
48.000
20
72.305
40
2.200
1
Doushantuo Fm
0
TEXT
8
TEXT
62
7
10
66.000
20
72.305
40
2.200
1
Z?d
0
TEXT
8
TEXT
62
7
10
147.000
20
72.305
40
2.200
1
85.0
0
TEXT
8
TEXT
62
7
10
157.000
20
72.305
40
2.000
1
Grey dolomitic limestone, small acanthomorphs, ???C rising
0
LINE
8
GRID
62
8
10
8.000
20
86.325
11
205.000
21
86.325
0
POLYLINE
8
LITHOLOGY
62
8
66
1
70
1
0
VERTEX
8
LITHOLOGY
10
84.300
20
53.338
0
VERTEX
8
LITHOLOGY
10
121.800
20
53.338
0
VERTEX
8
LITHOLOGY
10
121.800
20
58.286
0
VERTEX
8
LITHOLOGY
10
84.300
20
58.286
0
SEQEND
0
TEXT
8
TEXT
62
7
10
48.000
20
55.812
40
2.200
1
Doushantuo Fm
0
TEXT
8
TEXT
62
7
10
66.000
20
55.812
40
2.200
1
Z?d
0
TEXT
8
TEXT
62
7
10
147.000
20
55.812
40
2.200
1
15.0
0
TEXT
8
TEXT
62
7
10
157.000
20
55.812
40
2.000
1
Pink cap dolomite, tepee structures, barite fans
0
LINE
8
GRID
62
8
10
8.000
20
58.286
11
205.000
21
58.286
0
POLYLINE
8
LITHOLOGY
62
3
66
1
70
1
0
VERTEX
8
LITHOLOGY
10
84.300
20
35.195
0
VERTEX
8
LITHOLOGY
10
121.800
20
35.195
0
VERTEX
8
LITHOLOGY
10
121.800
20
53.338
0
VERTEX
8
LITHOLOGY
10
84.300
20
53.338
0
SEQEND
0
CIRCLE
8
PATTERN
62
8
10
109.133
20
51.528
40
0.300
0
CIRCLE
8
PATTERN
62
8
10
86.984
20
43.509
40
0.300
0
CIRCLE
8
PATTERN
62
8
10
103.433
20
41.261
40
0.300
0
CIRCLE
8
PATTERN
62
8
10
86.446
20
39.629
40
0.300
0
CIRCLE
8
PATTERN
62
8
10
92.862
20
51.384
40
0.300
0
CIRCLE
8
PATTERN
62
8
10
104.413
20
49.597
40
0.300
0
CIRCLE
8
PATTERN
62
8
10
97.534
20
39.004
40
0.300
0
CIRCLE
8
PATTERN
62
8
10
95.994
20
51.929
40
0.300
0
CIRCLE
8
PATTERN
62
8
10
86.891
20
38.902
40
0.300
0
CIRCLE
8
PATTERN
62
8
10
105.314
20
48.089
40
0.300
0
CIRCLE
8
PATTERN
62
8
10
88.787
20
36.237
40
0.300
0
CIRCLE
8
PATTERN
62
8
10
103.520
20
47.775
40
0.300
0
CIRCLE
8
PATTERN
62
8
10
93.387
20
46.029
40
0.300
0
CIRCLE
8
PATTERN
62
8
10
87.750
20
45.018
40
0.300
0
CIRCLE
8
PATTERN
62
8
10
103.788
20
45.785
40
0.300
0
CIRCLE
8
PATTERN
62
8
10
100.599
20
48.701
40
0.300
0
CIRCLE
8
PATTERN
62
8
10
108.741
20
40.756
40
0.300
0
CIRCLE
8
PATTERN
62
8
10
85.300
20
45.549
40
0.300
0
CIRCLE
8
PATTERN
62
8
10
102.400
20
46.075
40
0.300
0
CIRCLE
8
PATTERN
62
8
10
115.772
20
43.213
40
0.300
0
CIRCLE
8
PATTERN
62
8
10
100.051
20
38.477
40
0.300
0
CIRCLE
8
PATTERN
62
8
10
103.623
20
44.458
40
0.300
0
CIRCLE
8
PATTERN
62
8
10
99.339
20
47.018
40
0.300
0
CIRCLE
8
PATTERN
62
8
10
100.781
20
45.395
40
0.300
0
CIRCLE
8
PATTERN
62
8
10
119.779
20
42.511
40
0.300
0
CIRCLE
8
PATTERN
62
8
10
103.568
20
43.906
40
0.300
0
CIRCLE
8
PATTERN
62
8
10
111.806
20
46.393
40
0.300
0
CIRCLE
8
PATTERN
62
8
10
117.807
20
42.015
40
0.300
0
CIRCLE
8
PATTERN
62
8
10
103.272
20
50.378
40
0.300
0
CIRCLE
8
PATTERN
62
8
10
86.638
20
51.858
40
0.300
0
CIRCLE
8
PATTERN
62
8
10
101.206
20
45.109
40
0.300
0
CIRCLE
8
PATTERN
62
8
10
119.198
20
42.343
40
0.300
0
CIRCLE
8
PATTERN
62
8
10
113.182
20
38.846
40
0.300
0
CIRCLE
8
PATTERN
62
8
10
102.948
20
40.943
40
0.300
0
CIRCLE
8
PATTERN
62
8
10
102.615
20
40.176
40
0.300
0
CIRCLE
8
PATTERN
62
8
10
89.457
20
49.165
40
0.300
0
CIRCLE
8
PATTERN
62
8
10
95.268
20
42.180
40
0.300
0
CIRCLE
8
PATTERN
62
8
10
93.529
20
42.753
40
0.300
0
CIRCLE
8
PATTERN
62
8
10
85.963
20
41.213
40
0.300
0
CIRCLE
8
PATTERN
62
8
10
112.721
20
37.267
40
0.300
0
CIRCLE
8
PATTERN
62
8
10
104.147
20
41.319
40
0.300
0
CIRCLE
8
PATTERN
62
8
10
101.624
20
42.960
40
0.300
0
CIRCLE
8
PATTERN
62
8
10
119.503
20
36.238
40
0.300
0
CIRCLE
8
PATTERN
62
8
10
89.873
20
49.226
40
0.300
0
CIRCLE
8
PATTERN
62
8
10
118.231
20
43.960
40
0.300
0
CIRCLE
8
PATTERN
62
8
10
95.107
20
42.476
40
0.300
0
CIRCLE
8
PATTERN
62
8
10
115.519
20
51.897
40
0.300
0
CIRCLE
8
PATTERN
62
8
10
105.180
20
45.241
40
0.300
0
CIRCLE
8
PATTERN
62
8
10
101.194
20
47.416
40
0.300
0
CIRCLE
8
PATTERN
62
8
10
101.211
20
48.564
40
0.300
0
CIRCLE
8
PATTERN
62
8
10
99.956
20
39.887
40
0.300
0
CIRCLE
8
PATTERN
62
8
10
114.032
20
47.855
40
0.300
0
CIRCLE
8
PATTERN
62
8
10
100.298
20
50.810
40
0.300
0
CIRCLE
8
PATTERN
62
8
10
113.726
20
39.416
40
0.300
0
CIRCLE
8
PATTERN
62
8
10
86.646
20
39.184
40
0.300
0
CIRCLE
8
PATTERN
62
8
10
105.648
20
42.065
40
0.300
0
CIRCLE
8
PATTERN
62
8
10
119.341
20
45.395
40
0.300
0
CIRCLE
8
PATTERN
62
8
10
114.683
20
51.302
40
0.300
0
CIRCLE
8
PATTERN
62
8
10
90.585
20
42.887
40
0.300
0
CIRCLE
8
PATTERN
62
8
10
97.488
20
47.074
40
0.300
0
CIRCLE
8
PATTERN
62
8
10
118.032
20
46.494
40
0.300
0
CIRCLE
8
PATTERN
62
8
10
86.835
20
50.747
40
0.300
0
CIRCLE
8
PATTERN
62
8
10
105.147
20
49.146
40
0.300
0
CIRCLE
8
PATTERN
62
8
10
108.142
20
36.430
40
0.300
0
CIRCLE
8
PATTERN
62
8
10
106.364
20
39.602
40
0.300
0
CIRCLE
8
PATTERN
62
8
10
110.481
20
41.433
40
0.300
0
CIRCLE
8
PATTERN
62
8
10
108.199
20
48.203
40
0.300
0
CIRCLE
8
PATTERN
62
8
10
87.080
20
52.268
40
0.300
0
CIRCLE
8
PATTERN
62
8
10
87.443
20
37.970
40
0.300
0
CIRCLE
8
PATTERN
62
8
10
109.755
20
38.941
40
0.300
0
CIRCLE
8
PATTERN
62
8
10
102.082
20
41.925
40
0.300
0
CIRCLE
8
PATTERN
62
8
10
99.666
20
47.928
40
0.300
0
CIRCLE
8
PATTERN
62
8
10
109.406
20
37.682
40
0.300
0
CIRCLE
8
PATTERN
62
8
10
96.229
20
47.793
40
0.300
0
CIRCLE
8
PATTERN
62
8
10
111.246
20
39.683
40
0.300
0
CIRCLE
8
PATTERN
62
8
10
101.474
20
37.212
40
0.300
0
CIRCLE
8
PATTERN
62
8
10
87.288
20
37.746
40
0.300
0
CIRCLE
8
PATTERN
62
8
10
101.420
20
48.702
40
0.300
0
CIRCLE
8
PATTERN
62
8
10
115.281
20
47.867
40
0.300
0
CIRCLE
8
PATTERN
62
8
10
100.183
20
38.794
40
0.300
0
CIRCLE
8
PATTERN
62
8
10
107.949
20
49.713
40
0.300
0
CIRCLE
8
PATTERN
62
8
10
86.623
20
52.097
40
0.300
0
CIRCLE
8
PATTERN
62
8
10
97.066
20
47.403
40
0.300
0
CIRCLE
8
PATTERN
62
8
10
91.720
20
46.925
40
0.300
0
CIRCLE
8
PATTERN
62
8
10
117.342
20
48.700
40
0.300
0
TEXT
8
TEXT
62
7
10
48.000
20
44.266
40
2.200
1
Nantuo Fm
0
TEXT
8
TEXT
62
7
10
66.000
20
44.266
40
2.200
1
Nh?n
0
TEXT
8
TEXT
62
7
10
147.000
20
44.266
40
2.200
1
55.0
0
TEXT
8
TEXT
62
7
10
157.000
20
44.266
40
2.000
1
Massive green-grey diamictite, Marinoan glaciation
0
LINE
8
GRID
62
8
10
8.000
20
53.338
11
205.000
21
53.338
0
POLYLINE
8
LITHOLOGY
62
3
66
1
70
1
0
VERTEX
8
LITHOLOGY
10
84.300
20
22.000
0
VERTEX
8
LITHOLOGY
10
121.800
20
22.000
0
VERTEX
8
LITHOLOGY
10
121.800
20
35.195
0
VERTEX
8
LITHOLOGY
10
84.300
20
35.195
0
SEQEND
0
CIRCLE
8
PATTERN
62
8
10
118.552
20
25.556
40
0.300
0
CIRCLE
8
PATTERN
62
8
10
112.192
20
30.396
40
0.300
0
CIRCLE
8
PATTERN
62
8
10
110.030
20
31.046
40
0.300
0
CIRCLE
8
PATTERN
62
8
10
87.170
20
27.963
40
0.300
0
CIRCLE
8
PATTERN
62
8
10
104.730
20
28.942
40
0.300
0
CIRCLE
8
PATTERN
62
8
10
116.721
20
30.988
40
0.300
0
CIRCLE
8
PATTERN
62
8
10
105.444
20
28.109
40
0.300
0
CIRCLE
8
PATTERN
62
8
10
97.033
20
26.865
40
0.300
0
CIRCLE
8
PATTERN
62
8
10
104.009
20
25.338
40
0.300
0
CIRCLE
8
PATTERN
62
8
10
105.107
20
28.402
40
0.300
0
CIRCLE
8
PATTERN
62
8
10
94.083
20
24.370
40
0.300
0
CIRCLE
8
PATTERN
62
8
10
101.046
20
26.875
40
0.300
0
CIRCLE
8
PATTERN
62
8
10
115.175
20
28.882
40
0.300
0
CIRCLE
8
PATTERN
62
8
10
89.285
20
30.736
40
0.300
0
CIRCLE
8
PATTERN
62
8
10
119.042
20
24.144
40
0.300
0
CIRCLE
8
PATTERN
62
8
10
100.730
20
23.325
40
0.300
0
CIRCLE
8
PATTERN
62
8
10
97.256
20
23.569
40
0.300
0
CIRCLE
8
PATTERN
62
8
10
113.722
20
23.002
40
0.300
0
CIRCLE
8
PATTERN
62
8
10
108.038
20
32.069
40
0.300
0
CIRCLE
8
PATTERN
62
8
10
94.927
20
29.538
40
0.300
0
CIRCLE
8
PATTERN
62
8
10
90.580
20
26.334
40
0.300
0
CIRCLE
8
PATTERN
62
8
10
109.492
20
29.154
40
0.300
0
CIRCLE
8
PATTERN
62
8
10
109.923
20
29.687
40
0.300
0
CIRCLE
8
PATTERN
62
8
10
103.077
20
33.976
40
0.300
0
CIRCLE
8
PATTERN
62
8
10
99.537
20
27.400
40
0.300
0
CIRCLE
8
PATTERN
62
8
10
91.092
20
25.513
40
0.300
0
CIRCLE
8
PATTERN
62
8
10
107.154
20
33.211
40
0.300
0
CIRCLE
8
PATTERN
62
8
10
118.335
20
26.387
40
0.300
0
CIRCLE
8
PATTERN
62
8
10
93.637
20
26.678
40
0.300
0
CIRCLE
8
PATTERN
62
8
10
109.807
20
25.490
40
0.300
0
CIRCLE
8
PATTERN
62
8
10
115.062
20
28.025
40
0.300
0
CIRCLE
8
PATTERN
62
8
10
89.090
20
24.542
40
0.300
0
CIRCLE
8
PATTERN
62
8
10
89.289
20
32.895
40
0.300
0
CIRCLE
8
PATTERN
62
8
10
94.730
20
28.899
40
0.300
0
CIRCLE
8
PATTERN
62
8
10
118.456
20
28.437
40
0.300
0
CIRCLE
8
PATTERN
62
8
10
107.374
20
29.336
40
0.300
0
CIRCLE
8
PATTERN
62
8
10
86.769
20
32.221
40
0.300
0
CIRCLE
8
PATTERN
62
8
10
98.647
20
27.326
40
0.300
0
CIRCLE
8
PATTERN
62
8
10
94.490
20
24.112
40
0.300
0
CIRCLE
8
PATTERN
62
8
10
120.075
20
28.546
40
0.300
0
CIRCLE
8
PATTERN
62
8
10
113.581
20
33.195
40
0.300
0
CIRCLE
8
PATTERN
62
8
10
110.237
20
24.073
40
0.300
0
CIRCLE
8
PATTERN
62
8
10
90.999
20
26.542
40
0.300
0
CIRCLE
8
PATTERN
62
8
10
91.827
20
30.916
40
0.300
0
CIRCLE
8
PATTERN
62
8
10
119.612
20
27.731
40
0.300
0
CIRCLE
8
PATTERN
62
8
10
108.047
20
34.089
40
0.300
0
CIRCLE
8
PATTERN
62
8
10
117.389
20
30.278
40
0.300
0
CIRCLE
8
PATTERN
62
8
10
114.160
20
25.559
40
0.300
0
CIRCLE
8
PATTERN
62
8
10
118.577
20
29.543
40
0.300
0
CIRCLE
8
PATTERN
62
8
10
96.837
20
25.218
40
0.300
0
CIRCLE
8
PATTERN
62
8
10
110.531
20
26.493
40
0.300
0
CIRCLE
8
PATTERN
62
8
10
111.239
20
30.248
40
0.300
0
CIRCLE
8
PATTERN
62
8
10
94.357
20
29.681
40
0.300
0
CIRCLE
8
PATTERN
62
8
10
115.435
20
33.674
40
0.300
0
CIRCLE
8
PATTERN
62
8
10
87.039
20
31.029
40
0.300
0
CIRCLE
8
PATTERN
62
8
10
118.620
20
27.009
40
0.300
0
CIRCLE
8
PATTERN
62
8
10
90.565
20
24.280
40
0.300
0
CIRCLE
8
PATTERN
62
8
10
90.533
20
32.596
40
0.300
0
CIRCLE
8
PATTERN
62
8
10
88.929
20
26.291
40
0.300
0
CIRCLE
8
PATTERN
62
8
10
88.040
20
28.377
40
0.300
0
CIRCLE
8
PATTERN
62
8
10
94.557
20
23.706
40
0.300
0
TEXT
8
TEXT
62
7
10
48.000
20
28.597
40
2.200
1
Nantuo Fm
0
TEXT
8
TEXT
62
7
10
66.000
20
28.597
40
2.200
1
Nh?n
0
TEXT
8
TEXT
62
7
10
147.000
20
28.597
40
2.200
1
40.0
0
TEXT
8
TEXT
62
7
10
157.000
20
28.597
40
2.000
1
Sandy diamictite with dropstones
0
LINE
8
GRID
62
8
10
8.000
20
35.195
11
205.000
21
35.195
0
TEXT
8
FOOTER
62
8
10
8.000
20
17.000
40
2.000
1
Ediacaran-Cambrian Chemostratigraphy ? South China | 770m | 10 layers | Scale 1:3,031
0
TEXT
8
FOOTER
62
9
10
8.000
20
14.000
40
1.600
1
CorelDRAWer-Skill (github.com/Reasonite-lab/CorelDRAWer-Skill)
0
ENDSEC
0
EOF