<svg xmlns="http://www.w3.org/2000/svg" xmlns:xlink="http://www.w3.org/1999/xlink" viewBox="0 0 262 333" width="262mm" height="333mm" version="1.1"><defs><clipPath id="clip_0"><rect x="84.3" y="237.41772151898735" width="37.2" height="38.58227848101266" /></clipPath><clipPath id="clip_1"><rect x="84.3" y="222.9493670886076" width="37.2" height="14.468354430379746" /></clipPath><clipPath id="clip_2"><rect x="84.3" y="165.0759493670886" width="37.2" height="57.87341772151898" /></clipPath><clipPath id="clip_3"><rect x="84.3" y="52.54430379746836" width="37.2" height="112.53164556962025" /></clipPath><clipPath id="clip_4"><rect x="84.3" y="22.000000000000007" width="37.2" height="30.544303797468352" /></clipPath><clipPath id="lgclip_0"><rect x="222" y="244.5" width="6" height="6" /></clipPath><clipPath id="lgclip_1"><rect x="222" y="251.5" width="6" height="6" /></clipPath><clipPath id="lgclip_2"><rect x="222" y="258.5" width="6" height="6" /></clipPath><clipPath id="lgclip_3"><rect x="222" y="265.5" width="6" height="6" /></clipPath></defs><g id="cdr-background" inkscape:groupmode="layer" inkscape:label="Background" data-cdr-layer="background"><rect x="0" y="0" width="262" height="333" fill="#fff" stroke="none" stroke-width="0" /></g><g id="cdr-title" inkscape:groupmode="layer" inkscape:label="Title" data-cdr-layer="title"><text x="111.0" y="302" font-family="SimHei, Heiti SC, sans-serif" font-size="4.5" font-weight="bold" text-anchor="middle" fill="#000" data-cdr-type="title">秭归地区综合地层柱状图</text><text x="111.0" y="296" font-family="SimHei, Heiti SC, sans-serif" font-size="2.8" font-weight="normal" text-anchor="middle" fill="#555" data-cdr-type="subtitle">湖北秭归</text></g><g id="cdr-header" inkscape:groupmode="layer" inkscape:label="Header" data-cdr-layer="header"><rect x="8" y="276" width="206" height="14" fill="#f5f5f5" stroke="#000" stroke-width="0.4" data-cdr-type="header-bg" /><text x="14.5" y="283.0" font-family="SimHei, Heiti SC, sans-serif" font-size="2.8" font-weight="bold" text-anchor="middle" fill="#000" data-cdr-type="header-text">界</text><text x="27.5" y="283.0" font-family="SimHei, Heiti SC, sans-serif" font-size="2.8" font-weight="bold" text-anchor="middle" fill="#000" data-cdr-type="header-text">系</text><text x="40.5" y="283.0" font-family="SimHei, Heiti SC, sans-serif" font-size="2.8" font-weight="bold" text-anchor="middle" fill="#000" data-cdr-type="header-text">统</text><text x="56.0" y="283.0" font-family="SimHei, Heiti SC, sans-serif" font-size="2.8" font-weight="bold" text-anchor="middle" fill="#000" data-cdr-type="header-text">组</text><text x="71.0" y="283.0" font-family="SimHei, Heiti SC, sans-serif" font-size="2.8" font-weight="bold" text-anchor="middle" fill="#000" data-cdr-type="header-text">代号</text><text x="80.5" y="283.0" font-family="SimHei, Heiti SC, sans-serif" font-size="2.8" font-weight="bold" text-anchor="middle" fill="#000" data-cdr-type="header-text">化石</text><text x="104.0" y="283.0" font-family="SimHei, Heiti SC, sans-serif" font-size="2.8" font-weight="bold" text-anchor="middle" fill="#000" data-cdr-type="header-text">岩 性 柱</text><text x="131.5" y="283.0" font-family="SimHei, Heiti SC, sans-serif" font-size="2.4" font-weight="bold" text-anchor="middle" fill="#000" data-cdr-type="header-text">粒度</text><text x="144.0" y="279.5" font-family="SimHei, Heiti SC, sans-serif" font-size="2.8" font-weight="bold" text-anchor="middle" fill="#000" data-cdr-type="header-text">厚度</text><text x="144.0" y="286.5" font-family="SimHei, Heiti SC, sans-serif" font-size="2.8" font-weight="bold" text-anchor="middle" fill="#000" data-cdr-type="header-text">(m)</text><text x="181.5" y="283.0" font-family="SimHei, Heiti SC, sans-serif" font-size="2.8" font-weight="bold" text-anchor="middle" fill="#000" data-cdr-type="header-text">岩 性 描 述</text><line x1="21" y1="22" x2="21" y2="290" stroke="#999" stroke-width="0.2" data-cdr-type="col-divider" /><line x1="34" y1="22" x2="34" y2="290" stroke="#999" stroke-width="0.2" data-cdr-type="col-divider" /><line x1="47" y1="22" x2="47" y2="290" stroke="#999" stroke-width="0.2" data-cdr-type="col-divider" /><line x1="65" y1="22" x2="65" y2="290" stroke="#999" stroke-width="0.2" data-cdr-type="col-divider" /><line x1="77" y1="22" x2="77" y2="290" stroke="#999" stroke-width="0.2" data-cdr-type="col-divider" /><line x1="84" y1="22" x2="84" y2="290" stroke="#999" stroke-width="0.2" data-cdr-type="col-divider" /><line x1="124" y1="22" x2="124" y2="290" stroke="#999" stroke-width="0.2" data-cdr-type="col-divider" /><line x1="139" y1="22" x2="139" y2="290" stroke="#999" stroke-width="0.2" data-cdr-type="col-divider" /><line x1="149" y1="22" x2="149" y2="290" stroke="#999" stroke-width="0.2" data-cdr-type="col-divider" /><line x1="8" y1="276" x2="214" y2="276" stroke="#000" stroke-width="0.4" data-cdr-type="header-line" /></g><g id="cdr-body" inkscape:groupmode="layer" inkscape:label="Column Body" data-cdr-layer="body"><line x1="84" y1="276.0" x2="122" y2="276.0" stroke="#aaa" stroke-width="0.15" data-cdr-type="scale-tick" /><text x="121" y="274.5" font-family="SimHei, Heiti SC, sans-serif" font-size="2.2" font-weight="normal" text-anchor="end" fill="#888" data-cdr-type="scale-label">0</text><line x1="84" y1="243.84810126582278" x2="122" y2="243.84810126582278" stroke="#aaa" stroke-width="0.15" data-cdr-type="scale-tick" /><line x1="84" y1="211.69620253164555" x2="122" y2="211.69620253164555" stroke="#aaa" stroke-width="0.15" data-cdr-type="scale-tick" /><text x="121" y="210.19620253164555" font-family="SimHei, Heiti SC, sans-serif" font-size="2.2" font-weight="normal" text-anchor="end" fill="#888" data-cdr-type="scale-label">200</text><line x1="84" y1="179.54430379746836" x2="122" y2="179.54430379746836" stroke="#aaa" stroke-width="0.15" data-cdr-type="scale-tick" /><line x1="84" y1="147.39240506329114" x2="122" y2="147.39240506329114" stroke="#aaa" stroke-width="0.15" data-cdr-type="scale-tick" /><text x="121" y="145.89240506329114" font-family="SimHei, Heiti SC, sans-serif" font-size="2.2" font-weight="normal" text-anchor="end" fill="#888" data-cdr-type="scale-label">400</text><line x1="84" y1="115.24050632911394" x2="122" y2="115.24050632911394" stroke="#aaa" stroke-width="0.15" data-cdr-type="scale-tick" /><line x1="84" y1="83.08860759493672" x2="122" y2="83.08860759493672" stroke="#aaa" stroke-width="0.15" data-cdr-type="scale-tick" /><text x="121" y="81.58860759493672" font-family="SimHei, Heiti SC, sans-serif" font-size="2.2" font-weight="normal" text-anchor="end" fill="#888" data-cdr-type="scale-label">600</text><line x1="84" y1="50.936708860759495" x2="122" y2="50.936708860759495" stroke="#aaa" stroke-width="0.15" data-cdr-type="scale-tick" /><line x1="84" y1="22" x2="84" y2="276" stroke="#ccc" stroke-width="0.1" data-cdr-type="scale-ruler" /><rect x="8" y="52.54430379746836" width="13" height="223.45569620253164" fill="#fafaf8" stroke="none" stroke-width="0" data-cdr-type="merge-cell" data-cdr-field="erathem" data-cdr-value="新元古界" /><text x="14.5" y="164.2721518987342" font-family="SimHei, Heiti SC, sans-serif" font-size="2.4" font-weight="normal" text-anchor="middle" fill="#222" data-cdr-type="merge-label" data-cdr-field="erathem">新元古界</text><rect x="8" y="22.000000000000007" width="13" height="30.544303797468352" fill="#fafaf8" stroke="none" stroke-width="0" data-cdr-type="merge-cell" data-cdr-field="erathem" data-cdr-value="古生界" /><text x="14.5" y="37.27215189873418" font-family="SimHei, Heiti SC, sans-serif" font-size="2.4" font-weight="normal" text-anchor="middle" fill="#222" data-cdr-type="merge-label" data-cdr-field="erathem">古生界</text><rect x="21" y="222.9493670886076" width="13" height="53.0506329113924" fill="#fafaf8" stroke="none" stroke-width="0" data-cdr-type="merge-cell" data-cdr-field="system" data-cdr-value="南华系" /><text x="27.5" y="249.4746835443038" font-family="SimHei, Heiti SC, sans-serif" font-size="2.4" font-weight="normal" text-anchor="middle" fill="#222" data-cdr-type="merge-label" data-cdr-field="system">南华系</text><rect x="21" y="52.54430379746836" width="13" height="170.40506329113924" fill="#fafaf8" stroke="none" stroke-width="0" data-cdr-type="merge-cell" data-cdr-field="system" data-cdr-value="震旦系" /><text x="27.5" y="137.74683544303798" font-family="SimHei, Heiti SC, sans-serif" font-size="2.4" font-weight="normal" text-anchor="middle" fill="#222" data-cdr-type="merge-label" data-cdr-field="system">震旦系</text><rect x="21" y="22.000000000000007" width="13" height="30.544303797468352" fill="#fafaf8" stroke="none" stroke-width="0" data-cdr-type="merge-cell" data-cdr-field="system" data-cdr-value="寒武系" /><text x="27.5" y="37.27215189873418" font-family="SimHei, Heiti SC, sans-serif" font-size="2.4" font-weight="normal" text-anchor="middle" fill="#222" data-cdr-type="merge-label" data-cdr-field="system">寒武系</text><rect x="34" y="165.0759493670886" width="13" height="110.92405063291139" fill="#fafaf8" stroke="none" stroke-width="0" data-cdr-type="merge-cell" data-cdr-field="series" data-cdr-value="下统" /><text x="40.5" y="220.5379746835443" font-family="SimHei, Heiti SC, sans-serif" font-size="2.4" font-weight="normal" text-anchor="middle" fill="#222" data-cdr-type="merge-label" data-cdr-field="series">下统</text><rect x="34" y="52.54430379746836" width="13" height="112.53164556962025" fill="#fafaf8" stroke="none" stroke-width="0" data-cdr-type="merge-cell" data-cdr-field="series" data-cdr-value="上统" /><text x="40.5" y="108.81012658227849" font-family="SimHei, Heiti SC, sans-serif" font-size="2.4" font-weight="normal" text-anchor="middle" fill="#222" data-cdr-type="merge-label" data-cdr-field="series">上统</text><rect x="34" y="22.000000000000007" width="13" height="30.544303797468352" fill="#fafaf8" stroke="none" stroke-width="0" data-cdr-type="merge-cell" data-cdr-field="series" data-cdr-value="下统" /><text x="40.5" y="37.27215189873418" font-family="SimHei, Heiti SC, sans-serif" font-size="2.4" font-weight="normal" text-anchor="middle" fill="#222" data-cdr-type="merge-label" data-cdr-field="series">下统</text><g id="layer_0" data-cdr-type="layer" data-cdr-name="莲沱组" data-cdr-pattern="sand" data-cdr-thickness="120" data-cdr-color="#e589a0" data-cdr-index="0"><rect x="84.3" y="237.41772151898735" width="37.2" height="38.58227848101266" fill="#e589a0" stroke="#555" stroke-width="0.15" data-cdr-type="lithology-rect" /><g clip-path="url(#clip_0)"><circle cx="85.42" cy="238.53772151898735" r="0.35" fill="#555" /><circle cx="85.42" cy="240.77772151898736" r="0.35" fill="#555" /><circle cx="85.42" cy="243.01772151898737" r="0.35" fill="#555" /><circle cx="85.42" cy="245.25772151898738" r="0.35" fill="#555" /><circle cx="85.42" cy="247.4977215189874" r="0.35" fill="#555" /><circle cx="85.42" cy="249.7377215189874" r="0.35" fill="#555" /><circle cx="85.42" cy="251.9777215189874" r="0.35" fill="#555" /><circle cx="85.42" cy="254.21772151898742" r="0.35" fill="#555" /><circle cx="85.42" cy="256.4577215189874" r="0.35" fill="#555" /><circle cx="85.42" cy="258.6977215189874" r="0.35" fill="#555" /><circle cx="85.42" cy="260.9377215189874" r="0.35" fill="#555" /><circle cx="85.42" cy="263.1777215189874" r="0.35" fill="#555" /><circle cx="85.42" cy="265.41772151898743" r="0.35" fill="#555" /><circle cx="85.42" cy="267.65772151898744" r="0.35" fill="#555" /><circle cx="85.42" cy="269.89772151898745" r="0.35" fill="#555" /><circle cx="85.42" cy="272.13772151898746" r="0.35" fill="#555" /><circle cx="85.42" cy="274.37772151898747" r="0.35" fill="#555" /><circle cx="87.66" cy="238.53772151898735" r="0.35" fill="#555" /><circle cx="87.66" cy="240.77772151898736" r="0.35" fill="#555" /><circle cx="87.66" cy="243.01772151898737" r="0.35" fill="#555" /><circle cx="87.66" cy="245.25772151898738" r="0.35" fill="#555" /><circle cx="87.66" cy="247.4977215189874" r="0.35" fill="#555" /><circle cx="87.66" cy="249.7377215189874" r="0.35" fill="#555" /><circle cx="87.66" cy="251.9777215189874" r="0.35" fill="#555" /><circle cx="87.66" cy="254.21772151898742" r="0.35" fill="#555" /><circle cx="87.66" cy="256.4577215189874" r="0.35" fill="#555" /><circle cx="87.66" cy="258.6977215189874" r="0.35" fill="#555" /><circle cx="87.66" cy="260.9377215189874" r="0.35" fill="#555" /><circle cx="87.66" cy="263.1777215189874" r="0.35" fill="#555" /><circle cx="87.66" cy="265.41772151898743" r="0.35" fill="#555" /><circle cx="87.66" cy="267.65772151898744" r="0.35" fill="#555" /><circle cx="87.66" cy="269.89772151898745" r="0.35" fill="#555" /><circle cx="87.66" cy="272.13772151898746" r="0.35" fill="#555" /><circle cx="87.66" cy="274.37772151898747" r="0.35" fill="#555" /><circle cx="89.89999999999999" cy="238.53772151898735" r="0.35" fill="#555" /><circle cx="89.89999999999999" cy="240.77772151898736" r="0.35" fill="#555" /><circle cx="89.89999999999999" cy="243.01772151898737" r="0.35" fill="#555" /><circle cx="89.89999999999999" cy="245.25772151898738" r="0.35" fill="#555" /><circle cx="89.89999999999999" cy="247.4977215189874" r="0.35" fill="#555" /><circle cx="89.89999999999999" cy="249.7377215189874" r="0.35" fill="#555" /><circle cx="89.89999999999999" cy="251.9777215189874" r="0.35" fill="#555" /><circle cx="89.89999999999999" cy="254.21772151898742" r="0.35" fill="#555" /><circle cx="89.89999999999999" cy="256.4577215189874" r="0.35" fill="#555" /><circle cx="89.89999999999999" cy="258.6977215189874" r="0.35" fill="#555" /><circle cx="89.89999999999999" cy="260.9377215189874" r="0.35" fill="#555" /><circle cx="89.89999999999999" cy="263.1777215189874" r="0.35" fill="#555" /><circle cx="89.89999999999999" cy="265.41772151898743" r="0.35" fill="#555" /><circle cx="89.89999999999999" cy="267.65772151898744" r="0.35" fill="#555" /><circle cx="89.89999999999999" cy="269.89772151898745" r="0.35" fill="#555" /><circle cx="89.89999999999999" cy="272.13772151898746" r="0.35" fill="#555" /><circle cx="89.89999999999999" cy="274.37772151898747" r="0.35" fill="#555" /><circle cx="92.13999999999999" cy="238.53772151898735" r="0.35" fill="#555" /><circle cx="92.13999999999999" cy="240.77772151898736" r="0.35" fill="#555" /><circle cx="92.13999999999999" cy="243.01772151898737" r="0.35" fill="#555" /><circle cx="92.13999999999999" cy="245.25772151898738" r="0.35" fill="#555" /><circle cx="92.13999999999999" cy="247.4977215189874" r="0.35" fill="#555" /><circle cx="92.13999999999999" cy="249.7377215189874" r="0.35" fill="#555" /><circle cx="92.13999999999999" cy="251.9777215189874" r="0.35" fill="#555" /><circle cx="92.13999999999999" cy="254.21772151898742" r="0.35" fill="#555" /><circle cx="92.13999999999999" cy="256.4577215189874" r="0.35" fill="#555" /><circle cx="92.13999999999999" cy="258.6977215189874" r="0.35" fill="#555" /><circle cx="92.13999999999999" cy="260.9377215189874" r="0.35" fill="#555" /><circle cx="92.13999999999999" cy="263.1777215189874" r="0.35" fill="#555" /><circle cx="92.13999999999999" cy="265.41772151898743" r="0.35" fill="#555" /><circle cx="92.13999999999999" cy="267.65772151898744" r="0.35" fill="#555" /><circle cx="92.13999999999999" cy="269.89772151898745" r="0.35" fill="#555" /><circle cx="92.13999999999999" cy="272.13772151898746" r="0.35" fill="#555" /><circle cx="92.13999999999999" cy="274.37772151898747" r="0.35" fill="#555" /><circle cx="94.37999999999998" cy="238.53772151898735" r="0.35" fill="#555" /><circle cx="94.37999999999998" cy="240.77772151898736" r="0.35" fill="#555" /><circle cx="94.37999999999998" cy="243.01772151898737" r="0.35" fill="#555" /><circle cx="94.37999999999998" cy="245.25772151898738" r="0.35" fill="#555" /><circle cx="94.37999999999998" cy="247.4977215189874" r="0.35" fill="#555" /><circle cx="94.37999999999998" cy="249.7377215189874" r="0.35" fill="#555" /><circle cx="94.37999999999998" cy="251.9777215189874" r="0.35" fill="#555" /><circle cx="94.37999999999998" cy="254.21772151898742" r="0.35" fill="#555" /><circle cx="94.37999999999998" cy="256.4577215189874" r="0.35" fill="#555" /><circle cx="94.37999999999998" cy="258.6977215189874" r="0.35" fill="#555" /><circle cx="94.37999999999998" cy="260.9377215189874" r="0.35" fill="#555" /><circle cx="94.37999999999998" cy="263.1777215189874" r="0.35" fill="#555" /><circle cx="94.37999999999998" cy="265.41772151898743" r="0.35" fill="#555" /><circle cx="94.37999999999998" cy="267.65772151898744" r="0.35" fill="#555" /><circle cx="94.37999999999998" cy="269.89772151898745" r="0.35" fill="#555" /><circle cx="94.37999999999998" cy="272.13772151898746" r="0.35" fill="#555" /><circle cx="94.37999999999998" cy="274.37772151898747" r="0.35" fill="#555" /><circle cx="96.61999999999998" cy="238.53772151898735" r="0.35" fill="#555" /><circle cx="96.61999999999998" cy="240.77772151898736" r="0.35" fill="#555" /><circle cx="96.61999999999998" cy="243.01772151898737" r="0.35" fill="#555" /><circle cx="96.61999999999998" cy="245.25772151898738" r="0.35" fill="#555" /><circle cx="96.61999999999998" cy="247.4977215189874" r="0.35" fill="#555" /><circle cx="96.61999999999998" cy="249.7377215189874" r="0.35" fill="#555" /><circle cx="96.61999999999998" cy="251.9777215189874" r="0.35" fill="#555" /><circle cx="96.61999999999998" cy="254.21772151898742" r="0.35" fill="#555" /><circle cx="96.61999999999998" cy="256.4577215189874" r="0.35" fill="#555" /><circle cx="96.61999999999998" cy="258.6977215189874" r="0.35" fill="#555" /><circle cx="96.61999999999998" cy="260.9377215189874" r="0.35" fill="#555" /><circle cx="96.61999999999998" cy="263.1777215189874" r="0.35" fill="#555" /><circle cx="96.61999999999998" cy="265.41772151898743" r="0.35" fill="#555" /><circle cx="96.61999999999998" cy="267.65772151898744" r="0.35" fill="#555" /><circle cx="96.61999999999998" cy="269.89772151898745" r="0.35" fill="#555" /><circle cx="96.61999999999998" cy="272.13772151898746" r="0.35" fill="#555" /><circle cx="96.61999999999998" cy="274.37772151898747" r="0.35" fill="#555" /><circle cx="98.85999999999997" cy="238.53772151898735" r="0.35" fill="#555" /><circle cx="98.85999999999997" cy="240.77772151898736" r="0.35" fill="#555" /><circle cx="98.85999999999997" cy="243.01772151898737" r="0.35" fill="#555" /><circle cx="98.85999999999997" cy="245.25772151898738" r="0.35" fill="#555" /><circle cx="98.85999999999997" cy="247.4977215189874" r="0.35" fill="#555" /><circle cx="98.85999999999997" cy="249.7377215189874" r="0.35" fill="#555" /><circle cx="98.85999999999997" cy="251.9777215189874" r="0.35" fill="#555" /><circle cx="98.85999999999997" cy="254.21772151898742" r="0.35" fill="#555" /><circle cx="98.85999999999997" cy="256.4577215189874" r="0.35" fill="#555" /><circle cx="98.85999999999997" cy="258.6977215189874" r="0.35" fill="#555" /><circle cx="98.85999999999997" cy="260.9377215189874" r="0.35" fill="#555" /><circle cx="98.85999999999997" cy="263.1777215189874" r="0.35" fill="#555" /><circle cx="98.85999999999997" cy="265.41772151898743" r="0.35" fill="#555" /><circle cx="98.85999999999997" cy="267.65772151898744" r="0.35" fill="#555" /><circle cx="98.85999999999997" cy="269.89772151898745" r="0.35" fill="#555" /><circle cx="98.85999999999997" cy="272.13772151898746" r="0.35" fill="#555" /><circle cx="98.85999999999997" cy="274.37772151898747" r="0.35" fill="#555" /><circle cx="101.09999999999997" cy="238.53772151898735" r="0.35" fill="#555" /><circle cx="101.09999999999997" cy="240.77772151898736" r="0.35" fill="#555" /><circle cx="101.09999999999997" cy="243.01772151898737" r="0.35" fill="#555" /><circle cx="101.09999999999997" cy="245.25772151898738" r="0.35" fill="#555" /><circle cx="101.09999999999997" cy="247.4977215189874" r="0.35" fill="#555" /><circle cx="101.09999999999997" cy="249.7377215189874" r="0.35" fill="#555" /><circle cx="101.09999999999997" cy="251.9777215189874" r="0.35" fill="#555" /><circle cx="101.09999999999997" cy="254.21772151898742" r="0.35" fill="#555" /><circle cx="101.09999999999997" cy="256.4577215189874" r="0.35" fill="#555" /><circle cx="101.09999999999997" cy="258.6977215189874" r="0.35" fill="#555" /><circle cx="101.09999999999997" cy="260.9377215189874" r="0.35" fill="#555" /><circle cx="101.09999999999997" cy="263.1777215189874" r="0.35" fill="#555" /><circle cx="101.09999999999997" cy="265.41772151898743" r="0.35" fill="#555" /><circle cx="101.09999999999997" cy="267.65772151898744" r="0.35" fill="#555" /><circle cx="101.09999999999997" cy="269.89772151898745" r="0.35" fill="#555" /><circle cx="101.09999999999997" cy="272.13772151898746" r="0.35" fill="#555" /><circle cx="101.09999999999997" cy="274.37772151898747" r="0.35" fill="#555" /><circle cx="103.33999999999996" cy="238.53772151898735" r="0.35" fill="#555" /><circle cx="103.33999999999996" cy="240.77772151898736" r="0.35" fill="#555" /><circle cx="103.33999999999996" cy="243.01772151898737" r="0.35" fill="#555" /><circle cx="103.33999999999996" cy="245.25772151898738" r="0.35" fill="#555" /><circle cx="103.33999999999996" cy="247.4977215189874" r="0.35" fill="#555" /><circle cx="103.33999999999996" cy="249.7377215189874" r="0.35" fill="#555" /><circle cx="103.33999999999996" cy="251.9777215189874" r="0.35" fill="#555" /><circle cx="103.33999999999996" cy="254.21772151898742" r="0.35" fill="#555" /><circle cx="103.33999999999996" cy="256.4577215189874" r="0.35" fill="#555" /><circle cx="103.33999999999996" cy="258.6977215189874" r="0.35" fill="#555" /><circle cx="103.33999999999996" cy="260.9377215189874" r="0.35" fill="#555" /><circle cx="103.33999999999996" cy="263.1777215189874" r="0.35" fill="#555" /><circle cx="103.33999999999996" cy="265.41772151898743" r="0.35" fill="#555" /><circle cx="103.33999999999996" cy="267.65772151898744" r="0.35" fill="#555" /><circle cx="103.33999999999996" cy="269.89772151898745" r="0.35" fill="#555" /><circle cx="103.33999999999996" cy="272.13772151898746" r="0.35" fill="#555" /><circle cx="103.33999999999996" cy="274.37772151898747" r="0.35" fill="#555" /><circle cx="105.57999999999996" cy="238.53772151898735" r="0.35" fill="#555" /><circle cx="105.57999999999996" cy="240.77772151898736" r="0.35" fill="#555" /><circle cx="105.57999999999996" cy="243.01772151898737" r="0.35" fill="#555" /><circle cx="105.57999999999996" cy="245.25772151898738" r="0.35" fill="#555" /><circle cx="105.57999999999996" cy="247.4977215189874" r="0.35" fill="#555" /><circle cx="105.57999999999996" cy="249.7377215189874" r="0.35" fill="#555" /><circle cx="105.57999999999996" cy="251.9777215189874" r="0.35" fill="#555" /><circle cx="105.57999999999996" cy="254.21772151898742" r="0.35" fill="#555" /><circle cx="105.57999999999996" cy="256.4577215189874" r="0.35" fill="#555" /><circle cx="105.57999999999996" cy="258.6977215189874" r="0.35" fill="#555" /><circle cx="105.57999999999996" cy="260.9377215189874" r="0.35" fill="#555" /><circle cx="105.57999999999996" cy="263.1777215189874" r="0.35" fill="#555" /><circle cx="105.57999999999996" cy="265.41772151898743" r="0.35" fill="#555" /><circle cx="105.57999999999996" cy="267.65772151898744" r="0.35" fill="#555" /><circle cx="105.57999999999996" cy="269.89772151898745" r="0.35" fill="#555" /><circle cx="105.57999999999996" cy="272.13772151898746" r="0.35" fill="#555" /><circle cx="105.57999999999996" cy="274.37772151898747" r="0.35" fill="#555" /><circle cx="107.81999999999995" cy="238.53772151898735" r="0.35" fill="#555" /><circle cx="107.81999999999995" cy="240.77772151898736" r="0.35" fill="#555" /><circle cx="107.81999999999995" cy="243.01772151898737" r="0.35" fill="#555" /><circle cx="107.81999999999995" cy="245.25772151898738" r="0.35" fill="#555" /><circle cx="107.81999999999995" cy="247.4977215189874" r="0.35" fill="#555" /><circle cx="107.81999999999995" cy="249.7377215189874" r="0.35" fill="#555" /><circle cx="107.81999999999995" cy="251.9777215189874" r="0.35" fill="#555" /><circle cx="107.81999999999995" cy="254.21772151898742" r="0.35" fill="#555" /><circle cx="107.81999999999995" cy="256.4577215189874" r="0.35" fill="#555" /><circle cx="107.81999999999995" cy="258.6977215189874" r="0.35" fill="#555" /><circle cx="107.81999999999995" cy="260.9377215189874" r="0.35" fill="#555" /><circle cx="107.81999999999995" cy="263.1777215189874" r="0.35" fill="#555" /><circle cx="107.81999999999995" cy="265.41772151898743" r="0.35" fill="#555" /><circle cx="107.81999999999995" cy="267.65772151898744" r="0.35" fill="#555" /><circle cx="107.81999999999995" cy="269.89772151898745" r="0.35" fill="#555" /><circle cx="107.81999999999995" cy="272.13772151898746" r="0.35" fill="#555" /><circle cx="107.81999999999995" cy="274.37772151898747" r="0.35" fill="#555" /><circle cx="110.05999999999995" cy="238.53772151898735" r="0.35" fill="#555" /><circle cx="110.05999999999995" cy="240.77772151898736" r="0.35" fill="#555" /><circle cx="110.05999999999995" cy="243.01772151898737" r="0.35" fill="#555" /><circle cx="110.05999999999995" cy="245.25772151898738" r="0.35" fill="#555" /><circle cx="110.05999999999995" cy="247.4977215189874" r="0.35" fill="#555" /><circle cx="110.05999999999995" cy="249.7377215189874" r="0.35" fill="#555" /><circle cx="110.05999999999995" cy="251.9777215189874" r="0.35" fill="#555" /><circle cx="110.05999999999995" cy="254.21772151898742" r="0.35" fill="#555" /><circle cx="110.05999999999995" cy="256.4577215189874" r="0.35" fill="#555" /><circle cx="110.05999999999995" cy="258.6977215189874" r="0.35" fill="#555" /><circle cx="110.05999999999995" cy="260.9377215189874" r="0.35" fill="#555" /><circle cx="110.05999999999995" cy="263.1777215189874" r="0.35" fill="#555" /><circle cx="110.05999999999995" cy="265.41772151898743" r="0.35" fill="#555" /><circle cx="110.05999999999995" cy="267.65772151898744" r="0.35" fill="#555" /><circle cx="110.05999999999995" cy="269.89772151898745" r="0.35" fill="#555" /><circle cx="110.05999999999995" cy="272.13772151898746" r="0.35" fill="#555" /><circle cx="110.05999999999995" cy="274.37772151898747" r="0.35" fill="#555" /><circle cx="112.29999999999994" cy="238.53772151898735" r="0.35" fill="#555" /><circle cx="112.29999999999994" cy="240.77772151898736" r="0.35" fill="#555" /><circle cx="112.29999999999994" cy="243.01772151898737" r="0.35" fill="#555" /><circle cx="112.29999999999994" cy="245.25772151898738" r="0.35" fill="#555" /><circle cx="112.29999999999994" cy="247.4977215189874" r="0.35" fill="#555" /><circle cx="112.29999999999994" cy="249.7377215189874" r="0.35" fill="#555" /><circle cx="112.29999999999994" cy="251.9777215189874" r="0.35" fill="#555" /><circle cx="112.29999999999994" cy="254.21772151898742" r="0.35" fill="#555" /><circle cx="112.29999999999994" cy="256.4577215189874" r="0.35" fill="#555" /><circle cx="112.29999999999994" cy="258.6977215189874" r="0.35" fill="#555" /><circle cx="112.29999999999994" cy="260.9377215189874" r="0.35" fill="#555" /><circle cx="112.29999999999994" cy="263.1777215189874" r="0.35" fill="#555" /><circle cx="112.29999999999994" cy="265.41772151898743" r="0.35" fill="#555" /><circle cx="112.29999999999994" cy="267.65772151898744" r="0.35" fill="#555" /><circle cx="112.29999999999994" cy="269.89772151898745" r="0.35" fill="#555" /><circle cx="112.29999999999994" cy="272.13772151898746" r="0.35" fill="#555" /><circle cx="112.29999999999994" cy="274.37772151898747" r="0.35" fill="#555" /><circle cx="114.53999999999994" cy="238.53772151898735" r="0.35" fill="#555" /><circle cx="114.53999999999994" cy="240.77772151898736" r="0.35" fill="#555" /><circle cx="114.53999999999994" cy="243.01772151898737" r="0.35" fill="#555" /><circle cx="114.53999999999994" cy="245.25772151898738" r="0.35" fill="#555" /><circle cx="114.53999999999994" cy="247.4977215189874" r="0.35" fill="#555" /><circle cx="114.53999999999994" cy="249.7377215189874" r="0.35" fill="#555" /><circle cx="114.53999999999994" cy="251.9777215189874" r="0.35" fill="#555" /><circle cx="114.53999999999994" cy="254.21772151898742" r="0.35" fill="#555" /><circle cx="114.53999999999994" cy="256.4577215189874" r="0.35" fill="#555" /><circle cx="114.53999999999994" cy="258.6977215189874" r="0.35" fill="#555" /><circle cx="114.53999999999994" cy="260.9377215189874" r="0.35" fill="#555" /><circle cx="114.53999999999994" cy="263.1777215189874" r="0.35" fill="#555" /><circle cx="114.53999999999994" cy="265.41772151898743" r="0.35" fill="#555" /><circle cx="114.53999999999994" cy="267.65772151898744" r="0.35" fill="#555" /><circle cx="114.53999999999994" cy="269.89772151898745" r="0.35" fill="#555" /><circle cx="114.53999999999994" cy="272.13772151898746" r="0.35" fill="#555" /><circle cx="114.53999999999994" cy="274.37772151898747" r="0.35" fill="#555" /><circle cx="116.77999999999993" cy="238.53772151898735" r="0.35" fill="#555" /><circle cx="116.77999999999993" cy="240.77772151898736" r="0.35" fill="#555" /><circle cx="116.77999999999993" cy="243.01772151898737" r="0.35" fill="#555" /><circle cx="116.77999999999993" cy="245.25772151898738" r="0.35" fill="#555" /><circle cx="116.77999999999993" cy="247.4977215189874" r="0.35" fill="#555" /><circle cx="116.77999999999993" cy="249.7377215189874" r="0.35" fill="#555" /><circle cx="116.77999999999993" cy="251.9777215189874" r="0.35" fill="#555" /><circle cx="116.77999999999993" cy="254.21772151898742" r="0.35" fill="#555" /><circle cx="116.77999999999993" cy="256.4577215189874" r="0.35" fill="#555" /><circle cx="116.77999999999993" cy="258.6977215189874" r="0.35" fill="#555" /><circle cx="116.77999999999993" cy="260.9377215189874" r="0.35" fill="#555" /><circle cx="116.77999999999993" cy="263.1777215189874" r="0.35" fill="#555" /><circle cx="116.77999999999993" cy="265.41772151898743" r="0.35" fill="#555" /><circle cx="116.77999999999993" cy="267.65772151898744" r="0.35" fill="#555" /><circle cx="116.77999999999993" cy="269.89772151898745" r="0.35" fill="#555" /><circle cx="116.77999999999993" cy="272.13772151898746" r="0.35" fill="#555" /><circle cx="116.77999999999993" cy="274.37772151898747" r="0.35" fill="#555" /><circle cx="119.01999999999992" cy="238.53772151898735" r="0.35" fill="#555" /><circle cx="119.01999999999992" cy="240.77772151898736" r="0.35" fill="#555" /><circle cx="119.01999999999992" cy="243.01772151898737" r="0.35" fill="#555" /><circle cx="119.01999999999992" cy="245.25772151898738" r="0.35" fill="#555" /><circle cx="119.01999999999992" cy="247.4977215189874" r="0.35" fill="#555" /><circle cx="119.01999999999992" cy="249.7377215189874" r="0.35" fill="#555" /><circle cx="119.01999999999992" cy="251.9777215189874" r="0.35" fill="#555" /><circle cx="119.01999999999992" cy="254.21772151898742" r="0.35" fill="#555" /><circle cx="119.01999999999992" cy="256.4577215189874" r="0.35" fill="#555" /><circle cx="119.01999999999992" cy="258.6977215189874" r="0.35" fill="#555" /><circle cx="119.01999999999992" cy="260.9377215189874" r="0.35" fill="#555" /><circle cx="119.01999999999992" cy="263.1777215189874" r="0.35" fill="#555" /><circle cx="119.01999999999992" cy="265.41772151898743" r="0.35" fill="#555" /><circle cx="119.01999999999992" cy="267.65772151898744" r="0.35" fill="#555" /><circle cx="119.01999999999992" cy="269.89772151898745" r="0.35" fill="#555" /><circle cx="119.01999999999992" cy="272.13772151898746" r="0.35" fill="#555" /><circle cx="119.01999999999992" cy="274.37772151898747" r="0.35" fill="#555" /><circle cx="121.25999999999992" cy="238.53772151898735" r="0.35" fill="#555" /><circle cx="121.25999999999992" cy="240.77772151898736" r="0.35" fill="#555" /><circle cx="121.25999999999992" cy="243.01772151898737" r="0.35" fill="#555" /><circle cx="121.25999999999992" cy="245.25772151898738" r="0.35" fill="#555" /><circle cx="121.25999999999992" cy="247.4977215189874" r="0.35" fill="#555" /><circle cx="121.25999999999992" cy="249.7377215189874" r="0.35" fill="#555" /><circle cx="121.25999999999992" cy="251.9777215189874" r="0.35" fill="#555" /><circle cx="121.25999999999992" cy="254.21772151898742" r="0.35" fill="#555" /><circle cx="121.25999999999992" cy="256.4577215189874" r="0.35" fill="#555" /><circle cx="121.25999999999992" cy="258.6977215189874" r="0.35" fill="#555" /><circle cx="121.25999999999992" cy="260.9377215189874" r="0.35" fill="#555" /><circle cx="121.25999999999992" cy="263.1777215189874" r="0.35" fill="#555" /><circle cx="121.25999999999992" cy="265.41772151898743" r="0.35" fill="#555" /><circle cx="121.25999999999992" cy="267.65772151898744" r="0.35" fill="#555" /><circle cx="121.25999999999992" cy="269.89772151898745" r="0.35" fill="#555" /><circle cx="121.25999999999992" cy="272.13772151898746" r="0.35" fill="#555" /><circle cx="121.25999999999992" cy="274.37772151898747" r="0.35" fill="#555" /></g><text x="48" y="256.7088607594937" font-family="SimHei, Heiti SC, sans-serif" font-size="2.2" font-weight="normal" text-anchor="start" fill="#222" data-cdr-type="formation-text">莲沱组</text><text x="66" y="256.7088607594937" font-family="SimHei, Heiti SC, sans-serif" font-size="2.2" font-weight="bold" text-anchor="start" fill="#000" data-cdr-type="symbol-text">Nh₁l</text><polygon points="125.5,237.41772151898735 133.5,237.41772151898735 133.5,276 125.5,276" fill="#aaa" opacity="0.5" data-cdr-type="grain-triangle" /><text x="131.5" y="256.7088607594937" font-family="SimHei, Heiti SC, sans-serif" font-size="1.8" font-weight="normal" text-anchor="middle" fill="#999" data-cdr-type="grain-label">中砂</text><text x="140" y="256.7088607594937" font-family="SimHei, Heiti SC, sans-serif" font-size="2.2" font-weight="normal" text-anchor="start" fill="#222" data-cdr-type="thickness-text">120.0</text><text x="150" y="256.7088607594937" font-family="SimHei, Heiti SC, sans-serif" font-size="2" font-weight="normal" text-anchor="start" fill="#333" data-cdr-type="description-text">紫红色中厚层砂岩</text><path d="M 98.9,235.91772151898735 L 100.9,238.41772151898735 L 102.9,235.91772151898735 L 104.9,238.41772151898735 L 106.9,235.91772151898735" fill="none" stroke="#c0392b" stroke-width="0.35" data-cdr-type="contact-unconformity" /><text x="123.0" y="256.7088607594937" font-family="SimHei, Heiti SC, sans-serif" font-size="1.8" font-weight="normal" text-anchor="start" fill="#e67e22" data-cdr-type="age-ma">780</text></g><line x1="8" y1="276" x2="214" y2="276" stroke="#bbb" stroke-width="0.12" data-cdr-type="row-separator" /><g id="layer_1" data-cdr-type="layer" data-cdr-name="南沱组" data-cdr-pattern="conglo" data-cdr-thickness="45" data-cdr-color="#adcca3" data-cdr-index="1"><rect x="84.3" y="222.9493670886076" width="37.2" height="14.468354430379746" fill="#adcca3" stroke="#555" stroke-width="0.15" data-cdr-type="lithology-rect" /><g clip-path="url(#clip_1)"><circle cx="88.332" cy="226.9813670886076" r="1.5" fill="none" stroke="#000" stroke-width="0.2" /><circle cx="88.332" cy="232.7413670886076" r="1.5" fill="none" stroke="#000" stroke-width="0.2" /><circle cx="94.092" cy="226.9813670886076" r="1.5" fill="none" stroke="#000" stroke-width="0.2" /><circle cx="94.092" cy="232.7413670886076" r="1.5" fill="none" stroke="#000" stroke-width="0.2" /><circle cx="99.852" cy="226.9813670886076" r="1.5" fill="none" stroke="#000" stroke-width="0.2" /><circle cx="99.852" cy="232.7413670886076" r="1.5" fill="none" stroke="#000" stroke-width="0.2" /><circle cx="105.61200000000001" cy="226.9813670886076" r="1.5" fill="none" stroke="#000" stroke-width="0.2" /><circle cx="105.61200000000001" cy="232.7413670886076" r="1.5" fill="none" stroke="#000" stroke-width="0.2" /><circle cx="111.37200000000001" cy="226.9813670886076" r="1.5" fill="none" stroke="#000" stroke-width="0.2" /><circle cx="111.37200000000001" cy="232.7413670886076" r="1.5" fill="none" stroke="#000" stroke-width="0.2" /><circle cx="117.13200000000002" cy="226.9813670886076" r="1.5" fill="none" stroke="#000" stroke-width="0.2" /><circle cx="117.13200000000002" cy="232.7413670886076" r="1.5" fill="none" stroke="#000" stroke-width="0.2" /><circle cx="93.51599999999999" cy="232.1653670886076" r="0.4" fill="#555" /><circle cx="99.276" cy="232.1653670886076" r="0.4" fill="#555" /><circle cx="105.036" cy="232.1653670886076" r="0.4" fill="#555" /><circle cx="110.796" cy="232.1653670886076" r="0.4" fill="#555" /><circle cx="116.55600000000001" cy="232.1653670886076" r="0.4" fill="#555" /></g><text x="48" y="230.18354430379748" font-family="SimHei, Heiti SC, sans-serif" font-size="2.2" font-weight="normal" text-anchor="start" fill="#222" data-cdr-type="formation-text">南沱组</text><text x="66" y="230.18354430379748" font-family="SimHei, Heiti SC, sans-serif" font-size="2.2" font-weight="bold" text-anchor="start" fill="#000" data-cdr-type="symbol-text">Nh₁n</text><polygon points="125.5,222.9493670886076 137.5,222.9493670886076 137.5,237.41772151898735 125.5,237.41772151898735" fill="#aaa" opacity="0.5" data-cdr-type="grain-triangle" /><text x="131.5" y="230.18354430379748" font-family="SimHei, Heiti SC, sans-serif" font-size="1.8" font-weight="normal" text-anchor="middle" fill="#999" data-cdr-type="grain-label">砾石</text><text x="140" y="230.18354430379748" font-family="SimHei, Heiti SC, sans-serif" font-size="2.2" font-weight="normal" text-anchor="start" fill="#222" data-cdr-type="thickness-text">45.0</text><text x="150" y="230.18354430379748" font-family="SimHei, Heiti SC, sans-serif" font-size="2" font-weight="normal" text-anchor="start" fill="#333" data-cdr-type="description-text">灰绿色冰碛砾岩</text><text x="123.0" y="230.18354430379748" font-family="SimHei, Heiti SC, sans-serif" font-size="1.8" font-weight="normal" text-anchor="start" fill="#e67e22" data-cdr-type="age-ma">720</text></g><line x1="8" y1="237.41772151898735" x2="214" y2="237.41772151898735" stroke="#bbb" stroke-width="0.12" data-cdr-type="row-separator" /><g id="layer_2" data-cdr-type="layer" data-cdr-name="陡山沱组" data-cdr-pattern="dolo" data-cdr-thickness="180" data-cdr-color="#a9b2a0" data-cdr-index="2"><rect x="84.3" y="165.0759493670886" width="37.2" height="57.87341772151898" fill="#a9b2a0" stroke="#555" stroke-width="0.15" data-cdr-type="lithology-rect" /><g clip-path="url(#clip_2)"><line x1="-10.773417721518982" y1="165.0759493670886" x2="47.1" y2="222.9493670886076" stroke="#999" stroke-width="0.15" /><line x1="-6.933417721518982" y1="165.0759493670886" x2="50.94" y2="222.9493670886076" stroke="#999" stroke-width="0.15" /><line x1="-3.093417721518982" y1="165.0759493670886" x2="54.78" y2="222.9493670886076" stroke="#999" stroke-width="0.15" /><line x1="0.7465822784810179" y1="165.0759493670886" x2="58.620000000000005" y2="222.9493670886076" stroke="#999" stroke-width="0.15" /><line x1="4.586582278481018" y1="165.0759493670886" x2="62.46" y2="222.9493670886076" stroke="#999" stroke-width="0.15" /><line x1="8.426582278481018" y1="165.0759493670886" x2="66.3" y2="222.9493670886076" stroke="#999" stroke-width="0.15" /><line x1="12.266582278481017" y1="165.0759493670886" x2="70.14" y2="222.9493670886076" stroke="#999" stroke-width="0.15" /><line x1="16.106582278481017" y1="165.0759493670886" x2="73.98" y2="222.9493670886076" stroke="#999" stroke-width="0.15" /><line x1="19.946582278481017" y1="165.0759493670886" x2="77.82" y2="222.9493670886076" stroke="#999" stroke-width="0.15" /><line x1="23.786582278481017" y1="165.0759493670886" x2="81.66" y2="222.9493670886076" stroke="#999" stroke-width="0.15" /><line x1="27.626582278481017" y1="165.0759493670886" x2="85.5" y2="222.9493670886076" stroke="#999" stroke-width="0.15" /><line x1="31.466582278481017" y1="165.0759493670886" x2="89.34" y2="222.9493670886076" stroke="#999" stroke-width="0.15" /><line x1="35.30658227848102" y1="165.0759493670886" x2="93.18" y2="222.9493670886076" stroke="#999" stroke-width="0.15" /><line x1="39.14658227848102" y1="165.0759493670886" x2="97.02000000000001" y2="222.9493670886076" stroke="#999" stroke-width="0.15" /><line x1="42.98658227848102" y1="165.0759493670886" x2="100.86000000000001" y2="222.9493670886076" stroke="#999" stroke-width="0.15" /><line x1="46.82658227848103" y1="165.0759493670886" x2="104.70000000000002" y2="222.9493670886076" stroke="#999" stroke-width="0.15" /><line x1="50.66658227848103" y1="165.0759493670886" x2="108.54000000000002" y2="222.9493670886076" stroke="#999" stroke-width="0.15" /><line x1="54.506582278481034" y1="165.0759493670886" x2="112.38000000000002" y2="222.9493670886076" stroke="#999" stroke-width="0.15" /><line x1="58.34658227848104" y1="165.0759493670886" x2="116.22000000000003" y2="222.9493670886076" stroke="#999" stroke-width="0.15" /><line x1="62.18658227848104" y1="165.0759493670886" x2="120.06000000000003" y2="222.9493670886076" stroke="#999" stroke-width="0.15" /><line x1="66.02658227848104" y1="165.0759493670886" x2="123.90000000000003" y2="222.9493670886076" stroke="#999" stroke-width="0.15" /><line x1="69.86658227848105" y1="165.0759493670886" x2="127.74000000000004" y2="222.9493670886076" stroke="#999" stroke-width="0.15" /><line x1="73.70658227848105" y1="165.0759493670886" x2="131.58000000000004" y2="222.9493670886076" stroke="#999" stroke-width="0.15" /><line x1="77.54658227848105" y1="165.0759493670886" x2="135.42000000000004" y2="222.9493670886076" stroke="#999" stroke-width="0.15" /><line x1="81.38658227848106" y1="165.0759493670886" x2="139.26000000000005" y2="222.9493670886076" stroke="#999" stroke-width="0.15" /><line x1="85.22658227848106" y1="165.0759493670886" x2="143.10000000000005" y2="222.9493670886076" stroke="#999" stroke-width="0.15" /><line x1="89.06658227848106" y1="165.0759493670886" x2="146.94000000000005" y2="222.9493670886076" stroke="#999" stroke-width="0.15" /><line x1="92.90658227848107" y1="165.0759493670886" x2="150.78000000000006" y2="222.9493670886076" stroke="#999" stroke-width="0.15" /><line x1="96.74658227848107" y1="165.0759493670886" x2="154.62000000000006" y2="222.9493670886076" stroke="#999" stroke-width="0.15" /><line x1="100.58658227848107" y1="165.0759493670886" x2="158.46000000000006" y2="222.9493670886076" stroke="#999" stroke-width="0.15" /><line x1="104.42658227848108" y1="165.0759493670886" x2="162.30000000000007" y2="222.9493670886076" stroke="#999" stroke-width="0.15" /><line x1="108.26658227848108" y1="165.0759493670886" x2="166.14000000000007" y2="222.9493670886076" stroke="#999" stroke-width="0.15" /><line x1="112.10658227848108" y1="165.0759493670886" x2="169.98000000000008" y2="222.9493670886076" stroke="#999" stroke-width="0.15" /><line x1="115.94658227848109" y1="165.0759493670886" x2="173.82000000000008" y2="222.9493670886076" stroke="#999" stroke-width="0.15" /><line x1="119.78658227848109" y1="165.0759493670886" x2="177.66000000000008" y2="222.9493670886076" stroke="#999" stroke-width="0.15" /><line x1="123.6265822784811" y1="165.0759493670886" x2="181.50000000000009" y2="222.9493670886076" stroke="#999" stroke-width="0.15" /><line x1="127.4665822784811" y1="165.0759493670886" x2="185.3400000000001" y2="222.9493670886076" stroke="#999" stroke-width="0.15" /><line x1="131.3065822784811" y1="165.0759493670886" x2="189.1800000000001" y2="222.9493670886076" stroke="#999" stroke-width="0.15" /><line x1="135.1465822784811" y1="165.0759493670886" x2="193.0200000000001" y2="222.9493670886076" stroke="#999" stroke-width="0.15" /><line x1="138.9865822784811" y1="165.0759493670886" x2="196.8600000000001" y2="222.9493670886076" stroke="#999" stroke-width="0.15" /><line x1="142.8265822784811" y1="165.0759493670886" x2="200.7000000000001" y2="222.9493670886076" stroke="#999" stroke-width="0.15" /><line x1="146.66658227848112" y1="165.0759493670886" x2="204.5400000000001" y2="222.9493670886076" stroke="#999" stroke-width="0.15" /><line x1="150.50658227848112" y1="165.0759493670886" x2="208.3800000000001" y2="222.9493670886076" stroke="#999" stroke-width="0.15" /><line x1="154.34658227848112" y1="165.0759493670886" x2="212.2200000000001" y2="222.9493670886076" stroke="#999" stroke-width="0.15" /><line x1="158.18658227848113" y1="165.0759493670886" x2="216.06000000000012" y2="222.9493670886076" stroke="#999" stroke-width="0.15" /><line x1="162.02658227848113" y1="165.0759493670886" x2="219.90000000000012" y2="222.9493670886076" stroke="#999" stroke-width="0.15" /><line x1="165.86658227848113" y1="165.0759493670886" x2="223.74000000000012" y2="222.9493670886076" stroke="#999" stroke-width="0.15" /><line x1="169.70658227848114" y1="165.0759493670886" x2="227.58000000000013" y2="222.9493670886076" stroke="#999" stroke-width="0.15" /><line x1="173.54658227848114" y1="165.0759493670886" x2="231.42000000000013" y2="222.9493670886076" stroke="#999" stroke-width="0.15" /><line x1="177.38658227848114" y1="165.0759493670886" x2="235.26000000000013" y2="222.9493670886076" stroke="#999" stroke-width="0.15" /><line x1="-10.773417721518982" y1="222.9493670886076" x2="47.1" y2="165.0759493670886" stroke="#999" stroke-width="0.15" /><line x1="-6.933417721518982" y1="222.9493670886076" x2="50.94" y2="165.0759493670886" stroke="#999" stroke-width="0.15" /><line x1="-3.093417721518982" y1="222.9493670886076" x2="54.78" y2="165.0759493670886" stroke="#999" stroke-width="0.15" /><line x1="0.7465822784810179" y1="222.9493670886076" x2="58.620000000000005" y2="165.0759493670886" stroke="#999" stroke-width="0.15" /><line x1="4.586582278481018" y1="222.9493670886076" x2="62.46" y2="165.0759493670886" stroke="#999" stroke-width="0.15" /><line x1="8.426582278481018" y1="222.9493670886076" x2="66.3" y2="165.0759493670886" stroke="#999" stroke-width="0.15" /><line x1="12.266582278481017" y1="222.9493670886076" x2="70.14" y2="165.0759493670886" stroke="#999" stroke-width="0.15" /><line x1="16.106582278481017" y1="222.9493670886076" x2="73.98" y2="165.0759493670886" stroke="#999" stroke-width="0.15" /><line x1="19.946582278481017" y1="222.9493670886076" x2="77.82" y2="165.0759493670886" stroke="#999" stroke-width="0.15" /><line x1="23.786582278481017" y1="222.9493670886076" x2="81.66" y2="165.0759493670886" stroke="#999" stroke-width="0.15" /><line x1="27.626582278481017" y1="222.9493670886076" x2="85.5" y2="165.0759493670886" stroke="#999" stroke-width="0.15" /><line x1="31.466582278481017" y1="222.9493670886076" x2="89.34" y2="165.0759493670886" stroke="#999" stroke-width="0.15" /><line x1="35.30658227848102" y1="222.9493670886076" x2="93.18" y2="165.0759493670886" stroke="#999" stroke-width="0.15" /><line x1="39.14658227848102" y1="222.9493670886076" x2="97.02000000000001" y2="165.0759493670886" stroke="#999" stroke-width="0.15" /><line x1="42.98658227848102" y1="222.9493670886076" x2="100.86000000000001" y2="165.0759493670886" stroke="#999" stroke-width="0.15" /><line x1="46.82658227848103" y1="222.9493670886076" x2="104.70000000000002" y2="165.0759493670886" stroke="#999" stroke-width="0.15" /><line x1="50.66658227848103" y1="222.9493670886076" x2="108.54000000000002" y2="165.0759493670886" stroke="#999" stroke-width="0.15" /><line x1="54.506582278481034" y1="222.9493670886076" x2="112.38000000000002" y2="165.0759493670886" stroke="#999" stroke-width="0.15" /><line x1="58.34658227848104" y1="222.9493670886076" x2="116.22000000000003" y2="165.0759493670886" stroke="#999" stroke-width="0.15" /><line x1="62.18658227848104" y1="222.9493670886076" x2="120.06000000000003" y2="165.0759493670886" stroke="#999" stroke-width="0.15" /><line x1="66.02658227848104" y1="222.9493670886076" x2="123.90000000000003" y2="165.0759493670886" stroke="#999" stroke-width="0.15" /><line x1="69.86658227848105" y1="222.9493670886076" x2="127.74000000000004" y2="165.0759493670886" stroke="#999" stroke-width="0.15" /><line x1="73.70658227848105" y1="222.9493670886076" x2="131.58000000000004" y2="165.0759493670886" stroke="#999" stroke-width="0.15" /><line x1="77.54658227848105" y1="222.9493670886076" x2="135.42000000000004" y2="165.0759493670886" stroke="#999" stroke-width="0.15" /><line x1="81.38658227848106" y1="222.9493670886076" x2="139.26000000000005" y2="165.0759493670886" stroke="#999" stroke-width="0.15" /><line x1="85.22658227848106" y1="222.9493670886076" x2="143.10000000000005" y2="165.0759493670886" stroke="#999" stroke-width="0.15" /><line x1="89.06658227848106" y1="222.9493670886076" x2="146.94000000000005" y2="165.0759493670886" stroke="#999" stroke-width="0.15" /><line x1="92.90658227848107" y1="222.9493670886076" x2="150.78000000000006" y2="165.0759493670886" stroke="#999" stroke-width="0.15" /><line x1="96.74658227848107" y1="222.9493670886076" x2="154.62000000000006" y2="165.0759493670886" stroke="#999" stroke-width="0.15" /><line x1="100.58658227848107" y1="222.9493670886076" x2="158.46000000000006" y2="165.0759493670886" stroke="#999" stroke-width="0.15" /><line x1="104.42658227848108" y1="222.9493670886076" x2="162.30000000000007" y2="165.0759493670886" stroke="#999" stroke-width="0.15" /><line x1="108.26658227848108" y1="222.9493670886076" x2="166.14000000000007" y2="165.0759493670886" stroke="#999" stroke-width="0.15" /><line x1="112.10658227848108" y1="222.9493670886076" x2="169.98000000000008" y2="165.0759493670886" stroke="#999" stroke-width="0.15" /><line x1="115.94658227848109" y1="222.9493670886076" x2="173.82000000000008" y2="165.0759493670886" stroke="#999" stroke-width="0.15" /><line x1="119.78658227848109" y1="222.9493670886076" x2="177.66000000000008" y2="165.0759493670886" stroke="#999" stroke-width="0.15" /><line x1="123.6265822784811" y1="222.9493670886076" x2="181.50000000000009" y2="165.0759493670886" stroke="#999" stroke-width="0.15" /><line x1="127.4665822784811" y1="222.9493670886076" x2="185.3400000000001" y2="165.0759493670886" stroke="#999" stroke-width="0.15" /><line x1="131.3065822784811" y1="222.9493670886076" x2="189.1800000000001" y2="165.0759493670886" stroke="#999" stroke-width="0.15" /><line x1="135.1465822784811" y1="222.9493670886076" x2="193.0200000000001" y2="165.0759493670886" stroke="#999" stroke-width="0.15" /><line x1="138.9865822784811" y1="222.9493670886076" x2="196.8600000000001" y2="165.0759493670886" stroke="#999" stroke-width="0.15" /><line x1="142.8265822784811" y1="222.9493670886076" x2="200.7000000000001" y2="165.0759493670886" stroke="#999" stroke-width="0.15" /><line x1="146.66658227848112" y1="222.9493670886076" x2="204.5400000000001" y2="165.0759493670886" stroke="#999" stroke-width="0.15" /><line x1="150.50658227848112" y1="222.9493670886076" x2="208.3800000000001" y2="165.0759493670886" stroke="#999" stroke-width="0.15" /><line x1="154.34658227848112" y1="222.9493670886076" x2="212.2200000000001" y2="165.0759493670886" stroke="#999" stroke-width="0.15" /><line x1="158.18658227848113" y1="222.9493670886076" x2="216.06000000000012" y2="165.0759493670886" stroke="#999" stroke-width="0.15" /><line x1="162.02658227848113" y1="222.9493670886076" x2="219.90000000000012" y2="165.0759493670886" stroke="#999" stroke-width="0.15" /><line x1="165.86658227848113" y1="222.9493670886076" x2="223.74000000000012" y2="165.0759493670886" stroke="#999" stroke-width="0.15" /><line x1="169.70658227848114" y1="222.9493670886076" x2="227.58000000000013" y2="165.0759493670886" stroke="#999" stroke-width="0.15" /><line x1="173.54658227848114" y1="222.9493670886076" x2="231.42000000000013" y2="165.0759493670886" stroke="#999" stroke-width="0.15" /><line x1="177.38658227848114" y1="222.9493670886076" x2="235.26000000000013" y2="165.0759493670886" stroke="#999" stroke-width="0.15" /></g><text x="48" y="194.0126582278481" font-family="SimHei, Heiti SC, sans-serif" font-size="2.2" font-weight="normal" text-anchor="start" fill="#222" data-cdr-type="formation-text">陡山沱组</text><text x="66" y="194.0126582278481" font-family="SimHei, Heiti SC, sans-serif" font-size="2.2" font-weight="bold" text-anchor="start" fill="#000" data-cdr-type="symbol-text">Z₁d</text><text x="80.5" y="194.0126582278481" font-family="SimHei, Heiti SC, sans-serif" font-size="3.5" font-weight="normal" text-anchor="middle" fill="#333" data-cdr-type="fossil-icon" data-cdr-fossil="algae">🌿</text><polygon points="125.5,165.0759493670886 129.5,165.0759493670886 129.5,222.9493670886076 125.5,222.9493670886076" fill="#aaa" opacity="0.5" data-cdr-type="grain-triangle" /><text x="131.5" y="194.0126582278481" font-family="SimHei, Heiti SC, sans-serif" font-size="1.8" font-weight="normal" text-anchor="middle" fill="#999" data-cdr-type="grain-label">粉砂</text><text x="140" y="194.0126582278481" font-family="SimHei, Heiti SC, sans-serif" font-size="2.2" font-weight="normal" text-anchor="start" fill="#222" data-cdr-type="thickness-text">180.0</text><text x="150" y="194.0126582278481" font-family="SimHei, Heiti SC, sans-serif" font-size="2" font-weight="normal" text-anchor="start" fill="#333" data-cdr-type="description-text">灰黑色泥质白云岩</text><text x="123.0" y="194.0126582278481" font-family="SimHei, Heiti SC, sans-serif" font-size="1.8" font-weight="normal" text-anchor="start" fill="#e67e22" data-cdr-type="age-ma">635</text></g><line x1="8" y1="222.9493670886076" x2="214" y2="222.9493670886076" stroke="#bbb" stroke-width="0.12" data-cdr-type="row-separator" /><g id="layer_3" data-cdr-type="layer" data-cdr-name="灯影组" data-cdr-pattern="dolo" data-cdr-thickness="350" data-cdr-color="#e5e5da" data-cdr-index="3"><rect x="84.3" y="52.54430379746836" width="37.2" height="112.53164556962025" fill="#e5e5da" stroke="#555" stroke-width="0.15" data-cdr-type="lithology-rect" /><g clip-path="url(#clip_3)"><line x1="-65.43164556962024" y1="52.54430379746836" x2="47.10000000000001" y2="165.0759493670886" stroke="#999" stroke-width="0.15" /><line x1="-61.59164556962024" y1="52.54430379746836" x2="50.94000000000001" y2="165.0759493670886" stroke="#999" stroke-width="0.15" /><line x1="-57.75164556962024" y1="52.54430379746836" x2="54.780000000000015" y2="165.0759493670886" stroke="#999" stroke-width="0.15" /><line x1="-53.911645569620234" y1="52.54430379746836" x2="58.62000000000002" y2="165.0759493670886" stroke="#999" stroke-width="0.15" /><line x1="-50.07164556962023" y1="52.54430379746836" x2="62.46000000000002" y2="165.0759493670886" stroke="#999" stroke-width="0.15" /><line x1="-46.23164556962023" y1="52.54430379746836" x2="66.30000000000003" y2="165.0759493670886" stroke="#999" stroke-width="0.15" /><line x1="-42.39164556962022" y1="52.54430379746836" x2="70.14000000000003" y2="165.0759493670886" stroke="#999" stroke-width="0.15" /><line x1="-38.55164556962022" y1="52.54430379746836" x2="73.98000000000003" y2="165.0759493670886" stroke="#999" stroke-width="0.15" /><line x1="-34.71164556962022" y1="52.54430379746836" x2="77.82000000000004" y2="165.0759493670886" stroke="#999" stroke-width="0.15" /><line x1="-30.871645569620217" y1="52.54430379746836" x2="81.66000000000004" y2="165.0759493670886" stroke="#999" stroke-width="0.15" /><line x1="-27.031645569620217" y1="52.54430379746836" x2="85.50000000000003" y2="165.0759493670886" stroke="#999" stroke-width="0.15" /><line x1="-23.191645569620217" y1="52.54430379746836" x2="89.34000000000003" y2="165.0759493670886" stroke="#999" stroke-width="0.15" /><line x1="-19.351645569620217" y1="52.54430379746836" x2="93.18000000000004" y2="165.0759493670886" stroke="#999" stroke-width="0.15" /><line x1="-15.511645569620217" y1="52.54430379746836" x2="97.02000000000004" y2="165.0759493670886" stroke="#999" stroke-width="0.15" /><line x1="-11.671645569620217" y1="52.54430379746836" x2="100.86000000000004" y2="165.0759493670886" stroke="#999" stroke-width="0.15" /><line x1="-7.831645569620218" y1="52.54430379746836" x2="104.70000000000003" y2="165.0759493670886" stroke="#999" stroke-width="0.15" /><line x1="-3.9916455696202178" y1="52.54430379746836" x2="108.54000000000003" y2="165.0759493670886" stroke="#999" stroke-width="0.15" /><line x1="-0.1516455696202179" y1="52.54430379746836" x2="112.38000000000004" y2="165.0759493670886" stroke="#999" stroke-width="0.15" /><line x1="3.688354430379782" y1="52.54430379746836" x2="116.22000000000003" y2="165.0759493670886" stroke="#999" stroke-width="0.15" /><line x1="7.528354430379782" y1="52.54430379746836" x2="120.06000000000003" y2="165.0759493670886" stroke="#999" stroke-width="0.15" /><line x1="11.368354430379782" y1="52.54430379746836" x2="123.90000000000003" y2="165.0759493670886" stroke="#999" stroke-width="0.15" /><line x1="15.208354430379782" y1="52.54430379746836" x2="127.74000000000004" y2="165.0759493670886" stroke="#999" stroke-width="0.15" /><line x1="19.04835443037978" y1="52.54430379746836" x2="131.58000000000004" y2="165.0759493670886" stroke="#999" stroke-width="0.15" /><line x1="22.88835443037978" y1="52.54430379746836" x2="135.42000000000004" y2="165.0759493670886" stroke="#999" stroke-width="0.15" /><line x1="26.72835443037978" y1="52.54430379746836" x2="139.26000000000005" y2="165.0759493670886" stroke="#999" stroke-width="0.15" /><line x1="30.56835443037978" y1="52.54430379746836" x2="143.10000000000002" y2="165.0759493670886" stroke="#999" stroke-width="0.15" /><line x1="34.40835443037978" y1="52.54430379746836" x2="146.94000000000003" y2="165.0759493670886" stroke="#999" stroke-width="0.15" /><line x1="38.24835443037978" y1="52.54430379746836" x2="150.78000000000003" y2="165.0759493670886" stroke="#999" stroke-width="0.15" /><line x1="42.08835443037978" y1="52.54430379746836" x2="154.62000000000003" y2="165.0759493670886" stroke="#999" stroke-width="0.15" /><line x1="45.928354430379784" y1="52.54430379746836" x2="158.46000000000004" y2="165.0759493670886" stroke="#999" stroke-width="0.15" /><line x1="49.76835443037979" y1="52.54430379746836" x2="162.30000000000004" y2="165.0759493670886" stroke="#999" stroke-width="0.15" /><line x1="53.60835443037979" y1="52.54430379746836" x2="166.14000000000004" y2="165.0759493670886" stroke="#999" stroke-width="0.15" /><line x1="57.448354430379794" y1="52.54430379746836" x2="169.98000000000005" y2="165.0759493670886" stroke="#999" stroke-width="0.15" /><line x1="61.2883544303798" y1="52.54430379746836" x2="173.82000000000005" y2="165.0759493670886" stroke="#999" stroke-width="0.15" /><line x1="65.1283544303798" y1="52.54430379746836" x2="177.66000000000005" y2="165.0759493670886" stroke="#999" stroke-width="0.15" /><line x1="68.9683544303798" y1="52.54430379746836" x2="181.50000000000006" y2="165.0759493670886" stroke="#999" stroke-width="0.15" /><line x1="72.80835443037981" y1="52.54430379746836" x2="185.34000000000006" y2="165.0759493670886" stroke="#999" stroke-width="0.15" /><line x1="76.64835443037981" y1="52.54430379746836" x2="189.18000000000006" y2="165.0759493670886" stroke="#999" stroke-width="0.15" /><line x1="80.48835443037981" y1="52.54430379746836" x2="193.02000000000007" y2="165.0759493670886" stroke="#999" stroke-width="0.15" /><line x1="84.32835443037982" y1="52.54430379746836" x2="196.86000000000007" y2="165.0759493670886" stroke="#999" stroke-width="0.15" /><line x1="88.16835443037982" y1="52.54430379746836" x2="200.70000000000007" y2="165.0759493670886" stroke="#999" stroke-width="0.15" /><line x1="92.00835443037982" y1="52.54430379746836" x2="204.54000000000008" y2="165.0759493670886" stroke="#999" stroke-width="0.15" /><line x1="95.84835443037983" y1="52.54430379746836" x2="208.38000000000008" y2="165.0759493670886" stroke="#999" stroke-width="0.15" /><line x1="99.68835443037983" y1="52.54430379746836" x2="212.22000000000008" y2="165.0759493670886" stroke="#999" stroke-width="0.15" /><line x1="103.52835443037984" y1="52.54430379746836" x2="216.0600000000001" y2="165.0759493670886" stroke="#999" stroke-width="0.15" /><line x1="107.36835443037984" y1="52.54430379746836" x2="219.9000000000001" y2="165.0759493670886" stroke="#999" stroke-width="0.15" /><line x1="111.20835443037984" y1="52.54430379746836" x2="223.7400000000001" y2="165.0759493670886" stroke="#999" stroke-width="0.15" /><line x1="115.04835443037985" y1="52.54430379746836" x2="227.5800000000001" y2="165.0759493670886" stroke="#999" stroke-width="0.15" /><line x1="118.88835443037985" y1="52.54430379746836" x2="231.4200000000001" y2="165.0759493670886" stroke="#999" stroke-width="0.15" /><line x1="122.72835443037985" y1="52.54430379746836" x2="235.2600000000001" y2="165.0759493670886" stroke="#999" stroke-width="0.15" /><line x1="126.56835443037986" y1="52.54430379746836" x2="239.1000000000001" y2="165.0759493670886" stroke="#999" stroke-width="0.15" /><line x1="130.40835443037986" y1="52.54430379746836" x2="242.9400000000001" y2="165.0759493670886" stroke="#999" stroke-width="0.15" /><line x1="134.24835443037986" y1="52.54430379746836" x2="246.78000000000011" y2="165.0759493670886" stroke="#999" stroke-width="0.15" /><line x1="138.08835443037987" y1="52.54430379746836" x2="250.62000000000012" y2="165.0759493670886" stroke="#999" stroke-width="0.15" /><line x1="141.92835443037987" y1="52.54430379746836" x2="254.46000000000012" y2="165.0759493670886" stroke="#999" stroke-width="0.15" /><line x1="145.76835443037987" y1="52.54430379746836" x2="258.3000000000001" y2="165.0759493670886" stroke="#999" stroke-width="0.15" /><line x1="149.60835443037988" y1="52.54430379746836" x2="262.1400000000001" y2="165.0759493670886" stroke="#999" stroke-width="0.15" /><line x1="153.44835443037988" y1="52.54430379746836" x2="265.98000000000013" y2="165.0759493670886" stroke="#999" stroke-width="0.15" /><line x1="157.28835443037988" y1="52.54430379746836" x2="269.82000000000016" y2="165.0759493670886" stroke="#999" stroke-width="0.15" /><line x1="161.1283544303799" y1="52.54430379746836" x2="273.66000000000014" y2="165.0759493670886" stroke="#999" stroke-width="0.15" /><line x1="164.9683544303799" y1="52.54430379746836" x2="277.5000000000001" y2="165.0759493670886" stroke="#999" stroke-width="0.15" /><line x1="168.8083544303799" y1="52.54430379746836" x2="281.34000000000015" y2="165.0759493670886" stroke="#999" stroke-width="0.15" /><line x1="172.6483544303799" y1="52.54430379746836" x2="285.1800000000002" y2="165.0759493670886" stroke="#999" stroke-width="0.15" /><line x1="176.4883544303799" y1="52.54430379746836" x2="289.02000000000015" y2="165.0759493670886" stroke="#999" stroke-width="0.15" /><line x1="180.3283544303799" y1="52.54430379746836" x2="292.8600000000001" y2="165.0759493670886" stroke="#999" stroke-width="0.15" /><line x1="184.1683544303799" y1="52.54430379746836" x2="296.70000000000016" y2="165.0759493670886" stroke="#999" stroke-width="0.15" /><line x1="188.0083544303799" y1="52.54430379746836" x2="300.5400000000002" y2="165.0759493670886" stroke="#999" stroke-width="0.15" /><line x1="191.8483544303799" y1="52.54430379746836" x2="304.38000000000017" y2="165.0759493670886" stroke="#999" stroke-width="0.15" /><line x1="195.68835443037992" y1="52.54430379746836" x2="308.22000000000014" y2="165.0759493670886" stroke="#999" stroke-width="0.15" /><line x1="199.52835443037992" y1="52.54430379746836" x2="312.0600000000002" y2="165.0759493670886" stroke="#999" stroke-width="0.15" /><line x1="203.36835443037992" y1="52.54430379746836" x2="315.9000000000002" y2="165.0759493670886" stroke="#999" stroke-width="0.15" /><line x1="207.20835443037993" y1="52.54430379746836" x2="319.7400000000002" y2="165.0759493670886" stroke="#999" stroke-width="0.15" /><line x1="211.04835443037993" y1="52.54430379746836" x2="323.58000000000015" y2="165.0759493670886" stroke="#999" stroke-width="0.15" /><line x1="214.88835443037993" y1="52.54430379746836" x2="327.4200000000002" y2="165.0759493670886" stroke="#999" stroke-width="0.15" /><line x1="218.72835443037994" y1="52.54430379746836" x2="331.2600000000002" y2="165.0759493670886" stroke="#999" stroke-width="0.15" /><line x1="222.56835443037994" y1="52.54430379746836" x2="335.1000000000002" y2="165.0759493670886" stroke="#999" stroke-width="0.15" /><line x1="226.40835443037994" y1="52.54430379746836" x2="338.94000000000017" y2="165.0759493670886" stroke="#999" stroke-width="0.15" /><line x1="230.24835443037995" y1="52.54430379746836" x2="342.7800000000002" y2="165.0759493670886" stroke="#999" stroke-width="0.15" /><line x1="-65.43164556962024" y1="165.0759493670886" x2="47.10000000000001" y2="52.54430379746836" stroke="#999" stroke-width="0.15" /><line x1="-61.59164556962024" y1="165.0759493670886" x2="50.94000000000001" y2="52.54430379746836" stroke="#999" stroke-width="0.15" /><line x1="-57.75164556962024" y1="165.0759493670886" x2="54.780000000000015" y2="52.54430379746836" stroke="#999" stroke-width="0.15" /><line x1="-53.911645569620234" y1="165.0759493670886" x2="58.62000000000002" y2="52.54430379746836" stroke="#999" stroke-width="0.15" /><line x1="-50.07164556962023" y1="165.0759493670886" x2="62.46000000000002" y2="52.54430379746836" stroke="#999" stroke-width="0.15" /><line x1="-46.23164556962023" y1="165.0759493670886" x2="66.30000000000003" y2="52.54430379746836" stroke="#999" stroke-width="0.15" /><line x1="-42.39164556962022" y1="165.0759493670886" x2="70.14000000000003" y2="52.54430379746836" stroke="#999" stroke-width="0.15" /><line x1="-38.55164556962022" y1="165.0759493670886" x2="73.98000000000003" y2="52.54430379746836" stroke="#999" stroke-width="0.15" /><line x1="-34.71164556962022" y1="165.0759493670886" x2="77.82000000000004" y2="52.54430379746836" stroke="#999" stroke-width="0.15" /><line x1="-30.871645569620217" y1="165.0759493670886" x2="81.66000000000004" y2="52.54430379746836" stroke="#999" stroke-width="0.15" /><line x1="-27.031645569620217" y1="165.0759493670886" x2="85.50000000000003" y2="52.54430379746836" stroke="#999" stroke-width="0.15" /><line x1="-23.191645569620217" y1="165.0759493670886" x2="89.34000000000003" y2="52.54430379746836" stroke="#999" stroke-width="0.15" /><line x1="-19.351645569620217" y1="165.0759493670886" x2="93.18000000000004" y2="52.54430379746836" stroke="#999" stroke-width="0.15" /><line x1="-15.511645569620217" y1="165.0759493670886" x2="97.02000000000004" y2="52.54430379746836" stroke="#999" stroke-width="0.15" /><line x1="-11.671645569620217" y1="165.0759493670886" x2="100.86000000000004" y2="52.54430379746836" stroke="#999" stroke-width="0.15" /><line x1="-7.831645569620218" y1="165.0759493670886" x2="104.70000000000003" y2="52.54430379746836" stroke="#999" stroke-width="0.15" /><line x1="-3.9916455696202178" y1="165.0759493670886" x2="108.54000000000003" y2="52.54430379746836" stroke="#999" stroke-width="0.15" /><line x1="-0.1516455696202179" y1="165.0759493670886" x2="112.38000000000004" y2="52.54430379746836" stroke="#999" stroke-width="0.15" /><line x1="3.688354430379782" y1="165.0759493670886" x2="116.22000000000003" y2="52.54430379746836" stroke="#999" stroke-width="0.15" /><line x1="7.528354430379782" y1="165.0759493670886" x2="120.06000000000003" y2="52.54430379746836" stroke="#999" stroke-width="0.15" /><line x1="11.368354430379782" y1="165.0759493670886" x2="123.90000000000003" y2="52.54430379746836" stroke="#999" stroke-width="0.15" /><line x1="15.208354430379782" y1="165.0759493670886" x2="127.74000000000004" y2="52.54430379746836" stroke="#999" stroke-width="0.15" /><line x1="19.04835443037978" y1="165.0759493670886" x2="131.58000000000004" y2="52.54430379746836" stroke="#999" stroke-width="0.15" /><line x1="22.88835443037978" y1="165.0759493670886" x2="135.42000000000004" y2="52.54430379746836" stroke="#999" stroke-width="0.15" /><line x1="26.72835443037978" y1="165.0759493670886" x2="139.26000000000005" y2="52.54430379746836" stroke="#999" stroke-width="0.15" /><line x1="30.56835443037978" y1="165.0759493670886" x2="143.10000000000002" y2="52.54430379746836" stroke="#999" stroke-width="0.15" /><line x1="34.40835443037978" y1="165.0759493670886" x2="146.94000000000003" y2="52.54430379746836" stroke="#999" stroke-width="0.15" /><line x1="38.24835443037978" y1="165.0759493670886" x2="150.78000000000003" y2="52.54430379746836" stroke="#999" stroke-width="0.15" /><line x1="42.08835443037978" y1="165.0759493670886" x2="154.62000000000003" y2="52.54430379746836" stroke="#999" stroke-width="0.15" /><line x1="45.928354430379784" y1="165.0759493670886" x2="158.46000000000004" y2="52.54430379746836" stroke="#999" stroke-width="0.15" /><line x1="49.76835443037979" y1="165.0759493670886" x2="162.30000000000004" y2="52.54430379746836" stroke="#999" stroke-width="0.15" /><line x1="53.60835443037979" y1="165.0759493670886" x2="166.14000000000004" y2="52.54430379746836" stroke="#999" stroke-width="0.15" /><line x1="57.448354430379794" y1="165.0759493670886" x2="169.98000000000005" y2="52.54430379746836" stroke="#999" stroke-width="0.15" /><line x1="61.2883544303798" y1="165.0759493670886" x2="173.82000000000005" y2="52.54430379746836" stroke="#999" stroke-width="0.15" /><line x1="65.1283544303798" y1="165.0759493670886" x2="177.66000000000005" y2="52.54430379746836" stroke="#999" stroke-width="0.15" /><line x1="68.9683544303798" y1="165.0759493670886" x2="181.50000000000006" y2="52.54430379746836" stroke="#999" stroke-width="0.15" /><line x1="72.80835443037981" y1="165.0759493670886" x2="185.34000000000006" y2="52.54430379746836" stroke="#999" stroke-width="0.15" /><line x1="76.64835443037981" y1="165.0759493670886" x2="189.18000000000006" y2="52.54430379746836" stroke="#999" stroke-width="0.15" /><line x1="80.48835443037981" y1="165.0759493670886" x2="193.02000000000007" y2="52.54430379746836" stroke="#999" stroke-width="0.15" /><line x1="84.32835443037982" y1="165.0759493670886" x2="196.86000000000007" y2="52.54430379746836" stroke="#999" stroke-width="0.15" /><line x1="88.16835443037982" y1="165.0759493670886" x2="200.70000000000007" y2="52.54430379746836" stroke="#999" stroke-width="0.15" /><line x1="92.00835443037982" y1="165.0759493670886" x2="204.54000000000008" y2="52.54430379746836" stroke="#999" stroke-width="0.15" /><line x1="95.84835443037983" y1="165.0759493670886" x2="208.38000000000008" y2="52.54430379746836" stroke="#999" stroke-width="0.15" /><line x1="99.68835443037983" y1="165.0759493670886" x2="212.22000000000008" y2="52.54430379746836" stroke="#999" stroke-width="0.15" /><line x1="103.52835443037984" y1="165.0759493670886" x2="216.0600000000001" y2="52.54430379746836" stroke="#999" stroke-width="0.15" /><line x1="107.36835443037984" y1="165.0759493670886" x2="219.9000000000001" y2="52.54430379746836" stroke="#999" stroke-width="0.15" /><line x1="111.20835443037984" y1="165.0759493670886" x2="223.7400000000001" y2="52.54430379746836" stroke="#999" stroke-width="0.15" /><line x1="115.04835443037985" y1="165.0759493670886" x2="227.5800000000001" y2="52.54430379746836" stroke="#999" stroke-width="0.15" /><line x1="118.88835443037985" y1="165.0759493670886" x2="231.4200000000001" y2="52.54430379746836" stroke="#999" stroke-width="0.15" /><line x1="122.72835443037985" y1="165.0759493670886" x2="235.2600000000001" y2="52.54430379746836" stroke="#999" stroke-width="0.15" /><line x1="126.56835443037986" y1="165.0759493670886" x2="239.1000000000001" y2="52.54430379746836" stroke="#999" stroke-width="0.15" /><line x1="130.40835443037986" y1="165.0759493670886" x2="242.9400000000001" y2="52.54430379746836" stroke="#999" stroke-width="0.15" /><line x1="134.24835443037986" y1="165.0759493670886" x2="246.78000000000011" y2="52.54430379746836" stroke="#999" stroke-width="0.15" /><line x1="138.08835443037987" y1="165.0759493670886" x2="250.62000000000012" y2="52.54430379746836" stroke="#999" stroke-width="0.15" /><line x1="141.92835443037987" y1="165.0759493670886" x2="254.46000000000012" y2="52.54430379746836" stroke="#999" stroke-width="0.15" /><line x1="145.76835443037987" y1="165.0759493670886" x2="258.3000000000001" y2="52.54430379746836" stroke="#999" stroke-width="0.15" /><line x1="149.60835443037988" y1="165.0759493670886" x2="262.1400000000001" y2="52.54430379746836" stroke="#999" stroke-width="0.15" /><line x1="153.44835443037988" y1="165.0759493670886" x2="265.98000000000013" y2="52.54430379746836" stroke="#999" stroke-width="0.15" /><line x1="157.28835443037988" y1="165.0759493670886" x2="269.82000000000016" y2="52.54430379746836" stroke="#999" stroke-width="0.15" /><line x1="161.1283544303799" y1="165.0759493670886" x2="273.66000000000014" y2="52.54430379746836" stroke="#999" stroke-width="0.15" /><line x1="164.9683544303799" y1="165.0759493670886" x2="277.5000000000001" y2="52.54430379746836" stroke="#999" stroke-width="0.15" /><line x1="168.8083544303799" y1="165.0759493670886" x2="281.34000000000015" y2="52.54430379746836" stroke="#999" stroke-width="0.15" /><line x1="172.6483544303799" y1="165.0759493670886" x2="285.1800000000002" y2="52.54430379746836" stroke="#999" stroke-width="0.15" /><line x1="176.4883544303799" y1="165.0759493670886" x2="289.02000000000015" y2="52.54430379746836" stroke="#999" stroke-width="0.15" /><line x1="180.3283544303799" y1="165.0759493670886" x2="292.8600000000001" y2="52.54430379746836" stroke="#999" stroke-width="0.15" /><line x1="184.1683544303799" y1="165.0759493670886" x2="296.70000000000016" y2="52.54430379746836" stroke="#999" stroke-width="0.15" /><line x1="188.0083544303799" y1="165.0759493670886" x2="300.5400000000002" y2="52.54430379746836" stroke="#999" stroke-width="0.15" /><line x1="191.8483544303799" y1="165.0759493670886" x2="304.38000000000017" y2="52.54430379746836" stroke="#999" stroke-width="0.15" /><line x1="195.68835443037992" y1="165.0759493670886" x2="308.22000000000014" y2="52.54430379746836" stroke="#999" stroke-width="0.15" /><line x1="199.52835443037992" y1="165.0759493670886" x2="312.0600000000002" y2="52.54430379746836" stroke="#999" stroke-width="0.15" /><line x1="203.36835443037992" y1="165.0759493670886" x2="315.9000000000002" y2="52.54430379746836" stroke="#999" stroke-width="0.15" /><line x1="207.20835443037993" y1="165.0759493670886" x2="319.7400000000002" y2="52.54430379746836" stroke="#999" stroke-width="0.15" /><line x1="211.04835443037993" y1="165.0759493670886" x2="323.58000000000015" y2="52.54430379746836" stroke="#999" stroke-width="0.15" /><line x1="214.88835443037993" y1="165.0759493670886" x2="327.4200000000002" y2="52.54430379746836" stroke="#999" stroke-width="0.15" /><line x1="218.72835443037994" y1="165.0759493670886" x2="331.2600000000002" y2="52.54430379746836" stroke="#999" stroke-width="0.15" /><line x1="222.56835443037994" y1="165.0759493670886" x2="335.1000000000002" y2="52.54430379746836" stroke="#999" stroke-width="0.15" /><line x1="226.40835443037994" y1="165.0759493670886" x2="338.94000000000017" y2="52.54430379746836" stroke="#999" stroke-width="0.15" /><line x1="230.24835443037995" y1="165.0759493670886" x2="342.7800000000002" y2="52.54430379746836" stroke="#999" stroke-width="0.15" /></g><text x="48" y="108.81012658227849" font-family="SimHei, Heiti SC, sans-serif" font-size="2.2" font-weight="normal" text-anchor="start" fill="#222" data-cdr-type="formation-text">灯影组</text><text x="66" y="108.81012658227849" font-family="SimHei, Heiti SC, sans-serif" font-size="2.2" font-weight="bold" text-anchor="start" fill="#000" data-cdr-type="symbol-text">Z₂dy</text><text x="80.5" y="108.81012658227849" font-family="SimHei, Heiti SC, sans-serif" font-size="3.5" font-weight="normal" text-anchor="middle" fill="#333" data-cdr-type="fossil-icon" data-cdr-fossil="stromatolite">🫧</text><polygon points="125.5,52.54430379746836 129.5,52.54430379746836 129.5,165.0759493670886 125.5,165.0759493670886" fill="#aaa" opacity="0.5" data-cdr-type="grain-triangle" /><text x="131.5" y="108.81012658227849" font-family="SimHei, Heiti SC, sans-serif" font-size="1.8" font-weight="normal" text-anchor="middle" fill="#999" data-cdr-type="grain-label">粉砂</text><text x="140" y="108.81012658227849" font-family="SimHei, Heiti SC, sans-serif" font-size="2.2" font-weight="normal" text-anchor="start" fill="#222" data-cdr-type="thickness-text">350.0</text><text x="150" y="108.81012658227849" font-family="SimHei, Heiti SC, sans-serif" font-size="2" font-weight="normal" text-anchor="start" fill="#333" data-cdr-type="description-text">灰白色厚层白云岩</text><text x="123.0" y="108.81012658227849" font-family="SimHei, Heiti SC, sans-serif" font-size="1.8" font-weight="normal" text-anchor="start" fill="#e67e22" data-cdr-type="age-ma">551</text></g><line x1="8" y1="165.0759493670886" x2="214" y2="165.0759493670886" stroke="#bbb" stroke-width="0.12" data-cdr-type="row-separator" /><g id="layer_4" data-cdr-type="layer" data-cdr-name="水井沱组" data-cdr-pattern="carbShale" data-cdr-thickness="95" data-cdr-color="#595450" data-cdr-index="4"><rect x="84.3" y="22.000000000000007" width="37.2" height="30.544303797468352" fill="#595450" stroke="#555" stroke-width="0.15" data-cdr-type="lithology-rect" /><g clip-path="url(#clip_4)"><line x1="84.6" y1="22.672000000000008" x2="121.2" y2="22.672000000000008" stroke="#eee" stroke-width="0.18" /><line x1="84.6" y1="24.912000000000006" x2="121.2" y2="24.912000000000006" stroke="#eee" stroke-width="0.18" /><line x1="84.6" y1="27.152000000000005" x2="121.2" y2="27.152000000000005" stroke="#eee" stroke-width="0.18" /><line x1="84.6" y1="29.392000000000003" x2="121.2" y2="29.392000000000003" stroke="#eee" stroke-width="0.18" /><line x1="84.6" y1="31.632" x2="121.2" y2="31.632" stroke="#eee" stroke-width="0.18" /><line x1="84.6" y1="33.872" x2="121.2" y2="33.872" stroke="#eee" stroke-width="0.18" /><line x1="84.6" y1="36.112" x2="121.2" y2="36.112" stroke="#eee" stroke-width="0.18" /><line x1="84.6" y1="38.352000000000004" x2="121.2" y2="38.352000000000004" stroke="#eee" stroke-width="0.18" /><line x1="84.6" y1="40.592000000000006" x2="121.2" y2="40.592000000000006" stroke="#eee" stroke-width="0.18" /><line x1="84.6" y1="42.83200000000001" x2="121.2" y2="42.83200000000001" stroke="#eee" stroke-width="0.18" /><line x1="84.6" y1="45.07200000000001" x2="121.2" y2="45.07200000000001" stroke="#eee" stroke-width="0.18" /><line x1="84.6" y1="47.31200000000001" x2="121.2" y2="47.31200000000001" stroke="#eee" stroke-width="0.18" /><line x1="84.6" y1="49.552000000000014" x2="121.2" y2="49.552000000000014" stroke="#eee" stroke-width="0.18" /><line x1="84.6" y1="51.792000000000016" x2="121.2" y2="51.792000000000016" stroke="#eee" stroke-width="0.18" /></g><text x="48" y="37.27215189873418" font-family="SimHei, Heiti SC, sans-serif" font-size="2.2" font-weight="normal" text-anchor="start" fill="#222" data-cdr-type="formation-text">水井沱组</text><text x="66" y="37.27215189873418" font-family="SimHei, Heiti SC, sans-serif" font-size="2.2" font-weight="bold" text-anchor="start" fill="#000" data-cdr-type="symbol-text">∈₁s</text><text x="80.5" y="35.52215189873418" font-family="SimHei, Heiti SC, sans-serif" font-size="3.5" font-weight="normal" text-anchor="middle" fill="#333" data-cdr-type="fossil-icon" data-cdr-fossil="trilobite">🦞</text><text x="80.5" y="39.02215189873418" font-family="SimHei, Heiti SC, sans-serif" font-size="3.5" font-weight="normal" text-anchor="middle" fill="#333" data-cdr-type="fossil-icon" data-cdr-fossil="brachiopod">🦪</text><polygon points="125.5,22.000000000000007 127.5,22.000000000000007 127.5,52.54430379746836 125.5,52.54430379746836" fill="#aaa" opacity="0.5" data-cdr-type="grain-triangle" /><text x="131.5" y="37.27215189873418" font-family="SimHei, Heiti SC, sans-serif" font-size="1.8" font-weight="normal" text-anchor="middle" fill="#999" data-cdr-type="grain-label">粘土</text><text x="140" y="37.27215189873418" font-family="SimHei, Heiti SC, sans-serif" font-size="2.2" font-weight="normal" text-anchor="start" fill="#222" data-cdr-type="thickness-text">95.0</text><text x="150" y="37.27215189873418" font-family="SimHei, Heiti SC, sans-serif" font-size="2" font-weight="normal" text-anchor="start" fill="#333" data-cdr-type="description-text">黑色炭质页岩</text><text x="123.0" y="37.27215189873418" font-family="SimHei, Heiti SC, sans-serif" font-size="1.8" font-weight="normal" text-anchor="start" fill="#e67e22" data-cdr-type="age-ma">541</text></g><line x1="8" y1="52.54430379746836" x2="214" y2="52.54430379746836" stroke="#bbb" stroke-width="0.12" data-cdr-type="row-separator" /><line x1="8" y1="276" x2="214" y2="276" stroke="#000" stroke-width="0.35" data-cdr-type="erathem-boundary" /><line x1="8" y1="52.54430379746836" x2="214" y2="52.54430379746836" stroke="#000" stroke-width="0.35" data-cdr-type="erathem-boundary" /><line x1="21" y1="276" x2="214" y2="276" stroke="#555" stroke-width="0.22" data-cdr-type="system-boundary" /><line x1="21" y1="222.9493670886076" x2="214" y2="222.9493670886076" stroke="#555" stroke-width="0.22" data-cdr-type="system-boundary" /><line x1="21" y1="52.54430379746836" x2="214" y2="52.54430379746836" stroke="#555" stroke-width="0.22" data-cdr-type="system-boundary" /></g><g id="cdr-outlines" inkscape:groupmode="layer" inkscape:label="Outlines" data-cdr-layer="outlines"><line x1="8" y1="22" x2="214" y2="22" stroke="#000" stroke-width="0.4" data-cdr-type="table-bottom" /><line x1="8" y1="22" x2="8" y2="290" stroke="#000" stroke-width="0.4" data-cdr-type="table-left" /><line x1="214" y1="22" x2="214" y2="290" stroke="#000" stroke-width="0.4" data-cdr-type="table-right" /><line x1="8" y1="290" x2="214" y2="290" stroke="#000" stroke-width="0.4" data-cdr-type="table-top" /></g><g id="cdr-footer" inkscape:groupmode="layer" inkscape:label="Footer" data-cdr-layer="footer"><text x="8" y="17" font-family="SimHei, Heiti SC, sans-serif" font-size="2" font-weight="normal" text-anchor="start" fill="#666" data-cdr-type="footer-text">秭归地区综合地层柱状图  |  总厚 790m  |  5 层  |  比例尺 1:3,110</text></g><g id="cdr-legend" inkscape:groupmode="layer" inkscape:label="Legend" data-cdr-layer="legend"><rect x="218" y="238.0" width="38" height="38.0" fill="#fff" stroke="#666" stroke-width="0.25" data-cdr-type="legend-box" /><text x="237.0" y="243.5" font-family="SimHei, Heiti SC, sans-serif" font-size="2.5" font-weight="bold" text-anchor="middle" fill="#000" data-cdr-type="legend-title">图  例</text><line x1="221" y1="246.0" x2="253" y2="246.0" stroke="#ccc" stroke-width="0.15" data-cdr-type="legend-separator" /><rect x="222" y="244.5" width="6" height="6" fill="#e589a0" stroke="#888" stroke-width="0.12" data-cdr-type="legend-swatch" /><g clip-path="url(#lgclip_0)"><circle cx="223.12" cy="245.62" r="0.35" fill="#555" /><circle cx="223.12" cy="247.86" r="0.35" fill="#555" /><circle cx="223.12" cy="250.10000000000002" r="0.35" fill="#555" /><circle cx="225.36" cy="245.62" r="0.35" fill="#555" /><circle cx="225.36" cy="247.86" r="0.35" fill="#555" /><circle cx="225.36" cy="250.10000000000002" r="0.35" fill="#555" /><circle cx="227.60000000000002" cy="245.62" r="0.35" fill="#555" /><circle cx="227.60000000000002" cy="247.86" r="0.35" fill="#555" /><circle cx="227.60000000000002" cy="250.10000000000002" r="0.35" fill="#555" /></g><text x="231" y="247.5" font-family="SimHei, Heiti SC, sans-serif" font-size="2" font-weight="normal" text-anchor="start" fill="#333" data-cdr-type="legend-label">莲沱组</text><rect x="222" y="251.5" width="6" height="6" fill="#adcca3" stroke="#888" stroke-width="0.12" data-cdr-type="legend-swatch" /><g clip-path="url(#lgclip_1)"><circle cx="226.032" cy="255.532" r="1.5" fill="none" stroke="#000" stroke-width="0.2" /></g><text x="231" y="254.5" font-family="SimHei, Heiti SC, sans-serif" font-size="2" font-weight="normal" text-anchor="start" fill="#333" data-cdr-type="legend-label">南沱组</text><rect x="222" y="258.5" width="6" height="6" fill="#a9b2a0" stroke="#888" stroke-width="0.12" data-cdr-type="legend-swatch" /><g clip-path="url(#lgclip_2)"><line x1="210" y1="258.5" x2="216" y2="264.5" stroke="#999" stroke-width="0.15" /><line x1="213.84" y1="258.5" x2="219.84" y2="264.5" stroke="#999" stroke-width="0.15" /><line x1="217.68" y1="258.5" x2="223.68" y2="264.5" stroke="#999" stroke-width="0.15" /><line x1="221.52" y1="258.5" x2="227.52" y2="264.5" stroke="#999" stroke-width="0.15" /><line x1="225.36" y1="258.5" x2="231.36" y2="264.5" stroke="#999" stroke-width="0.15" /><line x1="229.20000000000002" y1="258.5" x2="235.20000000000002" y2="264.5" stroke="#999" stroke-width="0.15" /><line x1="233.04000000000002" y1="258.5" x2="239.04000000000002" y2="264.5" stroke="#999" stroke-width="0.15" /><line x1="210" y1="264.5" x2="216" y2="258.5" stroke="#999" stroke-width="0.15" /><line x1="213.84" y1="264.5" x2="219.84" y2="258.5" stroke="#999" stroke-width="0.15" /><line x1="217.68" y1="264.5" x2="223.68" y2="258.5" stroke="#999" stroke-width="0.15" /><line x1="221.52" y1="264.5" x2="227.52" y2="258.5" stroke="#999" stroke-width="0.15" /><line x1="225.36" y1="264.5" x2="231.36" y2="258.5" stroke="#999" stroke-width="0.15" /><line x1="229.20000000000002" y1="264.5" x2="235.20000000000002" y2="258.5" stroke="#999" stroke-width="0.15" /><line x1="233.04000000000002" y1="264.5" x2="239.04000000000002" y2="258.5" stroke="#999" stroke-width="0.15" /></g><text x="231" y="261.5" font-family="SimHei, Heiti SC, sans-serif" font-size="2" font-weight="normal" text-anchor="start" fill="#333" data-cdr-type="legend-label">陡山沱组</text><rect x="222" y="265.5" width="6" height="6" fill="#595450" stroke="#888" stroke-width="0.12" data-cdr-type="legend-swatch" /><g clip-path="url(#lgclip_3)"><line x1="222.3" y1="266.172" x2="227.7" y2="266.172" stroke="#eee" stroke-width="0.18" /><line x1="222.3" y1="268.41200000000003" x2="227.7" y2="268.41200000000003" stroke="#eee" stroke-width="0.18" /><line x1="222.3" y1="270.65200000000004" x2="227.7" y2="270.65200000000004" stroke="#eee" stroke-width="0.18" /></g><text x="231" y="268.5" font-family="SimHei, Heiti SC, sans-serif" font-size="2" font-weight="normal" text-anchor="start" fill="#333" data-cdr-type="legend-label">水井沱组</text></g></svg>